<?xml version="1.0" encoding="UTF-8" ?>
<!DOCTYPE svg PUBLIC "-//W3C//DTD SVG 1.1//EN" "http://www.w3.org/Graphics/SVG/1.1/DTD/svg11.dtd">
<svg width="840pt" height="880pt" viewBox="0 0 840 880" version="1.1" xmlns="http://www.w3.org/2000/svg">
<g id="#fafafaff">
<path fill="#fafafa" opacity="1.00" d=" M 388.61 79.45 C 390.73 79.29 392.81 78.74 394.95 78.66 C 410.64 78.20 426.33 78.17 442.02 78.58 C 462.12 80.06 482.20 82.64 501.83 87.39 C 580.59 105.29 652.51 150.98 702.78 214.13 C 726.32 243.48 745.17 276.58 758.54 311.76 C 771.22 345.12 778.77 380.42 781.23 415.99 C 782.21 440.02 782.14 464.20 778.75 488.04 C 769.06 562.37 735.27 633.27 683.77 687.71 C 635.09 739.79 570.63 777.06 501.04 792.74 C 482.97 797.01 464.52 799.75 446.01 800.98 C 431.39 802.15 416.66 801.70 402.01 801.52 C 367.63 799.82 333.45 793.22 300.93 781.86 C 228.74 756.89 165.10 708.19 121.88 645.23 C 88.26 596.69 66.89 539.73 60.36 481.05 C 59.48 475.06 59.50 468.99 58.63 463.00 C 58.17 447.87 58.03 432.71 58.68 417.58 C 59.69 412.43 59.21 407.16 59.99 401.99 C 62.96 373.73 69.27 345.80 78.76 319.02 C 98.10 264.42 130.83 214.61 173.28 175.23 C 231.66 120.44 308.78 85.91 388.61 79.45 M 628.35 210.31 C 571.60 260.78 517.75 314.52 467.01 371.02 C 414.76 429.63 365.72 491.42 324.31 558.23 C 323.39 559.55 322.30 560.73 321.12 561.82 C 319.11 558.60 316.33 555.97 313.97 553.01 C 272.14 504.95 226.57 459.96 176.44 420.57 C 175.32 419.67 173.20 418.37 172.14 420.02 C 159.23 437.70 145.83 455.03 132.15 472.12 C 119.89 487.14 107.57 502.18 94.07 516.12 C 93.09 517.49 92.15 518.95 90.53 519.64 C 92.29 520.41 93.86 521.54 95.24 522.88 C 122.54 544.70 148.84 567.77 174.49 591.49 C 228.28 641.07 278.71 694.28 325.27 750.69 C 327.28 753.88 330.66 756.06 332.07 759.63 C 332.37 758.02 333.20 756.64 334.38 755.54 C 366.77 707.00 400.96 659.64 436.33 613.22 C 480.59 555.33 526.96 498.98 576.52 445.53 C 597.31 422.99 619.12 401.42 641.09 380.04 C 668.05 354.84 695.89 330.47 725.76 308.75 C 705.93 284.65 687.87 259.02 671.65 232.33 C 663.50 219.20 656.52 205.39 649.34 191.71 C 642.65 198.23 635.16 203.90 628.35 210.31 Z" />
</g>
<g id="#0dbe00ff">
<path fill="#0dbe00" opacity="1.00" d=" M 389.18 40.71 C 398.46 40.84 407.74 40.44 416.99 39.81 C 435.39 40.31 453.82 41.04 472.08 43.52 C 548.86 53.29 622.47 86.35 680.96 137.03 C 751.73 197.61 800.22 283.75 814.66 375.84 C 818.46 398.02 819.63 420.55 820.12 443.01 C 819.15 452.17 819.86 461.42 818.65 470.55 C 813.70 539.00 790.40 605.99 752.02 662.87 C 718.09 713.20 672.71 755.79 620.18 786.22 C 568.28 816.31 509.48 834.55 449.62 838.69 C 440.80 839.88 431.86 839.17 423.01 840.12 C 387.80 839.62 352.43 836.04 318.37 826.77 C 252.67 809.73 191.63 775.30 142.80 728.20 C 90.24 677.82 51.79 612.77 33.38 542.29 C 23.91 507.70 20.25 471.77 19.84 435.99 C 20.68 421.68 20.94 407.33 22.90 393.10 C 30.30 327.70 54.60 264.32 92.49 210.52 C 115.20 178.19 142.63 149.17 173.81 124.90 C 228.92 81.59 295.71 53.15 365.22 43.90 C 373.78 42.94 382.30 41.45 390.94 41.35 C 390.35 41.13 389.76 40.92 389.18 40.71 M 388.61 79.45 C 308.78 85.91 231.66 120.44 173.28 175.23 C 130.83 214.61 98.10 264.42 78.76 319.02 C 69.27 345.80 62.96 373.73 59.99 401.99 C 59.21 407.16 59.69 412.43 58.68 417.58 C 58.03 432.71 58.17 447.87 58.63 463.00 C 59.50 468.99 59.48 475.06 60.36 481.05 C 66.89 539.73 88.26 596.69 121.88 645.23 C 165.10 708.19 228.74 756.89 300.93 781.86 C 333.45 793.22 367.63 799.82 402.01 801.52 C 416.66 801.70 431.39 802.15 446.01 800.98 C 464.52 799.75 482.97 797.01 501.04 792.74 C 570.63 777.06 635.09 739.79 683.77 687.71 C 735.27 633.27 769.06 562.37 778.75 488.04 C 782.14 464.20 782.21 440.02 781.23 415.99 C 778.77 380.42 771.22 345.12 758.54 311.76 C 745.17 276.58 726.32 243.48 702.78 214.13 C 652.51 150.98 580.59 105.29 501.83 87.39 C 482.20 82.64 462.12 80.06 442.02 78.58 C 426.33 78.17 410.64 78.20 394.95 78.66 C 392.81 78.74 390.73 79.29 388.61 79.45 Z" />
<path fill="#0dbe00" opacity="1.00" d=" M 628.35 210.31 C 635.16 203.90 642.65 198.23 649.34 191.71 C 656.52 205.39 663.50 219.20 671.65 232.33 C 687.87 259.02 705.93 284.65 725.76 308.75 C 695.89 330.47 668.05 354.84 641.09 380.04 C 619.12 401.42 597.31 422.99 576.52 445.53 C 526.96 498.98 480.59 555.33 436.33 613.22 C 400.96 659.64 366.77 707.00 334.38 755.54 C 333.20 756.64 332.37 758.02 332.07 759.63 C 330.66 756.06 327.28 753.88 325.27 750.69 C 278.71 694.28 228.28 641.07 174.49 591.49 C 148.84 567.77 122.54 544.70 95.24 522.88 C 93.86 521.54 92.29 520.41 90.53 519.64 C 92.15 518.95 93.09 517.49 94.07 516.12 C 107.57 502.18 119.89 487.14 132.15 472.12 C 145.83 455.03 159.23 437.70 172.14 420.02 C 173.20 418.37 175.32 419.67 176.44 420.57 C 226.57 459.96 272.14 504.95 313.97 553.01 C 316.33 555.97 319.11 558.60 321.12 561.82 C 322.30 560.73 323.39 559.55 324.31 558.23 C 365.72 491.42 414.76 429.63 467.01 371.02 C 517.75 314.52 571.60 260.78 628.35 210.31 Z" />
</g>
</svg>
