<?xml version="1.0" encoding="UTF-8" ?>
<!DOCTYPE svg PUBLIC "-//W3C//DTD SVG 1.1//EN" "http://www.w3.org/Graphics/SVG/1.1/DTD/svg11.dtd">
<svg width="800pt" height="800pt" viewBox="0 0 800 800" version="1.1" xmlns="http://www.w3.org/2000/svg">
<g id="#ffffffff">
</g>
<g id="#232323ff">
<path fill="#232323" opacity="1.00" d=" M 239.85 183.34 C 337.00 183.39 434.16 183.26 531.31 183.40 C 531.27 268.37 531.22 353.35 531.34 438.33 C 527.31 438.34 523.29 438.30 519.26 438.39 C 519.21 404.79 519.21 371.19 519.23 337.58 C 452.79 337.53 386.34 337.62 319.89 337.54 C 319.78 298.38 319.89 259.22 319.84 220.07 C 319.65 218.66 319.87 216.36 321.93 216.85 C 387.70 216.79 453.48 216.97 519.26 216.76 C 519.18 209.67 519.21 202.58 519.23 195.49 C 430.22 195.38 341.21 195.53 252.20 195.42 C 252.02 260.94 252.20 326.47 252.11 392.00 C 251.93 394.97 251.47 397.97 252.03 400.94 C 252.13 402.97 252.13 405.02 252.03 407.07 C 251.44 410.35 252.07 413.66 252.13 416.95 C 252.12 462.84 252.13 508.72 252.12 554.61 C 290.02 554.57 327.91 554.62 365.80 554.59 C 365.85 558.63 365.84 562.68 365.79 566.72 C 323.79 566.60 281.80 566.80 239.81 566.63 C 239.82 438.87 239.73 311.10 239.85 183.34 M 332.19 229.17 C 332.13 261.26 332.21 293.35 332.15 325.44 C 394.36 325.44 456.57 325.49 518.78 325.42 C 518.78 293.33 518.83 261.25 518.76 229.16 C 456.57 229.24 394.38 229.21 332.19 229.17 Z" />
<path fill="#232323" opacity="1.00" d=" M 560.41 223.54 C 564.45 223.55 568.50 223.51 572.55 223.57 C 572.56 227.45 572.59 231.33 572.44 235.22 C 568.45 234.84 564.44 234.94 560.44 235.14 C 560.44 231.27 560.45 227.40 560.41 223.54 Z" />
<path fill="#232323" opacity="1.00" d=" M 359.50 276.68 C 370.92 264.96 382.65 253.53 394.16 241.89 C 406.29 253.43 417.77 265.65 429.89 277.22 C 417.97 289.12 406.19 301.18 394.08 312.90 C 382.65 301.05 370.78 289.64 359.28 277.87 C 359.33 277.57 359.44 276.98 359.50 276.68 M 387.62 265.56 C 383.72 269.45 379.85 273.36 375.89 277.19 C 381.78 283.58 388.26 289.41 394.13 295.82 C 400.42 289.73 406.54 283.48 412.71 277.27 C 406.61 271.34 400.45 265.44 394.74 259.14 C 391.93 260.76 389.90 263.32 387.62 265.56 Z" />
<path fill="#232323" opacity="1.00" d=" M 432.29 243.21 C 446.10 243.27 459.92 243.13 473.73 243.28 C 473.75 266.04 473.69 288.80 473.76 311.56 C 459.41 311.49 445.06 311.58 430.70 311.51 C 430.70 307.50 430.70 303.49 430.68 299.49 C 440.99 299.40 451.30 299.43 461.61 299.47 C 461.64 284.77 461.62 270.07 461.62 255.37 C 451.85 255.27 442.07 255.39 432.30 255.32 C 432.34 251.28 432.38 247.24 432.29 243.21 Z" />
<path fill="#232323" opacity="1.00" d=" M 167.33 245.31 C 180.28 245.30 193.24 245.21 206.19 245.37 C 206.06 298.25 206.20 351.12 206.13 403.99 C 205.86 413.39 206.74 422.86 205.55 432.21 C 201.47 450.51 196.98 468.73 192.90 487.03 C 192.35 489.12 191.90 491.64 189.82 492.79 C 186.44 495.12 181.20 493.13 180.58 488.96 C 176.46 471.68 172.56 454.34 168.47 437.06 C 166.85 431.19 167.41 425.07 167.33 419.06 C 167.27 361.14 167.29 303.23 167.33 245.31 M 179.45 257.41 C 179.42 267.53 179.44 277.64 179.44 287.76 C 184.24 287.71 189.04 287.71 193.84 287.76 C 193.79 277.64 193.89 267.52 193.79 257.39 C 189.01 257.39 184.23 257.41 179.45 257.41 M 179.44 372.49 C 184.22 372.44 189.00 372.44 193.78 372.48 C 193.81 348.23 193.97 323.98 193.71 299.73 C 188.98 299.84 184.24 299.85 179.51 299.79 C 179.33 324.02 179.49 348.26 179.44 372.49 M 179.44 424.34 C 184.23 424.39 189.03 424.41 193.83 424.31 C 193.86 411.05 193.79 397.78 193.85 384.52 C 189.06 384.56 184.26 384.57 179.47 384.51 C 179.41 397.79 179.44 411.06 179.44 424.34 M 180.80 436.49 C 182.64 444.67 184.79 452.79 186.30 461.05 C 188.44 452.90 190.30 444.68 192.04 436.44 C 188.29 436.42 184.55 436.45 180.80 436.49 Z" />
<path fill="#232323" opacity="1.00" d=" M 560.58 249.97 C 564.59 249.78 568.60 249.87 572.62 249.81 C 572.76 265.74 572.63 281.66 572.68 297.59 C 568.64 297.59 564.61 297.59 560.58 297.61 C 560.59 281.73 560.60 265.85 560.58 249.97 Z" />
<path fill="#232323" opacity="1.00" d=" M 560.70 321.30 C 564.74 321.23 568.78 321.20 572.83 321.27 C 572.74 333.60 572.93 345.94 572.75 358.27 C 568.73 358.19 564.71 358.26 560.69 358.22 C 560.74 345.91 560.77 333.61 560.70 321.30 Z" />
<path fill="#232323" opacity="1.00" d=" M 290.29 361.25 C 351.37 361.14 412.45 361.22 473.53 361.21 C 473.37 365.25 473.59 369.29 473.41 373.33 C 412.40 373.30 351.38 373.24 290.37 373.36 C 290.29 369.32 290.33 365.28 290.29 361.25 Z" />
<path fill="#232323" opacity="1.00" d=" M 290.33 397.38 C 321.38 397.14 352.44 397.38 383.49 397.28 C 383.50 401.31 383.50 405.34 383.48 409.38 C 352.44 409.22 321.40 409.39 290.37 409.31 C 290.29 405.33 290.30 401.35 290.33 397.38 Z" />
<path fill="#232323" opacity="1.00" d=" M 422.38 397.41 C 439.43 397.17 456.48 397.30 473.53 397.30 C 473.49 401.31 473.49 405.32 473.53 409.33 C 456.50 409.33 439.47 409.27 422.44 409.36 C 422.41 405.38 422.41 401.39 422.38 397.41 Z" />
<path fill="#232323" opacity="1.00" d=" M 293.32 442.27 C 297.46 442.22 301.60 442.21 305.74 442.26 C 305.77 446.28 305.79 450.31 305.72 454.34 C 301.59 454.31 297.46 454.31 293.33 454.35 C 293.25 450.32 293.28 446.29 293.32 442.27 Z" />
<path fill="#232323" opacity="1.00" d=" M 321.30 442.26 C 334.78 442.21 348.27 442.21 361.75 442.26 C 361.79 446.29 361.84 450.32 361.69 454.35 C 348.24 454.28 334.78 454.33 321.33 454.34 C 321.28 450.31 321.31 446.28 321.30 442.26 Z" />
<path fill="#232323" opacity="1.00" d=" M 392.31 616.74 C 392.42 564.67 392.32 512.60 392.36 460.53 C 472.44 460.54 552.53 460.56 632.61 460.52 C 632.61 512.59 632.64 564.66 632.60 616.73 C 552.50 616.77 472.41 616.75 392.31 616.74 M 404.49 604.69 C 476.50 604.66 548.51 604.65 620.51 604.69 C 620.50 560.66 620.54 516.64 620.49 472.61 C 548.48 472.68 476.47 472.65 404.45 472.62 C 404.50 516.64 404.43 560.66 404.49 604.69 Z" />
<path fill="#232323" opacity="1.00" d=" M 296.43 484.45 C 316.47 484.44 336.51 484.51 356.55 484.42 C 356.54 488.44 356.57 492.47 356.57 496.50 C 336.52 496.59 316.46 496.53 296.41 496.52 C 296.48 492.50 296.47 488.47 296.43 484.45 Z" />
<path fill="#232323" opacity="1.00" d=" M 425.28 502.41 C 438.30 502.46 451.33 502.40 464.35 502.44 C 464.35 506.47 464.35 510.51 464.34 514.54 C 451.33 514.55 438.33 514.51 425.32 514.57 C 425.26 510.51 425.27 506.46 425.28 502.41 Z" />
<path fill="#232323" opacity="1.00" d=" M 521.54 511.56 C 522.57 510.77 523.89 508.43 525.32 509.80 C 534.66 519.22 544.10 528.56 553.45 537.97 L 553.29 538.95 C 543.85 548.70 533.93 557.99 524.67 567.91 C 521.66 565.81 519.30 562.96 516.69 560.41 C 509.37 553.20 502.23 545.82 494.84 538.69 C 503.32 529.26 512.73 520.69 521.54 511.56 M 523.77 526.48 C 519.89 530.59 515.55 534.28 512.03 538.71 C 516.15 542.71 520.35 546.64 524.23 550.88 C 528.39 546.64 532.82 542.66 536.70 538.16 C 532.58 534.53 528.72 530.61 525.02 526.57 C 524.71 526.55 524.08 526.50 523.77 526.48 Z" />
<path fill="#232323" opacity="1.00" d=" M 557.16 510.52 C 568.33 510.48 579.49 510.51 590.65 510.51 C 590.57 529.14 590.71 547.77 590.58 566.40 C 578.97 566.40 567.35 566.44 555.73 566.38 C 555.80 562.37 555.78 558.37 555.74 554.36 C 563.33 554.24 570.92 554.28 578.51 554.33 C 578.57 543.74 578.58 533.15 578.52 522.56 C 571.39 522.61 564.27 522.61 557.14 522.57 C 557.14 518.55 557.15 514.53 557.16 510.52 Z" />
<path fill="#232323" opacity="1.00" d=" M 425.19 532.46 C 438.20 532.50 451.21 532.44 464.22 532.49 C 464.23 536.49 464.23 540.49 464.23 544.50 C 451.22 544.62 438.21 544.52 425.20 544.55 C 425.15 540.52 425.15 536.49 425.19 532.46 Z" />
<path fill="#232323" opacity="1.00" d=" M 425.20 559.77 C 438.20 559.72 451.20 559.74 464.21 559.75 C 464.22 563.77 464.23 567.79 464.22 571.81 C 451.21 571.87 438.20 571.79 425.20 571.86 C 425.14 567.83 425.16 563.80 425.20 559.77 Z" />
<path fill="#232323" opacity="1.00" d=" M 260.35 604.26 C 264.71 604.24 269.07 604.24 273.43 604.31 C 273.41 608.32 273.40 612.33 273.42 616.34 C 269.07 616.37 264.71 616.38 260.36 616.35 C 260.35 612.31 260.35 608.29 260.35 604.26 Z" />
<path fill="#232323" opacity="1.00" d=" M 288.25 604.25 C 292.62 604.25 296.99 604.22 301.36 604.32 C 301.32 608.32 301.31 612.32 301.33 616.33 C 296.97 616.38 292.61 616.36 288.25 616.37 C 288.29 612.33 288.28 608.29 288.25 604.25 Z" />
<path fill="#232323" opacity="1.00" d=" M 314.78 604.33 C 328.80 604.16 342.83 604.32 356.86 604.24 C 356.88 608.27 356.87 612.29 356.86 616.32 C 342.84 616.39 328.82 616.40 314.80 616.32 C 314.84 612.32 314.83 608.32 314.78 604.33 Z" />
</g>
</svg>
