<?xml version="1.0" encoding="UTF-8" ?>
<!DOCTYPE svg PUBLIC "-//W3C//DTD SVG 1.1//EN" "http://www.w3.org/Graphics/SVG/1.1/DTD/svg11.dtd">
<svg width="512pt" height="512pt" viewBox="0 0 512 512" version="1.1" xmlns="http://www.w3.org/2000/svg">
<g id="#231f20ff">
<path fill="#231f20" opacity="1.00" d=" M 237.64 8.63 C 238.32 5.74 241.73 6.56 243.94 6.36 C 253.72 6.62 263.53 5.99 273.29 6.72 C 276.68 15.73 278.38 25.27 281.47 34.38 C 288.55 36.18 295.49 38.58 302.04 41.84 C 303.47 42.34 305.06 43.72 306.60 42.75 C 314.56 38.65 322.15 33.81 330.20 29.89 C 332.15 28.83 333.69 30.88 335.08 31.94 C 341.23 37.76 347.46 43.50 353.67 49.27 C 354.75 50.42 356.11 51.48 356.60 53.05 C 355.76 56.29 353.47 58.91 351.91 61.82 C 404.17 82.45 449.62 121.01 476.33 170.67 C 495.73 206.33 504.95 247.45 502.42 287.97 C 500.96 312.84 495.11 337.43 485.35 360.34 C 479.80 373.75 472.41 386.25 464.82 398.57 C 472.98 399.17 481.41 397.48 489.40 399.51 C 490.05 408.09 490.62 417.41 486.16 425.17 C 480.87 434.86 470.01 440.84 459.07 440.96 C 449.36 441.10 439.66 440.93 429.95 441.00 C 426.94 440.68 425.16 443.47 423.05 445.10 C 392.98 471.14 356.44 489.49 317.82 498.82 C 272.33 509.77 223.90 508.55 179.14 494.84 C 146.51 484.87 115.86 468.31 89.91 446.12 C 87.91 444.44 86.15 442.41 83.82 441.16 C 72.91 440.65 61.95 441.31 51.03 440.90 C 42.60 440.42 34.39 436.53 28.82 430.15 C 23.08 423.94 21.11 415.25 21.59 406.99 C 21.96 404.31 20.48 399.57 24.11 398.80 C 31.78 398.27 39.49 398.81 47.18 398.57 C 45.69 395.85 44.04 393.22 42.37 390.61 C 21.43 356.99 9.66 317.66 9.20 278.03 C 8.51 238.04 19.29 198.02 39.64 163.62 C 63.53 122.89 100.18 90.08 142.61 69.58 C 148.25 66.78 154.08 64.38 159.86 61.88 C 158.30 58.96 155.92 56.36 155.15 53.10 C 155.75 50.77 158.11 49.39 159.70 47.70 C 166.59 41.72 172.77 34.91 180.00 29.31 C 189.05 33.22 197.20 38.94 206.11 43.15 C 207.91 42.98 209.47 41.90 211.10 41.21 C 217.20 38.11 223.77 36.16 230.32 34.30 C 232.97 25.80 234.92 17.10 237.64 8.63 M 242.76 12.59 C 240.12 21.42 238.10 30.43 235.15 39.16 C 228.92 41.29 222.41 42.62 216.42 45.43 C 212.91 46.79 209.79 49.12 206.09 49.96 C 197.45 46.02 189.47 40.70 180.95 36.48 C 174.54 42.11 168.31 47.95 162.21 53.90 C 166.66 61.70 172.31 68.89 176.10 77.02 C 174.96 80.88 172.12 83.95 170.48 87.59 C 167.48 93.00 165.96 99.02 163.75 104.75 C 154.77 107.49 145.55 109.40 136.45 111.69 C 136.06 119.90 136.10 128.14 136.42 136.35 C 145.31 138.55 154.27 140.42 163.07 142.94 C 165.15 148.37 166.49 154.08 169.04 159.34 C 183.43 159.51 197.84 159.53 212.23 159.32 C 204.90 150.80 199.56 140.30 198.65 128.97 C 197.13 113.84 202.89 98.33 213.58 87.57 C 224.80 76.03 241.01 69.69 257.07 70.17 C 274.25 70.40 291.25 78.55 301.83 92.17 C 311.03 103.78 314.95 119.45 312.01 134.00 C 310.39 143.48 305.31 151.82 299.50 159.30 C 313.70 159.61 327.91 159.39 342.12 159.42 C 345.03 154.31 346.01 148.45 347.95 142.97 C 356.82 140.21 366.07 138.86 374.90 135.99 C 374.84 128.00 374.87 120.00 374.87 112.00 C 366.85 109.38 358.50 107.92 350.40 105.57 C 349.24 105.21 347.88 104.85 347.51 103.53 C 345.95 99.65 344.98 95.54 343.19 91.74 C 341.05 86.59 337.79 82.02 335.33 77.04 C 339.60 69.09 344.90 61.74 349.46 53.96 C 343.51 47.87 337.10 42.25 330.88 36.44 C 323.34 40.26 316.10 44.62 308.67 48.65 C 307.14 49.42 305.31 50.52 303.65 49.40 C 295.14 44.84 286.00 41.70 276.68 39.28 C 273.40 30.54 271.81 21.27 268.74 12.46 C 260.08 12.51 251.42 12.31 242.76 12.59 M 348.36 67.24 C 346.28 70.49 344.20 73.74 342.31 77.11 C 346.66 84.10 349.98 91.63 352.66 99.39 C 361.15 102.86 370.54 103.80 379.21 106.80 C 381.07 107.28 380.82 109.44 380.98 110.94 C 381.08 118.29 380.87 125.65 381.02 133.01 C 380.97 135.49 381.21 138.06 380.48 140.47 C 379.31 141.53 377.71 141.85 376.25 142.25 C 368.44 144.09 360.63 145.87 352.88 147.92 C 351.61 151.84 350.29 155.75 349.05 159.69 C 375.03 159.67 401.01 159.63 426.99 159.70 C 436.82 159.47 446.57 165.34 450.50 174.42 C 453.33 180.55 452.45 187.46 452.57 194.00 C 452.63 262.19 452.45 330.37 452.66 398.56 C 454.10 398.55 455.54 398.55 456.99 398.55 C 476.94 370.69 490.02 337.91 494.73 303.96 C 500.33 264.01 494.14 222.52 477.17 185.93 C 455.25 138.23 415.87 99.31 368.94 76.14 C 362.22 72.88 355.49 69.52 348.36 67.24 M 34.22 187.25 C 17.81 223.23 11.83 263.86 17.13 303.04 C 21.74 337.32 34.85 370.45 55.01 398.54 C 56.45 398.55 57.90 398.55 59.34 398.56 C 59.59 326.74 59.29 254.92 59.49 183.10 C 59.76 170.37 71.55 160.02 83.97 159.77 C 110.03 159.49 136.10 159.81 162.16 159.62 C 160.87 155.71 160.03 151.55 158.02 147.95 C 150.10 145.62 141.96 144.08 133.96 141.99 C 132.77 141.63 131.48 141.31 130.58 140.40 C 129.75 137.00 130.22 133.45 130.13 129.99 C 130.27 123.05 129.89 116.09 130.26 109.15 C 130.03 107.02 132.43 106.58 133.98 106.07 C 142.27 103.96 150.61 102.06 158.89 99.90 C 161.52 91.91 165.04 84.28 169.32 77.05 C 167.46 73.68 165.43 70.40 163.16 67.29 C 107.06 88.90 59.03 132.21 34.22 187.25 M 249.42 76.57 C 234.52 78.21 220.37 86.49 212.09 99.06 C 205.45 109.00 202.99 121.62 205.46 133.32 C 207.51 143.06 212.90 152.05 220.47 158.51 C 221.93 159.93 224.09 159.61 225.95 159.71 C 246.31 159.62 266.67 159.68 287.03 159.68 C 288.58 159.72 290.19 159.46 291.32 158.31 C 301.64 149.36 307.60 135.57 306.81 121.91 C 306.25 109.42 300.15 97.41 290.73 89.25 C 279.61 79.36 264.14 74.84 249.42 76.57 M 65.55 183.99 C 65.46 255.40 65.59 326.82 65.49 398.23 C 66.97 398.41 68.47 398.59 69.97 398.60 C 108.99 398.50 148.01 398.62 187.03 398.54 C 188.80 398.67 190.88 398.32 192.32 399.61 C 196.80 403.48 200.48 408.18 204.87 412.15 C 205.91 413.27 207.55 413.05 208.93 413.16 C 237.95 413.13 266.98 413.14 296.00 413.16 C 299.22 413.08 302.50 413.45 305.69 412.82 C 310.68 408.74 314.53 403.43 319.48 399.30 C 320.73 398.30 322.48 398.69 323.96 398.53 C 361.31 398.60 398.65 398.54 436.00 398.57 C 439.50 398.58 443.03 398.75 446.52 398.23 C 446.40 326.82 446.54 255.40 446.45 183.99 C 446.59 174.93 438.94 166.88 430.03 166.02 C 423.70 165.51 417.34 165.93 411.00 165.80 C 372.67 165.66 334.34 166.05 296.00 165.98 C 250.34 165.33 204.67 166.41 159.00 165.79 C 134.32 165.83 109.64 165.75 84.96 165.83 C 75.12 165.66 65.40 173.79 65.55 183.99 M 27.80 404.81 C 27.68 409.53 27.37 414.43 29.09 418.92 C 31.70 426.13 38.07 431.66 45.38 433.75 C 50.77 435.39 56.46 434.86 62.01 434.92 C 191.00 434.92 320.00 434.92 449.00 434.92 C 455.11 434.84 461.45 435.48 467.32 433.38 C 474.55 430.97 480.60 425.03 482.73 417.67 C 483.96 413.54 483.66 409.18 483.67 404.93 C 477.12 404.52 470.56 404.79 464.01 404.75 C 417.06 405.38 370.08 404.67 323.15 405.15 C 319.36 407.96 316.45 411.80 313.07 415.07 C 311.01 416.96 309.18 419.99 305.99 419.76 C 272.97 419.82 239.95 419.73 206.92 419.80 C 205.35 419.70 203.52 419.90 202.30 418.69 C 197.49 414.48 193.59 409.32 188.69 405.22 C 188.03 405.16 186.71 405.04 186.06 404.98 C 151.37 405.02 116.68 405.00 81.99 405.00 C 63.93 405.14 45.87 404.44 27.80 404.81 M 94.08 441.26 C 102.10 447.91 110.40 454.23 119.18 459.85 C 162.64 488.15 215.18 501.78 266.89 499.45 C 305.77 497.87 344.32 487.34 378.37 468.44 C 392.15 460.66 405.53 451.93 417.31 441.31 C 309.57 441.20 201.82 441.31 94.08 441.26 Z" />
<path fill="#231f20" opacity="1.00" d=" M 91.47 187.63 C 94.95 187.12 98.50 187.46 102.00 187.40 C 204.00 187.40 306.00 187.40 408.00 187.40 C 412.17 187.49 416.38 187.08 420.53 187.64 C 422.53 187.97 422.71 190.34 422.70 191.96 C 422.70 252.32 422.68 312.68 422.71 373.04 C 422.65 374.70 422.81 377.22 420.69 377.66 C 417.16 378.27 413.55 377.88 409.99 377.97 C 304.64 377.95 199.29 377.97 93.94 377.96 C 91.42 378.35 88.80 376.76 89.32 373.95 C 89.27 313.29 89.32 252.62 89.29 191.96 C 89.27 190.33 89.46 187.96 91.47 187.63 M 95.41 195.12 C 95.37 253.99 95.41 312.87 95.39 371.75 C 202.46 371.83 309.54 371.83 416.61 371.75 C 416.64 312.47 416.53 253.19 416.67 193.91 C 412.81 193.24 408.89 193.57 405.00 193.54 C 302.98 193.51 200.97 193.58 98.95 193.50 C 97.74 193.66 95.09 193.05 95.41 195.12 Z" />
<path fill="#231f20" opacity="1.00" d=" M 283.33 216.28 C 285.41 215.24 288.13 217.73 287.14 219.90 C 286.21 222.89 284.74 225.69 283.48 228.55 C 266.92 265.65 250.38 302.76 233.83 339.86 C 232.44 342.80 231.44 345.98 229.54 348.64 C 226.69 350.75 223.24 347.07 225.21 344.26 C 242.95 304.34 260.83 264.49 278.55 224.56 C 280.06 221.82 280.61 218.05 283.33 216.28 Z" />
<path fill="#231f20" opacity="1.00" d=" M 216.88 246.90 C 218.47 245.38 221.60 245.80 221.99 248.20 C 222.62 250.15 220.87 251.48 219.51 252.49 C 205.35 262.61 191.08 272.59 176.99 282.81 C 190.05 292.17 203.23 301.39 216.39 310.62 C 218.92 312.50 222.61 314.13 222.31 317.88 C 220.56 319.09 218.46 320.10 216.70 318.32 C 201.98 308.07 187.42 297.58 172.68 287.36 C 171.24 286.32 169.75 285.29 168.67 283.87 C 167.90 281.48 170.27 280.06 171.86 278.86 C 186.92 268.28 201.82 257.47 216.88 246.90 Z" />
<path fill="#231f20" opacity="1.00" d=" M 291.45 246.32 C 293.20 245.24 294.87 246.81 296.32 247.68 C 309.55 257.10 322.79 266.51 336.03 275.93 C 338.38 277.67 341.02 279.12 342.99 281.32 C 344.62 283.81 341.67 285.64 339.96 286.94 C 324.78 297.45 309.86 308.35 294.60 318.73 C 293.00 320.25 291.23 318.62 289.71 317.88 C 289.90 316.29 290.02 314.46 291.59 313.57 C 306.01 303.25 320.66 293.24 335.01 282.81 C 320.63 272.21 305.84 262.15 291.42 251.60 C 289.42 250.57 289.38 247.22 291.45 246.32 Z" />
<path fill="#231f20" opacity="1.00" d=" M 169.41 456.53 C 170.69 454.77 173.03 455.05 174.93 454.97 C 197.65 455.01 220.36 455.02 243.08 454.97 C 244.90 454.96 246.71 455.26 248.50 455.60 C 248.83 457.19 248.85 458.82 248.55 460.43 C 246.40 460.87 244.22 461.15 242.03 461.12 C 222.69 461.03 203.34 461.11 183.99 461.08 C 179.16 461.00 174.25 461.56 169.50 460.37 C 169.43 459.09 169.13 457.79 169.41 456.53 Z" />
<path fill="#231f20" opacity="1.00" d=" M 257.16 460.90 C 254.07 460.67 254.10 455.43 257.16 455.17 C 262.26 454.86 267.47 454.61 272.52 455.58 C 272.88 457.19 272.90 458.84 272.58 460.46 C 267.51 461.41 262.28 461.26 257.16 460.90 Z" />
<path fill="#231f20" opacity="1.00" d=" M 279.25 455.29 C 282.40 454.74 285.66 454.81 288.84 455.15 C 291.60 455.34 292.29 459.70 289.71 460.75 C 286.24 461.31 282.65 461.29 279.17 460.85 C 276.78 460.00 276.71 455.97 279.25 455.29 Z" />
<path fill="#231f20" opacity="1.00" d=" M 222.36 469.35 C 225.76 468.72 229.33 468.74 232.74 469.31 C 235.23 469.89 235.27 474.11 232.82 474.82 C 229.34 475.29 225.75 475.35 222.28 474.78 C 220.07 473.80 220.18 470.30 222.36 469.35 Z" />
<path fill="#231f20" opacity="1.00" d=" M 239.50 469.59 C 244.54 468.64 249.74 468.83 254.83 469.18 C 257.86 469.43 257.97 474.70 254.86 474.89 C 250.05 475.17 245.13 475.47 240.36 474.70 C 238.45 473.57 239.15 471.32 239.50 469.59 Z" />
<path fill="#231f20" opacity="1.00" d=" M 263.46 474.45 C 262.67 472.25 263.05 468.96 266.08 469.11 C 289.05 468.81 312.04 469.13 335.02 468.96 C 337.15 469.07 339.45 468.70 341.46 469.57 C 343.44 470.42 342.49 472.76 342.51 474.39 C 340.72 474.76 338.90 475.08 337.07 475.09 C 314.36 475.09 291.65 475.06 268.94 475.10 C 267.09 475.10 265.26 474.80 263.46 474.45 Z" />
</g>
</svg>
