<?xml version="1.0" encoding="UTF-8" ?>
<!DOCTYPE svg PUBLIC "-//W3C//DTD SVG 1.1//EN" "http://www.w3.org/Graphics/SVG/1.1/DTD/svg11.dtd">
<svg width="200pt" height="200pt" viewBox="0 0 200 200" version="1.1" xmlns="http://www.w3.org/2000/svg">
<g id="#000000ff">
<path fill="#000000" opacity="1.00" d=" M 70.96 10.84 C 87.74 1.18 109.42 0.39 126.62 9.43 C 128.56 10.32 128.72 13.68 126.62 14.47 C 124.87 15.28 123.14 14.03 121.52 13.49 C 109.21 7.96 94.73 7.62 82.13 12.40 C 70.05 17.01 59.39 25.69 53.12 37.08 C 45.68 50.36 44.31 66.86 49.33 81.22 C 50.51 79.11 51.29 76.67 53.01 74.92 C 55.09 73.78 57.95 75.52 57.47 77.96 C 55.99 81.83 53.87 85.42 52.09 89.16 C 51.40 90.68 50.13 92.65 48.13 91.91 C 43.94 90.23 39.96 88.02 35.95 85.94 C 33.25 84.90 34.07 80.34 37.01 80.33 C 39.36 80.71 41.42 82.02 43.56 82.96 C 40.81 74.61 39.80 65.74 40.48 56.97 C 35.31 57.05 30.14 56.83 24.98 57.02 C 23.19 56.73 22.45 58.51 22.72 59.98 C 22.72 91.60 22.72 123.22 22.73 154.84 C 74.24 154.84 125.75 154.84 177.26 154.84 C 177.24 122.47 177.30 90.11 177.23 57.74 C 171.55 56.77 165.77 57.48 160.04 57.25 C 161.24 71.13 157.87 85.51 149.78 96.95 C 141.02 109.66 127.29 118.92 112.09 121.83 C 99.10 124.41 85.15 122.71 73.39 116.59 C 70.72 115.02 72.82 110.23 75.82 111.44 C 80.90 113.47 86.01 115.64 91.50 116.32 C 108.75 119.11 127.24 113.04 139.10 100.12 C 152.78 85.83 157.70 63.83 150.96 45.16 C 150.14 47.24 149.59 49.47 148.36 51.36 C 146.59 53.49 142.82 51.72 143.19 49.05 C 144.31 44.73 145.98 40.55 147.51 36.34 C 147.97 34.60 149.99 33.49 151.66 34.34 C 155.66 35.64 159.67 36.98 163.58 38.54 C 165.66 39.15 166.39 42.12 164.70 43.56 C 162.17 45.60 159.06 43.00 156.41 42.47 C 157.27 45.26 158.07 48.08 158.83 50.90 C 164.55 51.01 170.28 50.70 175.99 51.02 C 179.93 51.29 183.15 55.05 182.98 58.98 C 183.16 91.67 182.80 124.39 183.15 157.07 C 186.83 167.58 191.67 177.69 195.54 188.13 C 196.77 193.06 191.84 197.43 187.10 196.97 C 129.03 196.97 70.96 196.99 12.90 196.96 C 7.50 197.44 2.59 191.63 4.68 186.42 C 7.59 178.85 10.82 171.39 13.84 163.86 C 14.91 160.99 16.64 158.24 16.66 155.09 C 16.68 123.05 16.61 91.00 16.69 58.96 C 16.52 54.94 19.91 51.13 23.95 50.99 C 29.78 50.73 35.63 51.00 41.46 50.89 C 45.05 34.16 55.96 19.13 70.96 10.84 M 22.11 160.91 C 18.28 170.34 14.49 179.79 10.62 189.20 C 10.76 191.54 13.47 190.67 15.04 190.93 C 73.08 190.84 131.13 190.99 189.18 190.85 C 189.36 189.58 189.75 188.26 189.07 187.07 C 185.60 178.38 181.96 169.76 178.61 161.03 C 126.45 160.76 74.28 160.98 22.11 160.91 Z" />
<path fill="#000000" opacity="1.00" d=" M 95.19 21.21 C 104.94 20.02 115.07 22.34 123.27 27.76 C 133.26 34.24 140.29 45.11 141.96 56.92 C 144.10 70.87 138.32 85.51 127.73 94.71 C 119.40 102.09 108.03 105.97 96.92 104.99 C 85.10 104.11 73.87 97.87 66.74 88.42 C 59.54 79.07 56.63 66.58 58.95 55.00 C 62.12 37.50 77.50 23.13 95.19 21.21 M 96.52 28.56 C 91.75 32.94 89.98 39.49 88.40 45.54 C 96.05 48.34 104.47 48.02 112.15 45.52 C 110.51 39.55 108.81 33.11 104.20 28.68 C 102.17 26.53 98.62 26.46 96.52 28.56 M 88.38 28.95 C 83.46 30.70 79.07 33.63 75.34 37.26 C 77.69 39.41 80.22 41.35 82.92 43.06 C 84.05 38.12 85.83 33.34 88.38 28.95 M 112.22 28.94 C 114.52 33.46 116.41 38.18 117.68 43.09 C 120.30 41.27 122.82 39.33 125.22 37.22 C 121.45 33.65 117.07 30.81 112.22 28.94 M 71.08 41.84 C 67.22 47.16 64.91 53.45 64.14 59.98 C 69.61 60.02 75.07 60.00 80.54 59.99 C 80.64 56.36 80.94 52.73 81.42 49.13 C 77.70 47.10 74.22 44.68 71.08 41.84 M 129.44 41.79 C 126.18 44.48 122.79 47.01 119.15 49.15 C 119.65 52.75 119.93 56.36 120.05 59.99 C 125.52 59.98 130.98 60.00 136.45 59.97 C 135.70 53.42 133.24 47.17 129.44 41.79 M 87.20 51.55 C 86.95 54.35 86.76 57.16 86.59 59.97 C 95.70 59.99 104.82 59.98 113.94 59.98 C 113.65 57.18 113.34 54.39 113.04 51.59 C 104.67 54.39 95.59 54.09 87.20 51.55 M 64.14 66.07 C 64.90 72.59 67.24 78.87 71.08 84.21 C 74.21 81.36 77.69 78.93 81.42 76.91 C 80.94 73.31 80.64 69.68 80.54 66.05 C 75.07 66.05 69.61 66.03 64.14 66.07 M 86.56 66.06 C 86.75 68.86 87.05 71.64 87.43 74.42 C 95.83 71.59 104.94 71.99 113.37 74.47 C 113.64 71.67 113.84 68.87 114.00 66.07 C 104.86 66.03 95.71 66.04 86.56 66.06 M 120.05 66.05 C 119.93 69.68 119.65 73.31 119.15 76.91 C 122.88 78.93 126.36 81.38 129.54 84.20 C 133.09 78.72 135.42 72.52 136.43 66.06 C 130.97 66.03 125.51 66.05 120.05 66.05 M 88.41 80.55 C 89.96 86.59 91.68 93.17 96.49 97.50 C 98.63 99.61 102.23 99.49 104.25 97.27 C 108.75 92.78 110.55 86.40 112.12 80.42 C 104.46 77.76 96.07 77.98 88.41 80.55 M 75.05 88.82 C 78.83 92.35 83.30 95.03 88.05 97.05 C 85.73 92.56 83.87 87.84 82.59 82.95 C 79.96 84.75 77.44 86.71 75.05 88.82 M 112.25 97.06 C 117.00 95.00 121.50 92.33 125.28 88.75 C 122.96 86.55 120.39 84.63 117.67 82.94 C 116.52 87.88 114.76 92.66 112.25 97.06 Z" />
<path fill="#000000" opacity="1.00" d=" M 76.37 173.44 C 77.64 172.39 79.47 172.87 81.00 172.69 C 94.67 172.86 108.36 172.49 122.01 172.86 C 125.54 173.23 124.64 179.23 121.18 178.73 C 107.12 178.85 93.05 178.78 78.98 178.76 C 76.02 179.37 74.17 175.41 76.37 173.44 Z" />
</g>
</svg>
