<?xml version="1.0" encoding="UTF-8" ?>
<!DOCTYPE svg PUBLIC "-//W3C//DTD SVG 1.1//EN" "http://www.w3.org/Graphics/SVG/1.1/DTD/svg11.dtd">
<svg width="900pt" height="740pt" viewBox="0 0 900 740" version="1.1" xmlns="http://www.w3.org/2000/svg">
<g id="#f7f7f7ff">
</g>
<g id="#000000ff">
<path fill="#000000" opacity="1.00" d=" M 396.30 18.28 C 411.07 6.50 429.99 -0.32 448.97 0.64 C 486.31 1.62 520.26 31.13 527.63 67.55 C 531.65 85.78 527.94 105.10 519.53 121.57 C 510.19 138.81 494.95 153.37 476.45 160.29 C 461.56 165.10 445.35 168.11 429.89 164.30 C 428.24 163.76 426.09 163.35 425.31 161.62 C 424.87 158.48 426.84 155.76 427.98 152.99 C 432.40 143.82 433.82 133.64 436.73 123.97 C 440.83 125.32 444.15 128.32 448.26 129.67 C 457.32 132.89 467.49 131.18 475.96 127.05 C 489.46 119.80 497.36 105.17 500.03 90.51 C 501.79 77.25 500.96 62.95 493.63 51.36 C 486.89 39.60 473.69 33.36 460.85 30.86 C 444.72 27.87 426.72 30.15 413.52 40.51 C 402.35 49.00 393.35 61.51 392.08 75.82 C 390.37 89.37 395.84 105.39 409.01 111.29 C 411.76 110.77 412.59 107.48 413.45 105.21 C 414.96 100.74 411.60 96.93 409.99 93.05 C 405.85 83.02 408.01 71.40 413.25 62.21 C 423.40 44.92 447.75 38.09 465.44 47.48 C 472.37 51.00 478.23 57.30 479.64 65.14 C 481.62 75.39 480.93 86.18 477.94 96.18 C 475.08 105.16 468.82 114.12 459.34 116.78 C 450.54 119.86 439.70 110.27 443.05 101.17 C 445.49 92.54 448.06 83.90 449.35 75.01 C 449.98 70.65 448.61 65.78 444.99 63.06 C 442.01 60.73 437.92 61.14 434.41 61.64 C 429.56 62.77 427.15 67.69 425.79 72.03 C 423.39 79.13 424.87 86.68 424.20 93.98 C 421.97 115.69 416.68 136.91 412.09 158.19 C 406.85 157.18 402.65 153.60 398.55 150.43 C 390.09 143.25 382.39 135.09 376.07 125.96 C 371.26 119.28 368.80 111.30 366.68 103.45 C 364.13 93.84 363.23 83.78 364.56 73.91 C 367.14 52.12 379.25 31.91 396.30 18.28 Z" />
<path fill="#000000" opacity="1.00" d=" M 604.98 60.68 C 614.25 59.27 623.66 59.56 633.01 59.40 C 661.34 59.29 689.67 59.29 718.00 59.38 C 728.34 59.60 738.77 59.07 749.01 60.81 C 752.22 61.52 754.79 64.19 755.45 67.39 C 756.77 73.49 756.55 79.79 756.71 85.99 C 756.83 119.33 756.82 152.66 756.72 186.00 C 756.57 194.38 756.85 202.84 755.41 211.13 C 754.95 214.45 752.79 217.09 750.81 219.65 C 701.33 219.52 651.85 219.68 602.37 219.57 C 600.39 216.69 598.23 213.74 597.87 210.14 C 596.61 199.48 596.70 188.71 596.55 177.99 C 596.42 150.66 596.42 123.33 596.54 96.00 C 596.69 86.74 596.56 77.42 597.83 68.23 C 598.33 64.55 601.28 61.30 604.98 60.68 M 679.21 100.22 C 674.99 106.00 674.31 113.37 674.69 120.30 C 664.67 118.99 654.37 117.57 645.43 112.52 C 636.47 107.98 629.41 100.74 621.95 94.20 C 617.54 101.75 618.10 111.34 622.32 118.83 C 623.86 121.63 627.34 123.15 627.70 126.58 C 624.48 126.88 621.29 126.32 618.09 126.13 C 619.50 134.36 624.10 142.20 631.22 146.73 C 633.17 148.06 635.53 148.95 636.84 151.04 C 633.90 151.47 630.94 151.64 627.99 151.82 C 631.83 160.95 641.25 165.84 649.64 170.11 C 639.74 177.13 627.35 178.14 615.72 179.78 C 619.10 182.42 623.09 184.07 626.87 186.03 C 634.65 189.88 643.58 189.14 652.00 189.35 C 660.65 189.18 669.60 189.86 677.91 186.96 C 687.51 183.38 696.41 177.89 703.94 170.94 C 715.84 159.76 723.17 144.28 725.75 128.27 C 726.84 122.84 727.37 117.14 730.11 112.23 C 732.41 107.77 736.65 104.82 739.39 100.68 C 735.63 101.50 732.18 103.54 728.30 103.73 C 730.22 99.63 734.40 96.77 735.15 92.13 C 729.48 91.92 724.69 96.47 719.01 95.45 C 715.22 93.35 712.00 90.13 707.70 89.06 C 697.07 86.10 685.41 91.42 679.21 100.22 Z" />
<path fill="#000000" opacity="1.00" d=" M 215.00 61.29 C 237.28 61.45 259.58 61.11 281.85 61.78 C 286.32 62.64 293.00 61.72 294.87 67.02 C 296.70 74.51 296.35 82.33 296.54 89.99 C 296.71 119.00 296.61 148.00 296.62 177.00 C 296.51 189.02 296.83 201.11 295.18 213.04 C 294.86 215.28 293.44 217.37 291.21 218.04 C 287.93 219.03 284.49 219.43 281.07 219.45 C 268.09 219.64 255.10 219.60 242.11 219.60 C 241.47 216.41 242.09 213.20 242.23 210.01 C 242.45 188.80 242.31 167.59 242.83 146.39 C 250.34 145.81 257.87 145.54 265.40 145.15 C 265.45 137.35 265.48 129.54 265.38 121.74 C 258.13 121.47 250.79 122.24 243.61 121.13 C 240.77 119.13 241.64 115.09 242.49 112.25 C 243.57 107.90 247.90 105.30 252.10 104.65 C 256.50 104.13 260.94 104.39 265.36 104.31 C 265.49 95.67 265.43 87.03 265.41 78.39 C 256.69 78.55 247.99 79.16 239.29 79.67 C 234.30 80.20 229.04 80.83 224.85 83.83 C 219.79 87.44 215.40 92.29 213.27 98.21 C 210.51 105.71 210.71 113.84 210.12 121.70 C 203.80 121.74 197.47 121.67 191.15 121.74 C 191.15 129.60 191.00 137.45 190.91 145.30 C 197.44 145.37 203.97 145.30 210.50 145.34 C 210.45 170.09 210.46 194.84 210.50 219.59 C 190.34 219.59 170.19 219.67 150.04 219.42 C 145.99 219.23 140.53 218.92 138.92 214.41 C 137.41 208.05 137.49 201.47 136.85 195.01 C 135.47 158.36 135.25 121.66 136.94 85.03 C 137.99 77.09 136.47 67.99 141.96 61.38 C 166.31 61.18 190.65 61.35 215.00 61.29 Z" />
<path fill="#000000" opacity="1.00" d=" M 253.01 257.93 C 332.00 257.03 411.00 257.07 490.00 257.17 C 550.91 257.35 611.84 257.24 672.74 258.69 C 681.00 258.50 687.84 264.10 693.49 269.51 C 698.24 274.41 702.82 280.06 704.21 286.92 C 706.42 327.57 705.12 368.33 706.21 409.00 C 706.15 465.35 706.21 521.69 706.18 578.03 C 706.26 579.95 705.70 582.25 707.30 583.74 C 735.86 618.49 764.30 653.34 792.85 688.10 C 795.92 691.29 793.76 696.03 793.67 699.91 C 793.29 710.05 786.95 719.25 778.46 724.45 C 774.56 726.18 770.14 726.15 765.96 726.47 C 739.67 727.70 713.33 727.47 687.01 727.74 C 664.67 727.64 642.35 728.18 620.02 728.12 C 480.68 728.34 341.34 728.81 202.00 728.46 C 183.01 728.29 164.00 728.42 145.02 727.66 C 138.35 727.42 131.61 727.53 125.04 726.22 C 117.66 723.97 111.85 717.75 109.41 710.51 C 106.84 703.59 107.62 696.10 106.43 688.93 C 135.62 653.51 164.81 618.10 193.94 582.63 C 195.16 581.40 194.64 579.53 194.77 578.01 C 194.74 482.33 194.81 386.65 194.74 290.98 C 194.67 289.00 195.81 287.30 196.60 285.58 C 199.30 280.41 201.54 274.87 205.53 270.51 C 210.45 264.77 217.24 260.71 224.55 258.86 C 234.00 258.03 243.53 258.33 253.01 257.93 M 262.00 286.73 C 252.03 287.74 241.92 286.76 232.01 288.37 C 229.01 288.60 226.71 290.71 224.30 292.29 C 224.25 377.07 224.21 461.87 224.32 546.65 C 226.77 548.25 229.15 550.30 232.20 550.56 C 240.74 551.72 249.40 551.68 258.00 551.78 C 274.98 552.60 292.00 552.29 309.00 552.49 C 368.33 552.66 427.67 552.63 487.00 552.65 C 538.34 552.55 589.67 552.78 641.01 552.24 C 650.66 551.20 660.56 552.57 670.08 550.28 C 674.76 549.00 675.41 543.51 675.67 539.44 C 677.15 515.00 676.49 490.48 676.71 466.00 C 676.74 434.00 676.75 402.00 676.70 370.00 C 676.60 348.33 676.88 326.65 676.04 304.99 C 675.38 299.90 676.40 293.61 672.31 289.72 C 668.12 287.07 662.84 287.61 658.09 287.29 C 647.82 286.42 637.51 286.68 627.22 286.53 C 569.81 286.27 512.41 286.48 455.00 286.33 C 390.67 286.53 326.33 286.17 262.00 286.73 M 382.95 669.26 C 397.62 669.98 412.31 669.41 426.97 670.22 C 446.62 670.05 466.30 670.63 485.94 669.78 C 496.64 669.72 507.34 669.71 518.03 669.26 C 512.90 659.24 505.99 650.25 499.96 640.76 C 466.97 640.71 433.99 640.72 401.00 640.75 C 395.03 650.28 388.03 659.21 382.95 669.26 Z" />
<path fill="#000000" opacity="1.00" d=" M 34.18 297.29 C 46.60 289.22 60.97 283.18 75.99 283.22 C 87.55 282.87 99.28 284.05 110.24 287.89 C 128.75 294.88 144.40 308.97 153.45 326.54 C 161.26 340.96 164.59 357.72 163.10 374.03 C 161.58 390.17 155.27 406.17 143.98 417.98 C 136.01 426.51 127.04 434.34 116.64 439.76 C 99.21 447.82 78.96 449.94 60.36 444.95 C 40.58 439.96 23.15 427.00 11.99 410.02 C 5.94 400.45 0.51 389.91 0.00 378.37 L 0.00 352.63 C 0.49 345.85 2.20 339.19 5.30 333.13 C 11.44 318.87 21.21 305.99 34.18 297.29 M 28.73 332.75 C 22.55 336.89 18.92 343.68 16.25 350.43 C 10.53 364.01 12.83 380.52 21.88 392.13 C 34.13 408.48 58.65 414.68 76.80 404.78 C 89.14 398.35 96.94 384.83 97.45 371.07 C 97.59 367.31 97.66 363.56 97.78 359.81 C 84.12 359.62 70.45 359.71 56.79 359.75 C 56.75 364.98 56.76 370.22 56.79 375.45 C 63.01 375.45 69.22 375.91 75.37 376.84 C 76.71 377.28 78.54 377.38 79.15 378.89 C 77.46 382.67 74.45 385.67 71.38 388.37 C 67.19 392.08 61.22 392.32 55.92 391.91 C 48.33 391.36 40.49 388.51 35.57 382.46 C 29.13 374.67 28.89 363.10 33.17 354.24 C 37.27 346.27 45.85 341.76 54.25 339.69 C 60.35 338.40 65.72 342.16 71.37 343.68 C 75.64 344.95 78.56 340.80 81.22 338.22 C 82.97 336.62 85.04 333.38 82.46 331.56 C 75.88 327.00 68.05 324.15 60.03 323.68 C 48.92 322.95 38.03 326.91 28.73 332.75 M 125.23 343.42 C 123.81 348.36 124.62 353.57 124.39 358.63 C 119.96 358.91 115.45 358.30 111.07 359.12 C 109.21 359.31 108.61 361.39 108.58 362.98 C 108.58 365.14 108.23 367.55 109.57 369.43 C 113.79 371.81 119.20 369.22 123.43 371.58 C 125.60 375.17 123.12 380.02 125.56 383.45 C 128.49 384.69 132.44 384.98 135.19 383.17 C 136.96 379.68 135.53 375.42 136.88 371.79 C 140.55 369.28 145.50 371.49 149.45 369.45 C 149.69 366.45 149.97 363.41 149.49 360.42 C 146.27 356.87 140.32 360.46 136.91 357.22 C 135.27 353.31 136.31 348.66 134.08 344.97 C 131.69 342.77 128.18 343.51 125.23 343.42 Z" />
<path fill="#000000" opacity="1.00" d=" M 747.13 288.09 C 756.30 286.36 765.70 286.62 775.00 286.49 C 801.66 286.40 828.33 286.39 855.00 286.46 C 867.66 286.50 880.38 286.14 892.96 287.80 C 895.24 288.08 897.58 289.40 898.03 291.84 C 900.08 301.28 899.27 311.03 900.00 320.61 L 900.00 440.86 C 897.22 442.72 894.42 444.82 891.00 445.24 C 881.40 446.67 871.66 446.42 861.98 446.62 C 832.67 446.75 803.36 446.83 774.05 446.55 C 765.71 446.31 757.27 446.62 749.05 444.98 C 746.10 444.38 743.75 442.42 741.35 440.75 C 741.35 416.17 741.35 391.58 741.35 367.00 C 741.63 343.98 740.88 320.92 742.32 297.93 C 742.77 294.39 742.60 288.88 747.13 288.09 M 777.27 314.05 C 773.46 315.10 769.43 317.16 767.75 320.95 C 764.61 328.73 770.63 338.64 779.06 339.27 C 786.47 339.36 792.32 332.19 792.35 325.10 C 792.24 317.80 783.96 312.73 777.27 314.05 M 842.63 347.74 C 837.62 348.54 833.31 351.31 828.91 353.64 C 827.93 352.35 827.18 350.87 825.95 349.83 C 818.82 348.35 811.46 348.90 804.23 348.99 C 803.89 363.64 803.25 378.35 804.26 393.00 C 803.58 401.80 803.76 410.63 803.77 419.46 C 811.38 419.91 818.91 418.41 826.52 418.56 C 826.59 413.36 826.68 408.16 827.31 403.00 C 827.46 393.47 827.86 383.94 828.84 374.46 C 829.16 370.48 831.61 366.84 835.47 365.56 C 839.83 363.22 844.73 366.03 848.02 368.97 C 851.78 372.24 851.52 377.64 852.18 382.16 C 852.41 394.40 852.81 406.63 853.38 418.86 L 853.97 419.50 C 860.80 419.62 867.63 419.52 874.46 419.52 C 874.44 404.35 874.72 389.17 874.18 374.01 C 873.30 367.28 873.55 359.63 868.76 354.25 C 862.09 347.41 851.64 346.16 842.63 347.74 M 767.29 349.01 C 767.45 369.99 766.64 391.03 768.52 411.95 C 768.58 414.53 768.77 417.12 769.50 419.61 C 776.47 419.42 783.43 419.65 790.40 419.48 C 790.43 395.95 790.44 372.43 790.36 348.90 C 782.67 348.88 774.98 348.71 767.29 349.01 Z" />
<path fill="#000000" opacity="1.00" d=" M 337.16 393.29 C 345.83 351.31 383.56 317.32 426.12 312.70 C 448.14 310.78 470.85 315.17 490.29 325.74 C 496.75 329.98 504.04 333.49 511.95 333.29 C 546.30 332.87 579.83 352.35 596.93 382.06 C 602.76 392.14 606.71 403.30 608.58 414.79 C 609.97 423.65 612.57 432.35 616.59 440.38 C 625.42 458.37 626.95 479.77 621.04 498.88 C 617.94 508.34 613.10 517.33 606.91 525.08 C 595.51 525.26 584.10 525.35 572.71 525.01 C 576.04 522.20 579.84 520.01 583.00 516.99 C 594.24 506.41 601.47 491.43 602.39 476.00 C 602.36 463.00 598.24 449.44 589.10 439.91 C 586.63 437.15 582.86 434.22 583.58 430.07 C 584.65 422.11 582.65 414.20 580.69 406.54 C 576.97 391.18 565.87 378.61 553.01 369.96 C 547.63 366.47 541.97 363.26 535.84 361.28 C 528.01 359.04 519.77 359.60 511.73 359.17 C 505.88 358.85 499.58 358.93 494.50 355.55 C 484.69 348.93 474.76 342.08 463.45 338.28 C 455.55 335.78 447.16 336.46 439.00 336.25 C 430.51 336.47 421.73 335.67 413.55 338.46 C 404.90 341.59 396.72 345.94 389.21 351.25 C 375.01 360.60 366.23 376.18 361.09 392.02 C 358.67 399.05 358.45 406.54 356.80 413.74 C 356.13 415.86 355.82 418.60 353.57 419.66 C 347.38 422.77 340.44 424.02 334.26 427.18 C 318.45 434.70 305.82 448.80 300.46 465.51 C 296.77 479.16 299.01 493.78 304.04 506.80 C 306.45 513.46 310.61 519.20 314.41 525.09 C 306.59 525.40 298.76 525.08 290.94 525.18 C 289.62 524.97 287.52 525.63 286.91 524.02 C 283.29 516.71 279.76 509.26 278.00 501.24 C 275.71 492.36 276.13 483.09 276.51 474.01 C 279.36 448.05 294.55 423.48 317.20 410.22 C 322.08 407.29 327.50 405.36 332.31 402.30 C 335.46 400.41 336.32 396.59 337.16 393.29 Z" />
<path fill="#000000" opacity="1.00" d=" M 398.57 386.37 C 403.12 386.31 407.66 386.36 412.21 386.30 C 412.52 420.97 412.15 455.65 412.41 490.33 C 419.26 484.50 425.11 477.60 431.94 471.73 C 435.34 474.82 438.55 478.11 441.81 481.35 C 436.40 486.78 430.70 491.90 425.08 497.10 C 418.71 502.99 412.31 508.95 404.92 513.57 C 396.19 508.49 389.30 500.88 382.03 493.99 C 377.81 489.72 373.44 485.59 369.30 481.25 C 372.23 478.65 374.36 474.71 377.94 473.09 C 385.03 478.39 391.19 484.87 398.46 489.96 C 398.74 455.43 398.54 420.90 398.57 386.37 Z" />
<path fill="#000000" opacity="1.00" d=" M 499.20 387.28 C 501.78 385.06 504.74 387.53 506.91 389.07 C 518.14 397.56 528.21 407.44 538.44 417.08 C 535.52 420.63 532.26 423.89 529.02 427.15 C 522.55 421.39 517.07 414.28 509.60 409.79 C 508.45 417.81 508.73 425.93 508.53 434.01 C 508.20 460.45 508.40 486.89 508.33 513.33 C 503.75 513.37 499.17 513.38 494.59 513.35 C 494.44 478.70 494.76 444.05 494.43 409.40 C 487.78 414.77 482.11 421.25 475.91 427.11 C 472.51 423.99 469.38 420.59 466.26 417.20 C 477.04 407.03 486.95 395.76 499.20 387.28 Z" />
</g>
</svg>
