<?xml version="1.0" encoding="UTF-8" ?>
<!DOCTYPE svg PUBLIC "-//W3C//DTD SVG 1.1//EN" "http://www.w3.org/Graphics/SVG/1.1/DTD/svg11.dtd">
<svg width="452pt" height="452pt" viewBox="0 0 452 452" version="1.1" xmlns="http://www.w3.org/2000/svg">
<g id="#000000ff">
<path fill="#000000" opacity="1.00" d=" M 99.95 60.82 C 134.15 34.47 176.81 19.32 219.97 18.20 C 253.59 17.17 287.45 24.43 317.59 39.39 C 351.69 56.16 381.01 82.48 401.39 114.56 C 412.66 132.18 421.16 151.55 426.71 171.71 C 420.42 171.76 414.13 171.71 407.85 171.74 C 401.09 149.50 390.22 128.55 376.01 110.15 C 359.30 119.39 341.45 126.55 323.04 131.56 C 326.16 144.84 329.07 158.19 330.87 171.73 C 324.72 171.73 318.58 171.74 312.44 171.72 C 310.63 159.76 308.18 147.89 305.13 136.17 C 282.12 141.22 258.60 143.83 235.06 144.34 C 235.00 153.47 235.08 162.60 235.02 171.73 C 229.01 171.74 223.00 171.73 216.99 171.74 C 216.91 162.61 217.00 153.48 216.95 144.35 C 193.39 143.85 169.89 141.17 146.86 136.17 C 143.81 147.89 141.36 159.75 139.56 171.72 C 133.42 171.74 127.27 171.73 121.13 171.73 C 122.94 158.20 125.77 144.85 128.99 131.60 C 110.59 126.49 92.69 119.44 76.00 110.15 C 61.76 128.54 50.91 149.51 44.10 171.75 C 37.83 171.70 31.56 171.77 25.29 171.71 C 37.13 127.88 63.82 88.30 99.95 60.82 M 179.34 64.52 C 166.98 80.72 158.49 99.51 152.00 118.73 C 173.35 123.31 195.13 125.75 216.96 126.27 C 216.85 96.57 217.19 66.85 216.79 37.16 C 201.34 41.14 188.80 52.07 179.34 64.52 M 235.03 37.25 C 235.05 66.93 235.03 96.60 235.04 126.27 C 256.87 125.75 278.65 123.31 300.00 118.73 C 294.40 102.17 287.33 85.99 277.60 71.42 C 267.36 56.19 253.51 41.63 235.03 37.25 M 87.91 96.05 C 102.56 103.83 118.17 109.72 134.11 114.26 C 142.65 88.80 154.42 63.76 172.89 43.93 C 140.59 53.29 110.94 71.55 87.91 96.05 M 279.18 44.03 C 297.62 63.83 309.33 88.85 317.89 114.26 C 333.84 109.75 349.45 103.87 364.09 96.05 C 341.08 71.60 311.50 53.22 279.18 44.03 Z" />
<path fill="#000000" opacity="1.00" d=" M 27.15 189.87 C 33.77 189.87 40.38 189.86 47.00 189.87 C 51.84 206.40 56.68 222.92 61.48 239.46 C 67.45 222.97 73.20 206.40 79.09 189.88 C 86.78 189.85 94.46 189.87 102.15 189.87 C 107.87 206.58 113.19 223.44 119.09 240.10 C 124.08 223.37 128.82 206.56 133.86 189.84 C 140.35 189.90 146.85 189.84 153.34 189.88 C 145.57 213.96 137.78 238.05 129.99 262.13 C 123.09 262.09 116.20 262.25 109.31 262.04 C 103.05 244.05 96.61 226.12 90.28 208.16 C 83.81 226.12 77.54 244.15 71.12 262.13 C 64.10 262.13 57.09 262.14 50.07 262.13 C 42.42 238.04 34.76 213.96 27.15 189.87 Z" />
<path fill="#000000" opacity="1.00" d=" M 162.88 189.88 C 169.53 189.88 176.18 189.81 182.82 189.92 C 187.58 206.35 192.34 222.78 197.19 239.18 C 203.41 222.88 208.88 206.27 214.84 189.87 C 222.54 189.87 230.25 189.86 237.95 189.87 C 243.57 206.65 249.15 223.45 254.78 240.22 C 259.53 224.49 264.03 208.68 268.62 192.89 C 269.12 191.76 269.01 189.42 270.91 189.87 C 276.98 189.83 283.05 189.88 289.12 189.88 C 281.35 213.96 273.54 238.03 265.79 262.11 C 258.91 262.15 252.04 262.14 245.17 262.12 C 238.88 244.50 232.69 226.83 226.37 209.22 C 226.19 209.20 225.83 209.16 225.66 209.13 C 219.38 226.78 213.19 244.47 206.94 262.13 C 199.91 262.14 192.88 262.14 185.86 262.13 C 178.18 238.05 170.53 213.97 162.88 189.88 Z" />
<path fill="#000000" opacity="1.00" d=" M 298.21 189.87 C 304.84 189.87 311.46 189.86 318.09 189.87 C 322.97 206.38 327.80 222.91 332.65 239.43 C 338.62 222.97 344.44 206.45 350.26 189.94 C 358.07 189.90 365.89 189.66 373.69 190.06 C 379.06 206.86 384.84 223.53 390.39 240.28 C 395.40 223.52 400.30 206.72 405.19 189.93 C 411.74 189.79 418.29 189.90 424.85 189.87 C 417.33 213.24 409.67 236.58 402.17 259.96 C 401.90 260.49 401.34 261.53 401.07 262.06 C 394.33 262.28 387.58 262.03 380.84 262.16 C 374.25 244.20 368.07 226.09 361.47 208.14 C 355.19 226.01 348.89 243.89 342.46 261.70 L 342.01 262.06 C 335.07 262.26 328.13 262.08 321.19 262.12 C 313.53 238.03 305.84 213.96 298.21 189.87 Z" />
<path fill="#000000" opacity="1.00" d=" M 25.30 280.28 C 31.55 280.22 37.80 280.34 44.04 280.21 C 50.95 302.44 61.72 323.46 76.00 341.86 C 92.68 332.56 110.57 325.48 128.97 320.43 C 125.81 307.16 122.93 293.80 121.13 280.27 C 127.27 280.26 133.42 280.26 139.56 280.27 C 141.36 292.24 143.82 304.11 146.87 315.83 C 169.88 310.79 193.40 308.14 216.95 307.65 C 216.99 298.52 216.93 289.40 216.98 280.27 C 222.99 280.26 229.00 280.27 235.01 280.26 C 235.09 289.39 235.00 298.52 235.06 307.66 C 258.60 308.16 282.12 310.79 305.13 315.83 C 308.18 304.11 310.62 292.24 312.44 280.27 C 318.58 280.26 324.72 280.26 330.87 280.27 C 329.06 293.67 326.27 306.92 323.08 320.06 L 323.33 320.38 C 341.56 325.68 359.41 332.55 376.01 341.85 C 390.16 323.55 400.92 302.71 407.77 280.63 C 413.85 279.74 420.43 280.52 426.70 280.28 C 416.68 317.17 396.26 351.14 368.38 377.30 C 336.22 407.73 294.13 427.56 250.10 432.50 C 214.71 436.65 178.26 431.52 145.44 417.62 C 111.96 403.55 82.37 380.46 60.44 351.54 C 44.28 330.34 32.31 305.99 25.30 280.28 M 152.00 333.27 C 160.22 357.29 171.37 381.22 189.80 399.16 C 197.40 406.44 206.63 412.32 216.97 414.74 C 216.95 385.07 216.97 355.40 216.96 325.73 C 195.14 326.24 173.35 328.67 152.00 333.27 M 235.04 325.73 C 235.03 355.40 235.05 385.07 235.03 414.74 C 254.01 410.22 268.08 395.04 278.43 379.32 C 287.71 365.06 294.57 349.35 300.00 333.27 C 278.65 328.67 256.87 326.24 235.04 325.73 M 87.91 355.95 C 110.97 380.45 140.61 398.71 172.94 408.05 C 154.41 388.27 142.70 363.19 134.14 337.74 C 118.19 342.27 102.54 348.09 87.91 355.95 M 279.08 408.10 C 311.38 398.65 341.06 380.49 364.09 355.95 C 349.46 348.11 333.85 342.24 317.89 337.74 C 309.33 363.22 297.53 388.23 279.08 408.10 Z" />
</g>
</svg>
