<svg width="2892" height="1484" xmlns="http://www.w3.org/2000/svg" xmlns:xlink="http://www.w3.org/1999/xlink" overflow="hidden"><defs><clipPath id="clip0"><rect x="963" y="389" width="2892" height="1484"/></clipPath></defs><g clip-path="url(#clip0)" transform="translate(-963 -389)"><path d="M2417.05 445.123C2420.65 442.578 2427.75 437.544 2431.35 435 2434.35 447.288 2437.07 459.739 2437.18 472.461 2437.51 526.595 2436.42 580.729 2438 634.863 2432.71 635.134 2422.24 635.675 2417 636 2417.93 617.54 2420.27 599.081 2419.45 580.567 2416.51 535.473 2419.29 490.271 2417.05 445.123Z" fill="#D9D9D9" fill-rule="evenodd"/><path d="M963.407 959.483C962.973 921.2 999.814 889.793 1037.2 892.122 1075.55 893.313 1114.24 890.443 1152.32 893.692 1152.11 897.97 1151.67 906.58 1151.46 910.858 1111.64 913.565 1071.65 911.29 1031.78 910.749 1011.57 911.832 990.658 924.503 984.969 944.755 979.227 965.494 981.61 987.262 981.231 1008.49 981.339 1262.99 981.285 1517.49 981.285 1771.99 981.935 1799.23 1010.54 1820.78 1036.82 1818.78 1158.07 1819.05 1279.31 1818.51 1400.56 1818.72 1421.15 1819.81 1441.25 1807.19 1450.41 1788.94 1458.53 1754.12 1446.45 1716.76 1458.8 1682.65 1461.73 1683.35 1467.58 1684.87 1470.51 1685.57 1475.17 1701.06 1471.7 1717.73 1472.57 1733.71 1472.73 1761.33 1476.25 1793.81 1454.85 1815.26 1437.73 1836.05 1408.64 1837.13 1383.82 1837.95 1279.21 1837.95 1174.59 1837.84 1070.03 1838 1048.25 1837.4 1026.14 1837.03 1004.91 1832.04 979.931 1820.62 961.619 1794.63 963.082 1766.69 963.353 1497.62 962.703 1228.5 963.407 959.483Z" fill="#D9D9D9" fill-rule="evenodd"/><path d="M1133.42 504.759C1135.57 503.083 1139.86 499.676 1142 498 1138.52 528.982 1130.74 559.477 1122.49 589.486 1120.13 590.35 1115.36 592.135 1113 593 1119.27 563.532 1124.79 533.632 1133.42 504.759Z" fill="#EFFBFF" fill-rule="evenodd"/><path d="M1528 975.977C1551.6 974.674 1575.31 975.488 1598.97 975 1599.3 979.612 1599.62 984.279 1600 988.946 1575.96 988.783 1551.98 988.729 1528 989 1528 985.744 1528 979.232 1528 975.977Z" fill="#EFFBFF" fill-rule="evenodd"/><path d="M1049.93 539.019C1067.61 532.948 1085.03 526.056 1102.33 519 1102.28 522.829 1102.06 530.486 1101.95 534.26 1090.85 537.706 1079.75 541.206 1068.86 545.199 1081.44 553.841 1103.64 553.075 1105 572 1086.06 566.093 1067.56 558.982 1049 552.2 1049.22 548.919 1049.71 542.355 1049.93 539.019Z" fill="#F9FFFF" fill-rule="evenodd"/><path d="M1228 708.205C1266.6 708.154 1305.21 708.514 1343.81 708 1344.08 710.979 1344.68 716.886 1345 719.865 1306.94 719.711 1268.93 720.379 1230.93 719.66 1230.22 716.783 1228.76 711.082 1228 708.205Z" fill="#F9FFFF" fill-rule="evenodd"/><path d="M1321.84 826.837C1313.99 809.855 1333.33 817.07 1341.02 815.016 1389.68 815.071 1438.34 814.961 1487 815.016 1486.84 818.235 1486.57 824.672 1486.4 827.891 1431.57 827.059 1376.62 829.223 1321.84 826.837Z" fill="#F9FFFF" fill-rule="evenodd"/><path d="M1230.84 923.206C1274.58 922.846 1318.32 923.515 1362 923 1362 925.935 1361.89 931.755 1361.84 934.691 1317.56 935.155 1273.28 934.691 1229 935 1229.43 932.064 1230.35 926.142 1230.84 923.206Z" fill="#F9FFFF" fill-rule="evenodd"/><path d="M1154.16 519C1172.74 525.728 1191.49 532.291 1209 541.535 1208.3 544.269 1206.95 549.684 1206.24 552.419 1189.39 559.858 1171.72 565.272 1154.59 572 1152.05 551.544 1177.98 553.13 1190.47 545.528 1177.17 539.183 1151.78 540.167 1154.16 519Z" fill="#F9FDFF" fill-rule="evenodd"/><path d="M1369.14 708C1408.02 708.764 1446.9 708.255 1485.78 708.204 1485.84 711.107 1485.95 716.912 1486 719.815 1446.63 720.07 1407.32 720.019 1368 719.917 1368.27 716.912 1368.87 710.954 1369.14 708Z" fill="#F9FDFF" fill-rule="evenodd"/><path d="M1231.59 977.709C1279.82 976.609 1328.15 976.976 1376.38 977.552 1377.25 980.328 1379.08 985.827 1380 988.603 1329.67 989.284 1279.33 988.917 1229 988.76 1229.65 986.037 1230.94 980.485 1231.59 977.709Z" fill="#F9FDFF" fill-rule="evenodd"/><path d="M1779 638.003C1991.62 635.4 2204.47 638.708 2417.14 636.376 2422.35 636.051 2432.75 635.508 2438.01 635.237 2491.49 639.142 2544.8 631.657 2598.34 634.803 2650.68 631.495 2703.03 639.847 2755.32 634.206 2795.52 636.972 2835.84 636.647 2876.15 635.671 2891.86 635.725 2907.58 635.237 2923.29 634.857 2952.12 635.888 2980.89 636.864 3009.77 636.267 3033.94 636.539 3059.08 633.501 3082.27 642.234 3086.17 648.254 3089.53 654.6 3093 661 3078.53 654.383 3064.44 644.512 3047.86 645.325 2991.89 645.488 2935.86 647.441 2880.05 642.667 2773.41 642.83 2666.72 642.288 2560.09 642.667 2511.16 642.288 2462.12 643.915 2413.3 640.552 2402.73 639.793 2392.22 639.088 2381.65 638.817 2182.9 638.057 1984.15 639.847 1785.45 637.949L1779 638.003Z" fill="#21343A" fill-rule="evenodd"/><path d="M3029.14 711C3035.41 722.382 3039.15 734.957 3038.39 748.02 3037.74 804.553 3038.99 861.086 3036.17 917.564 3039.15 1006.62 3035.9 1095.73 3037.85 1184.78 3052.57 1183.59 3067.34 1182.34 3082.12 1183.43 3100.14 1121.63 3079.2 1055.94 3094.68 993.826L3094.84 997.783C3095.22 1051.39 3094.68 1104.99 3095 1158.6 3094.89 1171.07 3094.68 1183.53 3094.41 1196 3073.3 1195.78 3052.19 1195.19 3031.08 1195.67L3028.22 1195.67C3028.27 1192.53 3028.32 1186.24 3028.38 1183.15 3028.38 1083.91 3029.08 984.72 3028 885.531 3029.41 827.372 3027.57 769.159 3029.14 711Z" fill="#21343A" fill-rule="evenodd"/><path d="M1979 1160.65C1980.2 1158.27 1982.7 1153.44 1983.96 1151 2008.14 1153.17 2032.5 1151.98 2056.74 1153.33 2066.71 1153.66 2081.25 1157.89 2078.75 1170.69 2079.07 1225.2 2079.24 1279.7 2078.58 1334.21 2088.23 1332.48 2097.87 1330.69 2107.56 1328.95 2107.62 1340.5 2107.78 1352 2108 1363.55 2104.46 1364.04 2097.38 1364.96 2093.84 1365.45 2086.21 1366.37 2078.58 1367.24 2070.96 1368 2070.85 1345.22 2070.08 1322.44 2069.21 1299.66 2068.56 1257.25 2069.54 1214.84 2068.94 1172.42 2068.89 1169.06 2068.72 1162.39 2068.67 1159.08 2038.76 1159.62 2008.8 1157.73 1979 1160.65Z" fill="#21343A" fill-rule="evenodd"/><path d="M2413.27 640C2462.07 643.36 2511.09 641.734 2560 642.114 2666.6 641.734 2773.25 642.276 2879.85 642.114 2935.64 646.882 2991.64 644.932 3047.6 644.769 3064.17 643.956 3078.25 653.819 3092.72 660.43 3096.51 740.741 3094.4 821.323 3094.56 901.743 3094.29 932.524 3094.78 963.304 3094.12 994.085 3078.63 1056.19 3099.6 1121.87 3081.56 1183.65 3066.77 1182.56 3051.98 1183.81 3037.25 1185 3035.3 1095.96 3038.55 1006.87 3035.57 917.838 3038.39 861.371 3037.14 804.849 3037.79 748.328 3038.55 735.268 3034.81 722.696 3028.53 711.316 3028.21 710.448 3027.5 708.714 3027.12 707.847 2809.43 707.414 2591.74 708.498 2374 707.306 2386.78 684.708 2399.51 662.056 2413.27 640Z" fill="#254049" fill-rule="evenodd"/><path d="M2107.25 1363.37C2124.14 1361.48 2140.65 1367.11 2155.96 1373.65 2160.29 1382.58 2163.48 1392.05 2164.84 1401.9 2166.3 1427.12 2166.57 1452.5 2164.57 1477.77 2162.94 1514.02 2164.19 1550.28 2163.59 1586.59 2163.54 1643.03 2162.02 1699.47 2164.73 1755.91 2164.73 1758.83 2164.73 1764.73 2164.73 1767.71 2152.61 1787.67 2163.81 1817.11 2143.08 1831.89 2133.94 1839.52 2121.22 1837.57 2110.18 1838 2048.81 1836.16 1987.44 1837.78 1926.12 1837.13 1907.07 1837.68 1896.79 1815 1877.31 1816.52 1796.45 1818.19 1715.49 1816.52 1634.59 1817.65L1631.23 1817.71C1627.17 1811.48 1623.11 1805.32 1619 1799.15L1620.84 1792.6C1621 1790 1621.33 1784.75 1621.49 1782.16 1631.66 1759.21 1645.9 1738.38 1657.42 1716.14L1659.64 1711.43C1668.57 1715.16 1678.21 1716.19 1687.78 1715.97 1722.91 1715.81 1758.08 1715.49 1793.21 1715.92 1825.03 1718.08 1856.96 1716.73 1888.83 1718.08 1888.45 1731.94 1888.08 1745.79 1887.59 1759.64 1865.08 1757.7 1842.35 1757.59 1820.32 1763.11 1819.89 1771.44 1819.4 1779.83 1818.91 1788.22 1841.32 1793.84 1864.53 1794.66 1887.48 1793.57 1888.02 1797.85 1889 1806.45 1889.48 1810.73 1897.76 1795.52 1906.58 1780.42 1912.27 1764.03 1914.49 1757.1 1916.49 1750.12 1918.33 1743.14 1917.95 1751.42 1917.68 1759.7 1917.46 1768.03 1942.41 1768.09 1967.41 1768.03 1992.36 1768.19 2040.8 1768.25 2089.23 1768.25 2137.67 1768.19 2135.13 1646.76 2138.26 1525.23 2135.83 1403.79L2135.61 1401.2C2117.54 1398.76 2099.25 1398.87 2081.06 1400.06 2084.63 1388.32 2088.75 1376.68 2093.18 1365.27 2096.7 1364.78 2103.74 1363.86 2107.25 1363.37M1991.33 1819.17C2009.84 1825.34 2029.76 1825.82 2048.97 1823.17 2056.06 1820.47 2062.99 1813.97 2060.06 1805.75 2048.16 1789.14 2024.89 1796.5 2007.62 1795.95 1994.31 1794.76 1991.66 1809 1991.33 1819.17Z" fill="#254049" fill-rule="evenodd"/><path d="M1264 654.981C1303.21 650.853 1342.68 654.713 1382 653.158 1381.46 659.377 1383.83 669.564 1374.08 669.242 1339.72 670.1 1305.15 670.475 1270.73 669.027 1269.06 665.489 1265.67 658.52 1264 654.981Z" fill="#D47A62" fill-rule="evenodd"/><path d="M1235.03 812.892C1254.82 811.648 1274.77 811.811 1294.61 812.73 1300.29 816.352 1301.48 821.325 1298.18 827.704 1275.91 828.299 1253.68 827.866 1231.46 827.542L1228 827.434C1230.16 823.055 1228 813.216 1235.03 812.892Z" fill="#D47A62" fill-rule="evenodd"/><path d="M2373.97 707C2591.88 708.192 2809.74 707.108 3027.59 707.542 3027.97 708.408 3028.68 710.141 3029 711.008 3027.43 769.12 3029.27 827.288 3027.86 885.4 3020.54 832.487 3026.72 778.978 3023.69 725.848 3022.01 779.14 3023.2 832.487 3023.69 885.833 2774.77 886.159 2525.86 885.888 2277 885.996 2288.71 852.255 2310.77 823.713 2328.06 792.788 2341.94 770.475 2349.09 744.478 2365.52 723.681 2576.76 724.439 2788 723.573 2999.24 724.114 3009.32 722.652 3024.18 726.768 3028.19 713.445 2846.98 710.52 2665.66 713.012 2484.39 712.145 2446.88 713.283 2409.05 709.167 2371.75 714.691 2372.29 712.795 2373.43 708.95 2373.97 707Z" fill="#FFD159" fill-rule="evenodd"/><path d="M1969.37 1169.22C1970.72 1169.16 1973.37 1169.05 1974.73 1169 2004.41 1171.17 2034.32 1172.04 2064 1169.11 2061.35 1212.62 2063.51 1256.23 2060.53 1299.74 2006.74 1298.44 1952.41 1304.74 1899 1297.3 1919.75 1253.14 1946.61 1212.35 1969.37 1169.22Z" fill="#FFD159" fill-rule="evenodd"/><path d="M3024.51 1250C3143.24 1251.46 3261.97 1249.3 3380.65 1251.08 3382.05 1288.76 3379.4 1326.55 3382 1364.18 3359.31 1368.22 3336.23 1368.33 3313.32 1367.74 3195.56 1367.52 3077.81 1367.9 2960 1367.47 2977.33 1326.01 3004.04 1289.68 3024.51 1250Z" fill="#FFD159" fill-rule="evenodd"/><path d="M1837.61 723.459C1841.03 717.18 1849.38 719.833 1855.18 718.696 2012.48 719.399 2169.78 718.425 2327.03 719.183 2341.99 719.237 2356.84 717.289 2371.58 714.961 2408.88 709.44 2446.71 713.554 2484.22 712.417 2665.48 713.283 2846.79 710.793 3028 713.716 3023.99 727.032 3009.14 722.918 2999.06 724.379 2787.82 723.838 2576.58 724.704 2365.35 723.947 2191.3 722.593 2017.25 724.379 1843.2 723.026 1841.84 776.018 1843.52 829.009 1841.73 882 1832.79 858.238 1837.13 832.636 1836.58 807.953 1837.45 779.807 1834.58 751.497 1837.61 723.459Z" fill="#C6A442" fill-rule="evenodd"/><path d="M3030.02 1236.24C3031.38 1236.19 3034.03 1236.02 3035.39 1235.92 3149.67 1234.51 3264 1234.99 3378.29 1235.59 3379.48 1236.51 3381.81 1238.41 3383 1239.33 3381.86 1283.54 3383 1327.8 3382.46 1372L3382.13 1364.73C3379.53 1326.87 3382.19 1288.85 3380.78 1250.94 3262.05 1249.15 3143.28 1251.32 3024.5 1249.86 2853.81 1248.93 2683.06 1248.77 2512.37 1249.96 2512.32 1289.83 2514.05 1329.75 2511.07 1369.56 2506.79 1360.01 2502.35 1350.14 2503.16 1339.35 2503.22 1307.94 2503.65 1276.54 2503 1245.14 2520.07 1241.77 2537.3 1238.9 2554.8 1238.95 2683.06 1239.33 2811.38 1239.12 2939.69 1239.06 2969.82 1238.74 3000.11 1241.18 3030.02 1236.24Z" fill="#C6A442" fill-rule="evenodd"/><path d="M1843.46 723C2017.64 724.352 2191.82 722.567 2366 723.919 2349.56 744.685 2342.4 770.642 2328.52 792.922 2311.21 823.8 2289.14 852.299 2277.42 885.989L2273.46 885.989C2129.88 885.881 1986.34 886.043 1842.81 885.989L1842 881.825C1843.79 828.883 1842.11 775.941 1843.46 723Z" fill="#FFDF8C" fill-rule="evenodd"/><path d="M1656.32 1162.16C1762.85 1160.68 1869.48 1163.69 1976 1161 1936.47 1170.07 1895.76 1163.74 1855.63 1165.17 1789.07 1166.27 1722.51 1163.74 1656 1165.43L1656.32 1162.16Z" fill="#FFDF8C" fill-rule="evenodd"/><path d="M1664.73 1171.35C1766.42 1169.25 1868.11 1171.67 1969.8 1170.11 1947.06 1212.91 1920.2 1253.39 1899.46 1297.21 1952.85 1304.6 2007.16 1298.35 2060.93 1299.64 2063.91 1256.46 2061.74 1213.18 2064.4 1170L2068.73 1172.91C2069.32 1215.06 2068.35 1257.22 2069 1299.37L2068.95 1306C1978.68 1305.68 1888.47 1303.63 1798.21 1303.52 1753.54 1302.66 1708.92 1304.17 1664.25 1302.82 1664.57 1259 1663.22 1215.17 1664.73 1171.35Z" fill="#FFDF8C" fill-rule="evenodd"/><path d="M2512.3 1249.84C2682.85 1248.66 2853.45 1248.82 3024 1249.74 3003.53 1289.51 2976.84 1325.93 2959.52 1367.49 2810.03 1368.46 2660.43 1365.43 2511 1369 2513.98 1329.34 2512.25 1289.56 2512.3 1249.84Z" fill="#FFDF8C" fill-rule="evenodd"/><path d="M1363.75 761.597C1393 760.283 1422.31 761.597 1451.57 761.269 1451.68 764.335 1451.89 770.576 1452 773.697 1421.67 774.245 1391.33 773.861 1361 773.971 1361.7 770.905 1363.1 764.718 1363.75 761.597Z" fill="#F4FEFF" fill-rule="evenodd"/><path d="M1331.49 1190.11C1348.42 1190.34 1365.41 1190.34 1382.4 1190 1382.57 1193.18 1382.84 1199.66 1383 1202.84 1365.63 1203.01 1348.32 1203.07 1331 1202.9 1331.11 1199.72 1331.33 1193.29 1331.49 1190.11Z" fill="#F4FEFF" fill-rule="evenodd"/><path d="M1185 869.424C1214.49 864.961 1244.57 864.738 1274 869.48 1273.95 872.493 1273.84 878.574 1273.78 881.587 1244.46 882.033 1215.14 882.256 1185.87 881.531 1185.65 878.518 1185.22 872.437 1185 869.424Z" fill="#2DCFD7" fill-rule="evenodd"/><path d="M1797.3 1583 1798.99 1583.6C1799.05 1627.69 1798.67 1671.77 1798.83 1715.86L1793.6 1715.92C1758.2 1715.49 1722.75 1715.81 1687.36 1715.97 1677.71 1716.19 1668 1715.16 1659 1711.42 1660.15 1707.58 1662.38 1699.78 1663.47 1695.93L1666.14 1697.99C1672.52 1702.65 1678.47 1709.64 1687.3 1708.93 1721.93 1710.01 1756.67 1709.53 1791.25 1707.2 1794.47 1666.85 1790.87 1626.44 1791.91 1586.09 1793.21 1585.33 1795.94 1583.81 1797.3 1583Z" fill="#2DCFD7" fill-rule="evenodd"/><path d="M1827.02 883C1832.56 885.173 1838.15 887.345 1843.75 889.572 1848.26 952.625 1844.02 1015.95 1845.7 1079.11 1858.47 1079.06 1871.23 1078.95 1884 1078.89 1883.19 1090.24 1882.53 1101.65 1881.88 1113 1869.6 1113 1857.33 1112.89 1845.05 1112.62 1844.78 1102.08 1844.56 1091.6 1844.29 1081.07 1840.05 1080.52 1831.52 1079.44 1827.29 1078.89 1826.64 1013.61 1827.34 948.28 1827.02 883Z" fill="#C3C4C6" fill-rule="evenodd"/><path d="M2499.89 1235.17C2676.59 1235.39 2853.3 1234.36 3030 1235.71 3000.1 1240.65 2969.82 1238.21 2939.7 1238.53 2811.42 1238.59 2683.15 1238.8 2554.93 1238.43 2537.43 1238.37 2520.2 1241.24 2503.14 1244.61 2503.79 1276 2503.35 1307.39 2503.3 1338.78 2502.49 1349.57 2506.93 1359.43 2511.21 1368.97 2515.49 1396.46 2512.94 1424.44 2513.38 1452.14 2512.67 1549.07 2515.27 1646.12 2511.81 1743 2508.66 1742.95 2502.33 1742.78 2499.13 1742.73 2498.7 1573.53 2499.45 1404.38 2499.89 1235.17Z" fill="#C3C4C6" fill-rule="evenodd"/><path d="M1884.18 933.162C1899.16 927.688 1915.83 931.102 1931.52 930.56 2017.78 930.994 2104.05 930.94 2190.32 930.398 2191.19 962.643 2191.19 994.833 2190.54 1027.02 2167.52 1056.56 2155.25 1092.6 2133.59 1123 2129.03 1099.05 2109.7 1077.64 2083.8 1078.94 2017.02 1077.75 1950.19 1078.51 1883.42 1078.56 1883.52 1030.17 1877.44 981.231 1884.18 933.162Z" fill="#B7E79D" fill-rule="evenodd"/><path d="M2539.95 1400C2614.9 1400.27 2689.86 1399.95 2764.81 1400.32 2765.14 1453.43 2766.99 1506.54 2765.3 1559.64 2696.81 1560.13 2628.32 1558.4 2559.94 1560.78 2552.99 1560.08 2541.69 1563.7 2538.1 1555.64 2539.9 1503.78 2535.77 1451.81 2539.95 1400Z" fill="#B7E79D" fill-rule="evenodd"/><path d="M2665.74 1151.78C2664.6 1077.89 2664.93 1003.95 2665.69 930.054 2767.04 930.597 2868.45 930.76 2969.85 930 2972.51 939.617 2974.19 949.559 2973.92 959.611 2973.76 1013.89 2973.65 1068.17 2973.98 1122.44 2974.25 1132.44 2972.13 1142.27 2969.85 1152 2868.5 1151.02 2767.09 1151.46 2665.74 1151.78Z" fill="#00D3E8" fill-rule="evenodd"/><path d="M3121.55 1463.08C3121.71 1444 3118.56 1424 3126.77 1406 3194.99 1408.65 3263.53 1402.54 3331.42 1411.46 3334.19 1459.13 3332.56 1507.02 3332.18 1554.8 3262.66 1554.53 3193.14 1555.77 3123.62 1554.15 3118.67 1523.99 3122.42 1493.45 3121.55 1463.08Z" fill="#00D3E8" fill-rule="evenodd"/><path d="M3739.27 931 3744.54 931C3768.55 935.712 3785.55 954.236 3807.33 963.607L3812.22 965.557C3838.51 992.693 3857.09 1029.74 3854.81 1068.2 3856.28 1098.37 3837.43 1123.5 3820.97 1146.9 3788.43 1196.78 3767.24 1257.45 3776.15 1317.3 3778.49 1389.55 3783.97 1461.7 3784.03 1534.06 3788.7 1580.86 3793.1 1627.77 3793.1 1674.83 3792.94 1718.06 3803.96 1761.5 3796.69 1804.45 3786.15 1857.15 3720.2 1886.99 3673.1 1862.08 3657.51 1854.06 3641.75 1841.39 3635.94 1824.54 3633.5 1796.43 3628.83 1768.21 3632.85 1740.05 3641.05 1639.03 3641.1 1537.58 3650.01 1436.62 3654.3 1393.4 3651.32 1349.96 3653.92 1306.68 3653.81 1285.34 3657.62 1262.54 3648.49 1242.44 3644.85 1238.92 3641.21 1235.4 3637.63 1231.99 3635.78 1221.37 3634.15 1210.7 3631.76 1200.25L3629.59 1196.24C3620.84 1179.99 3612.53 1163.47 3602.81 1147.76 3591.23 1129.29 3576.84 1111.75 3571.73 1090.08 3560.43 1038.14 3585.1 981.643 3628.88 952.07 3629.8 956.89 3631.65 966.477 3632.57 971.298 3633.12 967.127 3634.31 958.84 3634.91 954.669 3634.96 990.147 3646.92 1023.89 3653.6 1058.39 3674.84 1067.11 3697.55 1074.1 3720.74 1070.36 3738.67 1057.8 3760.67 1039.33 3755.56 1014.79 3751.92 986.572 3744.92 958.894 3739.27 931M3697.6 1242.66 3703.3 1248.62C3690.32 1249.38 3686.19 1263.57 3685.87 1274.29 3680.49 1387.39 3670.82 1500.26 3666.47 1613.47 3655.88 1643.69 3659.14 1677.11 3659.19 1708.74 3676.36 1706.68 3692.82 1700.83 3709.98 1698.67 3728.18 1698.72 3745.08 1706.9 3762.19 1712.15 3759.85 1602.74 3749.1 1493.6 3744.7 1384.24 3740.62 1345.95 3742.58 1307.11 3736.55 1269.04 3733.67 1250.84 3714.82 1240.98 3697.6 1242.66M3679.29 1732.9C3647.3 1748.28 3642.41 1793.45 3659.9 1821.24 3669.62 1838.95 3690.32 1846.05 3709.01 1849.68 3744.1 1851.19 3777.78 1818.8 3772.62 1783 3773 1738.21 3716.61 1708.74 3679.29 1732.9Z" fill="#E1E2E6" fill-rule="evenodd"/><path d="M2280.33 1609.62C2281.96 1609.24 2285.27 1608.38 2286.89 1608 2337.82 1609.4 2388.8 1606.65 2439.67 1609.73 2438.16 1657.15 2439.84 1704.58 2440 1752 2438.16 1740.89 2436.15 1729.77 2434.25 1718.71 2382.57 1717.09 2330.82 1719.25 2279.14 1717.63 2278.87 1712.56 2278.27 1702.42 2278 1697.35L2278.05 1696.05C2281.25 1667.35 2279.57 1638.43 2280.33 1609.62Z" fill="#E1E2E6" fill-rule="evenodd"/><path d="M2582.34 1181 2585.21 1181.27C2586.03 1184.85 2587.71 1192.05 2588.52 1195.68 2612.5 1195.09 2636.58 1197.47 2660.45 1194.65 2662.18 1191.29 2665.65 1184.58 2667.39 1181.16L2667.88 1181.16C2668.04 1185.17 2668.42 1193.25 2668.58 1197.26 2770.07 1196.23 2871.6 1197.36 2973.04 1196.28 2991.42 1195.79 3009.86 1195.52 3028.31 1195.68L3031.18 1195.68C3039.75 1196.23 3048.38 1196.93 3057 1197.69 3049.9 1210.37 3042.74 1223.05 3035.68 1235.72 3034.33 1235.83 3031.67 1236 3030.31 1236.05 2853.38 1234.7 2676.45 1235.72 2499.51 1235.51 2499.08 1404.61 2498.32 1573.66 2498.75 1742.77 2501.95 1742.82 2508.3 1742.98 2511.45 1743.04 2587.65 1744.07 2663.86 1743.36 2740.07 1743.53 2733.62 1756.69 2727.11 1769.86 2720.71 1783.13 2635.17 1784.38 2549.58 1781.67 2464.09 1784 2457.64 1779.07 2450.91 1774.41 2444.84 1769.1 2444.08 1767.75 2442.61 1765.09 2441.91 1763.79 2446.03 1764.01 2454.38 1764.44 2458.51 1764.66 2459.32 1713.08 2459.48 1661.44 2458.4 1609.91 2454.98 1608.66 2448.09 1606.23 2444.68 1605.03 2442.67 1599.51 2440.66 1593.98 2438.71 1588.51 2443.75 1588.89 2453.84 1589.75 2458.83 1590.19 2458.72 1553.29 2458.83 1516.45 2458.99 1479.6 2454.22 1479.22 2444.68 1478.52 2439.96 1478.14L2434.37 1477.81C2442.56 1477.6 2450.75 1477.05 2458.94 1476.62 2458.89 1452.29 2459.59 1427.97 2458.61 1403.69 2455.25 1403.26 2448.47 1402.45 2445.11 1402.01 2448.53 1401.42 2455.41 1400.28 2458.89 1399.68 2458.94 1377.74 2458.89 1355.74 2458.56 1333.74 2453.73 1333.52 2444.02 1333.04 2439.14 1332.77 2349.16 1331.19 2259.12 1332.66 2169.13 1332.06 2156.38 1332.12 2143.69 1332.33 2131 1332.55 2131.11 1328.81 2131.22 1321.33 2131.33 1317.59 2234.44 1318.08 2337.6 1317.32 2440.77 1318.03 2435.78 1332.22 2460.84 1333.42 2457.58 1318.84 2457.96 1309.74 2458.24 1300.69 2458.61 1291.59 2464.47 1275.98 2438.71 1275.6 2442.13 1290.99 2338.8 1290.61 2235.47 1290.23 2132.14 1291.21 2132.03 1287.63 2131.92 1280.48 2131.81 1276.9 2211.33 1277.39 2290.79 1277.12 2370.26 1277.12 2394.07 1277.07 2418.04 1278.8 2441.58 1274.47 2445.76 1273.71 2454.06 1272.19 2458.18 1271.43 2458.13 1270.02 2457.96 1267.26 2457.86 1265.9 2449.61 1264.22 2441.37 1262.6 2433.18 1261.03 2441.37 1260.32 2449.56 1259.24 2457.75 1258.26 2458.67 1248.84 2459.65 1239.41 2460.62 1229.98 2451.73 1228.95 2442.89 1227.81 2433.99 1227.11L2437.84 1226.84C2445.27 1226.03 2452.7 1225.16 2460.19 1224.29 2466.37 1215.14 2472.72 1206.03 2479.06 1196.98 2513.02 1196.33 2546.97 1196.82 2580.93 1197.15 2581.31 1193.14 2582.01 1185.06 2582.34 1181Z" fill="#778082" fill-rule="evenodd"/><path d="M2000 1642.36C2036.74 1642.06 2073.48 1642.26 2110.28 1642.26 2117.69 1641.13 2123.81 1643.69 2127 1649.9 2086.04 1651.57 2045.02 1650.93 2004.06 1650.59 2003.03 1648.52 2001.03 1644.43 2000 1642.36Z" fill="#778082" fill-rule="evenodd"/><path d="M2776.45 1681.2C2959.19 1681.3 3141.99 1681.46 3324.72 1681.14 3333.24 1682.84 3361.93 1675.78 3351.9 1691.71 3157.99 1692.19 2963.97 1691.93 2770 1691.93 2771.63 1689.22 2774.83 1683.91 2776.45 1681.2Z" fill="#778082" fill-rule="evenodd"/><path d="M2004.59 1704.04C2036.24 1701.8 2068 1704.04 2099.7 1703.04 2109.26 1704.27 2122.82 1699.32 2128 1711.41 2085.5 1716.18 2042.61 1712.82 2000 1713.23 2001.13 1710.93 2003.46 1706.34 2004.59 1704.04Z" fill="#778082" fill-rule="evenodd"/><path d="M3703.38 1248.92C3706.06 1248.7 3711.32 1248.22 3714 1248 3708.21 1251.41 3702.46 1254.77 3696.78 1258.18 3686.21 1388.03 3674.51 1517.83 3668.99 1648 3668.18 1636.62 3667.38 1625.19 3667 1613.82 3671.29 1500.6 3680.84 1387.71 3686.15 1274.6 3686.48 1263.87 3690.55 1249.68 3703.38 1248.92Z" fill="#869497" fill-rule="evenodd"/><path d="M2528 1616.29C2623.65 1615.85 2719.35 1616.01 2815 1616.12 2810.99 1624.03 2806.98 1631.93 2802.97 1639.84 2711.55 1639.78 2620.13 1639.46 2528.7 1640 2528.43 1632.1 2528.16 1624.19 2528 1616.29Z" fill="#869497" fill-rule="evenodd"/><path d="M2132 1293.6C2234.3 1293.5 2336.65 1291.98 2438.89 1294.2 2439.54 1302.13 2440.24 1310.07 2441 1318 2338.05 1317.3 2235.11 1318.05 2132.22 1317.57 2132.11 1309.58 2132.05 1301.59 2132 1293.6Z" fill="#F0F0F1" fill-rule="evenodd"/><path d="M1797.77 1304C1888.2 1304.11 1978.57 1306.16 2069 1306.49 2068.73 1315.2 2068.4 1323.91 2068.08 1332.57 2022.46 1330.94 1976.78 1332.24 1931.11 1331.76 1917.06 1330.56 1904.31 1336.62 1893.03 1344.31 1866.82 1344.69 1840.68 1345.34 1814.53 1346.15 1815.94 1348.91 1818.76 1354.37 1820.17 1357.08 1843.01 1360.21 1866.17 1358.7 1889.12 1358.16 1889.07 1366.65 1888.9 1375.15 1888.63 1383.64L1887.76 1389.32C1864.22 1388.02 1840.62 1388.24 1817.13 1389.32 1817.3 1392.62 1817.62 1399.17 1817.79 1402.47 1840.79 1403.77 1863.84 1404.04 1886.9 1403.5 1888.36 1429.57 1887.71 1455.65 1887.76 1481.78 1864.55 1481.78 1841.38 1481.73 1818.17 1481.57 1818.11 1484.92 1817.95 1491.52 1817.89 1494.88 1841.11 1494.82 1864.38 1494.77 1887.6 1494.61 1887.71 1505.05 1887.82 1515.55 1887.98 1526.04 1864.17 1525.83 1840.35 1525.88 1816.54 1526.26 1816.54 1529.34 1816.59 1535.51 1816.59 1538.59 1840.19 1538.65 1863.84 1538.76 1887.49 1538.59 1887.76 1565.21 1887.55 1591.83 1887.82 1618.4 1864.06 1618.34 1840.3 1618.4 1816.54 1618.51 1816.65 1622.02 1816.86 1629 1816.97 1632.52 1840.57 1632.46 1864.17 1632.36 1887.76 1632.46 1887.93 1642.47 1888.03 1652.54 1888.2 1662.6 1864.93 1662.76 1841.65 1662.76 1818.38 1662.33 1818.22 1665.95 1817.84 1673.15 1817.68 1676.72 1841 1676.77 1864.27 1676.72 1887.6 1676.4 1888.03 1689.22 1888.41 1702.1 1888.85 1714.97 1858.58 1715.62 1828.36 1715.19 1798.09 1716 1797.93 1671.96 1798.31 1627.92 1798.26 1583.88L1796.58 1583.28C1750.14 1577.22 1703.43 1588.64 1657 1581.82L1657.27 1575.98C1684.5 1573.38 1711.95 1574.79 1739.29 1574.74 1758.82 1574.95 1778.35 1574.9 1797.88 1574.68 1797.71 1542 1798.15 1509.38 1797.82 1476.75 1797.39 1466.15 1796.47 1455.54 1795.49 1444.94 1749.44 1445.21 1703.33 1445.54 1657.22 1444.94 1657.22 1443.37 1657.16 1440.29 1657.16 1438.72 1658.9 1438.77 1662.42 1438.77 1664.21 1438.77 1702.73 1438.5 1741.3 1439.75 1779.81 1438.61 1787.25 1439.15 1798.37 1435.85 1797.12 1426.33 1798.31 1385.59 1796.79 1344.79 1797.77 1304Z" fill="#F0F0F1" fill-rule="evenodd"/><path d="M2455.57 1786.28C2457.74 1785.68 2461.96 1784.54 2464.08 1783.99 2549.47 1781.64 2634.97 1784.37 2720.41 1783.12 2953.61 1783.83 3186.81 1782.52 3420.01 1784.21L3423.58 1784.37C3439.29 1806.14 3457.99 1825.4 3475 1846.13 3472.24 1846.35 3466.66 1846.78 3463.84 1847 3114.04 1845.91 2764.19 1846.56 2414.39 1846.73L2408 1846.45C2420.08 1823.38 2441.48 1807.72 2455.57 1786.28M2766.25 1836.25C2881.93 1837.02 2997.61 1836.96 3113.28 1836.2 3098.49 1826.11 3083.1 1814.16 3064.3 1814.6 2982.81 1814.7 2901.32 1815.03 2819.83 1814.43 2799.25 1812.41 2782.67 1826.11 2766.25 1836.25Z" fill="#F0F0F1" fill-rule="evenodd"/><path d="M2069.46 1300C2070.32 1322.72 2071.08 1345.45 2071.19 1368.17 2078.8 1367.41 2086.4 1366.55 2094 1365.63 2089.55 1377.04 2085.42 1388.67 2081.84 1400.41 2026.72 1402.31 1971.55 1401.44 1916.43 1400.63 1913.23 1425.14 1912.3 1449.97 1915.13 1474.59 1919.2 1510.95 1916.81 1547.57 1917.35 1584.09L1917.35 1589.61C1916.59 1617.53 1918.33 1645.5 1916.32 1673.42L1915.34 1679.1C1909.53 1707.18 1912.9 1735.91 1912.47 1764.31 1906.76 1780.7 1897.91 1795.8 1889.6 1811 1889.12 1806.73 1888.14 1798.12 1887.6 1793.85 1887.05 1782.54 1887.32 1771.18 1887.7 1759.93 1888.19 1746.08 1888.57 1732.23 1888.95 1718.38 1856.97 1717.02 1824.93 1718.38 1793 1716.21L1798.21 1716.16C1828.51 1715.35 1858.76 1715.78 1889.06 1715.13 1888.63 1702.25 1888.25 1689.38 1887.81 1676.55 1864.46 1676.88 1841.17 1676.93 1817.82 1676.88 1817.98 1673.31 1818.36 1666.11 1818.52 1662.49 1841.82 1662.92 1865.11 1662.92 1888.41 1662.76 1888.25 1652.7 1888.14 1642.63 1887.98 1632.62 1864.35 1632.52 1840.73 1632.62 1817.11 1632.68 1817 1629.16 1816.78 1622.18 1816.68 1618.66 1840.46 1618.56 1864.25 1618.5 1888.03 1618.56 1887.76 1591.99 1887.98 1565.37 1887.7 1538.76 1864.03 1538.92 1840.35 1538.81 1816.73 1538.76 1816.73 1535.67 1816.68 1529.5 1816.68 1526.42 1840.51 1526.04 1864.35 1525.99 1888.19 1526.2 1888.03 1515.71 1887.92 1505.21 1887.81 1494.77 1864.57 1494.93 1841.28 1494.99 1818.03 1495.04 1818.09 1491.69 1818.25 1485.09 1818.31 1481.73 1841.55 1481.89 1864.73 1481.95 1887.98 1481.95 1887.92 1455.82 1888.57 1429.74 1887.11 1403.66L1886.89 1401.12C1871.03 1399.71 1853.76 1403.17 1839.65 1394.25 1855.67 1391.81 1871.79 1390.62 1887.98 1389.49L1888.84 1383.81C1895.85 1376.34 1903.18 1367.03 1914.53 1367.2 1965.41 1364.65 2016.4 1367.41 2067.34 1365.9 2067.66 1354.86 2068.04 1343.77 2068.48 1332.73 2068.8 1324.08 2069.13 1315.37 2069.4 1306.65L2069.46 1300Z" fill="#68797B" fill-rule="evenodd"/><path d="M2000 1621.5C2002.17 1608.5 2015.07 1612.83 2024.17 1612.22 2058.1 1612.95 2092.02 1612.28 2126 1612.5 2125.35 1614.89 2124.05 1619.61 2123.4 1622 2082.27 1621.67 2041.13 1622.33 2000 1621.5Z" fill="#68797B" fill-rule="evenodd"/><path d="M2526 1655.36C2624.07 1651.93 2722.57 1659.06 2820.42 1651.05 2998.39 1651.33 3176.41 1651.44 3354.39 1651 3358.29 1665.38 3342.57 1660.42 3335.36 1662 3163.78 1661.78 2992.21 1661.89 2820.69 1661.95 2728.37 1659.44 2636.05 1660.97 2543.73 1660.69 2537 1661.18 2531.1 1659.44 2526 1655.36Z" fill="#68797B" fill-rule="evenodd"/><path d="M2178 1409.77C2264.9 1408.84 2351.8 1408.57 2438.7 1409.99 2439.95 1429.22 2440.22 1448.52 2439.84 1467.81 2355.65 1469.01 2271.36 1469.77 2187.17 1467.75 2184.46 1448.52 2191.72 1425.68 2178 1409.77Z" fill="#264049" fill-rule="evenodd"/><path d="M3463.83 1846.87C3466.64 1846.65 3472.22 1846.22 3474.98 1846 3475.47 1857.45 3464.91 1869.33 3453.1 1866.61 3421.25 1860.17 3388.8 1863.93 3356.63 1863.39 3065.85 1863.01 2775.08 1863.44 2484.31 1863.17 2465.13 1862.84 2444.93 1865.41 2427 1857.12 2449.48 1852.11 2472.55 1853.2 2495.41 1853.69 2809.48 1853.96 3123.6 1853.63 3437.61 1853.96 3446.76 1853.52 3455.21 1849.71 3463.83 1846.87Z" fill="#264049" fill-rule="evenodd"/><path d="M2280 1587.72C2332.88 1587.56 2385.77 1585.82 2438.54 1588.42 2440.5 1593.91 2442.5 1599.45 2444.51 1604.99 2447.93 1606.19 2454.82 1608.63 2458.23 1609.88 2459.32 1661.53 2459.16 1713.29 2458.34 1765 2454.22 1764.78 2445.87 1764.35 2441.74 1764.13L2440.55 1758.43 2439.63 1752.56C2439.47 1704.82 2437.78 1657.08 2439.3 1609.34 2388.43 1606.24 2337.44 1609.01 2286.51 1607.6 2284.34 1600.97 2282.12 1594.29 2280 1587.72Z" fill="#B3B5B8" fill-rule="evenodd"/><path d="M2434 1870.17C2497.61 1872.08 2561.33 1870.46 2625 1870.98 2898.31 1870.29 3171.68 1872.31 3445 1870 3435.67 1871.79 3426.18 1872.83 3416.8 1873 3096.85 1872.89 2776.95 1872.83 2456.99 1873 2449.24 1872.89 2441.59 1871.73 2434 1870.17Z" fill="#B3B5B8" fill-rule="evenodd"/><path d="M2976.65 515.46C3064.73 435.077 3183.26 388.493 3302.67 389.089 3396.7 387.193 3490.25 415.739 3569.76 465.193 3672.26 530.356 3750.42 633.923 3781.42 751.574 3798.65 810.236 3801.91 872.041 3797.46 932.816 3795.35 944.407 3799.9 954.916 3807 963.799 3785.27 954.428 3768.3 935.903 3744.34 931.191 3748.73 931.191 3757.57 931.191 3761.96 931.245 3761.85 924.257 3761.85 917.324 3761.91 910.337 3762.07 907.736 3762.34 902.536 3762.45 899.936 3726.57 898.907 3690.63 898.799 3654.81 901.074 3623.8 903.024 3592.85 898.907 3561.85 900.153 3559.25 976.907 3542.39 1052.2 3519.74 1125.27 3548.03 1130.69 3575.18 1140.49 3602.94 1147.97 3612.64 1163.67 3620.93 1180.2 3629.66 1196.45 3588.95 1181.98 3548.19 1165.25 3504.78 1161.13 3485.27 1213.78 3454.86 1261.39 3422.5 1307 3421.74 1281.43 3422.34 1255.92 3423.26 1230.35 3422.77 1228.24 3421.74 1223.91 3421.2 1221.8 3423.64 1224.23 3428.52 1229.16 3430.96 1231.65 3445.32 1206.14 3458.98 1180.14 3469.6 1152.79 3422.01 1141.52 3372.96 1136.97 3324.13 1136.92 3323.42 1155.39 3321.64 1174.29 3326.3 1192.44 3347.87 1198.18 3370.9 1193.09 3392.91 1196.99 3358.71 1194.77 3324.45 1196.66 3290.2 1196.55 3261.74 1194.01 3233.34 1196.99 3204.89 1197.26 3167.98 1195.8 3131.07 1196.34 3094.16 1196.39 3102.56 1195.04 3110.85 1193.25 3119.2 1191.52 3114.92 1178.08 3111.45 1161.45 3094.64 1159.07 3094.32 1105.5 3094.86 1051.93 3094.48 998.357 3106.13 1037.36 3112.42 1077.82 3127.33 1115.95 3162.23 1112.7 3196.6 1104.85 3231.66 1103.6 3249.77 1102.9 3267.87 1101.65 3285.92 1099.65 3285 1033.78 3290.25 967.916 3286.13 902.103 3222.45 898.962 3158.38 897.066 3094.75 902.103 3094.59 821.719 3096.7 741.173 3092.91 660.898 3089.44 654.506 3086.08 648.169 3082.18 642.156 3088.57 641.127 3094.32 638.094 3100.06 635.115 3050.96 622.115 3002.07 608.194 2954.97 588.802 2942.56 602.777 2931.61 618.106 2923.15 634.79 2907.44 635.169 2891.72 635.656 2876 635.602 2905.54 592.431 2936.54 549.585 2976.65 515.46M3194.48 521.689C3177.9 549.098 3158.06 576.885 3152.86 609.006 3195.67 614.26 3238.6 619.84 3281.8 620.598 3292.04 589.235 3285.54 554.46 3287.54 521.689 3284.83 490.868 3289.82 459.668 3284.29 429.172 3244.35 448.347 3218.17 485.777 3194.48 521.689M3325.1 428.576C3319.63 459.452 3326.78 490.598 3324.18 521.581 3322.67 544.981 3326.3 568.435 3323.86 591.836 3322.61 601.802 3323.86 611.769 3327 621.302 3371.5 618.811 3416.27 615.994 3459.96 606.352 3450.47 571.469 3429.06 541.514 3410.63 510.856 3387.81 478.735 3363.26 443.418 3325.1 428.576M3132.53 458.639C3076.81 482.256 3022.34 514.269 2982.78 560.744 3024.67 577.319 3068.14 591.836 3112.86 598.335 3122.99 588.315 3125.65 573.581 3132.1 561.285 3155.02 515.785 3183.21 472.993 3217.46 435.239 3187.98 437.731 3159.69 447.373 3132.53 458.639M3394.05 435.835C3437.08 482.039 3469.22 537.235 3495.13 594.544 3496.92 595.519 3500.61 597.469 3502.45 598.444 3545.1 588.64 3588.3 577.86 3628.19 559.39 3603.91 532.36 3574.1 510.748 3543.53 491.518 3497.62 464.652 3447.6 440.493 3394.05 435.835M3514.48 633.165C3517.24 658.677 3528.9 681.861 3535.35 706.506 3549.01 757.044 3558.27 808.882 3561.8 861.153 3628.46 865.703 3695.13 861.424 3761.85 862.29 3761.47 762.028 3720.12 664.365 3655.67 588.477 3609.98 607.435 3562.29 620.706 3514.48 633.165M3133.24 642.482C3119.2 689.932 3099.58 736.678 3098 786.836 3097.57 811.861 3097.35 836.886 3098.87 861.911 3160.71 862.074 3222.77 866.624 3284.62 860.936 3287.81 809.045 3289.28 756.99 3285.48 705.152 3284.29 688.252 3289.87 670.702 3282.5 654.669 3232.31 656.89 3182.83 647.682 3133.24 642.482M3327.38 654.832C3321.26 684.136 3324.83 714.036 3323.42 743.665 3322.77 784.128 3322.29 824.753 3327.16 864.999 3392.48 859.149 3458.27 866.678 3523.75 860.882 3524.13 796.857 3507.22 734.457 3488.84 673.627 3484.51 662.631 3481.69 649.902 3472.53 641.886 3424.4 648.169 3376.22 656.781 3327.38 654.832M3325.65 901.941C3323.64 933.953 3322.72 966.02 3324.07 998.087 3326.24 1032.05 3320.23 1066.12 3325.92 1099.92 3343.48 1102.3 3361.2 1102.95 3378.93 1103.55 3414.32 1104.96 3448.9 1114.17 3484.29 1115.74 3509.01 1048.08 3520.98 976.691 3526.13 905.028 3519.58 900.424 3510.9 901.995 3503.42 900.911 3444.24 898.636 3384.83 898.42 3325.65 901.941M3140.82 1151.49C3146.41 1164.65 3152.31 1177.65 3158.6 1190.54 3200.34 1200.72 3242.77 1192.17 3284.89 1191.62 3286.35 1179.33 3288.3 1166.98 3287.54 1154.57 3286.3 1146.99 3287.71 1133.94 3276 1136.7 3230.69 1138.43 3185.38 1142.87 3140.82 1151.49Z" fill="#D9D9D9" fill-rule="evenodd"/><path d="M1426.1 455.622C1431.25 424.945 1459.38 396.335 1491.69 398.075 1784.72 398.402 2077.7 397.967 2370.73 398.348 2394.74 396.661 2413.23 414.012 2429 429.786 2424.34 434.735 2419.73 439.685 2415.07 444.635 2403.96 433.213 2393.06 418.69 2376.04 416.677 2356.09 414.556 2335.93 415.916 2315.93 415.589 2043.17 415.589 1770.41 415.699 1497.65 415.535 1475.32 414.882 1451.63 430.058 1445.99 452.304 1443.72 479.445 1442.63 506.75 1442.63 533.945 1438.24 533.945 1429.46 534 1425.13 534 1425.67 507.892 1423.99 481.675 1426.1 455.622Z" fill="#D9D9D9" fill-rule="evenodd"/><path d="M1007.03 493.462C1008.44 487.81 1004.6 473.572 1014.94 475.637 1096.69 475.202 1178.5 474.278 1260.19 476.017 1267.24 493.517 1262.04 514.331 1263.61 533.08 1263.55 553.079 1263.77 573.078 1263.66 593.132 1263.55 600.903 1263.5 608.729 1263.39 616.609 1229.53 617.207 1195.62 615.468 1161.81 618.566L1155.58 619C1106.23 614.707 1056.71 617.696 1007.31 616.663 1007.09 575.578 1006.93 534.548 1007.03 493.462M1134.02 504.114C1125.3 533.134 1119.72 563.188 1113.38 592.806 1115.76 591.936 1120.59 590.143 1122.97 589.273 1131.31 559.112 1139.17 528.461 1142.69 497.321 1140.52 499.006 1136.19 502.429 1134.02 504.114M1050.16 538.95C1049.94 542.264 1049.45 548.786 1049.24 552.047 1067.71 558.786 1086.13 565.85 1104.98 571.72 1103.63 552.916 1081.52 553.677 1069.01 545.09 1079.85 541.123 1090.9 537.645 1101.95 534.221 1102.06 530.472 1102.27 522.863 1102.33 519.059 1085.1 526.07 1067.76 532.917 1050.16 538.95M1154.12 519.168C1151.74 540.199 1177.2 539.221 1190.53 545.525 1178.01 553.079 1152.01 551.503 1154.55 571.828 1171.73 565.144 1189.44 559.764 1206.34 552.373 1207.05 549.656 1208.4 544.275 1209.11 541.558 1191.55 532.374 1172.76 525.852 1154.12 519.168Z" fill="#768688" fill-rule="evenodd"/><path d="M1263.01 533C1317.12 533.974 1371.24 533.433 1425.4 533.595 1429.74 533.595 1438.53 533.541 1442.92 533.541 1521.59 534.19 1600.32 532.405 1679 534.461 1678.78 553.614 1679.27 572.821 1678.08 591.974 1539.76 593.977 1401.38 592.353 1263.06 592.786 1263.17 572.821 1262.95 552.911 1263.01 533Z" fill="#CFCFCF" fill-rule="evenodd"/><path d="M1263.2 592.813C1401.45 592.379 1539.75 594.005 1678 592L1676.97 594.384C1668.41 610.044 1672.31 628.414 1671.88 645.482 1672.47 777.265 1671.5 909.047 1671.93 1040.88 1672.15 1065.92 1669.11 1090.84 1669.49 1115.88 1646.73 1111.76 1621.37 1125.52 1617.25 1149.2 1612.97 1186.54 1615.62 1224.31 1615.68 1261.86 1513.14 1263.81 1410.61 1262.02 1308.07 1262.62 1259.62 1261.59 1211.17 1264.95 1162.83 1261.1 1159.74 1149.85 1161.37 1038.55 1161.96 927.308 1160.72 824.245 1161.42 721.182 1161.31 618.172 1195.13 615.084 1229.05 616.818 1262.93 616.221 1263.03 608.364 1263.09 600.561 1263.2 592.813M1184.56 653.231C1185.75 658.325 1187.05 663.31 1188.46 668.349 1206.29 670.517 1224.29 668.945 1242.17 667.699 1242.06 664.014 1241.95 656.537 1241.84 652.852 1222.77 652.852 1203.69 652.906 1184.56 653.231M1263.41 654.261C1265.09 657.837 1268.51 664.881 1270.19 668.458 1304.82 669.921 1339.61 669.541 1374.19 668.674 1384 669 1381.61 658.704 1382.15 652.418 1342.59 653.99 1302.87 650.088 1263.41 654.261M1368.88 707.31C1368.6 710.452 1368.01 716.792 1367.74 719.989 1407.03 720.098 1446.32 720.152 1485.66 719.881 1485.61 716.792 1485.5 710.615 1485.45 707.526 1446.59 707.58 1407.73 708.122 1368.88 707.31M1228.19 707.689C1228.95 710.723 1230.41 716.738 1231.11 719.773 1269.1 720.531 1307.09 719.827 1345.14 719.989 1344.81 716.847 1344.22 710.615 1343.95 707.472 1305.36 708.014 1266.77 707.635 1228.19 707.689M1229.6 761.28C1229.49 764.422 1229.27 770.654 1229.22 773.743 1265.69 774.122 1302.22 773.634 1338.74 774.014 1338.69 770.817 1338.53 764.422 1338.42 761.226 1302.16 761.496 1265.85 761.496 1229.6 761.28M1363.56 761.713C1362.91 764.802 1361.51 770.925 1360.8 773.959 1391.31 773.851 1421.82 774.23 1452.34 773.689 1452.23 770.6 1452.01 764.422 1451.9 761.388 1422.47 761.713 1392.99 760.413 1363.56 761.713M1477.54 761.822C1477.05 764.748 1476.07 770.654 1475.58 773.58 1494.71 774.393 1513.85 773.58 1532.98 773.851 1532.92 770.654 1532.81 764.314 1532.81 761.172 1514.39 761.659 1495.91 760.359 1477.54 761.822M1555.09 761.822C1555.03 764.531 1554.92 769.895 1554.87 772.605 1573.73 773.689 1592.7 774.393 1611.61 773.797 1619.69 772.442 1634.05 775.91 1633.02 762.201 1607.11 759.762 1581.05 760.196 1555.09 761.822M1234.91 812.811C1227.86 813.137 1230.03 822.998 1227.86 827.388L1231.33 827.496C1233.01 829.501 1236.43 833.511 1238.16 835.516 1255.34 838.279 1273.01 838.875 1290.4 838.171 1292.35 835.516 1296.26 830.26 1298.21 827.659 1301.51 821.265 1300.32 816.28 1294.63 812.649 1274.74 811.728 1254.74 811.565 1234.91 812.811M1321.46 826.629C1376.25 828.959 1431.2 826.846 1486.04 827.659 1486.21 824.516 1486.48 818.23 1486.64 815.087 1437.97 815.033 1389.31 815.141 1340.64 815.087 1332.95 817.092 1313.6 810.048 1321.46 826.629M1510 814.925C1509.89 818.122 1509.67 824.407 1509.56 827.605 1526.8 827.713 1544.09 827.767 1561.32 827.875 1561.43 824.624 1561.64 818.176 1561.75 814.925 1544.52 815.087 1527.23 815.087 1510 814.925M1584.73 815.033C1584.79 818.176 1584.89 824.57 1584.95 827.767 1605.81 827.55 1626.62 827.659 1647.43 827.821 1647.6 824.624 1647.81 818.23 1647.98 815.033 1626.89 815.141 1605.81 815.141 1584.73 815.033M1184.83 869.22C1185.05 872.146 1185.48 878.052 1185.7 880.978 1214.96 881.683 1244.28 881.466 1273.6 881.033 1273.66 878.107 1273.77 872.2 1273.82 869.274 1244.39 864.669 1214.31 864.885 1184.83 869.22M1294.25 880.978C1313.11 882.008 1332.02 882.116 1350.88 881.575 1356.79 864.127 1334.63 865.969 1324.44 865.644 1313.49 866.457 1291.92 863.368 1294.25 880.978M1230.52 922.811C1230.03 925.899 1229.11 932.131 1228.68 935.22 1272.95 934.894 1317.23 935.382 1361.51 934.894 1361.56 931.806 1361.67 925.683 1361.67 922.594 1317.99 923.136 1274.25 922.432 1230.52 922.811M1402.31 974.884C1401.93 979.653 1401.61 984.367 1401.23 989.136 1435.81 988.594 1470.38 989.244 1504.96 988.702 1505.17 985.722 1505.61 979.707 1505.77 976.727 1471.36 973.746 1436.84 976.402 1402.31 974.884M1527.77 976.076C1527.77 979.328 1527.77 985.83 1527.77 989.082 1551.78 988.81 1575.79 988.865 1599.85 989.027 1599.47 984.367 1599.15 979.707 1598.82 975.101 1575.14 975.589 1551.4 974.776 1527.77 976.076M1230.95 977.215C1230.3 980.087 1229 985.83 1228.35 988.648 1278.86 988.81 1329.37 989.19 1379.88 988.485 1378.96 985.613 1377.11 979.924 1376.25 977.052 1327.85 976.456 1279.35 976.076 1230.95 977.215M1229.65 1028.91C1229.6 1032.38 1229.43 1039.42 1229.33 1042.94 1257.72 1042.56 1286.18 1042.94 1314.57 1042.62 1313.76 1039.53 1312.19 1033.35 1311.43 1030.26 1284.28 1027.5 1256.91 1030.1 1229.65 1028.91M1336.63 1029.18C1336.36 1032.54 1335.76 1039.31 1335.44 1042.67 1394.51 1042.35 1453.64 1043.48 1512.65 1042.08 1513.03 1038.82 1513.85 1032.32 1514.22 1029.07 1455.04 1029.18 1395.81 1029.13 1336.63 1029.18M1228.24 1084.61C1228.95 1087.76 1230.36 1094.04 1231.06 1097.18 1253.33 1097.08 1275.66 1098.54 1297.83 1096.15 1298.1 1092.96 1298.59 1086.67 1298.86 1083.47 1275.39 1080.98 1251.55 1080.55 1228.24 1084.61M1321.78 1082.88C1321.67 1086.24 1321.51 1093.07 1321.4 1096.48 1359.12 1096.53 1396.84 1096.48 1434.61 1096.48 1434.61 1093.07 1434.61 1086.24 1434.61 1082.82 1397 1083.1 1359.39 1082.88 1321.78 1082.88M1186.24 1137.17C1186.46 1140.48 1186.95 1147.14 1187.16 1150.45 1208.35 1152.13 1229.65 1150.88 1250.9 1151.53 1251.65 1148.01 1253.23 1140.91 1253.98 1137.39 1231.44 1135.71 1208.79 1135.11 1186.24 1137.17M1275.12 1136.9C1275.77 1140.21 1277.12 1146.82 1277.78 1150.07 1320.81 1152.13 1364.05 1151.15 1407.08 1150.78 1409.47 1149.2 1414.18 1145.95 1416.51 1144.33L1411.64 1137.72C1366.33 1134.19 1320.59 1136.36 1275.12 1136.9M1331.48 1190.28C1331.32 1193.37 1331.1 1199.6 1330.99 1202.69 1348.28 1202.85 1365.57 1202.79 1382.91 1202.63 1382.75 1199.54 1382.48 1193.26 1382.32 1190.17 1365.35 1190.49 1348.39 1190.49 1331.48 1190.28M1228.03 1190.49C1228.68 1193.69 1229.92 1200.14 1230.52 1203.39 1255.99 1204.26 1281.73 1205.4 1307.15 1202.42 1307.8 1199.43 1309.05 1193.47 1309.7 1190.55 1282.49 1190.11 1255.23 1190.22 1228.03 1190.49Z" fill="#546670" fill-rule="evenodd"/><path d="M1672.23 646.058C1672.64 629.002 1669.03 610.648 1676.94 595 1678.1 604.583 1679.05 614.221 1679 623.913 1678.3 786.452 1679.5 949.1 1678.35 1111.59L1675.94 1117 1670.03 1116.08C1669.68 1091.07 1672.49 1066.16 1672.28 1041.14 1671.88 909.413 1672.79 777.735 1672.23 646.058Z" fill="#635B53" fill-rule="evenodd"/><path d="M1155.05 618.434 1161.28 618C1161.39 721.12 1160.69 824.293 1161.94 927.467 1161.34 1038.83 1159.71 1150.25 1162.8 1261.62 1211.18 1265.47 1259.67 1262.1 1308.16 1263.13 1410.77 1262.54 1513.39 1264.33 1616 1262.38L1615.84 1267.96C1580.31 1272.14 1544.57 1268.99 1508.88 1269.64 1390.81 1270.4 1272.69 1268.29 1154.56 1271 1154.23 1053.48 1153.26 835.902 1155.05 618.434Z" fill="#635D52" fill-rule="evenodd"/><path d="M1763.02 650.011C1765.18 643.357 1771.66 638.703 1778.57 638.054L1785 638C1775.66 649.795 1762.53 661.482 1764.58 678.146 1765.56 789.982 1764.47 901.872 1765.39 1013.71 1765.5 1035.24 1765.45 1056.78 1764.2 1078.26 1763.39 1091.08 1762.48 1103.85 1761.56 1116.62 1760.32 1118.24 1757.83 1121.43 1756.59 1123 1730.01 1117.59 1702.74 1120.51 1676 1116.78L1678.59 1111.37C1702.84 1105.42 1730.34 1112.4 1755.83 1109.09 1757.18 983.517 1755.83 857.938 1756.32 732.36 1756.86 704.928 1752.75 676.252 1763.02 650.011Z" fill="#A07950" fill-rule="evenodd"/><path d="M1785.35 638C1983.99 639.894 2182.68 638.108 2381.37 638.866 2391.93 639.137 2402.44 639.84 2413 640.598 2399.24 662.627 2386.51 685.252 2373.73 707.822 2204.67 705.224 2035.5 707.714 1866.39 706.578 1854.04 706.578 1841.69 706.361 1829.5 708.039 1825.38 715.508 1826.96 724.655 1826.25 732.829 1826.68 783.057 1826.14 833.286 1826.74 883.569 1827.06 948.629 1826.36 1013.74 1827.01 1078.8 1827.23 1089.84 1827.55 1100.94 1827.88 1111.98 1832.1 1112.09 1840.5 1112.31 1844.72 1112.41 1856.96 1112.68 1869.21 1112.79 1881.45 1112.79 1921.91 1113.06 1962.32 1112.25 2002.73 1113.23 1996.83 1126 1990.6 1138.61 1984.15 1151.11 1982.91 1153.55 1980.41 1158.37 1979.22 1160.75L1976.13 1161.07C1869.42 1163.83 1762.6 1160.75 1655.89 1162.26L1655.57 1165.62C1653.62 1205.35 1654.1 1245.18 1655.03 1284.97 1658.98 1336.01 1656.33 1387.26 1657.63 1438.41 1657.63 1439.98 1657.68 1443.07 1657.68 1444.64 1657.79 1488.32 1658.44 1532.05 1657.73 1575.73L1657.46 1581.58C1657.46 1626.39 1654.21 1671.32 1657.25 1716.08 1645.71 1738.32 1631.46 1759.16 1621.28 1782.11 1619.98 1784.87 1617.27 1790.45 1615.97 1793.21L1616.57 1799C1613.21 1775.62 1614.89 1751.96 1614.67 1728.47 1614.56 1582.33 1614.51 1436.14 1614.72 1290 1615.32 1280.96 1614.62 1267.38 1601.45 1270.68 1452.65 1270.68 1303.8 1271.16 1155 1270.46 1272.98 1267.75 1390.96 1269.87 1508.88 1269.11 1544.52 1268.46 1580.22 1271.6 1615.7 1267.43L1615.86 1261.85C1615.81 1224.35 1613.15 1186.62 1617.43 1149.33 1621.55 1125.67 1646.9 1111.93 1669.65 1116.04L1676.04 1116.96C1702.86 1120.69 1730.21 1117.77 1756.86 1123.18 1758.11 1121.61 1760.6 1118.42 1761.85 1116.8 1782.48 1113.39 1804.48 1117.66 1824.46 1111.93 1825.38 1100.72 1824.95 1089.52 1824.79 1078.31 1804.69 1078.53 1784.6 1078.58 1764.5 1078.42 1765.75 1056.93 1765.8 1035.39 1765.69 1013.85 1764.77 901.972 1765.85 790.04 1764.88 678.162 1762.82 661.491 1775.98 649.799 1785.35 638Z" fill="#677A7F" fill-rule="evenodd"/><path d="M1185 653.389C1203.93 653.056 1222.8 653 1241.68 653 1241.79 656.78 1241.89 664.449 1242 668.229 1224.3 669.507 1206.5 671.119 1188.86 668.896 1187.47 663.727 1186.18 658.614 1185 653.389Z" fill="#D58869" fill-rule="evenodd"/><path d="M1829.25 707.474C1841.45 705.792 1853.81 706.009 1866.18 706.009 2035.45 707.148 2204.78 704.653 2374 707.257 2373.46 709.21 2372.32 713.063 2371.78 714.962 2357.03 717.295 2342.17 719.248 2327.21 719.194 2169.92 718.434 2012.57 719.411 1855.22 718.706 1849.42 719.845 1841.07 717.186 1837.66 723.48 1834.62 751.586 1837.49 779.964 1836.63 808.178 1837.17 832.92 1832.83 858.584 1841.78 882.404L1842.59 886.582 1843.19 890C1837.6 887.776 1832.02 885.605 1826.49 883.435 1825.89 833.029 1826.43 782.677 1826 732.325 1826.7 724.131 1825.13 714.962 1829.25 707.474Z" fill="#BDAD7A" fill-rule="evenodd"/><path d="M3023.22 726C3026.26 779.125 3020.08 832.63 3027.4 885.538 3028.48 984.64 3027.78 1083.74 3027.78 1182.9 3008.97 1183.01 2990.12 1182.36 2971.37 1180.73 2870.15 1179.22 2768.77 1178.89 2667.55 1180.89L2667.06 1180.89C2639.75 1183.22 2612.28 1183.39 2584.97 1181L2582.1 1180.73C2481.15 1178.13 2380.09 1180.41 2279.09 1179.59 2278.98 1183.66 2278.82 1191.78 2278.71 1195.84 2334.31 1196.49 2389.9 1195.68 2445.49 1196.27 2442.89 1206.35 2440.29 1216.42 2437.75 1226.55L2433.9 1226.82C2332.95 1227.03 2232 1227.09 2131 1226.82 2131.38 1216.85 2131.76 1206.89 2132.14 1196.92 2151.43 1196.82 2170.72 1196.76 2190.06 1196.65 2189.95 1190.86 2189.85 1185.06 2189.79 1179.22 2170.39 1179.38 2150.99 1179.54 2131.6 1178.89 2131.92 1170.6 2132.19 1162.32 2132.52 1154.03L2132.63 1150.78C2151.81 1151.16 2171.04 1151.16 2190.28 1151.06 2190.28 1109.57 2193.69 1068.25 2189.95 1026.83 2190.6 994.658 2190.6 962.491 2189.74 930.269 2191.53 930.377 2195.05 930.54 2196.78 930.594 2205.13 956.696 2194.56 983.827 2198.46 1010.47 2216.99 990.434 2223.93 963.357 2238.67 940.883 2250.26 922.796 2262.4 904.979 2272.86 886.134L2276.81 886.134C2525.58 886.025 2774.4 886.296 3023.22 885.971 3022.74 832.63 3021.54 779.288 3023.22 726M2275.73 930.377C2275.89 1003.86 2275.35 1077.41 2276 1150.95 2378.25 1151.06 2480.55 1151.43 2582.75 1150.73L2584.97 1148.67C2585.62 1075.73 2586 1002.73 2584.75 929.782 2481.75 930.865 2378.74 929.727 2275.73 930.377M2665.49 1151.06C2766.71 1150.73 2867.98 1150.3 2969.2 1151.27 2971.48 1141.58 2973.59 1131.78 2973.32 1121.81 2972.99 1067.71 2973.1 1013.61 2973.26 959.512 2973.54 949.494 2971.86 939.584 2969.2 929.998 2867.93 930.756 2766.65 930.594 2665.43 930.053 2664.68 1003.7 2664.35 1077.41 2665.49 1151.06Z" fill="#F0F0EF" fill-rule="evenodd"/><path d="M1229.38 761.055C1265.79 761.276 1302.26 761.276 1338.67 761 1338.78 764.25 1338.95 770.75 1339 774 1302.32 773.615 1265.63 774.111 1229 773.725 1229.05 770.585 1229.27 764.25 1229.38 761.055Z" fill="#FAFEFF" fill-rule="evenodd"/><path d="M1477.94 761.729C1496.18 760.249 1514.54 761.565 1532.84 761.071 1532.84 764.251 1532.95 770.664 1533 773.898 1514 773.624 1495 774.446 1476 773.624 1476.48 770.664 1477.45 764.689 1477.94 761.729Z" fill="#F7FFFE" fill-rule="evenodd"/><path d="M1555.22 762.282C1581.11 760.72 1607.11 760.304 1632.95 762.647 1633.97 775.822 1619.65 772.489 1611.6 773.791 1592.73 774.364 1573.81 773.687 1555 772.645 1555.05 770.042 1555.16 764.886 1555.22 762.282Z" fill="#32C9DE" fill-rule="evenodd"/><path d="M1510.43 815C1527.6 815.163 1544.83 815.163 1562 815 1561.89 818.264 1561.68 824.736 1561.57 828 1544.4 827.891 1527.17 827.837 1510 827.728 1510.11 824.519 1510.32 818.209 1510.43 815Z" fill="#F5FFFF" fill-rule="evenodd"/><path d="M1585 815C1606 815.11 1627 815.11 1648 815 1647.84 818.25 1647.62 824.75 1647.46 828 1626.73 827.835 1606 827.725 1585.22 827.945 1585.16 824.695 1585.05 818.195 1585 815Z" fill="#F6FFFF" fill-rule="evenodd"/><path d="M1231 828C1253.32 828.327 1275.63 828.762 1298 828.163 1296.05 830.777 1292.14 836.06 1290.18 838.728 1272.75 839.436 1255.05 838.837 1237.84 836.06 1236.1 834.045 1232.68 830.015 1231 828Z" fill="#6C5D57" fill-rule="evenodd"/><path d="M1294.18 881.097C1291.84 863.759 1313.48 866.8 1324.47 866 1334.69 866.32 1356.94 864.506 1351.01 881.684 1332.08 882.217 1313.1 882.111 1294.18 881.097Z" fill="#2ABECC" fill-rule="evenodd"/><path d="M1843 886.038C1986.32 886.092 2129.63 885.929 2273 886.038 2262.55 904.938 2250.41 922.806 2238.82 940.945 2224.09 963.484 2217.16 990.638 2198.63 1010.73 2194.73 984.013 2205.3 956.803 2196.96 930.626 2195.22 930.572 2191.7 930.409 2189.91 930.3 2103.85 930.844 2017.78 930.898 1931.72 930.463 1916.07 931.006 1899.44 927.585 1884.49 933.07 1877.77 981.243 1883.84 1030.28 1883.73 1078.78 1871 1078.84 1858.27 1078.95 1845.55 1079 1843.87 1015.84 1848.09 952.513 1843.6 889.46L1843 886.038Z" fill="#F5F5F3" fill-rule="evenodd"/><path d="M2276.06 930.597C2379.1 929.946 2482.14 931.086 2585.18 930 2586.43 1003.15 2586.05 1076.36 2585.4 1149.52L2583.17 1151.58C2480.95 1152.29 2378.61 1151.91 2276.33 1151.8 2275.68 1078.05 2276.22 1004.3 2276.06 930.597M2285.76 940.373C2284.73 1007.66 2284.19 1075.11 2286.52 1142.4 2296.28 1144.14 2306.09 1145.88 2316.11 1145.72 2402.62 1144.74 2489.29 1146.8 2575.75 1144.14 2579.7 1093.63 2576.67 1042.86 2577.37 992.239 2577.48 974.859 2583.72 956.937 2576.29 940.264 2538.67 934.942 2500.73 937.549 2462.95 937.06 2403.87 938.526 2344.57 933.91 2285.76 940.373Z" fill="#E57F58" fill-rule="evenodd"/><path d="M3734.26 932.999 3739.23 931C3744.79 958.822 3751.68 986.427 3755.26 1014.57 3760.29 1039.05 3738.64 1057.47 3721 1070 3724.05 1064 3727.09 1058.01 3730.19 1052.01 3742.11 1040.4 3750.99 1024.89 3743.66 1007.98 3740.62 996.422 3737.36 984.915 3734.04 973.462 3733.72 959.956 3733.67 946.505 3734.26 932.999Z" fill="#D9D9D9" fill-rule="evenodd"/><path d="M2285.88 940.543C2344.68 934.108 2403.97 938.704 2463.04 937.244 2500.82 937.731 2538.75 935.136 2576.37 940.435 2583.79 957.035 2577.56 974.879 2577.45 992.182 2576.74 1042.58 2579.78 1093.13 2575.82 1143.42 2489.38 1146.07 2402.73 1144.02 2316.23 1144.99 2306.2 1145.15 2296.4 1143.42 2286.64 1141.69 2284.31 1074.7 2284.85 1007.54 2285.88 940.543Z" fill="#FF7642" fill-rule="evenodd"/><path d="M1402.09 975C1436.76 976.49 1471.44 973.882 1506 976.81 1505.84 979.738 1505.4 985.646 1505.18 988.574 1470.46 989.106 1435.73 988.468 1401 989 1401.38 984.316 1401.71 979.684 1402.09 975Z" fill="#EFF6FC" fill-rule="evenodd"/><path d="M3743.36 1008C3750.62 1024.9 3741.82 1040.39 3730 1052 3734.93 1037.48 3738.85 1022.68 3743.36 1008Z" fill="#BFBFBF" fill-rule="evenodd"/><path d="M1229.33 1029C1256.83 1030.19 1284.44 1027.59 1311.83 1030.35 1312.59 1033.43 1314.18 1039.59 1315 1042.68 1286.35 1043 1257.65 1042.62 1229 1043 1229.11 1039.49 1229.27 1032.46 1229.33 1029Z" fill="#ECF2F3" fill-rule="evenodd"/><path d="M1337.19 1029.11C1396.11 1029.06 1455.08 1029.11 1514 1029 1513.62 1032.32 1512.81 1038.95 1512.44 1042.26 1453.68 1043.7 1394.81 1042.54 1336 1042.87 1336.32 1039.44 1336.92 1032.54 1337.19 1029.11Z" fill="#EEF2F6" fill-rule="evenodd"/><path d="M2133.49 1123.45C2155.08 1092.9 2167.31 1056.68 2190.25 1027 2193.99 1068.66 2190.58 1110.22 2190.58 1151.94 2171.37 1152.05 2152.16 1152.05 2133 1151.67 2133.27 1142.24 2133.54 1132.82 2133.49 1123.45Z" fill="#98DA75" fill-rule="evenodd"/><path d="M1764.65 1078.11C1784.68 1078.27 1804.72 1078.22 1824.76 1078 1824.92 1089.35 1825.35 1100.71 1824.43 1112.06 1804.5 1117.88 1782.58 1113.54 1762 1117 1762.92 1104.05 1763.84 1091.11 1764.65 1078.11Z" fill="#536365" fill-rule="evenodd"/><path d="M1827 1079C1831.29 1079.53 1839.94 1080.59 1844.23 1081.13 1844.5 1091.43 1844.72 1101.69 1845 1112 1840.71 1111.89 1832.17 1111.68 1827.88 1111.58 1827.55 1100.73 1827.22 1089.84 1827 1079Z" fill="#999B9C" fill-rule="evenodd"/><path d="M1884.11 1078.29C1950.54 1078.23 2017.03 1077.47 2083.46 1078.67 2109.23 1077.37 2128.46 1098.76 2132.99 1122.7 2133.05 1132.01 2132.78 1141.38 2132.51 1150.75L2132.4 1154C2124.57 1152.27 2116.79 1150.59 2108.96 1148.96 2108.15 1147.28 2106.53 1144.04 2105.72 1142.36 2098.64 1129.09 2087.14 1116.31 2071.53 1113.98 2048.79 1111.22 2025.78 1113.38 2002.93 1112.73 1962.64 1111.76 1922.35 1112.57 1882 1112.3 1882.65 1100.98 1883.3 1089.61 1884.11 1078.29Z" fill="#91B97F" fill-rule="evenodd"/><path d="M1228 1085.04C1251.43 1080.97 1275.41 1081.4 1299 1083.9 1298.73 1087.11 1298.24 1093.41 1297.96 1096.62 1275.68 1099.01 1253.23 1097.54 1230.83 1097.65 1230.12 1094.5 1228.71 1088.2 1228 1085.04Z" fill="#DE7F5D" fill-rule="evenodd"/><path d="M1322.38 1083.06C1359.92 1083.06 1397.46 1083.28 1435 1083 1435 1086.49 1435 1093.48 1435 1096.98 1397.3 1096.98 1359.65 1097.03 1322 1096.98 1322.11 1093.48 1322.27 1086.49 1322.38 1083.06Z" fill="#EFF5F7" fill-rule="evenodd"/><path d="M2002.6 1113.2C2025.54 1113.85 2048.64 1111.68 2071.47 1114.45 2087.14 1116.77 2098.69 1129.55 2105.79 1142.82 2107.09 1155.92 2107.69 1169.08 2108.12 1182.23 2108.18 1185.92 2108.34 1193.33 2108.45 1197.07 2108.56 1206.98 2108.72 1216.94 2108.88 1226.9 2109.05 1238.33 2109.05 1249.7 2108.83 1261.12 2108.67 1266.37 2108.45 1271.63 2108.23 1276.93 2107.37 1294.15 2106.93 1311.42 2107.04 1328.75 2097.39 1330.48 2087.79 1332.27 2078.19 1334 2078.84 1279.59 2078.68 1225.17 2078.35 1170.76 2080.85 1157.98 2066.37 1153.75 2056.45 1153.43 2032.32 1152.08 2008.08 1153.27 1984 1151.1 1990.45 1138.59 1996.69 1125.98 2002.6 1113.2Z" fill="#253F49" fill-rule="evenodd"/><path d="M1186 1137.34C1208.63 1135.24 1231.37 1135.84 1254 1137.56 1253.24 1141.16 1251.66 1148.4 1250.9 1152 1229.57 1151.34 1208.2 1152.61 1186.92 1150.89 1186.71 1147.52 1186.22 1140.71 1186 1137.34Z" fill="#28C2D4" fill-rule="evenodd"/><path d="M1275 1137.11C1320.66 1136.59 1366.6 1134.51 1412.1 1137.89L1417 1144.25C1414.66 1145.82 1409.92 1148.95 1407.53 1150.46 1364.31 1150.82 1320.88 1151.76 1277.67 1149.78 1277.01 1146.65 1275.65 1140.29 1275 1137.11Z" fill="#26C5D5" fill-rule="evenodd"/><path d="M2106 1143C2106.81 1144.66 2108.43 1147.88 2109.24 1149.54 2109.78 1159.09 2109.83 1168.69 2110 1178.34 2117.23 1178.61 2124.46 1178.87 2131.75 1179.14 2151.08 1179.79 2170.4 1179.63 2189.73 1179.46 2189.78 1185.26 2189.89 1190.99 2190 1196.73 2170.73 1196.84 2151.51 1196.89 2132.29 1197 2132.13 1193.19 2131.86 1185.63 2131.7 1181.88 2123.92 1181.88 2116.1 1181.93 2108.32 1182.04 2107.89 1169.01 2107.3 1155.98 2106 1143Z" fill="#748286" fill-rule="evenodd"/><path d="M2109 1149C2117.02 1150.63 2124.98 1152.32 2133 1154.05 2132.67 1162.37 2132.39 1170.68 2132.06 1179 2124.59 1178.73 2117.18 1178.46 2109.77 1178.18 2109.61 1168.4 2109.55 1158.67 2109 1149Z" fill="#BFC2BD" fill-rule="evenodd"/><path d="M1976.35 1161.01 1979.45 1160.69C2009.12 1157.76 2038.95 1159.65 2068.73 1159.11 2068.78 1162.42 2068.95 1169.09 2069 1172.46L2064.66 1169.53C2036.56 1157.65 2003.91 1161.07 1975.27 1169.42 1973.91 1169.47 1971.26 1169.58 1969.9 1169.64 1868.03 1171.21 1766.17 1168.77 1664.3 1170.88 1662.78 1214.98 1664.14 1259.08 1663.81 1303.18 1664.03 1348.47 1663 1393.76 1664.46 1439 1662.67 1439 1659.15 1439 1657.41 1438.95 1656.11 1387.69 1658.77 1336.32 1654.81 1285.17 1653.88 1245.3 1653.4 1205.38 1655.35 1165.57 1722.07 1163.83 1788.84 1166.44 1855.61 1165.3 1895.86 1163.83 1936.7 1170.34 1976.35 1161.01Z" fill="#BAB57B" fill-rule="evenodd"/><path d="M1975 1169.13C2003.51 1161.28 2036.03 1158.06 2064 1169.24 2034.41 1171.99 2004.59 1171.18 1975 1169.13Z" fill="#B79139" fill-rule="evenodd"/><path d="M2108 1182.16C2115.78 1182.05 2123.62 1182 2131.41 1182 2131.57 1185.72 2131.84 1193.22 2132 1197 2124.05 1196.89 2116.16 1196.79 2108.32 1196.73 2108.22 1193.06 2108.05 1185.78 2108 1182.16Z" fill="#636E73" fill-rule="evenodd"/><path d="M2279.38 1180.15C2380.25 1180.94 2481.18 1178.72 2582 1181.26 2581.68 1185.22 2580.97 1193.09 2580.59 1197 2546.72 1196.68 2512.84 1196.21 2478.96 1196.84 2467.81 1196.84 2456.72 1196.63 2445.57 1196.42 2390.05 1195.84 2334.52 1196.63 2279 1196 2279.11 1192.03 2279.27 1184.11 2279.38 1180.15Z" fill="#5D6C71" fill-rule="evenodd"/><path d="M2585 1181.11C2612.28 1183.51 2639.72 1183.35 2667 1181 2665.27 1184.44 2661.8 1191.2 2660.07 1194.58 2636.26 1197.42 2612.23 1195.02 2588.3 1195.62 2587.49 1191.96 2585.81 1184.71 2585 1181.11Z" fill="#C2C4C0" fill-rule="evenodd"/><path d="M2668 1181.36C2769.27 1179.42 2870.7 1179.73 2971.97 1181.21 2972.24 1184.89 2972.78 1192.37 2973 1196.05 2871.62 1197.11 2770.14 1196 2668.7 1197 2668.54 1193.1 2668.16 1185.26 2668 1181.36Z" fill="#5F6C6E" fill-rule="evenodd"/><path d="M2972 1181C2990.61 1182.6 3009.33 1183.23 3028 1183.13 3027.95 1186.16 3027.89 1192.33 3027.84 1195.41 3009.55 1195.26 2991.26 1195.52 2973.02 1196 2972.81 1192.28 2972.27 1184.72 2972 1181Z" fill="#C1C3C6" fill-rule="evenodd"/><path d="M1228 1190.24C1255.32 1189.97 1282.69 1189.86 1310 1190.29 1309.35 1193.2 1308.1 1199.12 1307.44 1202.08 1281.92 1205.04 1256.08 1203.91 1230.5 1203.05 1229.9 1199.82 1228.65 1193.41 1228 1190.24Z" fill="#ECF2F0" fill-rule="evenodd"/><path d="M3031.25 1196.22C3052.39 1195.73 3073.53 1196.33 3094.66 1196.54L3094.77 1196.49C3098.3 1199.79 3099.65 1208.07 3106.32 1206.01 3159.27 1201.25 3212.44 1206.72 3265.56 1205.63 3275.05 1206.45 3282.96 1201.14 3290.82 1196.65 3325.07 1196.76 3359.33 1194.86 3393.53 1197.08 3405.29 1202.22 3413.37 1212.61 3421.82 1221.87 3422.37 1223.98 3423.4 1228.31 3423.88 1230.42 3422.96 1255.96 3422.37 1281.45 3423.12 1306.99L3422.85 1311.91C3427.52 1314.67 3432.23 1317.38 3437 1320.03 3431.47 1321.6 3425.94 1322.84 3420.41 1324.25 3421.77 1336.91 3422.91 1349.68 3423.29 1362.45 3422.91 1488.27 3423.29 1614.08 3422.69 1739.84 3423.99 1754.56 3423.72 1769.44 3420.85 1784 3187.57 1782.32 2954.28 1783.62 2721 1782.92 2727.4 1769.66 2733.9 1756.51 2740.35 1743.36 2954.39 1743.09 3168.38 1743.14 3382.42 1743.31 3383.12 1619.55 3381.93 1495.79 3382.91 1371.98 3386.81 1363.43 3392.39 1354.93 3391.25 1345.03 3389.79 1312.51 3391.09 1279.99 3391.2 1247.46 3389.25 1245.51 3385.4 1241.56 3383.45 1239.62 3382.26 1238.7 3379.93 1236.8 3378.73 1235.88 3264.42 1235.29 3150.06 1234.8 3035.75 1236.21 3042.79 1223.54 3049.95 1210.88 3057.05 1198.22 3048.43 1197.46 3039.81 1196.76 3031.25 1196.22Z" fill="#3D494C" fill-rule="evenodd"/><path d="M2109 1197C2116.61 1197.05 2124.28 1197.16 2132 1197.27 2131.63 1207.18 2131.26 1217.09 2130.9 1227 2123.76 1226.89 2116.56 1226.78 2109.42 1226.68 2109.26 1216.77 2109.1 1206.86 2109 1197Z" fill="#BABFBE" fill-rule="evenodd"/><path d="M2445.71 1197C2456.83 1197.21 2467.89 1197.43 2479 1197.43 2472.69 1206.39 2466.38 1215.41 2460.23 1224.48 2452.78 1225.34 2445.39 1226.19 2438 1227 2440.54 1216.96 2443.12 1206.98 2445.71 1197Z" fill="#C0C0C2" fill-rule="evenodd"/><path d="M3094 1195.88C3130.9 1195.83 3167.8 1195.27 3204.71 1196.77 3233.16 1196.49 3261.55 1193.44 3290 1196.05 3282.14 1200.66 3274.23 1206.11 3264.75 1205.28 3211.64 1206.39 3158.48 1200.77 3105.54 1205.67 3098.88 1207.78 3097.52 1199.27 3094 1195.88Z" fill="#473C2A" fill-rule="evenodd"/><path d="M3632.29 1200C3634.67 1210.45 3636.3 1221.12 3638.15 1231.73 3641.73 1235.14 3645.36 1238.66 3649 1242.18 3648.89 1244.29 3648.78 1248.57 3648.67 1250.68 3646.56 1249.54 3642.22 1247.27 3640.05 1246.13 3603.85 1276.18 3565.81 1304.77 3522.94 1324.8 3491.09 1340.94 3456.9 1351.44 3422.88 1362 3422.5 1349.22 3421.36 1336.44 3420 1323.77 3425.53 1322.37 3431.07 1321.12 3436.61 1319.55 3510.73 1298.33 3580.73 1257.61 3632.29 1200Z" fill="#D9D9D9" fill-rule="evenodd"/><path d="M2109.05 1227C2116.43 1227.11 2123.86 1227.21 2131.23 1227.32 2232.32 1227.59 2333.35 1227.54 2434.37 1227.32 2443.27 1228.02 2452.11 1229.15 2461 1230.16 2460.02 1239.5 2459.05 1248.83 2458.13 1258.16 2449.94 1259.12 2441.75 1260.2 2433.56 1260.89 2332.21 1260.68 2230.91 1260.52 2129.55 1261 2122.72 1261 2115.83 1260.89 2109 1260.89 2109.22 1249.58 2109.22 1238.32 2109.05 1227M2142.57 1253.44C2234.87 1254.73 2327.27 1253.87 2419.62 1253.76 2432.04 1256.12 2438.22 1246.68 2441.42 1236.55 2378.41 1231.13 2314.96 1235.63 2251.78 1234.19 2215.51 1234.35 2179.23 1233.38 2142.95 1234.24 2128.09 1230.97 2127.82 1255.74 2142.57 1253.44Z" fill="#42545D" fill-rule="evenodd"/><path d="M2142.89 1253.31C2128.17 1255.58 2128.44 1231.22 2143.27 1234.44 2179.46 1233.6 2215.64 1234.55 2251.83 1234.39 2314.85 1235.81 2378.14 1231.38 2441 1236.71 2437.81 1246.67 2431.64 1255.95 2419.25 1253.63 2327.13 1253.73 2234.96 1254.58 2142.89 1253.31Z" fill="#546672" fill-rule="evenodd"/><path d="M3382.57 1239C3384.64 1240.96 3388.72 1244.93 3390.78 1246.88 3390.67 1279.56 3389.29 1312.24 3390.84 1344.92 3392.05 1354.87 3386.13 1363.41 3382 1372 3382.57 1327.68 3381.37 1283.31 3382.57 1239Z" fill="#424025" fill-rule="evenodd"/><path d="M3648.76 1242C3658.05 1262.13 3654.18 1284.96 3654.29 1306.34 3651.64 1349.68 3654.68 1393.19 3650.31 1436.48 3641.24 1537.6 3641.19 1639.2 3632.84 1740.37 3628.74 1768.58 3633.5 1796.85 3635.99 1825 3633.78 1821.58 3629.24 1814.8 3627.03 1811.38 3621.94 1711.03 3637.37 1610.78 3637.2 1510.36 3641.13 1423.73 3649.48 1337.26 3648.43 1250.52 3648.54 1248.4 3648.65 1244.12 3648.76 1242Z" fill="#BFBFBF" fill-rule="evenodd"/><path d="M3697.73 1242.18C3714.86 1240.5 3733.62 1250.37 3736.49 1268.58 3742.49 1306.68 3740.54 1345.55 3744.59 1383.87 3748.97 1493.3 3759.68 1602.51 3762 1712 3744.97 1706.74 3728.16 1698.56 3710.05 1698.5 3692.97 1700.67 3676.59 1706.53 3659.51 1708.59 3659.46 1676.93 3656.21 1643.49 3666.76 1613.25 3667.13 1624.63 3667.94 1636.06 3668.76 1647.45 3674.32 1517.2 3686.11 1387.34 3696.76 1257.42 3702.49 1254 3708.27 1250.64 3714.11 1247.23 3711.4 1247.44 3706.11 1247.93 3703.4 1248.15L3697.73 1242.18Z" fill="#CFCFD1" fill-rule="evenodd"/><path d="M2108.6 1261C2115.44 1261 2122.34 1261.11 2129.18 1261.11 2130.37 1264.43 2132.76 1271.12 2133.96 1274.43 2149.32 1277.07 2165.07 1276.06 2180.65 1276.06 2267.75 1274.88 2354.96 1277.41 2442 1274.94 2418.43 1279.43 2394.43 1277.64 2370.6 1277.69 2291.05 1277.69 2211.5 1277.97 2131.89 1277.47 2123.91 1277.41 2115.98 1277.35 2108 1277.41 2108.22 1271.9 2108.43 1266.45 2108.6 1261Z" fill="#C1C7CB" fill-rule="evenodd"/><path d="M2130 1261.32C2231.04 1260.83 2332.03 1260.99 2433.08 1261.21 2441.24 1262.79 2449.46 1264.43 2457.68 1266.12 2457.78 1267.48 2457.95 1270.26 2458 1271.67 2453.89 1272.44 2445.62 1273.96 2441.46 1274.73 2354.79 1277.12 2267.97 1274.67 2181.25 1275.82 2165.74 1275.82 2150.06 1276.8 2134.76 1274.24 2133.57 1271.02 2131.19 1264.54 2130 1261.32Z" fill="#F0F5F6" fill-rule="evenodd"/><path d="M2108.21 1277.02C2116.16 1276.97 2124.06 1277.02 2132.02 1277.08 2132.12 1280.66 2132.23 1287.83 2132.34 1291.42 2124.44 1291.64 2116.59 1291.96 2108.8 1292.29 2108.96 1301.04 2109.18 1309.78 2109.45 1318.58 2116.76 1318.37 2124.12 1318.15 2131.53 1317.88 2131.42 1321.63 2131.31 1329.12 2131.21 1332.87 2124.17 1332.76 2117.08 1332.66 2110.1 1332.55 2109.88 1340.75 2109.72 1348.95 2109.61 1357.16 2116.76 1357.48 2123.9 1357.76 2131.1 1358.03 2148.31 1358.57 2165.57 1358.52 2182.83 1358.62 2217.57 1359.17 2252.31 1358.41 2287 1359.17 2285.92 1362.48 2283.7 1369.16 2282.62 1372.48 2249.88 1374.65 2217.03 1372.32 2184.29 1373.29 2174.88 1373.46 2165.51 1373.78 2156.15 1374 2140.84 1367.43 2124.33 1361.78 2107.45 1363.68 2107.23 1352.11 2107.07 1340.59 2107.02 1329.02 2106.91 1311.63 2107.34 1294.3 2108.21 1277.02Z" fill="#5A6565" fill-rule="evenodd"/><path d="M2442.32 1291.4C2438.84 1275.91 2465.08 1276.29 2459.11 1292 2454.92 1291.89 2446.52 1291.56 2442.32 1291.4Z" fill="#60666A" fill-rule="evenodd"/><path d="M2109 1292.47C2116.81 1292.15 2124.67 1291.83 2132.59 1291.61 2235.9 1290.65 2339.21 1291.02 2442.51 1291.4 2446.64 1291.56 2454.88 1291.88 2459 1291.99 2458.62 1301.01 2458.35 1309.98 2457.97 1319 2453.79 1318.79 2445.33 1318.41 2441.16 1318.19 2440.4 1310.3 2439.69 1302.41 2439.04 1294.51 2336.6 1292.31 2234.05 1293.81 2131.56 1293.92 2131.61 1301.87 2131.67 1309.82 2131.78 1317.76 2124.35 1318.03 2116.97 1318.25 2109.65 1318.46 2109.38 1309.76 2109.16 1301.12 2109 1292.47Z" fill="#BEBEBE" fill-rule="evenodd"/><path d="M1664.15 1303C1708.79 1304.35 1753.37 1302.84 1798 1303.7 1797.03 1344.56 1798.54 1385.41 1797.35 1426.21 1798.6 1435.75 1787.5 1439.05 1780.09 1438.51 1741.68 1439.65 1703.21 1438.4 1664.8 1438.67 1663.34 1393.49 1664.37 1348.24 1664.15 1303Z" fill="#B7E69D" fill-rule="evenodd"/><path d="M2440.67 1318C2444.9 1318.21 2453.47 1318.58 2457.7 1318.8 2461 1333.1 2435.61 1331.93 2440.67 1318Z" fill="#5E6967" fill-rule="evenodd"/><path d="M1893.38 1343.69C1904.64 1336.02 1917.35 1329.96 1931.37 1331.15 1976.93 1331.64 2022.49 1330.34 2068 1331.96 2067.57 1342.99 2067.19 1354.07 2066.86 1365.1 2016.11 1366.62 1965.3 1363.86 1914.59 1366.4 1903.29 1366.24 1895.98 1375.54 1889 1383 1889.27 1374.51 1889.43 1366.02 1889.49 1357.53 1941.05 1357.86 1992.62 1357.32 2044.25 1357.53 2044.3 1354.34 2044.52 1348.07 2044.57 1344.88 1994.19 1344.4 1943.76 1345.59 1893.38 1343.69Z" fill="#BCC1C0" fill-rule="evenodd"/><path d="M2110.47 1332C2117.26 1332.11 2124.16 1332.22 2131 1332.33 2130.95 1340.87 2130.89 1349.41 2130.89 1358 2123.9 1357.72 2116.95 1357.45 2110 1357.11 2110.11 1348.74 2110.26 1340.37 2110.47 1332Z" fill="#969C9A" fill-rule="evenodd"/><path d="M2131.11 1332.48C2143.84 1332.27 2156.57 1332.05 2169.35 1332 2173.92 1340.67 2178.49 1349.28 2183 1358 2165.65 1357.89 2148.3 1357.95 2131 1357.41 2131 1349.06 2131.05 1340.77 2131.11 1332.48Z" fill="#BCBEBF" fill-rule="evenodd"/><path d="M2170 1332.05C2259.82 1332.65 2349.69 1331.18 2439.51 1332.76 2439.35 1355.31 2439.51 1377.8 2440 1400.35 2354.78 1401.66 2269.56 1400.57 2184.35 1400.73 2184.56 1391.53 2184.78 1382.32 2185.05 1373.06 2217.81 1372.08 2250.67 1374.42 2283.42 1372.25 2284.51 1368.92 2286.73 1362.22 2287.81 1358.9 2253.11 1358.14 2218.35 1358.9 2183.59 1358.36 2179.1 1349.53 2174.55 1340.82 2170 1332.05Z" fill="#EFF0F0" fill-rule="evenodd"/><path d="M2439.23 1333C2444.11 1333.27 2453.83 1333.76 2458.66 1333.97 2458.98 1355.9 2459.04 1377.83 2458.98 1399.7 2455.51 1400.3 2448.62 1401.43 2445.2 1402.03 2351.77 1403.16 2258.28 1403.54 2164.9 1401.86 2163.54 1392.03 2160.34 1382.58 2156 1373.67 2165.39 1373.45 2174.77 1373.13 2184.21 1372.97 2183.94 1382.15 2183.73 1391.28 2183.51 1400.41 2268.91 1400.24 2354.32 1401.32 2439.72 1400.03 2439.23 1377.67 2439.07 1355.36 2439.23 1333Z" fill="#BDBEBE" fill-rule="evenodd"/><path d="M1815 1345.88C1840.98 1345.05 1866.96 1344.39 1893 1344 1883.84 1346.49 1874.89 1349.47 1865.89 1352.4 1873.59 1354.38 1881.3 1356.48 1889.12 1358.14 1866.32 1358.69 1843.3 1360.24 1820.61 1357.03 1819.2 1354.27 1816.4 1348.69 1815 1345.88Z" fill="#9EA2A4" fill-rule="evenodd"/><path d="M1893.31 1344C1943.85 1345.9 1994.45 1344.71 2045 1345.19 2044.95 1348.4 2044.73 1354.69 2044.67 1357.89 1992.88 1357.68 1941.14 1358.22 1889.4 1357.89 1881.53 1356.27 1873.76 1354.2 1866 1352.25 1875.07 1349.37 1884.08 1346.44 1893.31 1344Z" fill="#566465" fill-rule="evenodd"/><path d="M2511 1369.82C2660.49 1366.25 2810.14 1369.28 2959.69 1368.3 3077.49 1368.74 3195.24 1368.36 3313 1368.57 3335.91 1369.17 3358.98 1369.06 3381.68 1365L3382 1372.26C3381.03 1496.16 3382.22 1620.01 3381.51 1743.86 3167.62 1743.7 2953.79 1743.64 2739.89 1743.91 2663.79 1743.75 2587.7 1744.46 2511.6 1743.43 2515.06 1646.65 2512.46 1549.72 2513.17 1452.89 2512.73 1425.22 2515.28 1397.28 2511 1369.82M2540.19 1400.69C2536.02 1452.57 2540.14 1504.61 2538.35 1556.54 2541.93 1564.61 2553.19 1560.98 2560.13 1561.69 2628.32 1559.3 2696.62 1561.04 2764.92 1560.55 2766.6 1507.37 2764.75 1454.19 2764.43 1401.01 2689.68 1400.63 2614.94 1400.96 2540.19 1400.69M2828.51 1401.61C2828.94 1454.19 2828.72 1506.83 2828.51 1559.47 2835.33 1560.22 2842.15 1561.04 2849.03 1561.9 2877.36 1563.42 2905.69 1558.71 2934.02 1562.28 2974.58 1561.31 3015.64 1565.75 3055.94 1559.36L3056.26 1563.15C3058.59 1508.72 3056.1 1454.19 3057.45 1399.77 2981.14 1400.2 2904.82 1400.04 2828.51 1401.61M3114.38 1400.36C3113.89 1454.14 3114.22 1507.97 3114.22 1561.79 3167.84 1564.12 3221.57 1562.28 3275.24 1562.82 3297.67 1562.01 3320.58 1565.53 3342.52 1559.41 3341.11 1513.22 3341.97 1467.03 3341.97 1420.83 3340.35 1414.39 3345.71 1399.12 3334.44 1400.36 3261.11 1399.55 3187.72 1399.93 3114.38 1400.36M2538.03 1593.1C2613.31 1595.32 2688.82 1595.15 2764.05 1593.42 2764.92 1590.44 2766.6 1584.59 2767.46 1581.67 2692.72 1581.45 2617.92 1580.64 2543.17 1581.99 2541.93 1584.76 2539.33 1590.33 2538.03 1593.1M2829.37 1581.72C2827.21 1596.94 2842.75 1594.61 2852.88 1594.88 2920.04 1593.85 2987.26 1595.48 3054.42 1594.23 3055.07 1590.98 3056.32 1584.43 3056.97 1581.18 2981.08 1581.62 2905.25 1580.53 2829.37 1581.72M3113.35 1581.18C3114.16 1584.43 3115.9 1590.98 3116.71 1594.23 3190.91 1595.32 3265.12 1594.12 3339.37 1594.88 3339.7 1591.47 3340.4 1584.65 3340.73 1581.24 3264.9 1581.45 3189.12 1581.24 3113.35 1581.18M2528.17 1616.44C2528.33 1624.29 2528.6 1632.14 2528.87 1639.99 2620.25 1639.45 2711.62 1639.78 2802.99 1639.83 2986.23 1639.78 3169.41 1639.88 3352.64 1639.72 3352.48 1631.87 3352.37 1624.02 3352.32 1616.17 3173.2 1616.49 2994.14 1616.27 2815.02 1616.27 2719.42 1616.17 2623.77 1616 2528.17 1616.44M2526.11 1656.02C2531.2 1660.08 2537.11 1661.82 2543.82 1661.33 2636.06 1661.6 2728.3 1660.08 2820.54 1662.58 2991.92 1662.52 3163.34 1662.41 3334.77 1662.63 3341.97 1661.06 3357.68 1665.99 3353.78 1651.69 3175.96 1652.12 2998.09 1652.02 2820.27 1651.74 2722.51 1659.71 2624.09 1652.61 2526.11 1656.02M2529.69 1682.29C2528.77 1684.78 2526.98 1689.81 2526.11 1692.31 2607.46 1693.12 2688.87 1692.36 2770.23 1692.63 2963.91 1692.63 3157.66 1692.9 3351.29 1692.41 3361.31 1676.17 3332.66 1683.37 3324.15 1681.64 3141.68 1681.96 2959.15 1681.8 2776.67 1681.69 2694.34 1681.69 2611.91 1680.34 2529.69 1682.29M2744.34 1714.24C2671.65 1716.3 2598.85 1713.37 2526.17 1715.65 2532.12 1722.52 2541.76 1720.25 2549.78 1720.79 2645.27 1719.71 2740.76 1721.28 2836.25 1721.82 2835.93 1719.11 2835.22 1713.7 2834.9 1710.99 2804.67 1711.91 2774.29 1709.36 2744.34 1714.24Z" fill="#F2F2F2" fill-rule="evenodd"/><path d="M1817 1388.93C1840.61 1387.8 1864.33 1387.58 1888 1388.93 1871.75 1390.12 1855.55 1391.36 1839.47 1393.9 1853.65 1403.22 1870.99 1399.6 1886.91 1401.07L1887.13 1403.73C1863.95 1404.29 1840.78 1404.01 1817.65 1402.65 1817.49 1399.21 1817.16 1392.38 1817 1388.93Z" fill="#9FA7AA" fill-rule="evenodd"/><path d="M1915.98 1400.04C1971.01 1400.85 2026.1 1401.72 2081.13 1399.82 2099.35 1398.63 2117.67 1398.52 2135.78 1400.96L2136 1403.56 2134.27 1403.56C2114.96 1403.56 2095.66 1403.62 2076.36 1403.08 2062.37 1430.9 2048.06 1458.88 2040.47 1489.31 2070.94 1490.99 2101.46 1491.04 2131.99 1490.72 2131.23 1492.18 2129.66 1495 2128.84 1496.41 2082.54 1500.21 2036.35 1493.65 1990.1 1493.65 1966.46 1496.25 1942.6 1497.23 1918.91 1494.41 1916.69 1524.23 1916.8 1554.17 1919.13 1584L1916.9 1583.95C1916.36 1547.34 1918.75 1510.62 1914.68 1474.18 1911.86 1449.5 1912.78 1424.61 1915.98 1400.04Z" fill="#FDDE8C" fill-rule="evenodd"/><path d="M2829 1400.85C2905.33 1399.27 2981.67 1399.44 3058 1399 3056.65 1453.63 3059.14 1508.37 3056.81 1563L3056.48 1559.2C3053.4 1507.23 3057.35 1455.1 3054.53 1403.08 3016.34 1400.96 2978.09 1401.66 2939.9 1402.04 2908.26 1454.34 2877 1507.12 2849.53 1561.75 2842.65 1560.88 2835.83 1560.06 2829 1559.3 2829.22 1506.47 2829.43 1453.63 2829 1400.85Z" fill="#FDA07E" fill-rule="evenodd"/><path d="M3114.27 1399.48C3187.8 1399.04 3261.38 1398.66 3334.91 1399.48 3346.2 1398.23 3340.83 1413.57 3342.46 1420.05 3342.46 1466.46 3341.59 1512.87 3343 1559.29 3321.01 1565.44 3298.04 1561.9 3275.55 1562.71 3221.74 1562.17 3167.87 1564.02 3114.11 1561.68 3114.11 1507.6 3113.78 1453.51 3114.27 1399.48M3121.49 1463.25C3122.36 1493.83 3118.61 1524.57 3123.56 1554.93 3192.96 1556.57 3262.36 1555.31 3331.76 1555.59 3332.14 1507.49 3333.77 1459.28 3331 1411.29 3263.23 1402.31 3194.8 1408.46 3126.71 1405.79 3118.5 1423.91 3121.65 1444.04 3121.49 1463.25Z" fill="#36CADA" fill-rule="evenodd"/><path d="M1185.88 1517.97C1182.41 1468.22 1217.92 1419.17 1265.82 1405.73 1306.82 1393.1 1354.72 1406.27 1382.63 1439.01 1404.79 1463.01 1414.07 1496.72 1410.11 1528.86 1406.2 1591.99 1337.18 1639.2 1276.46 1624.78 1258.43 1622.61 1244.31 1609.5 1227.1 1605.71 1219.55 1609.93 1213.25 1616.27 1208.09 1623.16 1202.17 1631.07 1204.07 1642.67 1196.63 1649.77 1168.56 1679.46 1138.2 1706.99 1109.96 1736.58 1101.06 1746.12 1090.96 1754.52 1080.2 1762 1069.23 1751.38 1058.43 1740.54 1048 1729.43 1085.25 1686.94 1126.96 1648.46 1166.6 1608.2 1185.5 1611.5 1195.66 1594.33 1206.74 1582.62 1196.42 1562.41 1185.5 1541.32 1185.88 1517.97M1267.72 1424.27C1221.13 1439.77 1190.06 1494.88 1207.77 1542.08 1222.1 1601.05 1302.15 1628.9 1350.64 1593.02 1383.01 1573.51 1398.71 1532.98 1392.46 1496.4 1382.63 1442.2 1320.02 1404.97 1267.72 1424.27Z" fill="#D9D9D9" fill-rule="evenodd"/><path d="M2041 1489.43C2048.61 1458.93 2062.95 1430.89 2076.96 1403 2096.3 1403.54 2115.64 1403.49 2134.98 1403.49 2135.3 1432.57 2138.13 1462.03 2132.7 1490.84 2102.11 1491.17 2071.53 1491.11 2041 1489.43Z" fill="#FDD159" fill-rule="evenodd"/><path d="M2134.42 1404 2136.16 1404C2138.6 1525.62 2135.45 1647.34 2138 1768.96 2089.46 1769.01 2040.93 1769.01 1992.39 1768.96 1992.12 1741.37 1993.42 1713.73 1992.06 1686.15L1991.41 1680.08C1965.92 1678.72 1940.43 1682.03 1915 1679.43L1915.98 1673.74C1941.41 1673.68 1966.79 1675.96 1992.23 1676.28 1992.28 1647.72 1992.28 1619.11 1992.01 1590.54 1967.01 1589.73 1942.01 1589.73 1917.01 1589.79L1917.01 1584.26 1919.23 1584.31C1942.82 1584.96 1966.47 1584.96 1990.06 1584.04 1989.62 1554.07 1989.73 1524.05 1990.22 1494.02 2036.48 1494.02 2082.68 1500.58 2129 1496.78 2129.81 1495.38 2131.38 1492.56 2132.14 1491.09 2137.57 1462.37 2134.75 1433 2134.42 1404M1999.33 1523.88C2039.3 1537.38 2082.68 1527.46 2124.12 1530.44L2124.71 1521.34C2082.96 1522.53 2040.93 1519 1999.33 1523.88M2002.37 1551.09C2002.37 1553.47 2002.48 1558.3 2002.48 1560.68 2043.91 1561.28 2085.45 1561.93 2126.88 1560.47 2126.02 1558.3 2124.28 1553.96 2123.41 1551.79 2083.28 1548.49 2042.66 1550.44 2002.37 1551.09M1999.33 1621.6C2040.49 1622.41 2081.65 1621.76 2122.82 1622.09 2123.47 1619.76 2124.77 1615.15 2125.42 1612.82 2091.42 1612.6 2057.47 1613.25 2023.52 1612.55 2014.41 1613.14 2001.5 1608.92 1999.33 1621.6M1999.71 1642.19C2000.74 1644.47 2002.75 1648.97 2003.78 1651.24 2044.83 1651.62 2085.94 1652.33 2126.99 1650.49 2123.79 1643.66 2117.66 1640.84 2110.23 1642.09 2073.36 1642.09 2036.53 1641.87 1999.71 1642.19M2003.99 1704.68C2002.86 1706.8 2000.52 1711.02 1999.38 1713.14 2042.17 1712.76 2085.23 1715.85 2127.91 1711.46 2122.71 1700.35 2109.09 1704.9 2099.5 1703.76 2067.66 1704.68 2035.77 1702.62 2003.99 1704.68M2001.66 1733.73 2001.39 1742.46C2042.23 1742.89 2083.01 1742.73 2123.85 1742.67L2124.44 1733.57C2083.5 1733.51 2042.61 1733.57 2001.66 1733.73Z" fill="#EFEFF0" fill-rule="evenodd"/><path d="M2165.27 1402C2258.46 1403.68 2351.75 1403.3 2445 1402.16 2448.35 1402.6 2455.12 1403.41 2458.48 1403.84 2459.45 1428.13 2458.75 1452.47 2458.8 1476.81 2450.63 1477.24 2442.45 1477.78 2434.28 1478 2351.11 1477.68 2267.93 1477.78 2184.76 1477.95 2178.16 1478 2171.55 1477.95 2165 1478 2167 1452.69 2166.73 1427.26 2165.27 1402M2178 1410.19C2191.69 1426.01 2184.44 1448.73 2187.15 1467.86 2271.18 1469.87 2355.33 1469.11 2439.37 1467.92 2439.74 1448.73 2439.47 1429.54 2438.23 1410.4 2351.48 1408.99 2264.74 1409.26 2178 1410.19Z" fill="#20353C" fill-rule="evenodd"/><path d="M2849 1561.02C2876.47 1506.77 2907.74 1454.35 2939.39 1402.42 2977.59 1402.04 3015.85 1401.34 3054.05 1403.45 3056.87 1455.11 3052.91 1506.88 3056 1558.48 3015.68 1564.85 2974.61 1560.43 2934.02 1561.4 2905.68 1557.84 2877.34 1562.53 2849 1561.02Z" fill="#FE7642" fill-rule="evenodd"/><path d="M1658 1445C1703.91 1445.6 1749.82 1445.27 1795.68 1445 1796.65 1455.6 1797.57 1466.2 1798 1476.8 1795.68 1480.16 1790.98 1486.81 1788.66 1490.16 1772.72 1514.39 1759.38 1540.19 1745.18 1565.51 1743.77 1567.83 1741.07 1572.43 1739.72 1574.76 1712.5 1574.81 1685.17 1573.4 1658.05 1576 1658.76 1532.35 1658.11 1488.65 1658 1445Z" fill="#FE9F7C" fill-rule="evenodd"/><path d="M2164.99 1478.05C2171.62 1478 2178.31 1478.05 2185 1478 2184.4 1512.51 2184.62 1547.02 2184.84 1581.53 2179.63 1583.05 2174.47 1584.45 2169.26 1585.86L2164 1587C2164.6 1550.65 2163.34 1514.35 2164.99 1478.05Z" fill="#BDBFBE" fill-rule="evenodd"/><path d="M1788.6 1490.35C1790.9 1487 1795.57 1480.35 1797.88 1477 1798.2 1509.58 1797.77 1542.17 1797.93 1574.81 1778.62 1575.02 1759.31 1575.08 1740 1574.86 1741.34 1572.54 1744.02 1567.95 1745.42 1565.62 1760.38 1565.89 1775.35 1566.76 1790.31 1567.35 1791.71 1541.63 1790.69 1515.91 1788.6 1490.35Z" fill="#E0784F" fill-rule="evenodd"/><path d="M2184.56 1478.16C2267.85 1477.99 2351.13 1477.89 2434.42 1478.21L2440 1478.54C2438.26 1515.3 2439.57 1552.18 2438.75 1589 2386 1586.4 2333.13 1588.13 2280.26 1588.3 2243.23 1586.51 2206.09 1586.99 2169 1586.13 2174.15 1584.72 2179.25 1583.31 2184.4 1581.79 2184.18 1547.24 2183.97 1512.7 2184.56 1478.16Z" fill="#F0F0F0" fill-rule="evenodd"/><path d="M2440.23 1478C2444.88 1478.38 2454.29 1479.08 2459 1479.46 2458.84 1516.29 2458.73 1553.12 2458.84 1590 2453.92 1589.57 2443.97 1588.7 2439 1588.32 2439.8 1551.55 2438.52 1514.72 2440.23 1478Z" fill="#BEBFC1" fill-rule="evenodd"/><path d="M1745 1565.27C1759.25 1539.98 1772.63 1514.21 1788.62 1490 1790.73 1515.56 1791.76 1541.28 1790.35 1567 1775.23 1566.41 1760.12 1565.54 1745 1565.27Z" fill="#FD7641" fill-rule="evenodd"/><path d="M1919.58 1494.76C1943.02 1497.59 1966.62 1496.61 1990 1494 1989.52 1524.11 1989.41 1554.22 1989.84 1584.27 1966.51 1585.19 1943.13 1585.19 1919.8 1584.54 1917.49 1554.65 1917.39 1524.65 1919.58 1494.76Z" fill="#B6E79D" fill-rule="evenodd"/><path d="M2000 1523.68C2041.47 1518.8 2083.37 1522.32 2125 1521.13L2124.41 1530.25C2083.1 1527.26 2039.85 1537.2 2000 1523.68Z" fill="#727C7D" fill-rule="evenodd"/><path d="M2003 1551.12C2043.13 1550.5 2083.58 1548.62 2123.54 1551.8 2124.41 1553.89 2126.14 1558.06 2127 1560.14 2085.74 1561.55 2044.37 1560.93 2003.11 1560.35 2003.11 1558.06 2003 1553.42 2003 1551.12Z" fill="#8A9894" fill-rule="evenodd"/><path d="M1657.51 1582.38C1703.92 1589.15 1750.59 1577.81 1797 1583.83 1795.64 1584.64 1792.93 1586.14 1791.63 1586.9 1771.9 1587.6 1752.17 1587.22 1732.49 1587.22 1710.53 1586.74 1688.58 1586.68 1666.67 1587.92 1664.72 1623.89 1668.84 1660.13 1663.96 1695.94 1662.88 1699.76 1660.66 1707.5 1659.52 1711.32L1657.3 1716C1654.26 1671.53 1657.51 1626.9 1657.51 1582.38Z" fill="#54BECA" fill-rule="evenodd"/><path d="M2538 1592.42C2539.3 1589.76 2541.91 1584.39 2543.16 1581.74 2618.09 1580.43 2693.07 1581.21 2768 1581.42 2767.13 1584.24 2765.45 1589.86 2764.58 1592.73 2689.16 1594.4 2613.47 1594.55 2538 1592.42Z" fill="#A2ABA9" fill-rule="evenodd"/><path d="M2829.2 1581.55C2905.15 1580.42 2981.05 1581.45 3057 1581.04 3056.35 1584.11 3055.1 1590.31 3054.45 1593.39 2987.23 1594.56 2919.95 1593.03 2852.73 1594 2842.59 1593.74 2827.04 1595.95 2829.2 1581.55Z" fill="#788386" fill-rule="evenodd"/><path d="M3114 1581C3189.65 1581.05 3265.3 1581.26 3341 1581.05 3340.68 1584.29 3339.97 1590.76 3339.65 1594 3265.51 1593.28 3191.43 1594.41 3117.35 1593.38 3116.54 1590.3 3114.81 1584.08 3114 1581Z" fill="#788482" fill-rule="evenodd"/><path d="M1666.69 1587.03C1688.42 1585.78 1710.21 1585.83 1732 1586.32 1709.62 1623.19 1689.07 1661.14 1666.64 1698L1664 1695.94C1668.84 1659.83 1664.75 1623.3 1666.69 1587.03Z" fill="#4CE1ED" fill-rule="evenodd"/><path d="M1732.49 1586.33C1752.05 1586.33 1771.67 1586.71 1791.29 1586 1790.27 1626.55 1793.83 1667.16 1790.65 1707.71 1756.47 1710.05 1722.14 1710.54 1687.91 1709.45 1679.18 1710.16 1673.31 1703.13 1667 1698.45 1689.48 1661.44 1710.07 1623.34 1732.49 1586.33Z" fill="#02D3E7" fill-rule="evenodd"/><path d="M1917.03 1590.02C1941.94 1589.97 1966.85 1589.97 1991.76 1590.77 1992.03 1619.16 1992.03 1647.61 1991.97 1676 1966.63 1675.68 1941.34 1673.41 1916 1673.47 1918 1645.67 1916.27 1617.82 1917.03 1590.02M1984.62 1604.83C1974.68 1626.22 1962.2 1646.91 1957.66 1670.34 1967.39 1670.4 1977.06 1670.29 1986.78 1670.29 1988.62 1648.47 1989.38 1626.38 1984.62 1604.83Z" fill="#FB9F7C" fill-rule="evenodd"/><path d="M2164.47 1587.13 2169.66 1586C2206.61 1586.86 2243.62 1586.38 2280.52 1588.16 2282.62 1594.69 2284.84 1601.33 2287 1607.91 2285.38 1608.29 2282.08 1609.15 2280.46 1609.53 2279.71 1638.35 2281.38 1667.28 2278.19 1695.99 2271.39 1695.83 2264.53 1695.72 2257.72 1695.56 2262.2 1691.56 2266.74 1687.51 2271.28 1683.52 2270.58 1657.4 2273.6 1631.23 2271.55 1605.16 2272.25 1593.83 2259.23 1595.93 2251.78 1594.9 2225.84 1594.85 2199.59 1592.96 2173.93 1597.33 2165.88 1610.93 2169.71 1627.5 2169.22 1642.5 2171.22 1678.07 2163.98 1714.66 2175.11 1749.31 2171.93 1751.52 2168.74 1753.73 2165.6 1756 2162.9 1699.71 2164.42 1643.42 2164.47 1587.13Z" fill="#BFBFBF" fill-rule="evenodd"/><path d="M1985.36 1604C1990.19 1625.71 1989.42 1647.95 1987.56 1669.93 1977.69 1669.93 1967.87 1670.04 1958 1669.98 1962.61 1646.38 1975.27 1625.54 1985.36 1604Z" fill="#FC7941" fill-rule="evenodd"/><path d="M2815.03 1616.11C2994.26 1616.11 3173.44 1616.32 3352.68 1616 3352.73 1623.63 3352.84 1631.26 3353 1638.89 3169.65 1639.05 2986.35 1638.95 2803 1639 2807.01 1631.37 2811.02 1623.74 2815.03 1616.11Z" fill="#4F616B" fill-rule="evenodd"/><path d="M1912.58 1764C1913.01 1735.67 1909.67 1707.01 1915.43 1679 1940.7 1681.59 1966.03 1678.3 1991.35 1679.65L1992 1685.69 1987.85 1685.58C1974.81 1684.83 1961.83 1683.8 1948.79 1683.53 1939.95 1683.48 1931.11 1683.75 1922.28 1683.97 1921.31 1703.72 1920.17 1723.42 1918.61 1743.17 1916.78 1750.13 1914.79 1757.09 1912.58 1764Z" fill="#58B3BB" fill-rule="evenodd"/><path d="M2529.58 1682.01C2611.95 1680.14 2694.53 1681.44 2777 1681.44 2775.37 1684.09 2772.17 1689.29 2770.54 1691.94 2689.05 1691.68 2607.5 1692.41 2526 1691.63 2526.87 1689.24 2528.66 1684.4 2529.58 1682.01Z" fill="#A6AFAE" fill-rule="evenodd"/><path d="M1922.53 1684.44C1931.39 1684.22 1940.24 1683.95 1949.09 1684.01 1938.62 1710.19 1921.99 1735.01 1922.1 1764.23 1944.07 1765.53 1966.09 1765.48 1988.06 1763.85 1988.7 1737.89 1988 1711.98 1988.22 1686.07L1992.37 1686.18C1993.72 1713.77 1992.43 1741.41 1992.7 1769 1967.82 1768.84 1942.88 1768.89 1918 1768.84 1918.22 1760.49 1918.49 1752.2 1918.86 1743.9 1920.43 1724.06 1921.56 1704.28 1922.53 1684.44Z" fill="#4DE4EF" fill-rule="evenodd"/><path d="M1948.89 1684C1961.9 1684.27 1974.87 1685.3 1987.88 1686.06 1987.67 1711.92 1988.36 1737.79 1987.72 1763.71 1965.83 1765.33 1943.89 1765.39 1922 1764.09 1921.89 1734.92 1938.46 1710.14 1948.89 1684Z" fill="#01D2E7" fill-rule="evenodd"/><path d="M2189.51 1739.48C2218.4 1724.32 2243.32 1697.76 2277.86 1697 2278.14 1702.13 2278.73 1712.38 2279 1717.5 2330.76 1719.14 2382.57 1716.96 2434.32 1718.59 2436.22 1729.77 2438.23 1741.01 2440.08 1752.24L2441 1758.13C2355.68 1759.06 2270.31 1759.55 2185 1758.02 2186.47 1751.86 2187.99 1745.64 2189.51 1739.48Z" fill="#F0EFF0" fill-rule="evenodd"/><path d="M2744.11 1714C2774.05 1709.5 2804.43 1711.85 2834.65 1711 2834.97 1713.5 2835.68 1718.5 2836 1721 2740.54 1720.5 2645.07 1719.05 2549.61 1720.05 2541.59 1719.55 2531.96 1721.65 2526 1715.3 2598.67 1713.2 2671.44 1715.9 2744.11 1714Z" fill="#6C7876" fill-rule="evenodd"/><path d="M2002.27 1733.18C2043.2 1733.02 2084.07 1732.97 2125 1733.02L2124.4 1741.93C2083.58 1741.98 2042.82 1742.14 2002 1741.71L2002.27 1733.18Z" fill="#707A79" fill-rule="evenodd"/><path d="M2174.89 1750C2179.88 1746.6 2184.91 1743.24 2190.06 1740 2188.54 1746.11 2187.03 1752.27 2185.56 1758.38 2270.65 1759.9 2355.8 1759.41 2440.88 1758.49L2442.08 1764.17C2442.78 1765.47 2444.24 1768.11 2445 1769.47 2352.71 1772.01 2260.25 1770.66 2167.91 1770.01 2167.2 1790.28 2166.72 1810.56 2165.36 1830.78 2164.01 1832.4 2161.3 1835.7 2159.95 1837.32 2158.1 1844.08 2155.61 1850.62 2152.8 1857 2134.38 1850.13 2114.83 1851.54 2095.66 1853.38 2035.86 1849.54 1975.85 1852.46 1916 1851.11 1977.26 1850.35 2038.57 1849.76 2099.83 1852.03 2116.35 1850.78 2135.25 1853.76 2149.55 1843.7 2173.7 1827.16 2163.68 1793.15 2165.36 1768.49 2165.36 1765.52 2165.36 1759.63 2165.36 1756.71 2168.5 1754.44 2171.7 1752.22 2174.89 1750Z" fill="#BFBFBF" fill-rule="evenodd"/><path d="M1820.41 1763.61C1842.54 1758.17 1865.38 1758.28 1888 1760.2 1887.62 1771.28 1887.35 1782.46 1887.89 1793.6 1864.84 1794.66 1841.51 1793.86 1819 1788.32 1819.49 1780.07 1819.98 1771.81 1820.41 1763.61Z" fill="#53666E" fill-rule="evenodd"/><path d="M2143.63 1832.41C2164.4 1817.58 2153.17 1788.04 2165.32 1768 2163.64 1792.76 2173.67 1826.92 2149.48 1843.54 2068.23 1846.31 1986.93 1844.19 1905.68 1844.73 1899.93 1838.54 1894.24 1832.3 1888.54 1826.11 1808.54 1825.67 1728.59 1826.76 1648.59 1825.56 1643.6 1823.34 1638.72 1820.84 1634 1818.12 1715.09 1816.98 1796.23 1818.67 1877.26 1816.98 1896.79 1815.46 1907.09 1838.22 1926.18 1837.67 1987.64 1838.32 2049.14 1836.7 2110.65 1838.54 2121.71 1838.11 2134.46 1840.06 2143.63 1832.41Z" fill="#3D3928" fill-rule="evenodd"/><path d="M1616 1794C1617.22 1791.26 1619.78 1785.74 1621 1783 1620.85 1785.58 1620.54 1790.78 1620.39 1793.36L1616 1794Z" fill="#463013" fill-rule="evenodd"/><path d="M1992 1819.45C1992.32 1809.25 1994.96 1794.98 2008.19 1796.17 2025.35 1796.71 2048.48 1789.33 2060.32 1805.99 2063.22 1814.24 2056.34 1820.76 2049.29 1823.47 2030.19 1826.13 2010.4 1825.64 1992 1819.45Z" fill="#526771" fill-rule="evenodd"/><path d="M2766 1835.47C2782.46 1825.58 2799.09 1812.23 2819.74 1814.19 2901.45 1814.78 2983.17 1814.46 3064.88 1814.35 3083.74 1813.93 3099.17 1825.58 3114 1835.41 2998 1836.16 2882 1836.21 2766 1835.47Z" fill="#CDCFCF" fill-rule="evenodd"/><path d="M1649 1826C1728.97 1827.18 1808.89 1826.11 1888.87 1826.54 1894.56 1832.67 1900.25 1838.86 1906 1845 1893.31 1839.78 1880.68 1832.73 1866.47 1833.86 1803.25 1833.91 1740.03 1833.8 1676.87 1834.24 1667.11 1833.64 1654.86 1835.96 1649 1826Z" fill="#BFBFBF" fill-rule="evenodd"/><path d="M2403 1846 2407.98 1846.16 2414.38 1846.43C2418.39 1849.92 2422.5 1853.35 2426.73 1856.79 2444.66 1864.95 2464.87 1862.42 2484.05 1862.74 2774.87 1863.01 3065.69 1862.58 3356.51 1862.96 3388.69 1863.5 3421.14 1859.79 3453 1866.13L3444.06 1869.94C3171.01 1872.08 2897.91 1870.21 2624.85 1870.85 2561.25 1870.37 2497.59 1871.87 2434.04 1870.1 2420.66 1866.93 2405.98 1861.13 2403 1846Z" fill="#595959" fill-rule="evenodd"/><path d="M2415 1846.35C2764.65 1846.18 3114.35 1845.52 3464 1846.62 3455.39 1849.49 3446.94 1853.36 3437.79 1853.8 3123.83 1853.47 2809.76 1853.8 2495.75 1853.52 2472.9 1853.03 2449.82 1851.92 2427.35 1857 2423.12 1853.47 2419.01 1849.94 2415 1846.35Z" fill="#1E3139" fill-rule="evenodd"/></g></svg>