<svg width="149" height="199" xmlns="http://www.w3.org/2000/svg" xmlns:xlink="http://www.w3.org/1999/xlink" overflow="hidden"><defs><clipPath id="clip0"><rect x="53" y="139" width="149" height="199"/></clipPath></defs><g clip-path="url(#clip0)" transform="translate(-53 -139)"><path d="M60.1885 159.208C60.1885 148.6 57.7183 140 70.6625 140L188.973 140.559C201.917 140.559 200.812 148.6 200.812 159.208L200.812 309.792C200.812 320.4 203.282 329 190.338 329L70.6625 327.882C57.7183 327.882 60.1885 320.4 60.1885 309.792L60.1885 159.208Z" fill="#FFFFFF" fill-rule="evenodd"/><path d="M90.1457 155.245C90.1457 146.825 88.2361 140 98.2426 140L189.702 140.444C199.709 140.444 198.854 146.825 198.854 155.245L198.854 274.755C198.854 283.175 200.764 290 190.757 290L98.2426 289.112C88.2361 289.112 90.1457 283.175 90.1457 274.755L90.1457 155.245Z" fill="#FFCC00" fill-rule="evenodd"/><path d="M58.1898 292.964C58.1898 290.775 55.7021 289 68.7381 289L187.888 289.115C200.924 289.115 199.81 290.775 199.81 292.964L199.81 324.036C199.81 326.225 202.298 328 189.262 328L68.7381 327.769C55.7021 327.769 58.1898 326.225 58.1898 324.036L58.1898 292.964Z" fill="#F2F2F2" fill-rule="evenodd"/><text font-family="Calibri,Calibri_MSFontService,sans-serif" font-weight="400" font-size="24" transform="translate(67.791 316)">1.</text><path d="M60.0441 155.245C60.0441 146.825 59.466 140 62.4955 140L90.1852 140.444C93.2146 140.444 92.9559 146.825 92.9559 155.245L92.9559 274.755C92.9559 283.175 93.534 290 90.5045 290L62.4955 289.112C59.466 289.112 60.0441 283.175 60.0441 274.755L60.0441 155.245Z" fill="#003399" fill-rule="evenodd"/></g></svg>