<svg width="148" height="200" xmlns="http://www.w3.org/2000/svg" xmlns:xlink="http://www.w3.org/1999/xlink" overflow="hidden"><defs><clipPath id="clip0"><rect x="875" y="399" width="148" height="200"/></clipPath></defs><g clip-path="url(#clip0)" transform="translate(-875 -399)"><path d="M880.19 419.208C880.19 408.6 877.702 400 890.738 400L1009.89 400.559C1022.92 400.559 1021.81 408.6 1021.81 419.208L1021.81 569.792C1021.81 580.4 1024.3 589 1011.26 589L890.738 587.882C877.702 587.882 880.19 580.4 880.19 569.792L880.19 419.208Z" fill="#FFFFFF" fill-rule="evenodd"/><path d="M880.19 553.964C880.19 551.775 877.702 550 890.738 550L1009.89 550.115C1022.92 550.115 1021.81 551.775 1021.81 553.964L1021.81 585.036C1021.81 587.225 1024.3 589 1011.26 589L890.738 588.769C877.702 588.769 880.19 587.225 880.19 585.036L880.19 553.964Z" fill="#F2F2F2" fill-rule="evenodd"/><text font-family="Calibri,Calibri_MSFontService,sans-serif" font-weight="400" font-size="24" transform="translate(889.748 577)">10.</text><path d="M912.146 416.346C912.146 407.871 910.236 401 920.243 401L1011.7 401.447C1021.71 401.447 1020.85 407.871 1020.85 416.346L1020.85 536.654C1020.85 545.129 1022.76 552 1012.76 552L920.243 551.107C910.236 551.107 912.146 545.129 912.146 536.654L912.146 416.346Z" fill="#4385F5" fill-rule="evenodd"/><path d="M881.044 406.082C881.044 403.275 880.466 401 883.495 401L911.185 401.148C914.215 401.148 913.956 403.275 913.956 406.082L913.956 445.918C913.956 448.725 914.534 451 911.505 451L883.495 450.704C880.466 450.704 881.044 448.725 881.044 445.918L881.044 406.082Z" fill="#34A853" fill-rule="evenodd"/><path d="M881.044 505.082C881.044 502.275 880.466 500 883.495 500L911.185 500.148C914.215 500.148 913.956 502.275 913.956 505.082L913.956 544.918C913.956 547.725 914.534 550 911.505 550L883.495 549.704C880.466 549.704 881.044 547.725 881.044 544.918L881.044 505.082Z" fill="#EA4235" fill-rule="evenodd"/><path d="M882.044 455.082C882.044 452.275 881.466 450 884.495 450L912.185 450.148C915.215 450.148 914.956 452.275 914.956 455.082L914.956 494.918C914.956 497.725 915.534 500 912.505 500L884.495 499.704C881.466 499.704 882.044 497.725 882.044 494.918L882.044 455.082Z" fill="#FABC05" fill-rule="evenodd"/></g></svg>