<svg width="149" height="199" xmlns="http://www.w3.org/2000/svg" xmlns:xlink="http://www.w3.org/1999/xlink" overflow="hidden"><defs><clipPath id="clip0"><rect x="259" y="139" width="149" height="199"/></clipPath></defs><g clip-path="url(#clip0)" transform="translate(-259 -139)"><path d="M266.19 159.208C266.19 148.6 263.702 140 276.738 140L395.888 140.559C408.924 140.559 407.81 148.6 407.81 159.208L407.81 309.792C407.81 320.4 410.298 329 397.262 329L276.738 327.882C263.702 327.882 266.19 320.4 266.19 309.792L266.19 159.208Z" fill="#FFFFFF" fill-rule="evenodd"/><path d="M297.144 155.245C297.144 146.825 295.252 140 305.167 140L395.788 140.444C405.702 140.444 404.856 146.825 404.856 155.245L404.856 274.755C404.856 283.175 406.748 290 396.833 290L305.167 289.112C295.252 289.112 297.144 283.175 297.144 274.755L297.144 155.245Z" fill="#006442" fill-rule="evenodd"/><path d="M265.188 292.964C265.188 290.775 262.718 289 275.662 289L393.973 289.115C406.917 289.115 405.812 290.775 405.812 292.964L405.812 324.036C405.812 326.225 408.282 328 395.338 328L275.662 327.769C262.718 327.769 265.188 326.225 265.188 324.036L265.188 292.964Z" fill="#F2F2F2" fill-rule="evenodd"/><text font-family="Calibri,Calibri_MSFontService,sans-serif" font-weight="400" font-size="24" transform="translate(274.118 316)">2<tspan font-size="24" x="12.1667" y="0">.</tspan></text><path d="M266.044 155.245C266.044 146.825 265.466 140 268.495 140L296.185 140.444C299.215 140.444 298.956 146.825 298.956 155.245L298.956 274.755C298.956 283.175 299.534 290 296.505 290L268.495 289.112C265.466 289.112 266.044 283.175 266.044 274.755L266.044 155.245Z" fill="#FFFFFF" fill-rule="evenodd"/></g></svg>