<svg width="149" height="199" xmlns="http://www.w3.org/2000/svg" xmlns:xlink="http://www.w3.org/1999/xlink" overflow="hidden"><defs><clipPath id="clip0"><rect x="464" y="137" width="149" height="199"/></clipPath></defs><g clip-path="url(#clip0)" transform="translate(-464 -137)"><path d="M470.19 157.208C470.19 146.6 467.702 138 480.738 138L599.888 138.559C612.924 138.559 611.81 146.6 611.81 157.208L611.81 307.792C611.81 318.4 614.298 327 601.262 327L480.738 325.882C467.702 325.882 470.19 318.4 470.19 307.792L470.19 157.208Z" fill="#FFFFFF" fill-rule="evenodd"/><path d="M501.146 153.245C501.146 144.825 499.236 138 509.243 138L600.702 138.444C610.709 138.444 609.854 144.825 609.854 153.245L609.854 272.755C609.854 281.175 611.764 288 601.757 288L509.243 287.112C499.236 287.112 501.146 281.175 501.146 272.755L501.146 153.245Z" fill="#C00C0D" fill-rule="evenodd"/><path d="M469.19 290.964C469.19 288.775 466.702 287 479.738 287L598.888 287.115C611.924 287.115 610.81 288.775 610.81 290.964L610.81 322.036C610.81 324.225 613.298 326 600.262 326L479.738 325.769C466.702 325.769 469.19 324.225 469.19 322.036L469.19 290.964Z" fill="#F2F2F2" fill-rule="evenodd"/><text font-family="Calibri,Calibri_MSFontService,sans-serif" font-weight="400" font-size="24" transform="translate(478.632 314)">3<tspan font-size="24" x="12.1667" y="0">.</tspan></text><path d="M470.045 153.245C470.045 144.825 469.45 138 472.571 138L501.1 138.444C504.221 138.444 503.955 144.825 503.955 153.245L503.955 272.755C503.955 281.175 504.55 288 501.429 288L472.571 287.112C469.45 287.112 470.045 281.175 470.045 272.755L470.045 153.245Z" fill="#FFC600" fill-rule="evenodd"/></g></svg>