<svg width="150" height="199" xmlns="http://www.w3.org/2000/svg" xmlns:xlink="http://www.w3.org/1999/xlink" overflow="hidden"><defs><clipPath id="clip0"><rect x="672" y="139" width="150" height="199"/></clipPath></defs><g clip-path="url(#clip0)" transform="translate(-672 -139)"><path d="M679.689 159.708C679.689 149.1 677.218 140.5 690.163 140.5L808.473 141.059C821.417 141.059 820.312 149.1 820.312 159.708L820.312 310.292C820.312 320.9 822.782 329.5 809.838 329.5L690.163 328.382C677.218 328.382 679.689 320.9 679.689 310.292L679.689 159.708Z" stroke="#D9D9D9" stroke-width="1.33333" stroke-miterlimit="8" fill="#FFFFFF" fill-rule="evenodd"/><path d="M712.646 155.745C712.646 147.325 710.736 140.5 720.743 140.5L812.203 140.944C822.209 140.944 821.354 147.325 821.354 155.745L821.354 275.255C821.354 283.675 823.264 290.5 813.257 290.5L720.743 289.612C710.736 289.612 712.646 283.675 712.646 275.255L712.646 155.745Z" stroke="#D9D9D9" stroke-width="1.33333" stroke-miterlimit="8" fill="#81D8D0" fill-rule="evenodd"/><path d="M677.69 293.464C677.69 291.275 675.202 289.5 688.238 289.5L807.388 289.615C820.424 289.615 819.31 291.275 819.31 293.464L819.31 324.536C819.31 326.725 821.798 328.5 808.762 328.5L688.238 328.269C675.202 328.269 677.69 326.725 677.69 324.536L677.69 293.464Z" stroke="#D9D9D9" stroke-width="1.33333" stroke-miterlimit="8" fill="#F2F2F2" fill-rule="evenodd"/><text font-family="Calibri,Calibri_MSFontService,sans-serif" font-weight="400" font-size="24" transform="translate(686.773 316)">4<tspan font-size="24" x="12.1667" y="0">.</tspan></text><path d="M679.544 155.745C679.544 147.325 678.966 140.5 681.996 140.5L709.685 140.944C712.715 140.944 712.456 147.325 712.456 155.745L712.456 275.255C712.456 283.675 713.034 290.5 710.005 290.5L681.996 289.612C678.966 289.612 679.544 283.675 679.544 275.255L679.544 155.745Z" stroke="#D9D9D9" stroke-width="1.33333" stroke-miterlimit="8" fill="#FFFFFF" fill-rule="evenodd"/></g></svg>