<svg width="150" height="199" xmlns="http://www.w3.org/2000/svg" xmlns:xlink="http://www.w3.org/1999/xlink" overflow="hidden"><defs><clipPath id="clip0"><rect x="880" y="139" width="150" height="199"/></clipPath></defs><g clip-path="url(#clip0)" transform="translate(-880 -139)"><path d="M887.19 159.208C887.19 148.6 884.702 140 897.738 140L1016.89 140.559C1029.92 140.559 1028.81 148.6 1028.81 159.208L1028.81 309.792C1028.81 320.4 1031.3 329 1018.26 329L897.738 327.882C884.702 327.882 887.19 320.4 887.19 309.792L887.19 159.208Z" fill="#FFFFFF" fill-rule="evenodd"/><path d="M918.146 155.245C918.146 146.825 916.236 140 926.243 140L1017.7 140.444C1027.71 140.444 1026.85 146.825 1026.85 155.245L1026.85 274.755C1026.85 283.175 1028.76 290 1018.76 290L926.243 289.112C916.236 289.112 918.146 283.175 918.146 274.755L918.146 155.245Z" fill="#482F94" fill-rule="evenodd"/><path d="M886.19 292.964C886.19 290.775 883.702 289 896.738 289L1015.89 289.115C1028.92 289.115 1027.81 290.775 1027.81 292.964L1027.81 324.036C1027.81 326.225 1030.3 328 1017.26 328L896.738 327.769C883.702 327.769 886.19 326.225 886.19 324.036L886.19 292.964Z" fill="#F2F2F2" fill-rule="evenodd"/><text font-family="Calibri,Calibri_MSFontService,sans-serif" font-weight="400" font-size="24" transform="translate(895.552 316)">5<tspan font-size="24" x="12.1666" y="0">.</tspan></text><path d="M887.546 155.745C887.546 147.325 886.95 140.5 890.071 140.5L918.6 140.944C921.721 140.944 921.455 147.325 921.455 155.745L921.455 275.255C921.455 283.675 922.05 290.5 918.929 290.5L890.071 289.612C886.95 289.612 887.546 283.675 887.546 275.255L887.546 155.745Z" stroke="#D9D9D9" stroke-width="1.33333" stroke-miterlimit="8" fill="#FFFFFF" fill-rule="evenodd"/></g></svg>