<svg width="149" height="199" xmlns="http://www.w3.org/2000/svg" xmlns:xlink="http://www.w3.org/1999/xlink" overflow="hidden"><defs><clipPath id="clip0"><rect x="48" y="396" width="149" height="199"/></clipPath></defs><g clip-path="url(#clip0)" transform="translate(-48 -396)"><path d="M55.1898 416.208C55.1898 405.6 52.7021 397 65.7381 397L184.888 397.559C197.924 397.559 196.81 405.6 196.81 416.208L196.81 566.792C196.81 577.4 199.298 586 186.262 586L65.7381 584.882C52.7021 584.882 55.1898 577.4 55.1898 566.792L55.1898 416.208Z" fill="#FFFFFF" fill-rule="evenodd"/><path d="M86.1443 412.245C86.1443 403.825 84.2523 397 94.167 397L184.788 397.444C194.702 397.444 193.856 403.825 193.856 412.245L193.856 531.755C193.856 540.175 195.748 547 185.833 547L94.167 546.112C84.2523 546.112 86.1443 540.175 86.1443 531.755L86.1443 412.245Z" fill="#3B4B02" fill-rule="evenodd"/><path d="M54.1885 549.964C54.1885 547.775 51.7183 546 64.6625 546L182.973 546.115C195.917 546.115 194.812 547.775 194.812 549.964L194.812 581.036C194.812 583.225 197.282 585 184.338 585L64.6625 584.769C51.7183 584.769 54.1885 583.225 54.1885 581.036L54.1885 549.964Z" fill="#F2F2F2" fill-rule="evenodd"/><text font-family="Calibri,Calibri_MSFontService,sans-serif" font-weight="400" font-size="24" transform="translate(63.1417 573)">6.</text><path d="M55.0441 412.245C55.0441 403.825 54.466 397 57.4955 397L85.1852 397.444C88.2146 397.444 87.9559 403.825 87.9559 412.245L87.9559 531.755C87.9559 540.175 88.534 547 85.5045 547L57.4955 546.112C54.466 546.112 55.0441 540.175 55.0441 531.755L55.0441 412.245Z" fill="#988344" fill-rule="evenodd"/></g></svg>