<svg width="149" height="199" xmlns="http://www.w3.org/2000/svg" xmlns:xlink="http://www.w3.org/1999/xlink" overflow="hidden"><defs><clipPath id="clip0"><rect x="263" y="399" width="149" height="199"/></clipPath></defs><g clip-path="url(#clip0)" transform="translate(-263 -399)"><path d="M270.19 419.31C270.19 408.645 267.702 400 280.738 400L399.888 400.562C412.924 400.562 411.81 408.645 411.81 419.31L411.81 570.69C411.81 581.355 414.298 590 401.262 590L280.738 588.876C267.702 588.876 270.19 581.355 270.19 570.69L270.19 419.31Z" fill="#FFFFFF" fill-rule="evenodd"/><path d="M301.144 415.346C301.144 406.871 299.252 400 309.167 400L399.788 400.447C409.702 400.447 408.856 406.871 408.856 415.346L408.856 535.654C408.856 544.129 410.748 551 400.833 551L309.167 550.107C299.252 550.107 301.144 544.129 301.144 535.654L301.144 415.346Z" fill="#3B5999" fill-rule="evenodd"/><path d="M268.19 552.964C268.19 550.775 265.702 549 278.738 549L397.888 549.115C410.924 549.115 409.81 550.775 409.81 552.964L409.81 584.036C409.81 586.225 412.298 588 399.262 588L278.738 587.769C265.702 587.769 268.19 586.225 268.19 584.036L268.19 552.964Z" fill="#F2F2F2" fill-rule="evenodd"/><text font-family="Calibri,Calibri_MSFontService,sans-serif" font-weight="400" font-size="24" transform="translate(278.092 576)">7<tspan font-size="24" x="12.1667" y="0">.</tspan></text><path d="M270.544 415.846C270.544 407.371 269.966 400.5 272.996 400.5L300.685 400.947C303.715 400.947 303.456 407.371 303.456 415.846L303.456 536.154C303.456 544.629 304.034 551.5 301.005 551.5L272.996 550.607C269.966 550.607 270.544 544.629 270.544 536.154L270.544 415.846Z" stroke="#D9D9D9" stroke-width="1.33333" stroke-miterlimit="8" fill="#FFFFFF" fill-rule="evenodd"/></g></svg>