<svg width="149" height="201" xmlns="http://www.w3.org/2000/svg" xmlns:xlink="http://www.w3.org/1999/xlink" overflow="hidden"><defs><clipPath id="clip0"><rect x="466" y="400" width="149" height="201"/></clipPath></defs><g clip-path="url(#clip0)" transform="translate(-466 -400)"><path d="M472.19 422.208C472.19 411.6 469.702 403 482.738 403L601.888 403.559C614.924 403.559 613.81 411.6 613.81 422.208L613.81 572.792C613.81 583.4 616.298 592 603.262 592L482.738 590.882C469.702 590.882 472.19 583.4 472.19 572.792L472.19 422.208Z" fill="#FFFFFF" fill-rule="evenodd"/><path d="M503.146 418.245C503.146 409.825 501.236 403 511.243 403L602.702 403.444C612.709 403.444 611.854 409.825 611.854 418.245L611.854 537.755C611.854 546.175 613.764 553 603.757 553L511.243 552.112C501.236 552.112 503.146 546.175 503.146 537.755L503.146 418.245Z" fill="#FFCC00" fill-rule="evenodd"/><path d="M471.19 554.964C471.19 552.775 468.702 551 481.738 551L600.888 551.115C613.924 551.115 612.81 552.775 612.81 554.964L612.81 586.036C612.81 588.225 615.298 590 602.262 590L481.738 589.769C468.702 589.769 471.19 588.225 471.19 586.036L471.19 554.964Z" fill="#F2F2F2" fill-rule="evenodd"/><text font-family="Calibri,Calibri_MSFontService,sans-serif" font-weight="400" font-size="24" transform="translate(480.589 578)">8<tspan font-size="24" x="12.1667" y="0">.</tspan></text><path d="M472.045 484.724C472.045 480.458 471.45 477 474.571 477L503.1 477.225C506.221 477.225 505.955 480.458 505.955 484.724L505.955 545.276C505.955 549.542 506.55 553 503.429 553L474.571 552.55C471.45 552.55 472.045 549.542 472.045 545.276L472.045 484.724Z" fill="#015643" fill-rule="evenodd"/><path d="M472.045 407.826C472.045 403.504 471.45 400 474.571 400L503.1 400.228C506.221 400.228 505.955 403.504 505.955 407.826L505.955 469.174C505.955 473.496 506.55 477 503.429 477L474.571 476.544C471.45 476.544 472.045 473.496 472.045 469.174L472.045 407.826Z" fill="#029948" fill-rule="evenodd"/></g></svg>