<svg width="148" height="199" xmlns="http://www.w3.org/2000/svg" xmlns:xlink="http://www.w3.org/1999/xlink" overflow="hidden"><defs><clipPath id="clip0"><rect x="670" y="399" width="148" height="199"/></clipPath></defs><g clip-path="url(#clip0)" transform="translate(-670 -399)"><path d="M675.19 418.208C675.19 407.6 672.702 399 685.738 399L804.888 399.559C817.924 399.559 816.81 407.6 816.81 418.208L816.81 568.792C816.81 579.4 819.298 588 806.262 588L685.738 586.882C672.702 586.882 675.19 579.4 675.19 568.792L675.19 418.208Z" fill="#FFFFFF" fill-rule="evenodd"/><path d="M675.19 552.964C675.19 550.775 672.702 549 685.738 549L804.888 549.115C817.924 549.115 816.81 550.775 816.81 552.964L816.81 584.036C816.81 586.225 819.298 588 806.262 588L685.738 587.769C672.702 587.769 675.19 586.225 675.19 584.036L675.19 552.964Z" fill="#F2F2F2" fill-rule="evenodd"/><text font-family="Calibri,Calibri_MSFontService,sans-serif" font-weight="400" font-size="24" transform="translate(684.966 576)">9<tspan font-size="24" x="12.1666" y="0">.</tspan></text><path d="M708.144 415.346C708.144 406.871 706.252 400 716.167 400L806.788 400.447C816.703 400.447 815.856 406.871 815.856 415.346L815.856 535.654C815.856 544.129 817.748 551 807.833 551L716.167 550.107C706.252 550.107 708.144 544.129 708.144 535.654L708.144 415.346Z" fill="#00A427" fill-rule="evenodd"/><path d="M676.045 405.082C676.045 402.275 675.45 400 678.571 400L707.1 400.148C710.221 400.148 709.955 402.275 709.955 405.082L709.955 444.918C709.955 447.725 710.55 450 707.429 450L678.571 449.704C675.45 449.704 676.045 447.725 676.045 444.918L676.045 405.082Z" fill="#33BE01" fill-rule="evenodd"/><path d="M676.546 504.582C676.546 501.775 675.95 499.5 679.071 499.5L707.6 499.648C710.721 499.648 710.455 501.775 710.455 504.582L710.455 544.419C710.455 547.225 711.05 549.5 707.929 549.5L679.071 549.204C675.95 549.204 676.546 547.225 676.546 544.419L676.546 504.582Z" stroke="#D9D9D9" stroke-width="1.33333" stroke-miterlimit="8" fill="#FFFFFF" fill-rule="evenodd"/><path d="M677.044 454.082C677.044 451.275 676.466 449 679.495 449L707.185 449.148C710.215 449.148 709.956 451.275 709.956 454.082L709.956 493.918C709.956 496.725 710.534 499 707.505 499L679.495 498.704C676.466 498.704 677.044 496.725 677.044 493.918L677.044 454.082Z" fill="#FFE500" fill-rule="evenodd"/></g></svg>