<?xml version="1.0" encoding="UTF-8" ?>
<!DOCTYPE svg PUBLIC "-//W3C//DTD SVG 1.1//EN" "http://www.w3.org/Graphics/SVG/1.1/DTD/svg11.dtd">
<svg width="1345pt" height="857pt" viewBox="0 0 1345 857" version="1.1" xmlns="http://www.w3.org/2000/svg">
<g id="#ffc200ff">
<path fill="#ffc200" opacity="1.00" d=" M 77.55 0.00 L 88.20 0.00 C 91.46 1.26 94.92 1.74 98.40 1.38 C 124.46 5.34 147.25 24.54 156.52 49.10 C 161.59 62.77 163.35 77.83 160.00 92.13 C 154.17 92.69 150.57 98.27 145.06 99.93 C 144.05 99.50 143.05 99.08 142.05 98.66 C 143.58 92.80 145.35 86.94 145.79 80.87 C 147.22 61.95 138.99 42.70 124.72 30.28 C 105.78 13.75 76.35 10.86 54.67 23.69 C 36.79 33.75 24.65 53.41 24.08 73.97 C 23.56 82.60 25.71 91.04 27.88 99.31 C 24.55 98.74 21.21 98.17 18.00 97.11 C 15.40 95.69 12.89 94.11 10.18 92.92 C 4.71 69.18 11.66 43.04 28.21 25.15 C 40.76 10.89 58.90 2.52 77.55 0.00 Z" />
</g>
<g id="#c29400c3">
<path fill="#c29400" opacity="0.76" d=" M 88.20 0.00 L 94.30 0.00 C 95.68 0.43 97.03 0.93 98.40 1.38 C 94.92 1.74 91.46 1.26 88.20 0.00 Z" />
</g>
<g id="#000000fb">
<path fill="#000000" opacity="1.00" d=" M 684.44 6.48 C 687.27 6.73 690.87 5.51 693.00 7.98 C 694.07 9.01 694.87 10.30 695.43 11.69 C 695.28 25.13 695.47 38.58 695.28 52.02 C 695.22 55.46 695.36 58.98 696.58 62.24 C 698.18 63.29 700.10 63.58 701.99 63.55 C 711.34 63.56 720.69 63.46 730.05 63.53 C 735.04 63.47 740.23 66.31 741.82 71.24 C 743.62 75.10 741.57 79.27 739.31 82.43 C 722.67 104.11 706.05 125.80 689.46 147.51 C 686.13 151.76 683.29 156.53 679.04 159.93 C 674.17 162.56 667.51 158.73 667.66 153.06 C 667.50 138.06 667.72 123.05 667.59 108.05 C 667.79 105.53 665.45 103.24 662.94 103.50 C 652.94 103.38 642.95 103.55 632.96 103.48 C 629.90 103.56 626.89 102.38 624.62 100.37 C 620.68 97.12 620.33 90.83 622.62 86.59 C 641.05 62.36 659.62 38.24 678.11 14.06 C 680.11 11.45 682.22 8.92 684.44 6.48 M 664.30 37.35 C 651.59 53.96 638.86 70.55 626.13 87.14 C 622.34 91.31 624.77 99.85 630.97 99.67 C 641.60 99.93 652.24 99.59 662.88 99.77 C 666.06 99.86 668.64 102.14 670.39 104.63 C 670.32 117.42 670.42 130.21 670.36 143.00 C 670.39 147.10 669.82 151.37 671.43 155.27 C 672.58 157.27 675.01 157.36 677.03 157.75 C 683.14 151.19 688.23 143.78 693.72 136.71 C 706.73 119.73 719.70 102.71 732.77 85.77 C 735.33 82.21 739.49 78.92 738.76 74.03 C 739.16 71.02 736.83 68.65 734.27 67.52 C 731.10 65.85 727.44 66.29 724.00 66.29 C 714.92 66.40 705.85 66.29 696.78 66.30 C 694.24 64.78 692.63 62.04 692.66 59.06 C 692.38 43.78 692.80 28.48 692.49 13.21 C 692.17 10.06 688.54 9.41 685.97 9.36 C 678.42 18.44 671.52 28.02 664.30 37.35 Z" />
</g>
<g id="#00000068">
<path fill="#000000" opacity="0.41" d=" M 695.43 11.69 C 696.31 12.93 696.77 14.39 696.67 15.92 C 696.51 31.36 696.65 46.80 696.58 62.24 C 695.36 58.98 695.22 55.46 695.28 52.02 C 695.47 38.58 695.28 25.13 695.43 11.69 Z" />
</g>
<g id="#f58023ff">
<path fill="#f58023" opacity="1.00" d=" M 1270.52 13.57 C 1272.17 11.52 1276.16 11.76 1277.84 13.76 C 1277.57 16.73 1277.16 19.67 1276.79 22.62 C 1271.12 25.33 1265.28 28.27 1261.28 33.29 C 1254.12 41.79 1251.91 54.10 1255.41 64.61 C 1258.51 72.69 1263.82 81.08 1272.72 83.41 C 1265.03 88.76 1256.47 93.53 1247.06 94.73 C 1235.69 96.05 1225.58 89.32 1217.23 82.45 C 1234.79 59.33 1252.71 36.49 1270.52 13.57 Z" />
<path fill="#f58023" opacity="1.00" d=" M 1299.72 83.84 C 1304.78 81.02 1309.25 77.27 1313.17 73.01 C 1311.86 78.34 1310.04 83.53 1307.57 88.44 C 1304.87 87.05 1302.22 85.55 1299.72 83.84 Z" />
</g>
<g id="#f56223ff">
<path fill="#f56223" opacity="1.00" d=" M 1276.79 22.62 C 1277.16 19.67 1277.57 16.73 1277.84 13.76 C 1279.00 16.71 1278.55 19.92 1278.62 23.00 C 1278.60 35.68 1278.58 48.36 1278.62 61.04 C 1278.56 64.91 1281.81 69.10 1285.96 68.63 C 1293.97 68.70 1301.98 68.63 1310.00 68.65 C 1313.35 68.73 1316.87 68.17 1320.09 69.44 C 1318.17 69.65 1316.28 69.95 1314.39 70.24 C 1313.96 71.16 1313.56 72.09 1313.17 73.01 C 1309.25 77.27 1304.78 81.02 1299.72 83.84 C 1295.61 80.96 1291.28 77.62 1286.01 77.62 C 1280.92 77.45 1276.60 80.51 1272.72 83.41 C 1263.82 81.08 1258.51 72.69 1255.41 64.61 C 1251.91 54.10 1254.12 41.79 1261.28 33.29 C 1265.28 28.27 1271.12 25.33 1276.79 22.62 Z" />
</g>
<g id="#f5a623ff">
<path fill="#f5a623" opacity="1.00" d=" M 54.67 23.69 C 76.35 10.86 105.78 13.75 124.72 30.28 C 138.99 42.70 147.22 61.95 145.79 80.87 C 145.35 86.94 143.58 92.80 142.05 98.66 C 143.05 99.08 144.05 99.50 145.06 99.93 C 137.75 103.08 129.66 100.76 123.06 97.02 C 126.27 88.92 128.14 80.08 126.63 71.38 C 124.54 57.87 115.50 45.63 103.04 39.92 C 91.60 34.50 77.59 34.41 66.29 40.25 C 54.72 45.80 46.21 57.04 43.61 69.56 C 42.08 78.43 42.52 88.07 47.26 95.96 C 38.28 100.21 27.02 102.35 18.00 97.11 C 21.21 98.17 24.55 98.74 27.88 99.31 C 25.71 91.04 23.56 82.60 24.08 73.97 C 24.65 53.41 36.79 33.75 54.67 23.69 Z" />
<path fill="#f5a623" opacity="1.00" d=" M 1314.39 70.24 C 1316.28 69.95 1318.17 69.65 1320.09 69.44 C 1324.60 70.70 1327.08 76.48 1324.45 80.50 C 1321.67 84.69 1318.37 88.51 1315.21 92.42 C 1312.67 91.07 1310.11 89.76 1307.57 88.44 C 1310.04 83.53 1311.86 78.34 1313.17 73.01 C 1313.56 72.09 1313.96 71.16 1314.39 70.24 Z" />
<path fill="#f5a623" opacity="1.00" d=" M 492.33 266.66 C 495.12 273.49 496.43 280.83 499.50 287.56 C 499.23 287.92 498.69 288.65 498.41 289.01 C 494.72 290.22 491.14 291.76 487.35 292.65 C 485.49 288.74 483.54 284.86 481.40 281.09 C 485.00 276.24 488.66 271.45 492.33 266.66 Z" />
<path fill="#f5a623" opacity="1.00" d=" M 933.24 280.91 C 937.11 276.43 940.46 271.52 944.14 266.87 C 945.88 274.31 947.47 281.88 951.16 288.65 C 954.75 288.90 958.36 289.09 961.92 289.71 C 955.83 288.53 949.65 289.59 943.99 291.94 C 942.01 292.44 940.01 292.84 938.03 293.23 C 936.42 289.36 934.86 285.48 933.46 281.53 L 933.24 280.91 Z" />
<path fill="#f5a623" opacity="1.00" d=" M 1233.90 281.54 C 1237.50 276.56 1241.29 271.71 1245.06 266.85 C 1246.18 271.91 1247.32 276.98 1249.25 281.80 C 1250.32 284.43 1250.98 287.23 1250.89 290.08 C 1246.99 291.18 1243.22 292.68 1239.30 293.68 C 1237.56 289.61 1235.80 285.54 1233.90 281.54 Z" />
<path fill="#f5a623" opacity="1.00" d=" M 44.33 267.47 C 46.29 274.92 48.14 282.42 51.26 289.49 C 46.86 290.83 42.64 292.77 38.14 293.79 C 36.76 289.53 35.25 285.31 33.55 281.16 C 37.06 276.54 40.25 271.63 44.33 267.47 Z" />
</g>
<g id="#f58223ff">
<path fill="#f58223" opacity="1.00" d=" M 66.29 40.25 C 77.59 34.41 91.60 34.50 103.04 39.92 C 115.50 45.63 124.54 57.87 126.63 71.38 C 128.14 80.08 126.27 88.92 123.06 97.02 C 119.52 95.13 116.18 92.30 111.98 92.19 C 108.53 92.00 104.83 91.96 101.77 93.83 C 95.89 97.14 89.93 101.09 82.99 101.48 C 74.48 101.68 68.42 93.94 60.03 93.57 C 55.63 93.11 51.22 94.02 47.26 95.96 C 42.52 88.07 42.08 78.43 43.61 69.56 C 46.21 57.04 54.72 45.80 66.29 40.25 Z" />
<path fill="#f58223" opacity="1.00" d=" M 69.44 234.29 C 71.63 234.24 73.74 234.73 75.67 235.78 C 75.27 238.43 75.41 241.43 73.60 243.62 C 70.98 247.02 67.77 250.01 65.91 253.94 C 61.50 262.86 60.89 273.84 65.11 282.94 C 66.49 285.95 67.78 289.01 68.61 292.22 C 63.32 289.27 57.16 288.84 51.26 289.49 C 48.14 282.42 46.29 274.92 44.33 267.47 L 44.17 266.88 C 52.83 256.20 60.66 244.87 69.44 234.29 Z" />
<path fill="#f58223" opacity="1.00" d=" M 511.57 241.34 C 514.33 238.02 516.76 232.74 521.87 233.49 C 522.76 234.35 523.67 235.21 524.58 236.07 C 524.59 243.59 516.84 246.92 514.27 253.29 C 507.99 266.08 510.39 282.43 520.06 292.87 C 513.55 289.10 505.87 287.05 498.41 289.01 C 498.69 288.65 499.23 287.92 499.50 287.56 C 496.43 280.83 495.12 273.49 492.33 266.66 C 495.71 262.14 499.22 257.72 502.53 253.15 C 505.59 249.25 508.74 245.42 511.57 241.34 Z" />
<path fill="#f58223" opacity="1.00" d=" M 967.40 236.41 C 968.71 234.11 971.34 234.32 973.64 234.34 C 975.66 236.27 976.53 238.92 976.25 241.70 C 966.99 248.33 961.55 259.65 962.04 271.01 C 962.71 279.41 965.60 288.19 972.06 293.95 C 968.73 292.41 965.49 290.61 961.92 289.71 C 958.36 289.09 954.75 288.90 951.16 288.65 C 947.47 281.88 945.88 274.31 944.14 266.87 C 951.89 256.71 959.60 246.52 967.40 236.41 Z" />
<path fill="#f58223" opacity="1.00" d=" M 1267.97 237.11 C 1269.33 234.35 1272.33 234.48 1274.99 234.54 C 1275.33 235.11 1275.99 236.24 1276.33 236.81 C 1276.25 238.79 1276.18 240.77 1276.17 242.76 C 1265.45 250.96 1260.53 265.84 1264.16 278.83 C 1265.58 283.59 1268.07 287.93 1269.88 292.55 C 1264.07 289.62 1257.25 288.31 1250.89 290.08 C 1250.98 287.23 1250.32 284.43 1249.25 281.80 C 1247.32 276.98 1246.18 271.91 1245.06 266.85 C 1249.71 260.89 1254.35 254.92 1258.95 248.91 C 1262.01 245.03 1264.95 241.03 1267.97 237.11 Z" />
</g>
<g id="#0000006a">
<path fill="#000000" opacity="0.42" d=" M 696.78 66.30 C 705.85 66.29 714.92 66.40 724.00 66.29 C 727.44 66.29 731.10 65.85 734.27 67.52 C 725.17 67.67 716.08 67.56 706.98 67.72 C 703.53 67.77 700.01 67.61 696.78 66.30 Z" />
</g>
<g id="#00a4ffff">
<path fill="#00a4ff" opacity="1.00" d=" M 1272.72 83.41 C 1276.60 80.51 1280.92 77.45 1286.01 77.62 C 1291.28 77.62 1295.61 80.96 1299.72 83.84 C 1302.22 85.55 1304.87 87.05 1307.57 88.44 C 1310.11 89.76 1312.67 91.07 1315.21 92.42 C 1310.41 99.29 1304.75 105.52 1300.09 112.48 L 1299.28 112.45 C 1285.46 111.79 1271.65 112.76 1257.84 112.93 C 1257.16 121.53 1257.63 130.16 1257.47 138.78 C 1257.42 144.58 1257.12 150.39 1257.41 156.20 C 1256.25 151.55 1256.80 146.74 1256.70 142.00 C 1256.59 131.07 1256.82 120.12 1256.58 109.19 C 1256.48 104.79 1252.19 101.65 1248.01 101.73 C 1237.66 101.65 1227.31 101.84 1216.96 101.67 C 1214.29 101.70 1211.49 100.16 1210.54 97.62 C 1210.24 94.89 1209.63 91.67 1211.61 89.42 C 1213.27 86.94 1215.25 84.69 1217.23 82.45 C 1225.58 89.32 1235.69 96.05 1247.06 94.73 C 1256.47 93.53 1265.03 88.76 1272.72 83.41 Z" />
<path fill="#00a4ff" opacity="1.00" d=" M 101.77 93.83 C 104.83 91.96 108.53 92.00 111.98 92.19 C 116.18 92.30 119.52 95.13 123.06 97.02 C 129.66 100.76 137.75 103.08 145.06 99.93 C 150.57 98.27 154.17 92.69 160.00 92.13 C 159.28 99.82 155.85 106.84 152.23 113.54 C 146.99 111.80 141.42 112.24 136.00 112.34 C 113.65 112.43 91.31 112.25 68.97 112.44 C 55.34 113.58 41.66 113.03 28.01 113.38 C 23.88 113.47 19.76 113.11 15.70 112.40 C 13.34 107.64 10.81 102.90 9.37 97.76 C 8.87 96.09 9.69 94.47 10.18 92.92 C 12.89 94.11 15.40 95.69 18.00 97.11 C 27.02 102.35 38.28 100.21 47.26 95.96 C 51.22 94.02 55.63 93.11 60.03 93.57 C 68.42 93.94 74.48 101.68 82.99 101.48 C 89.93 101.09 95.89 97.14 101.77 93.83 Z" />
<path fill="#00a4ff" opacity="1.00" d=" M 541.16 288.95 C 546.13 285.99 552.43 285.96 557.51 288.72 C 555.65 290.86 554.00 293.18 552.26 295.42 C 550.02 298.23 547.89 301.13 545.88 304.12 C 538.54 304.26 531.18 304.06 523.84 304.49 C 517.71 304.67 511.40 305.40 505.42 303.64 C 496.92 300.37 487.72 302.22 478.87 301.65 C 477.42 300.99 476.00 300.24 474.59 299.52 C 473.89 297.11 473.21 294.65 473.48 292.12 C 478.03 293.08 482.75 293.73 487.35 292.65 C 491.14 291.76 494.72 290.22 498.41 289.01 C 505.87 287.05 513.55 289.10 520.06 292.87 C 527.16 296.78 534.90 292.47 541.16 288.95 Z" />
<path fill="#00a4ff" opacity="1.00" d=" M 96.50 288.37 C 100.82 286.72 105.39 288.16 109.70 289.04 C 105.10 294.35 101.24 300.25 96.70 305.61 C 83.57 303.86 70.25 307.24 57.20 304.84 C 51.89 302.06 45.73 303.65 40.01 303.26 C 35.07 303.23 28.44 304.07 25.64 298.93 C 25.12 296.81 25.27 294.62 25.14 292.47 C 29.20 294.36 33.78 294.60 38.14 293.79 C 42.64 292.77 46.86 290.83 51.26 289.49 C 57.16 288.84 63.32 289.27 68.61 292.22 C 71.84 293.77 75.20 295.74 78.92 295.39 C 85.33 294.62 90.53 290.44 96.50 288.37 Z" />
<path fill="#00a4ff" opacity="1.00" d=" M 981.53 294.85 C 987.71 293.28 992.71 288.70 999.09 287.72 C 1002.49 287.18 1005.84 288.27 1009.10 289.13 C 1005.05 294.87 1000.86 300.53 996.36 305.92 C 983.67 304.01 970.86 306.36 958.11 305.74 C 956.04 304.95 954.32 303.06 951.96 303.28 C 945.63 303.11 939.29 303.42 932.96 303.18 C 930.23 302.83 926.93 302.06 925.77 299.23 C 924.54 297.41 924.44 295.22 924.26 293.12 L 925.09 293.24 C 931.38 294.63 937.98 294.46 943.99 291.94 C 949.65 289.59 955.83 288.53 961.92 289.71 C 965.49 290.61 968.73 292.41 972.06 293.95 C 974.97 295.38 978.40 295.98 981.53 294.85 Z" />
<path fill="#00a4ff" opacity="1.00" d=" M 1297.46 288.36 C 1301.47 286.88 1305.69 288.18 1309.68 289.04 C 1307.62 292.54 1305.27 295.84 1302.69 298.97 C 1301.07 300.97 1299.51 303.01 1298.01 305.09 C 1285.11 305.04 1272.23 305.65 1259.34 305.86 L 1258.55 305.91 C 1256.57 304.59 1254.51 303.20 1252.07 303.08 C 1245.38 302.36 1238.63 302.88 1231.92 302.85 C 1231.33 302.74 1230.16 302.50 1229.57 302.39 C 1226.59 300.00 1225.21 296.37 1225.54 292.60 C 1229.91 294.32 1234.71 294.73 1239.30 293.68 C 1243.22 292.68 1246.99 291.18 1250.89 290.08 C 1257.25 288.31 1264.07 289.62 1269.88 292.55 C 1273.02 293.99 1276.28 295.83 1279.88 295.45 C 1286.35 294.81 1291.46 290.36 1297.46 288.36 Z" />
</g>
<g id="#a6a6a6ff">
<path fill="#a6a6a6" opacity="1.00" d=" M 829.52 83.00 C 933.57 83.02 1037.62 82.95 1141.67 83.04 C 1141.64 84.68 1141.64 86.32 1141.66 87.96 C 1037.62 88.05 933.57 87.98 829.52 88.00 C 829.50 86.33 829.50 84.67 829.52 83.00 Z" />
<path fill="#a6a6a6" opacity="1.00" d=" M 241.52 86.00 C 345.57 86.02 449.62 85.95 553.66 86.04 C 553.65 87.68 553.65 89.32 553.67 90.96 C 449.62 91.05 345.57 90.98 241.52 91.00 C 241.51 89.33 241.51 87.67 241.52 86.00 Z" />
<path fill="#a6a6a6" opacity="1.00" d=" M 658.05 794.68 C 658.04 793.57 658.07 792.49 658.07 791.41 C 658.92 794.53 664.72 794.46 664.93 790.97 C 664.99 792.20 665.06 793.43 665.14 794.68 C 662.77 794.69 660.41 794.69 658.05 794.68 Z" />
</g>
<g id="#00000070">
<path fill="#000000" opacity="0.44" d=" M 670.39 104.63 C 671.87 108.23 671.74 112.19 671.69 116.01 C 671.44 129.09 671.82 142.18 671.43 155.27 C 669.82 151.37 670.39 147.10 670.36 143.00 C 670.42 130.21 670.32 117.42 670.39 104.63 Z" />
</g>
<g id="#168fd3ff">
<path fill="#168fd3" opacity="1.00" d=" M 15.70 112.40 C 19.76 113.11 23.88 113.47 28.01 113.38 C 41.66 113.03 55.34 113.58 68.97 112.44 C 91.31 112.25 113.65 112.43 136.00 112.34 C 141.42 112.24 146.99 111.80 152.23 113.54 C 147.99 120.89 142.60 127.60 136.38 133.37 C 123.78 130.59 110.82 130.82 98.03 129.83 C 85.96 129.63 73.87 129.44 61.83 130.39 C 52.08 131.08 42.21 131.17 32.65 133.47 C 25.87 127.46 20.08 120.33 15.70 112.40 Z" />
<path fill="#168fd3" opacity="1.00" d=" M 1257.84 112.93 C 1271.65 112.76 1285.46 111.79 1299.28 112.45 C 1293.24 121.81 1285.79 130.20 1279.09 139.09 C 1271.92 138.20 1264.65 137.83 1257.47 138.78 C 1257.63 130.16 1257.16 121.53 1257.84 112.93 Z" />
<path fill="#168fd3" opacity="1.00" d=" M 505.42 303.64 C 511.40 305.40 517.71 304.67 523.84 304.49 C 531.18 304.06 538.54 304.26 545.88 304.12 C 545.15 305.18 544.42 306.25 543.65 307.29 C 540.81 310.91 537.75 314.35 535.03 318.06 C 526.42 317.81 517.80 318.22 509.19 317.88 C 508.77 316.49 508.34 315.12 507.98 313.73 C 507.73 311.79 507.50 309.84 507.10 307.92 C 506.68 306.44 506.03 305.05 505.42 303.64 Z" />
<path fill="#168fd3" opacity="1.00" d=" M 57.20 304.84 C 70.25 307.24 83.57 303.86 96.70 305.61 C 93.44 310.29 89.85 314.73 86.37 319.25 C 77.62 318.83 68.85 318.95 60.09 319.17 C 59.72 327.16 59.94 335.17 59.68 343.16 C 59.10 332.45 59.71 321.69 59.36 310.97 C 59.09 308.80 57.93 306.87 57.20 304.84 Z" />
<path fill="#168fd3" opacity="1.00" d=" M 958.11 305.74 C 970.86 306.36 983.67 304.01 996.36 305.92 C 992.96 310.70 989.46 315.42 985.64 319.87 C 977.23 318.29 968.68 319.31 960.20 318.96 C 959.87 315.58 959.50 312.19 958.80 308.87 C 958.56 307.82 958.33 306.78 958.11 305.74 Z" />
<path fill="#168fd3" opacity="1.00" d=" M 1259.34 305.86 C 1272.23 305.65 1285.11 305.04 1298.01 305.09 C 1294.62 309.97 1290.85 314.58 1287.25 319.30 C 1278.56 318.72 1269.85 318.91 1261.16 319.18 C 1260.95 327.66 1260.79 336.17 1261.59 344.64 C 1261.02 343.91 1260.47 343.19 1259.95 342.46 C 1260.80 336.06 1260.41 329.58 1260.38 323.14 C 1260.45 317.36 1260.14 311.58 1259.34 305.86 Z" />
</g>
<g id="#2481b5ff">
<path fill="#2481b5" opacity="1.00" d=" M 61.83 130.39 C 73.87 129.44 85.96 129.63 98.03 129.83 C 110.82 130.82 123.78 130.59 136.38 133.37 C 129.29 139.81 120.90 144.75 111.95 148.10 C 85.51 158.44 53.70 152.45 32.65 133.47 C 42.21 131.17 52.08 131.08 61.83 130.39 Z" />
<path fill="#2481b5" opacity="1.00" d=" M 1257.47 138.78 C 1264.65 137.83 1271.92 138.20 1279.09 139.09 C 1273.93 145.58 1269.26 152.54 1263.54 158.53 C 1261.41 158.73 1257.17 159.40 1257.41 156.20 C 1257.12 150.39 1257.42 144.58 1257.47 138.78 Z" />
<path fill="#2481b5" opacity="1.00" d=" M 958.80 308.87 C 959.50 312.19 959.87 315.58 960.20 318.96 C 968.68 319.31 977.23 318.29 985.64 319.87 C 980.74 327.13 974.99 333.76 969.92 340.89 C 968.09 343.02 966.29 346.33 962.97 345.66 C 960.19 345.57 958.81 342.53 959.18 340.05 C 959.42 329.64 958.90 319.26 958.80 308.87 Z" />
<path fill="#2481b5" opacity="1.00" d=" M 507.98 313.73 C 508.34 315.12 508.77 316.49 509.19 317.88 C 517.80 318.22 526.42 317.81 535.03 318.06 C 530.32 324.96 524.75 331.19 519.82 337.92 C 518.10 340.22 516.33 342.48 514.59 344.76 C 512.53 344.55 510.49 344.13 508.53 343.48 C 508.71 333.56 507.97 323.65 507.98 313.73 Z" />
<path fill="#2481b5" opacity="1.00" d=" M 60.09 319.17 C 68.85 318.95 77.62 318.83 86.37 319.25 C 79.87 328.10 73.01 336.68 66.52 345.54 C 63.96 345.66 60.81 346.10 59.68 343.16 C 59.94 335.17 59.72 327.16 60.09 319.17 Z" />
<path fill="#2481b5" opacity="1.00" d=" M 1261.16 319.18 C 1269.85 318.91 1278.56 318.72 1287.25 319.30 C 1286.85 319.88 1286.03 321.04 1285.63 321.62 C 1281.48 327.48 1276.59 332.76 1272.46 338.63 C 1270.85 340.75 1269.29 342.90 1267.84 345.12 C 1265.74 345.30 1263.61 345.25 1261.59 344.64 C 1260.79 336.17 1260.95 327.66 1261.16 319.18 Z" />
</g>
<g id="#0906010b">
<path fill="#090601" opacity="0.04" d=" M 1274.99 234.54 C 1279.69 233.00 1284.71 234.72 1288.70 237.32 C 1291.98 239.75 1294.25 243.27 1296.28 246.76 C 1299.04 251.47 1299.54 257.45 1303.66 261.34 C 1309.17 267.00 1317.60 268.31 1323.30 273.69 C 1328.89 279.96 1330.81 288.64 1331.35 296.82 C 1331.87 303.28 1328.39 308.99 1325.41 314.42 C 1323.89 317.17 1321.48 319.24 1318.95 321.02 C 1319.91 318.11 1320.63 315.12 1321.07 312.09 C 1321.14 311.68 1321.27 310.87 1321.34 310.47 C 1323.20 303.13 1324.45 294.97 1321.17 287.85 C 1316.99 279.33 1308.72 274.17 1301.60 268.38 C 1294.74 262.95 1291.98 254.19 1285.86 248.12 C 1283.66 245.82 1280.63 244.68 1277.74 243.56 C 1277.69 241.25 1277.39 238.89 1276.33 236.81 C 1275.99 236.24 1275.33 235.11 1274.99 234.54 Z" />
</g>
<g id="#f55923ff">
<path fill="#f55923" opacity="1.00" d=" M 75.67 235.78 C 77.46 247.55 75.63 259.59 76.65 271.44 C 77.13 273.75 79.19 275.60 81.26 276.51 C 89.04 277.38 96.99 275.94 104.71 277.26 C 110.09 278.17 111.87 284.56 109.70 289.04 C 105.39 288.16 100.82 286.72 96.50 288.37 C 90.53 290.44 85.33 294.62 78.92 295.39 C 75.20 295.74 71.84 293.77 68.61 292.22 C 67.78 289.01 66.49 285.95 65.11 282.94 C 60.89 273.84 61.50 262.86 65.91 253.94 C 67.77 250.01 70.98 247.02 73.60 243.62 C 75.41 241.43 75.27 238.43 75.67 235.78 Z" />
<path fill="#f55923" opacity="1.00" d=" M 524.58 236.07 C 524.57 236.56 524.53 237.55 524.51 238.04 C 524.46 240.67 524.47 243.31 524.48 245.95 C 524.48 248.26 524.48 250.58 524.49 252.90 C 524.48 255.56 524.48 258.22 524.47 260.88 C 524.21 266.07 524.13 272.92 529.74 275.40 C 537.34 277.29 545.31 275.96 553.06 276.30 C 555.93 277.22 559.03 279.73 558.67 283.05 C 558.72 284.53 558.68 286.02 558.72 287.51 C 558.42 287.81 557.81 288.41 557.51 288.72 C 552.43 285.96 546.13 285.99 541.16 288.95 C 534.90 292.47 527.16 296.78 520.06 292.87 C 510.39 282.43 507.99 266.08 514.27 253.29 C 516.84 246.92 524.59 243.59 524.58 236.07 Z" />
<path fill="#f55923" opacity="1.00" d=" M 962.04 271.01 C 961.55 259.65 966.99 248.33 976.25 241.70 C 976.20 251.16 976.16 260.61 976.24 270.06 C 975.96 272.93 978.45 274.84 980.52 276.35 C 987.95 277.40 995.55 276.25 1003.04 276.92 C 1006.06 277.16 1008.70 279.00 1010.20 281.61 C 1010.78 283.52 1010.45 285.57 1010.49 287.53 C 1010.14 287.93 1009.45 288.73 1009.10 289.13 C 1005.84 288.27 1002.49 287.18 999.09 287.72 C 992.71 288.70 987.71 293.28 981.53 294.85 C 978.40 295.98 974.97 295.38 972.06 293.95 C 965.60 288.19 962.71 279.41 962.04 271.01 Z" />
<path fill="#f55923" opacity="1.00" d=" M 1264.16 278.83 C 1260.53 265.84 1265.45 250.96 1276.17 242.76 C 1276.19 248.51 1276.39 254.25 1276.31 260.00 C 1276.30 264.43 1276.01 269.05 1277.77 273.23 C 1279.73 275.15 1282.02 277.03 1284.92 277.10 C 1291.66 277.64 1298.43 277.22 1305.18 277.24 C 1308.11 277.81 1310.52 280.07 1311.30 282.96 C 1311.58 285.05 1311.25 287.16 1311.25 289.26 C 1310.85 289.21 1310.07 289.10 1309.68 289.04 C 1305.69 288.18 1301.47 286.88 1297.46 288.36 C 1291.46 290.36 1286.35 294.81 1279.88 295.45 C 1276.28 295.83 1273.02 293.99 1269.88 292.55 C 1268.07 287.93 1265.58 283.59 1264.16 278.83 Z" />
</g>
<g id="#150c0218">
<path fill="#150c02" opacity="0.09" d=" M 1237.41 251.42 C 1244.76 242.10 1256.57 236.40 1268.43 236.50 L 1267.97 237.11 C 1264.95 241.03 1262.01 245.03 1258.95 248.91 C 1254.76 251.91 1249.55 253.20 1245.68 256.67 C 1238.94 262.72 1233.69 270.17 1228.58 277.59 C 1226.03 281.26 1224.31 285.40 1222.80 289.58 C 1220.53 292.71 1218.10 295.73 1216.17 299.08 C 1215.85 293.88 1215.46 288.62 1216.50 283.47 C 1218.73 277.97 1220.80 272.25 1224.49 267.51 C 1228.66 262.04 1233.18 256.85 1237.41 251.42 Z" />
</g>
<g id="#8b391392">
<path fill="#8b3913" opacity="0.57" d=" M 1276.33 236.81 C 1277.39 238.89 1277.69 241.25 1277.74 243.56 C 1277.68 247.58 1277.64 251.60 1277.75 255.62 C 1277.76 257.67 1277.79 259.73 1277.83 261.80 C 1277.85 265.61 1277.86 269.42 1277.77 273.23 C 1276.01 269.05 1276.30 264.43 1276.31 260.00 C 1276.39 254.25 1276.19 248.51 1276.17 242.76 C 1276.18 240.77 1276.25 238.79 1276.33 236.81 Z" />
</g>
<g id="#140d0619">
<path fill="#140d06" opacity="0.10" d=" M 524.51 238.04 C 528.81 241.54 533.84 244.35 537.02 249.03 C 541.36 255.26 544.49 262.55 550.57 267.39 C 557.19 272.73 564.87 277.29 569.12 284.96 C 573.09 290.73 573.15 298.32 571.00 304.77 C 568.87 308.01 566.31 310.92 564.18 314.15 C 564.30 308.64 564.18 303.03 562.58 297.71 C 561.56 294.21 559.91 290.94 558.72 287.51 C 558.68 286.02 558.72 284.53 558.67 283.05 C 559.03 279.73 555.93 277.22 553.06 276.30 C 551.28 275.77 549.47 275.37 547.64 275.10 C 547.00 269.79 541.92 266.97 539.23 262.79 C 535.05 256.56 529.95 251.06 524.48 245.95 C 524.47 243.31 524.46 240.67 524.51 238.04 Z" />
</g>
<g id="#1c100420">
<path fill="#1c1004" opacity="0.13" d=" M 503.02 241.82 C 505.75 240.72 508.72 240.91 511.57 241.34 C 508.74 245.42 505.59 249.25 502.53 253.15 C 498.60 253.57 494.87 255.23 492.30 258.29 C 486.07 265.21 480.32 272.62 475.43 280.56 C 471.99 285.70 469.13 291.26 467.40 297.21 C 466.39 296.33 465.39 295.44 464.39 294.56 C 465.20 288.78 466.32 282.99 468.70 277.63 C 472.49 270.45 478.10 264.47 483.00 258.05 C 488.52 251.46 494.48 244.39 503.02 241.82 Z" />
</g>
<g id="#1710061d">
<path fill="#171006" opacity="0.11" d=" M 1277.74 243.56 C 1280.63 244.68 1283.66 245.82 1285.86 248.12 C 1291.98 254.19 1294.74 262.95 1301.60 268.38 C 1308.72 274.17 1316.99 279.33 1321.17 287.85 C 1324.45 294.97 1323.20 303.13 1321.34 310.47 C 1319.61 311.69 1317.85 312.85 1316.12 314.05 C 1317.44 308.00 1316.88 301.55 1313.90 296.06 C 1312.84 293.86 1311.83 291.63 1311.25 289.26 C 1311.25 287.16 1311.58 285.05 1311.30 282.96 C 1310.52 280.07 1308.11 277.81 1305.18 277.24 C 1301.55 276.22 1297.77 276.08 1294.04 276.06 C 1294.27 275.50 1294.74 274.40 1294.97 273.84 C 1289.37 267.65 1285.38 259.65 1277.75 255.62 C 1277.64 251.60 1277.68 247.58 1277.74 243.56 Z" />
<path fill="#171006" opacity="0.11" d=" M 658.07 791.41 C 660.30 790.77 662.62 790.61 664.93 790.97 C 664.72 794.46 658.92 794.53 658.07 791.41 Z" />
</g>
<g id="#25140529">
<path fill="#251405" opacity="0.16" d=" M 524.48 245.95 C 529.95 251.06 535.05 256.56 539.23 262.79 C 541.92 266.97 547.00 269.79 547.64 275.10 C 545.52 275.07 543.40 275.14 541.29 275.15 C 538.01 266.21 530.15 260.25 524.49 252.90 C 524.48 250.58 524.48 248.26 524.48 245.95 Z" />
</g>
<g id="#2f1b0735">
<path fill="#2f1b07" opacity="0.21" d=" M 1245.68 256.67 C 1249.55 253.20 1254.76 251.91 1258.95 248.91 C 1254.35 254.92 1249.71 260.89 1245.06 266.85 C 1241.29 271.71 1237.50 276.56 1233.90 281.54 C 1231.12 285.24 1228.32 288.91 1225.54 292.60 C 1224.57 291.90 1223.61 291.20 1222.68 290.49 L 1222.80 289.58 C 1224.31 285.40 1226.03 281.26 1228.58 277.59 C 1233.69 270.17 1238.94 262.72 1245.68 256.67 Z" />
</g>
<g id="#331c0739">
<path fill="#331c07" opacity="0.22" d=" M 492.30 258.29 C 494.87 255.23 498.60 253.57 502.53 253.15 C 499.22 257.72 495.71 262.14 492.33 266.66 C 488.66 271.45 485.00 276.24 481.40 281.09 C 479.49 283.58 477.41 285.94 475.41 288.36 C 475.43 285.76 475.33 283.16 475.43 280.56 C 480.32 272.62 486.07 265.21 492.30 258.29 Z" />
</g>
<g id="#381f093c">
<path fill="#381f09" opacity="0.24" d=" M 524.49 252.90 C 530.15 260.25 538.01 266.21 541.29 275.15 C 539.33 275.09 537.34 275.18 535.44 274.64 C 531.61 270.21 528.73 264.98 524.47 260.88 C 524.48 258.22 524.48 255.56 524.49 252.90 Z" />
</g>
<g id="#321c0736">
<path fill="#321c07" opacity="0.21" d=" M 1277.75 255.62 C 1285.38 259.65 1289.37 267.65 1294.97 273.84 C 1294.74 274.40 1294.27 275.50 1294.04 276.06 C 1292.70 276.05 1291.39 276.04 1290.09 276.04 C 1286.85 270.63 1283.15 265.35 1277.83 261.80 C 1277.79 259.73 1277.76 257.67 1277.75 255.62 Z" />
</g>
<g id="#4d2c0f55">
<path fill="#4d2c0f" opacity="0.33" d=" M 524.47 260.88 C 528.73 264.98 531.61 270.21 535.44 274.64 C 537.34 275.18 539.33 275.09 541.29 275.15 C 543.40 275.14 545.52 275.07 547.64 275.10 C 549.47 275.37 551.28 275.77 553.06 276.30 C 545.31 275.96 537.34 277.29 529.74 275.40 C 524.13 272.92 524.21 266.07 524.47 260.88 Z" />
</g>
<g id="#47290f4f">
<path fill="#47290f" opacity="0.31" d=" M 1277.83 261.80 C 1283.15 265.35 1286.85 270.63 1290.09 276.04 C 1291.39 276.04 1292.70 276.05 1294.04 276.06 C 1297.77 276.08 1301.55 276.22 1305.18 277.24 C 1298.43 277.22 1291.66 277.64 1284.92 277.10 C 1282.02 277.03 1279.73 275.15 1277.77 273.23 C 1277.86 269.42 1277.85 265.61 1277.83 261.80 Z" />
</g>
<g id="#393d4bfa">
<path fill="#393d4b" opacity="0.98" d=" M 595.74 276.11 C 596.57 276.17 598.23 276.29 599.07 276.35 C 599.40 284.92 599.58 293.55 599.04 302.12 C 597.82 302.23 596.61 302.29 595.41 302.32 C 595.44 293.59 594.86 284.81 595.74 276.11 Z" />
</g>
<g id="#3a3e4cf9">
<path fill="#3a3e4c" opacity="0.98" d=" M 145.55 277.03 C 146.64 277.09 147.73 277.18 148.81 277.32 C 149.94 280.04 149.33 283.12 149.47 286.00 C 149.26 291.70 149.91 297.45 149.06 303.12 C 147.89 303.20 146.71 303.23 145.54 303.23 C 145.52 294.50 145.50 285.76 145.55 277.03 Z" />
</g>
<g id="#020a0e14">
<path fill="#020a0e" opacity="0.08" d=" M 456.78 301.99 C 458.31 293.01 461.38 283.60 468.70 277.63 C 466.32 282.99 465.20 288.78 464.39 294.56 C 463.42 299.96 462.72 305.73 465.13 310.89 C 469.28 321.15 480.05 325.99 486.84 334.16 C 493.16 340.85 497.39 349.81 505.88 354.18 C 513.61 359.15 523.52 357.15 531.26 353.26 C 538.28 350.01 543.21 343.85 548.11 338.11 C 554.22 330.68 560.20 322.98 564.18 314.15 C 566.31 310.92 568.87 308.01 571.00 304.77 C 570.24 313.65 566.82 322.32 561.45 329.43 C 556.73 336.29 551.56 342.81 546.16 349.15 C 539.52 357.54 529.42 362.89 518.79 363.94 C 511.11 365.28 503.55 361.95 497.41 357.60 C 491.31 352.74 488.85 344.94 483.94 339.07 C 480.16 334.03 474.58 330.95 469.44 327.53 C 461.34 321.84 456.68 311.79 456.78 301.99 Z" />
</g>
<g id="#191d1d34">
<path fill="#191d1d" opacity="0.20" d=" M 467.40 297.21 C 469.13 291.26 471.99 285.70 475.43 280.56 C 475.33 283.16 475.43 285.76 475.41 288.36 C 474.74 289.60 474.08 290.85 473.48 292.12 C 473.21 294.65 473.89 297.11 474.59 299.52 C 474.41 302.52 473.83 305.80 475.42 308.55 C 478.33 313.71 483.07 317.43 487.09 321.67 C 486.31 322.76 485.55 323.85 484.79 324.94 C 480.16 321.02 475.05 317.47 471.59 312.38 C 468.38 308.03 467.50 302.49 467.40 297.21 Z" />
</g>
<g id="#ffc300ff">
<path fill="#ffc300" opacity="1.00" d=" M 25.14 292.47 C 27.65 288.49 30.63 284.84 33.55 281.16 C 35.25 285.31 36.76 289.53 38.14 293.79 C 33.78 294.60 29.20 294.36 25.14 292.47 Z" />
<path fill="#ffc300" opacity="1.00" d=" M 475.41 288.36 C 477.41 285.94 479.49 283.58 481.40 281.09 C 483.54 284.86 485.49 288.74 487.35 292.65 C 482.75 293.73 478.03 293.08 473.48 292.12 C 474.08 290.85 474.74 289.60 475.41 288.36 Z" />
<path fill="#ffc300" opacity="1.00" d=" M 925.09 293.24 C 926.78 288.70 930.09 284.93 933.46 281.53 C 934.86 285.48 936.42 289.36 938.03 293.23 C 940.01 292.84 942.01 292.44 943.99 291.94 C 937.98 294.46 931.38 294.63 925.09 293.24 Z" />
<path fill="#ffc300" opacity="1.00" d=" M 1233.90 281.54 C 1235.80 285.54 1237.56 289.61 1239.30 293.68 C 1234.71 294.73 1229.91 294.32 1225.54 292.60 C 1228.32 288.91 1231.12 285.24 1233.90 281.54 Z" />
</g>
<g id="#393d4bfe">
<path fill="#393d4b" opacity="1.00" d=" M 688.65 283.54 C 690.48 280.82 694.29 284.30 692.93 286.77 C 690.73 291.57 688.48 296.39 685.97 301.04 C 684.48 303.71 681.20 301.97 680.46 299.66 C 678.17 294.36 674.39 289.41 674.11 283.47 C 675.63 283.38 677.15 283.31 678.68 283.25 C 680.22 286.27 681.63 289.36 682.73 292.58 C 683.18 292.59 684.08 292.62 684.53 292.63 C 685.70 289.52 686.75 286.29 688.65 283.54 Z" />
<path fill="#393d4b" opacity="1.00" d=" M 704.29 282.79 C 711.23 281.30 718.63 288.73 715.79 295.71 C 714.19 301.91 706.10 304.32 700.87 301.13 C 695.44 298.63 694.61 290.74 698.29 286.44 C 699.74 284.50 702.03 283.47 704.29 282.79 M 704.41 288.35 C 701.98 288.80 702.12 291.88 702.22 293.80 C 702.07 296.71 706.24 298.87 708.43 296.68 C 711.01 295.33 710.78 291.73 709.53 289.54 C 708.52 287.69 706.12 288.19 704.41 288.35 Z" />
<path fill="#393d4b" opacity="1.00" d=" M 224.18 285.08 C 224.92 284.71 226.40 283.96 227.14 283.59 C 227.70 283.87 228.82 284.41 229.38 284.69 C 230.86 288.02 232.37 291.35 234.05 294.59 C 235.73 291.36 237.16 288.02 238.54 284.66 C 239.23 284.30 240.60 283.59 241.29 283.23 C 242.10 284.34 244.05 285.16 243.44 286.81 C 242.44 290.08 240.58 293.00 239.32 296.17 C 238.08 298.65 237.31 301.65 234.90 303.29 C 232.68 304.27 231.59 301.87 230.68 300.32 C 228.13 295.41 225.73 290.39 224.18 285.08 Z" />
</g>
<g id="#3b3f4eff">
<path fill="#3b3f4e" opacity="1.00" d=" M 157.19 283.32 C 158.14 284.17 159.08 285.02 160.03 285.87 C 162.42 284.68 164.98 282.63 167.79 283.78 C 170.00 284.64 172.63 286.26 172.55 288.96 C 172.93 293.77 172.76 298.61 172.53 303.43 C 171.72 303.36 170.10 303.21 169.29 303.14 C 168.77 298.05 170.96 291.91 167.28 287.67 C 164.52 286.78 160.59 287.24 159.69 290.48 C 159.05 294.85 160.17 299.43 158.36 303.62 C 157.60 303.45 156.08 303.12 155.32 302.95 C 155.28 296.75 155.15 290.54 155.42 284.34 C 155.86 284.08 156.75 283.57 157.19 283.32 Z" />
</g>
<g id="#3c404eff">
<path fill="#3c404e" opacity="1.00" d=" M 609.66 285.26 C 611.69 284.17 613.67 282.68 616.05 282.49 C 619.22 283.02 622.66 285.51 622.61 289.03 C 622.82 293.45 622.62 297.86 622.65 302.28 C 621.54 302.26 620.43 302.24 619.34 302.22 C 619.02 297.07 620.39 291.23 617.29 286.71 C 614.88 286.18 611.80 285.84 610.24 288.21 C 607.44 292.12 609.29 297.24 608.60 301.68 C 607.86 301.94 606.39 302.46 605.65 302.72 C 605.22 296.13 605.22 289.51 605.62 282.92 C 607.04 283.54 608.39 284.34 609.66 285.26 Z" />
</g>
<g id="#393d4bfb">
<path fill="#393d4b" opacity="1.00" d=" M 635.31 282.99 C 642.76 280.53 650.52 289.51 646.80 296.55 C 644.76 302.57 636.22 304.48 631.54 300.43 C 629.30 298.57 628.22 295.70 627.67 292.92 C 627.68 288.38 630.84 284.10 635.31 282.99 M 635.49 286.57 C 629.83 288.86 631.04 298.26 637.04 299.29 C 642.78 299.77 645.72 291.96 642.02 288.00 C 640.46 286.04 637.70 286.19 635.49 286.57 Z" />
</g>
<g id="#3a3e4cfe">
<path fill="#3a3e4c" opacity="1.00" d=" M 652.63 288.54 C 654.37 285.83 656.98 283.64 660.04 282.60 C 663.76 282.09 667.67 284.01 669.97 286.91 C 671.73 289.10 671.12 292.00 670.79 294.54 C 666.57 294.58 662.34 294.48 658.14 294.82 C 658.86 295.78 659.64 296.69 660.49 297.54 C 663.62 297.97 667.28 296.28 669.82 298.86 C 665.57 304.57 656.26 303.26 652.74 297.44 C 651.97 294.57 651.99 291.43 652.63 288.54 M 657.90 290.21 C 660.15 290.51 662.42 290.62 664.69 290.77 C 664.69 290.11 664.67 288.79 664.67 288.13 C 662.27 288.28 659.25 287.65 657.90 290.21 Z" />
</g>
<g id="#3a3e4cfd">
<path fill="#3a3e4c" opacity="1.00" d=" M 185.27 283.94 C 191.26 281.80 198.82 287.51 197.66 294.01 C 198.23 299.29 192.99 303.58 188.00 303.48 C 183.03 303.59 177.76 299.31 178.35 294.02 C 177.61 289.38 181.06 285.34 185.27 283.94 M 185.50 287.59 C 180.53 290.00 181.09 299.34 187.05 300.13 C 192.78 301.07 195.73 293.55 192.68 289.33 C 191.36 286.67 187.91 287.26 185.50 287.59 Z" />
</g>
<g id="#393d4cfe">
<path fill="#393d4c" opacity="1.00" d=" M 202.25 295.03 C 201.48 290.30 204.62 285.53 209.09 284.02 C 215.20 281.59 223.20 287.67 221.38 294.35 C 221.04 294.61 220.36 295.14 220.02 295.41 C 216.05 295.69 212.06 295.45 208.09 295.75 C 208.86 296.69 209.63 297.64 210.40 298.59 C 213.38 298.82 216.69 297.62 219.45 298.92 C 220.09 301.30 217.62 302.36 215.84 303.08 C 210.29 304.78 202.34 301.55 202.25 295.03 M 209.36 288.92 C 209.32 289.60 209.25 290.97 209.22 291.65 C 211.07 291.62 212.93 291.62 214.79 291.65 C 214.77 290.97 214.74 289.61 214.72 288.94 C 212.93 288.89 211.14 288.88 209.36 288.92 Z" />
</g>
<g id="#3a3d4cfe">
<path fill="#3a3d4c" opacity="1.00" d=" M 253.30 284.11 C 258.26 281.98 263.74 285.28 266.15 289.65 C 266.71 293.16 267.28 297.60 264.14 300.10 C 260.16 304.79 252.10 304.59 248.49 299.57 C 244.06 294.53 246.89 285.84 253.30 284.11 M 254.46 289.37 C 251.78 290.94 251.37 295.31 253.85 297.23 C 256.15 300.31 261.04 297.26 260.63 293.91 C 261.25 290.72 257.36 287.25 254.46 289.37 Z" />
</g>
<g id="#020b1016">
<path fill="#020b10" opacity="0.09" d=" M 1210.37 301.70 C 1211.58 295.46 1211.66 288.21 1216.50 283.47 C 1215.46 288.62 1215.85 293.88 1216.17 299.08 C 1215.97 304.66 1216.63 310.47 1219.79 315.23 C 1224.47 322.79 1232.67 327.00 1238.66 333.34 C 1245.43 340.23 1249.75 349.77 1258.64 354.38 C 1266.52 358.88 1276.38 357.22 1284.05 353.10 C 1290.48 349.83 1295.45 344.44 1299.82 338.81 C 1305.86 331.01 1312.76 323.50 1316.12 314.05 C 1317.85 312.85 1319.61 311.69 1321.34 310.47 C 1321.27 310.87 1321.14 311.68 1321.07 312.09 C 1320.63 315.12 1319.91 318.11 1318.95 321.02 C 1314.05 330.03 1306.98 337.65 1300.95 345.91 C 1292.85 357.19 1279.04 364.55 1265.09 364.06 C 1257.17 362.30 1249.20 358.29 1244.87 351.15 C 1240.97 344.62 1236.55 338.26 1230.63 333.40 C 1226.52 330.11 1221.40 328.10 1218.06 323.91 C 1213.05 317.76 1208.59 309.92 1210.37 301.70 Z" />
</g>
<g id="#2025203e">
<path fill="#202520" opacity="0.24" d=" M 557.51 288.72 C 557.81 288.41 558.42 287.81 558.72 287.51 C 559.91 290.94 561.56 294.21 562.58 297.71 C 561.69 303.02 560.19 308.20 558.33 313.24 C 556.14 314.44 553.95 315.63 551.86 316.99 C 552.04 315.01 552.14 313.03 552.33 311.06 C 553.12 305.88 553.02 300.60 552.26 295.42 C 554.00 293.18 555.65 290.86 557.51 288.72 Z" />
</g>
<g id="#0202030d">
<path fill="#020203" opacity="0.05" d=" M 657.90 290.21 C 659.25 287.65 662.27 288.28 664.67 288.13 C 664.67 288.79 664.69 290.11 664.69 290.77 C 662.42 290.62 660.15 290.51 657.90 290.21 Z" />
</g>
<g id="#04040516">
<path fill="#040405" opacity="0.09" d=" M 209.36 288.92 C 211.14 288.88 212.93 288.89 214.72 288.94 C 214.74 289.61 214.77 290.97 214.79 291.65 C 212.93 291.62 211.07 291.62 209.22 291.65 C 209.25 290.97 209.32 289.60 209.36 288.92 Z" />
</g>
<g id="#22292344">
<path fill="#222923" opacity="0.27" d=" M 1309.68 289.04 C 1310.07 289.10 1310.85 289.21 1311.25 289.26 C 1311.83 291.63 1312.84 293.86 1313.90 296.06 C 1313.46 301.10 1312.62 306.12 1311.07 310.94 C 1308.91 313.49 1306.36 315.66 1304.03 318.04 C 1304.88 313.62 1304.38 309.13 1303.18 304.84 C 1302.97 302.88 1302.81 300.93 1302.69 298.97 C 1305.27 295.84 1307.62 292.54 1309.68 289.04 Z" />
</g>
<g id="#06151b26">
<path fill="#06151b" opacity="0.15" d=" M 1216.17 299.08 C 1218.10 295.73 1220.53 292.71 1222.80 289.58 L 1222.68 290.49 C 1222.07 296.11 1220.17 302.04 1222.51 307.52 C 1225.35 314.93 1231.55 320.18 1237.63 324.92 C 1244.55 331.87 1249.02 341.09 1257.06 346.96 C 1261.16 350.14 1266.36 352.12 1271.61 351.56 C 1280.14 350.62 1288.05 346.09 1293.77 339.77 C 1301.31 331.42 1308.29 322.04 1311.07 310.94 C 1312.62 306.12 1313.46 301.10 1313.90 296.06 C 1316.88 301.55 1317.44 308.00 1316.12 314.05 C 1312.76 323.50 1305.86 331.01 1299.82 338.81 C 1295.45 344.44 1290.48 349.83 1284.05 353.10 C 1276.38 357.22 1266.52 358.88 1258.64 354.38 C 1249.75 349.77 1245.43 340.23 1238.66 333.34 C 1232.67 327.00 1224.47 322.79 1219.79 315.23 C 1216.63 310.47 1215.97 304.66 1216.17 299.08 Z" />
</g>
<g id="#1c22223d">
<path fill="#1c2222" opacity="0.24" d=" M 1222.68 290.49 C 1223.61 291.20 1224.57 291.90 1225.54 292.60 C 1225.21 296.37 1226.59 300.00 1229.57 302.39 C 1229.21 302.31 1228.49 302.15 1228.12 302.08 C 1229.51 308.93 1234.10 314.25 1239.10 318.84 C 1240.53 320.69 1241.84 322.63 1243.24 324.50 C 1241.36 324.63 1239.49 324.76 1237.63 324.92 C 1231.55 320.18 1225.35 314.93 1222.51 307.52 C 1220.17 302.04 1222.07 296.11 1222.68 290.49 Z" />
</g>
<g id="#03141a23">
<path fill="#03141a" opacity="0.14" d=" M 465.13 310.89 C 462.72 305.73 463.42 299.96 464.39 294.56 C 465.39 295.44 466.39 296.33 467.40 297.21 C 467.50 302.49 468.38 308.03 471.59 312.38 C 475.05 317.47 480.16 321.02 484.79 324.94 C 492.59 331.94 497.46 341.81 506.30 347.71 C 511.24 351.20 517.75 352.37 523.56 350.58 C 531.18 348.56 537.61 343.57 542.77 337.75 C 549.18 330.48 555.05 322.46 558.33 313.24 C 560.19 308.20 561.69 303.02 562.58 297.71 C 564.18 303.03 564.30 308.64 564.18 314.15 C 560.20 322.98 554.22 330.68 548.11 338.11 C 543.21 343.85 538.28 350.01 531.26 353.26 C 523.52 357.15 513.61 359.15 505.88 354.18 C 497.39 349.81 493.16 340.85 486.84 334.16 C 480.05 325.99 469.28 321.15 465.13 310.89 Z" />
</g>
<g id="#233a3f61">
<path fill="#233a3f" opacity="0.38" d=" M 545.88 304.12 C 547.89 301.13 550.02 298.23 552.26 295.42 C 553.02 300.60 553.12 305.88 552.33 311.06 C 549.67 314.12 546.71 316.92 544.08 320.01 C 545.22 315.82 545.08 311.39 543.65 307.29 C 544.42 306.25 545.15 305.18 545.88 304.12 Z" />
</g>
<g id="#1e465474">
<path fill="#1e4654" opacity="0.45" d=" M 1298.01 305.09 C 1299.51 303.01 1301.07 300.97 1302.69 298.97 C 1302.81 300.93 1302.97 302.88 1303.18 304.84 C 1301.82 308.99 1300.01 312.98 1298.04 316.87 C 1294.87 318.31 1291.91 320.15 1288.79 321.65 C 1287.79 322.28 1286.64 321.89 1285.63 321.62 C 1286.03 321.04 1286.85 319.88 1287.25 319.30 C 1290.85 314.58 1294.62 309.97 1298.01 305.09 Z" />
</g>
<g id="#22292a4a">
<path fill="#22292a" opacity="0.29" d=" M 474.59 299.52 C 476.00 300.24 477.42 300.99 478.87 301.65 L 479.11 302.67 C 479.76 310.58 486.77 315.17 492.09 320.06 C 492.27 320.63 492.62 321.77 492.80 322.34 C 490.89 322.12 488.98 321.90 487.09 321.67 C 483.07 317.43 478.33 313.71 475.42 308.55 C 473.83 305.80 474.41 302.52 474.59 299.52 Z" />
</g>
<g id="#455e65a6">
<path fill="#455e65" opacity="0.65" d=" M 478.87 301.65 C 487.72 302.22 496.92 300.37 505.42 303.64 C 506.03 305.05 506.68 306.44 507.10 307.92 C 507.17 310.30 507.05 312.68 506.97 315.06 C 504.91 313.67 502.86 312.26 500.70 311.02 C 501.40 308.44 502.11 305.85 502.80 303.27 C 498.76 302.88 494.70 302.69 490.65 302.80 C 488.32 302.84 485.99 302.90 483.67 302.90 C 482.14 302.87 480.62 302.79 479.11 302.67 L 478.87 301.65 Z" />
</g>
<g id="#2a33325b">
<path fill="#2a3332" opacity="0.36" d=" M 1228.12 302.08 C 1228.49 302.15 1229.21 302.31 1229.57 302.39 C 1230.16 302.50 1231.33 302.74 1231.92 302.85 C 1233.41 303.14 1234.92 303.43 1236.45 303.63 C 1236.78 309.05 1240.82 313.06 1245.31 315.60 C 1245.77 317.79 1246.24 319.98 1246.88 322.14 C 1244.31 320.96 1241.66 320.01 1239.10 318.84 C 1234.10 314.25 1229.51 308.93 1228.12 302.08 Z" />
</g>
<g id="#2d363560">
<path fill="#2d3635" opacity="0.38" d=" M 479.11 302.67 C 480.62 302.79 482.14 302.87 483.67 302.90 C 485.24 308.26 489.28 312.17 493.67 315.35 C 494.30 316.50 494.93 317.66 495.61 318.79 C 494.43 319.21 493.26 319.63 492.09 320.06 C 486.77 315.17 479.76 310.58 479.11 302.67 Z" />
</g>
<g id="#3e433f78">
<path fill="#3e433f" opacity="0.47" d=" M 483.67 302.90 C 485.99 302.90 488.32 302.84 490.65 302.80 C 492.12 305.41 493.81 307.89 495.40 310.42 C 496.09 311.82 496.69 313.27 497.30 314.71 C 496.39 314.87 494.58 315.19 493.67 315.35 C 489.28 312.17 485.24 308.26 483.67 302.90 Z" />
</g>
<g id="#51554e97">
<path fill="#51554e" opacity="0.59" d=" M 490.65 302.80 C 494.70 302.69 498.76 302.88 502.80 303.27 C 502.11 305.85 501.40 308.44 500.70 311.02 C 498.94 310.74 497.16 310.58 495.40 310.42 C 493.81 307.89 492.12 305.41 490.65 302.80 Z" />
</g>
<g id="#5158539d">
<path fill="#515853" opacity="0.62" d=" M 1231.92 302.85 C 1238.63 302.88 1245.38 302.36 1252.07 303.08 C 1254.51 303.20 1256.57 304.59 1258.55 305.91 C 1257.52 308.75 1256.73 311.67 1256.01 314.60 C 1254.04 314.08 1252.07 313.56 1250.16 312.89 C 1247.73 310.24 1246.09 306.96 1243.57 304.41 C 1241.23 303.85 1238.81 303.87 1236.45 303.63 C 1234.92 303.43 1233.41 303.14 1231.92 302.85 Z" />
</g>
<g id="#3e453f7a">
<path fill="#3e453f" opacity="0.48" d=" M 1236.45 303.63 C 1238.81 303.87 1241.23 303.85 1243.57 304.41 C 1246.09 306.96 1247.73 310.24 1250.16 312.89 C 1250.00 314.68 1249.85 316.47 1249.71 318.27 C 1248.26 317.33 1246.76 316.49 1245.31 315.60 C 1240.82 313.06 1236.78 309.05 1236.45 303.63 Z" />
</g>
<g id="#05304553">
<path fill="#053045" opacity="0.33" d=" M 1303.18 304.84 C 1304.38 309.13 1304.88 313.62 1304.03 318.04 C 1297.85 326.66 1292.41 336.57 1282.69 341.71 C 1278.29 344.64 1272.93 344.85 1267.84 345.12 C 1269.29 342.90 1270.85 340.75 1272.46 338.63 C 1284.38 337.13 1292.98 327.04 1298.04 316.87 C 1300.01 312.98 1301.82 308.99 1303.18 304.84 Z" />
</g>
<g id="#375f6fa6">
<path fill="#375f6f" opacity="0.65" d=" M 1258.55 305.91 L 1259.34 305.86 C 1260.14 311.58 1260.45 317.36 1260.38 323.14 C 1259.30 320.11 1257.75 317.29 1256.01 314.60 C 1256.73 311.67 1257.52 308.75 1258.55 305.91 Z" />
</g>
<g id="#1c6288b8">
<path fill="#1c6288" opacity="0.72" d=" M 507.10 307.92 C 507.50 309.84 507.73 311.79 507.98 313.73 C 507.97 323.65 508.71 333.56 508.53 343.48 C 507.64 341.24 507.15 338.86 506.96 336.47 C 506.98 334.34 507.08 332.22 507.11 330.10 C 507.11 327.46 507.00 324.83 506.93 322.20 C 506.88 319.82 506.89 317.44 506.97 315.06 C 507.05 312.68 507.17 310.30 507.10 307.92 Z" />
</g>
<g id="#0d456174">
<path fill="#0d4561" opacity="0.45" d=" M 535.03 318.06 C 537.75 314.35 540.81 310.91 543.65 307.29 C 545.08 311.39 545.22 315.82 544.08 320.01 C 540.01 324.92 536.20 330.27 530.74 333.75 C 527.45 335.91 523.60 336.95 519.82 337.92 C 524.75 331.19 530.32 324.96 535.03 318.06 Z" />
</g>
<g id="#2d505e8c">
<path fill="#2d505e" opacity="0.55" d=" M 495.40 310.42 C 497.16 310.58 498.94 310.74 500.70 311.02 C 502.86 312.26 504.91 313.67 506.97 315.06 C 506.89 317.44 506.88 319.82 506.93 322.20 C 503.55 319.92 500.31 317.45 497.30 314.71 C 496.69 313.27 496.09 311.82 495.40 310.42 Z" />
</g>
<g id="#052e4450">
<path fill="#052e44" opacity="0.31" d=" M 544.08 320.01 C 546.71 316.92 549.67 314.12 552.33 311.06 C 552.14 313.03 552.04 315.01 551.86 316.99 C 546.19 326.21 539.98 335.85 530.35 341.36 C 525.63 344.19 520.04 345.22 514.59 344.76 C 516.33 342.48 518.10 340.22 519.82 337.92 C 523.60 336.95 527.45 335.91 530.74 333.75 C 536.20 330.27 540.01 324.92 544.08 320.01 Z" />
</g>
<g id="#041f2e39">
<path fill="#041f2e" opacity="0.22" d=" M 1304.03 318.04 C 1306.36 315.66 1308.91 313.49 1311.07 310.94 C 1308.29 322.04 1301.31 331.42 1293.77 339.77 C 1288.05 346.09 1280.14 350.62 1271.61 351.56 C 1266.36 352.12 1261.16 350.14 1257.06 346.96 C 1249.02 341.09 1244.55 331.87 1237.63 324.92 C 1239.49 324.76 1241.36 324.63 1243.24 324.50 C 1247.93 330.91 1253.77 336.31 1259.46 341.80 L 1259.95 342.46 C 1260.47 343.19 1261.02 343.91 1261.59 344.64 C 1263.61 345.25 1265.74 345.30 1267.84 345.12 C 1272.93 344.85 1278.29 344.64 1282.69 341.71 C 1292.41 336.57 1297.85 326.66 1304.03 318.04 Z" />
</g>
<g id="#041f2d38">
<path fill="#041f2d" opacity="0.22" d=" M 551.86 316.99 C 553.95 315.63 556.14 314.44 558.33 313.24 C 555.05 322.46 549.18 330.48 542.77 337.75 C 537.61 343.57 531.18 348.56 523.56 350.58 C 517.75 352.37 511.24 351.20 506.30 347.71 C 497.46 341.81 492.59 331.94 484.79 324.94 C 485.55 323.85 486.31 322.76 487.09 321.67 C 488.98 321.90 490.89 322.12 492.80 322.34 C 497.61 326.96 501.23 332.84 506.96 336.47 C 507.15 338.86 507.64 341.24 508.53 343.48 C 510.49 344.13 512.53 344.55 514.59 344.76 C 520.04 345.22 525.63 344.19 530.35 341.36 C 539.98 335.85 546.19 326.21 551.86 316.99 Z" />
</g>
<g id="#264b5d83">
<path fill="#264b5d" opacity="0.51" d=" M 1250.16 312.89 C 1252.07 313.56 1254.04 314.08 1256.01 314.60 C 1257.75 317.29 1259.30 320.11 1260.38 323.14 C 1260.41 329.58 1260.80 336.06 1259.95 342.46 L 1259.46 341.80 C 1259.29 339.61 1259.27 337.41 1259.26 335.22 C 1259.11 332.26 1259.52 328.92 1257.58 326.43 C 1255.34 323.37 1252.62 320.68 1249.71 318.27 C 1249.85 316.47 1250.00 314.68 1250.16 312.89 Z" />
</g>
<g id="#1b415572">
<path fill="#1b4155" opacity="0.45" d=" M 493.67 315.35 C 494.58 315.19 496.39 314.87 497.30 314.71 C 500.31 317.45 503.55 319.92 506.93 322.20 C 507.00 324.83 507.11 327.46 507.11 330.10 C 503.12 326.50 498.93 323.05 495.61 318.79 C 494.93 317.66 494.30 316.50 493.67 315.35 Z" />
</g>
<g id="#143a4e66">
<path fill="#143a4e" opacity="0.40" d=" M 1245.31 315.60 C 1246.76 316.49 1248.26 317.33 1249.71 318.27 C 1252.62 320.68 1255.34 323.37 1257.58 326.43 C 1259.52 328.92 1259.11 332.26 1259.26 335.22 C 1254.76 331.22 1251.02 326.49 1246.88 322.14 C 1246.24 319.98 1245.77 317.79 1245.31 315.60 Z" />
</g>
<g id="#0842606f">
<path fill="#084260" opacity="0.44" d=" M 1288.79 321.65 C 1291.91 320.15 1294.87 318.31 1298.04 316.87 C 1292.98 327.04 1284.38 337.13 1272.46 338.63 C 1276.59 332.76 1281.48 327.48 1285.63 321.62 C 1286.64 321.89 1287.79 322.28 1288.79 321.65 Z" />
</g>
<g id="#0e33485a">
<path fill="#0e3348" opacity="0.35" d=" M 495.61 318.79 C 498.93 323.05 503.12 326.50 507.11 330.10 C 507.08 332.22 506.98 334.34 506.96 336.47 C 501.23 332.84 497.61 326.96 492.80 322.34 C 492.62 321.77 492.27 320.63 492.09 320.06 C 493.26 319.63 494.43 319.21 495.61 318.79 Z" />
</g>
<g id="#0b2c3e4d">
<path fill="#0b2c3e" opacity="0.30" d=" M 1239.10 318.84 C 1241.66 320.01 1244.31 320.96 1246.88 322.14 C 1251.02 326.49 1254.76 331.22 1259.26 335.22 C 1259.27 337.41 1259.29 339.61 1259.46 341.80 C 1253.77 336.31 1247.93 330.91 1243.24 324.50 C 1241.84 322.63 1240.53 320.69 1239.10 318.84 Z" />
</g>
<g id="#000000ff">
<path fill="#000000" opacity="1.00" d=" M 0.00 438.00 C 448.33 438.00 896.67 438.00 1345.00 438.00 L 1345.00 657.00 C 896.67 657.00 448.33 657.00 0.00 657.00 L 0.00 438.00 M 520.42 485.41 C 518.75 485.85 517.68 487.33 516.61 488.57 C 504.30 504.61 492.04 520.68 479.68 536.67 C 477.40 539.81 473.94 542.78 474.16 547.01 C 473.47 552.44 478.36 558.06 483.93 557.58 C 489.96 557.72 496.00 557.29 502.04 557.62 C 505.01 557.75 508.60 559.67 508.53 563.05 C 508.79 573.38 508.34 583.72 508.65 594.05 C 508.59 597.51 511.99 599.72 515.04 600.30 C 517.97 600.30 520.42 598.32 522.05 596.04 C 528.14 587.85 534.71 580.03 540.74 571.79 C 547.84 561.90 555.98 552.77 562.80 542.69 C 566.48 537.52 563.46 529.52 557.51 527.72 C 550.05 526.83 542.49 528.02 535.02 527.25 C 532.44 526.94 530.25 524.72 530.47 522.05 C 530.24 512.03 530.53 502.01 530.43 492.00 C 530.72 486.99 524.77 484.04 520.42 485.41 M 1274.44 486.52 C 1271.50 487.68 1269.78 490.54 1267.88 492.88 C 1255.03 510.03 1241.74 526.84 1229.04 544.08 C 1225.83 548.01 1226.82 554.19 1230.69 557.32 C 1234.55 560.92 1240.25 559.23 1245.00 559.56 C 1250.39 559.83 1257.15 558.16 1261.21 562.73 C 1262.18 573.44 1261.15 584.27 1261.63 595.02 C 1261.76 598.58 1264.11 602.65 1268.08 602.65 C 1271.54 603.20 1273.80 600.07 1275.72 597.72 C 1287.06 582.74 1298.52 567.85 1309.86 552.86 C 1312.11 549.79 1314.82 547.01 1316.55 543.59 C 1319.25 538.45 1316.08 531.31 1310.60 529.66 C 1303.42 528.91 1296.18 529.88 1288.99 529.32 C 1286.25 529.03 1283.05 527.10 1283.29 523.98 C 1282.98 513.64 1283.50 503.28 1283.13 492.94 C 1283.04 488.78 1278.37 485.55 1274.44 486.52 M 65.83 488.82 C 52.33 506.35 39.03 524.04 25.55 541.59 C 24.05 543.80 22.26 546.18 22.37 548.99 C 22.23 554.20 26.61 559.21 31.93 559.31 C 38.57 559.42 45.21 559.16 51.84 559.38 C 53.83 559.39 55.11 561.15 56.60 562.22 C 56.83 573.46 56.51 584.71 56.76 595.95 C 57.54 601.49 65.20 604.68 68.99 599.97 C 80.97 584.58 92.62 568.92 104.52 553.45 C 106.97 550.00 109.88 546.87 112.04 543.23 C 114.84 537.55 111.31 530.04 105.06 528.80 C 97.51 528.36 89.92 529.06 82.39 528.48 C 80.30 527.66 78.33 525.42 78.55 523.06 C 78.50 512.76 78.62 502.47 78.52 492.18 C 78.40 486.06 68.97 483.84 65.83 488.82 M 969.55 488.60 C 967.92 489.61 966.56 490.99 965.40 492.49 C 952.02 510.05 938.66 527.63 925.21 545.13 C 921.21 550.34 923.17 559.57 929.99 561.38 C 936.99 561.78 944.02 561.40 951.04 561.54 C 953.88 561.32 956.61 563.66 957.37 566.28 C 957.61 576.87 957.33 587.47 957.48 598.07 C 957.17 602.38 962.21 605.26 966.07 604.56 C 970.20 602.27 972.49 597.95 975.40 594.42 C 987.43 578.52 999.69 562.77 1011.61 546.79 C 1016.56 540.79 1010.67 530.36 1003.02 531.45 C 996.44 531.36 989.85 531.64 983.29 531.35 C 980.21 530.48 978.46 527.13 978.64 524.07 C 978.60 514.40 978.74 504.73 978.60 495.07 C 978.83 490.57 973.69 487.25 969.55 488.60 M 596.76 532.96 C 596.65 540.49 596.18 548.11 597.36 555.59 C 598.44 555.60 599.54 555.63 600.64 555.66 C 600.78 547.24 601.20 538.75 600.52 530.37 C 598.94 527.47 596.55 530.89 596.76 532.96 M 145.63 531.94 C 145.46 540.45 145.40 548.99 145.72 557.50 C 147.40 557.53 149.89 557.33 149.42 554.99 C 149.43 547.33 149.62 539.67 149.32 532.03 C 148.22 530.65 146.40 529.72 145.63 531.94 M 659.74 536.81 C 653.43 539.41 651.38 548.75 656.74 553.27 C 659.54 556.35 664.05 555.96 667.80 555.52 C 669.99 555.39 672.19 551.64 669.64 550.56 C 666.29 550.36 662.33 551.94 659.89 548.77 C 664.15 548.08 668.49 547.99 672.80 547.71 C 672.65 545.01 673.46 541.77 671.31 539.66 C 668.42 536.74 663.61 534.02 659.74 536.81 M 637.41 536.45 C 633.29 537.09 629.91 540.83 629.57 544.97 C 629.01 550.63 634.00 556.70 639.98 555.78 C 646.92 556.30 651.62 547.54 648.37 541.73 C 646.70 537.44 641.71 535.56 637.41 536.45 M 675.92 537.27 C 676.36 541.93 678.91 545.93 680.87 550.07 C 681.87 552.02 682.75 554.14 684.39 555.67 C 687.54 556.50 688.72 553.07 689.82 550.87 C 691.73 546.41 694.75 542.26 695.00 537.25 C 693.70 536.86 692.42 536.48 691.14 536.11 C 689.01 539.40 687.36 542.95 685.81 546.54 C 683.61 543.18 681.91 539.55 679.94 536.07 C 678.59 536.46 677.25 536.85 675.92 537.27 M 706.40 536.36 C 699.37 536.93 695.41 545.93 699.45 551.59 C 703.70 557.90 715.15 557.28 717.61 549.63 C 720.81 542.69 713.61 534.73 706.40 536.36 M 155.82 537.06 C 154.18 543.78 155.27 550.81 155.21 557.67 C 156.66 557.72 158.11 557.79 159.56 557.81 C 159.77 553.13 159.93 548.44 159.68 543.76 C 161.40 541.16 164.49 541.25 167.27 541.35 C 170.85 545.78 168.69 551.69 169.39 556.87 C 170.17 557.07 171.71 557.48 172.49 557.69 C 172.88 553.12 172.82 548.53 172.67 543.96 C 172.85 541.74 171.30 540.03 170.25 538.24 L 169.30 538.36 C 166.53 535.90 163.20 538.07 160.17 538.64 C 158.68 538.21 157.27 537.57 155.82 537.06 M 607.32 555.79 C 608.37 555.67 609.43 555.56 610.49 555.45 C 610.99 550.79 609.20 545.31 612.26 541.32 C 614.04 538.74 617.35 539.91 619.92 540.13 C 621.43 545.25 619.55 550.91 621.85 555.78 C 625.40 556.22 624.18 552.21 624.52 549.99 C 624.39 545.94 625.14 541.16 622.14 537.92 C 618.96 535.15 614.58 536.79 611.27 538.41 C 610.07 537.64 608.85 536.89 607.65 536.16 C 606.10 542.60 606.71 549.27 607.32 555.79 M 183.53 538.68 C 176.50 541.72 176.39 553.50 183.53 556.43 C 189.37 559.82 198.36 555.06 197.64 548.01 C 198.91 540.85 189.61 534.73 183.53 538.68 M 202.59 543.97 C 201.79 547.70 201.94 552.20 205.06 554.89 C 208.61 557.67 214.03 558.60 217.94 556.04 C 219.42 555.65 220.39 552.98 218.71 552.34 C 215.11 551.92 210.02 554.36 208.42 549.68 C 212.62 549.47 216.83 549.57 221.04 549.48 C 222.91 544.70 219.70 539.40 215.01 537.94 C 210.05 536.05 204.83 539.63 202.59 543.97 M 224.12 539.07 C 225.88 545.06 228.72 550.72 231.78 556.15 C 232.70 558.53 235.81 557.39 236.67 555.55 C 239.17 551.15 240.94 546.37 243.17 541.83 C 244.59 539.88 242.40 538.50 241.24 537.20 C 240.56 537.56 239.19 538.29 238.50 538.66 C 237.05 542.10 235.56 545.53 234.08 548.97 C 232.51 545.57 230.95 542.17 229.45 538.74 C 228.85 538.42 227.66 537.77 227.06 537.44 C 226.33 537.85 224.86 538.66 224.12 539.07 M 254.24 537.71 C 250.11 538.79 246.37 542.52 246.40 546.97 C 245.71 553.80 253.43 559.44 259.79 557.06 C 262.49 556.00 264.67 553.87 266.17 551.43 C 266.53 548.13 267.38 543.96 264.55 541.50 C 262.11 538.52 258.07 536.68 254.24 537.71 Z" />
<path fill="#000000" opacity="1.00" d=" M 66.50 495.58 C 68.34 493.33 69.92 489.90 73.38 490.43 C 74.33 501.59 73.43 512.84 73.85 524.03 C 74.17 527.64 76.56 530.89 79.86 532.35 C 82.92 534.22 86.62 533.37 90.01 533.55 C 95.11 533.68 100.25 533.22 105.33 533.78 C 108.12 535.48 109.57 539.62 107.10 542.24 C 95.83 557.23 84.34 572.09 73.01 587.05 C 70.12 590.68 67.64 594.66 64.23 597.86 C 63.54 597.39 62.18 596.44 61.50 595.96 C 61.43 585.30 61.50 574.64 61.47 563.97 C 61.54 558.90 56.70 555.00 51.92 554.51 C 44.78 554.23 37.62 554.75 30.49 554.30 C 27.14 552.79 26.00 548.19 28.55 545.46 C 41.18 528.82 53.90 512.25 66.50 495.58 Z" />
<path fill="#000000" opacity="1.00" d=" M 516.45 496.50 C 518.41 493.92 520.26 491.15 522.96 489.27 C 526.15 490.60 525.34 494.20 525.47 496.98 C 525.44 505.32 525.35 513.67 525.44 522.01 C 525.10 526.95 529.73 530.80 534.17 531.81 C 541.84 533.10 549.71 531.40 557.37 532.65 C 560.04 534.72 560.55 538.70 558.23 541.24 C 546.14 557.13 533.86 572.88 521.81 588.81 C 519.51 591.57 517.81 595.88 513.60 595.82 C 512.94 585.20 513.58 574.56 513.30 563.94 C 513.32 559.02 509.74 554.17 504.81 553.29 C 497.10 551.88 489.19 553.48 481.45 552.48 C 478.64 551.18 477.79 547.10 479.66 544.66 C 482.95 539.41 487.13 534.79 490.86 529.87 C 499.35 518.71 507.98 507.67 516.45 496.50 Z" />
<path fill="#000000" opacity="1.00" d=" M 1275.39 491.53 C 1277.00 490.60 1278.65 492.28 1278.34 493.96 C 1278.68 503.98 1278.24 514.02 1278.45 524.04 C 1278.45 528.54 1282.06 532.79 1286.51 533.53 C 1294.12 535.09 1301.95 533.52 1309.62 534.49 C 1313.31 535.64 1313.69 540.73 1311.33 543.35 C 1297.27 561.51 1283.50 579.91 1269.43 598.06 C 1268.43 597.59 1267.42 597.17 1266.53 596.57 C 1265.93 586.05 1266.71 575.48 1266.24 564.95 C 1266.09 560.62 1262.99 556.30 1258.63 555.48 C 1251.23 553.92 1243.63 555.33 1236.16 554.66 C 1233.49 554.51 1231.72 551.51 1231.78 549.07 C 1233.07 545.59 1235.78 542.92 1237.95 539.98 C 1248.40 525.80 1259.48 512.09 1269.90 497.88 C 1271.59 495.66 1273.13 493.24 1275.39 491.53 Z" />
<path fill="#000000" opacity="1.00" d=" M 970.67 493.25 C 972.28 493.40 974.44 493.95 974.35 496.00 C 974.53 506.31 974.27 516.63 974.46 526.93 C 974.54 531.63 978.67 535.26 983.15 535.86 C 990.54 536.98 998.10 535.70 1005.53 536.51 C 1008.70 537.83 1009.57 542.62 1007.06 545.11 C 993.13 563.36 979.34 581.74 965.19 599.83 C 964.49 599.63 963.09 599.24 962.39 599.05 C 962.17 589.01 962.42 578.98 962.27 568.95 C 961.75 565.86 961.60 562.19 959.00 560.03 C 956.14 557.22 951.84 556.76 948.04 556.70 C 942.11 556.70 936.18 556.79 930.25 556.65 C 929.31 555.45 928.32 554.29 927.61 552.96 C 927.14 550.62 928.57 548.58 929.87 546.80 C 943.50 528.97 957.14 511.16 970.67 493.25 Z" />
<path fill="#000000" opacity="1.00" d=" M 636.45 540.35 C 639.99 538.12 645.23 540.73 645.37 544.99 C 646.49 549.40 641.40 554.31 637.19 551.97 C 632.82 549.90 632.22 542.87 636.45 540.35 Z" />
<path fill="#000000" opacity="1.00" d=" M 185.50 541.58 C 187.90 541.36 191.35 540.62 192.66 543.27 C 194.79 546.59 194.18 552.67 189.78 553.79 C 187.08 555.16 183.75 553.09 182.61 550.55 C 181.69 547.31 182.21 543.24 185.50 541.58 Z" />
<path fill="#000000" opacity="1.00" d=" M 157.18 785.33 C 158.16 786.16 159.15 787.00 160.13 787.85 C 162.29 786.85 164.40 785.08 166.92 785.54 C 168.95 786.15 170.66 787.48 172.41 788.64 C 172.31 794.26 172.31 799.89 172.45 805.52 C 171.66 805.41 170.08 805.19 169.29 805.08 C 169.19 800.81 169.77 796.45 168.92 792.24 C 167.84 787.59 159.83 788.61 159.58 793.23 C 159.25 797.36 159.98 801.65 158.36 805.61 C 157.60 805.44 156.07 805.12 155.31 804.95 C 155.27 798.74 155.15 792.53 155.41 786.32 C 155.86 786.07 156.74 785.58 157.18 785.33 Z" />
</g>
<g id="#595f72ff">
<path fill="#595f72" opacity="1.00" d=" M 520.42 485.41 C 524.77 484.04 530.72 486.99 530.43 492.00 C 530.53 502.01 530.24 512.03 530.47 522.05 C 530.25 524.72 532.44 526.94 535.02 527.25 C 542.49 528.02 550.05 526.83 557.51 527.72 C 563.46 529.52 566.48 537.52 562.80 542.69 C 555.98 552.77 547.84 561.90 540.74 571.79 C 534.71 580.03 528.14 587.85 522.05 596.04 C 520.42 598.32 517.97 600.30 515.04 600.30 C 511.99 599.72 508.59 597.51 508.65 594.05 C 508.34 583.72 508.79 573.38 508.53 563.05 C 508.60 559.67 505.01 557.75 502.04 557.62 C 496.00 557.29 489.96 557.72 483.93 557.58 C 478.36 558.06 473.47 552.44 474.16 547.01 C 473.94 542.78 477.40 539.81 479.68 536.67 C 492.04 520.68 504.30 504.61 516.61 488.57 C 517.68 487.33 518.75 485.85 520.42 485.41 M 516.45 496.50 C 507.98 507.67 499.35 518.71 490.86 529.87 C 487.13 534.79 482.95 539.41 479.66 544.66 C 477.79 547.10 478.64 551.18 481.45 552.48 C 489.19 553.48 497.10 551.88 504.81 553.29 C 509.74 554.17 513.32 559.02 513.30 563.94 C 513.58 574.56 512.94 585.20 513.60 595.82 C 517.81 595.88 519.51 591.57 521.81 588.81 C 533.86 572.88 546.14 557.13 558.23 541.24 C 560.55 538.70 560.04 534.72 557.37 532.65 C 549.71 531.40 541.84 533.10 534.17 531.81 C 529.73 530.80 525.10 526.95 525.44 522.01 C 525.35 513.67 525.44 505.32 525.47 496.98 C 525.34 494.20 526.15 490.60 522.96 489.27 C 520.26 491.15 518.41 493.92 516.45 496.50 Z" />
<path fill="#595f72" opacity="1.00" d=" M 659.74 536.81 C 663.61 534.02 668.42 536.74 671.31 539.66 C 673.46 541.77 672.65 545.01 672.80 547.71 C 668.49 547.99 664.15 548.08 659.89 548.77 C 662.33 551.94 666.29 550.36 669.64 550.56 C 672.19 551.64 669.99 555.39 667.80 555.52 C 664.05 555.96 659.54 556.35 656.74 553.27 C 651.38 548.75 653.43 539.41 659.74 536.81 M 660.88 541.68 C 660.58 542.60 660.31 543.53 660.08 544.48 C 662.20 544.51 664.33 544.55 666.45 544.61 C 666.58 543.90 666.83 542.49 666.95 541.79 C 664.94 541.56 662.85 541.01 660.88 541.68 Z" />
<path fill="#595f72" opacity="1.00" d=" M 706.40 536.36 C 713.61 534.73 720.81 542.69 717.61 549.63 C 715.15 557.28 703.70 557.90 699.45 551.59 C 695.41 545.93 699.37 536.93 706.40 536.36 M 705.43 542.23 C 702.84 544.49 703.64 551.06 707.99 550.81 C 712.84 551.17 713.91 543.51 709.85 541.68 C 708.38 541.41 706.70 541.33 705.43 542.23 Z" />
</g>
<g id="#5a6073ff">
<path fill="#5a6073" opacity="1.00" d=" M 1274.44 486.52 C 1278.37 485.55 1283.04 488.78 1283.13 492.94 C 1283.50 503.28 1282.98 513.64 1283.29 523.98 C 1283.05 527.10 1286.25 529.03 1288.99 529.32 C 1296.18 529.88 1303.42 528.91 1310.60 529.66 C 1316.08 531.31 1319.25 538.45 1316.55 543.59 C 1314.82 547.01 1312.11 549.79 1309.86 552.86 C 1298.52 567.85 1287.06 582.74 1275.72 597.72 C 1273.80 600.07 1271.54 603.20 1268.08 602.65 C 1264.11 602.65 1261.76 598.58 1261.63 595.02 C 1261.15 584.27 1262.18 573.44 1261.21 562.73 C 1257.15 558.16 1250.39 559.83 1245.00 559.56 C 1240.25 559.23 1234.55 560.92 1230.69 557.32 C 1226.82 554.19 1225.83 548.01 1229.04 544.08 C 1241.74 526.84 1255.03 510.03 1267.88 492.88 C 1269.78 490.54 1271.50 487.68 1274.44 486.52 M 1275.39 491.53 C 1273.13 493.24 1271.59 495.66 1269.90 497.88 C 1259.48 512.09 1248.40 525.80 1237.95 539.98 C 1235.78 542.92 1233.07 545.59 1231.78 549.07 C 1231.72 551.51 1233.49 554.51 1236.16 554.66 C 1243.63 555.33 1251.23 553.92 1258.63 555.48 C 1262.99 556.30 1266.09 560.62 1266.24 564.95 C 1266.71 575.48 1265.93 586.05 1266.53 596.57 C 1267.42 597.17 1268.43 597.59 1269.43 598.06 C 1283.50 579.91 1297.27 561.51 1311.33 543.35 C 1313.69 540.73 1313.31 535.64 1309.62 534.49 C 1301.95 533.52 1294.12 535.09 1286.51 533.53 C 1282.06 532.79 1278.45 528.54 1278.45 524.04 C 1278.24 514.02 1278.68 503.98 1278.34 493.96 C 1278.65 492.28 1277.00 490.60 1275.39 491.53 Z" />
<path fill="#5a6073" opacity="1.00" d=" M 637.41 536.45 C 641.71 535.56 646.70 537.44 648.37 541.73 C 651.62 547.54 646.92 556.30 639.98 555.78 C 634.00 556.70 629.01 550.63 629.57 544.97 C 629.91 540.83 633.29 537.09 637.41 536.45 M 636.45 540.35 C 632.22 542.87 632.82 549.90 637.19 551.97 C 641.40 554.31 646.49 549.40 645.37 544.99 C 645.23 540.73 639.99 538.12 636.45 540.35 Z" />
</g>
<g id="#fefefeff">
<path fill="#fefefe" opacity="1.00" d=" M 65.83 488.82 C 68.97 483.84 78.40 486.06 78.52 492.18 C 78.62 502.47 78.50 512.76 78.55 523.06 C 78.33 525.42 80.30 527.66 82.39 528.48 C 89.92 529.06 97.51 528.36 105.06 528.80 C 111.31 530.04 114.84 537.55 112.04 543.23 C 109.88 546.87 106.97 550.00 104.52 553.45 C 92.62 568.92 80.97 584.58 68.99 599.97 C 65.20 604.68 57.54 601.49 56.76 595.95 C 56.51 584.71 56.83 573.46 56.60 562.22 C 55.11 561.15 53.83 559.39 51.84 559.38 C 45.21 559.16 38.57 559.42 31.93 559.31 C 26.61 559.21 22.23 554.20 22.37 548.99 C 22.26 546.18 24.05 543.80 25.55 541.59 C 39.03 524.04 52.33 506.35 65.83 488.82 M 66.50 495.58 C 53.90 512.25 41.18 528.82 28.55 545.46 C 26.00 548.19 27.14 552.79 30.49 554.30 C 37.62 554.75 44.78 554.23 51.92 554.51 C 56.70 555.00 61.54 558.90 61.47 563.97 C 61.50 574.64 61.43 585.30 61.50 595.96 C 62.18 596.44 63.54 597.39 64.23 597.86 C 67.64 594.66 70.12 590.68 73.01 587.05 C 84.34 572.09 95.83 557.23 107.10 542.24 C 109.57 539.62 108.12 535.48 105.33 533.78 C 100.25 533.22 95.11 533.68 90.01 533.55 C 86.62 533.37 82.92 534.22 79.86 532.35 C 76.56 530.89 74.17 527.64 73.85 524.03 C 73.43 512.84 74.33 501.59 73.38 490.43 C 69.92 489.90 68.34 493.33 66.50 495.58 Z" />
<path fill="#fefefe" opacity="1.00" d=" M 183.53 538.68 C 189.61 534.73 198.91 540.85 197.64 548.01 C 198.36 555.06 189.37 559.82 183.53 556.43 C 176.39 553.50 176.50 541.72 183.53 538.68 M 185.50 541.58 C 182.21 543.24 181.69 547.31 182.61 550.55 C 183.75 553.09 187.08 555.16 189.78 553.79 C 194.18 552.67 194.79 546.59 192.66 543.27 C 191.35 540.62 187.90 541.36 185.50 541.58 Z" />
<path fill="#fefefe" opacity="1.00" d=" M 224.12 539.07 C 224.86 538.66 226.33 537.85 227.06 537.44 C 227.66 537.77 228.85 538.42 229.45 538.74 C 230.95 542.17 232.51 545.57 234.08 548.97 C 235.56 545.53 237.05 542.10 238.50 538.66 C 239.19 538.29 240.56 537.56 241.24 537.20 C 242.40 538.50 244.59 539.88 243.17 541.83 C 240.94 546.37 239.17 551.15 236.67 555.55 C 235.81 557.39 232.70 558.53 231.78 556.15 C 228.72 550.72 225.88 545.06 224.12 539.07 Z" />
<path fill="#fefefe" opacity="1.00" d=" M 254.24 537.71 C 258.07 536.68 262.11 538.52 264.55 541.50 C 267.38 543.96 266.53 548.13 266.17 551.43 C 264.67 553.87 262.49 556.00 259.79 557.06 C 253.43 559.44 245.71 553.80 246.40 546.97 C 246.37 542.52 250.11 538.79 254.24 537.71 M 252.31 546.98 C 251.51 550.10 255.71 554.27 258.51 551.73 C 262.28 549.49 260.66 543.92 257.12 542.28 C 255.04 543.11 252.26 544.32 252.31 546.98 Z" />
<path fill="#fefefe" opacity="1.00" d=" M 155.72 539.17 C 160.27 540.13 164.79 538.86 169.30 538.36 L 170.25 538.24 C 171.30 540.03 172.85 541.74 172.67 543.96 C 172.82 548.53 172.88 553.12 172.49 557.69 C 171.71 557.48 170.17 557.07 169.39 556.87 C 168.69 551.69 170.85 545.78 167.27 541.35 C 164.49 541.25 161.40 541.16 159.68 543.76 C 157.76 547.84 159.04 552.51 157.77 556.72 C 157.44 556.78 156.77 556.88 156.44 556.93 C 154.63 551.20 155.92 545.07 155.72 539.17 Z" />
</g>
<g id="#fdfdfdff">
<path fill="#fdfdfd" opacity="1.00" d=" M 969.55 488.60 C 973.69 487.25 978.83 490.57 978.60 495.07 C 978.74 504.73 978.60 514.40 978.64 524.07 C 978.46 527.13 980.21 530.48 983.29 531.35 C 989.85 531.64 996.44 531.36 1003.02 531.45 C 1010.67 530.36 1016.56 540.79 1011.61 546.79 C 999.69 562.77 987.43 578.52 975.40 594.42 C 972.49 597.95 970.20 602.27 966.07 604.56 C 962.21 605.26 957.17 602.38 957.48 598.07 C 957.33 587.47 957.61 576.87 957.37 566.28 C 956.61 563.66 953.88 561.32 951.04 561.54 C 944.02 561.40 936.99 561.78 929.99 561.38 C 923.17 559.57 921.21 550.34 925.21 545.13 C 938.66 527.63 952.02 510.05 965.40 492.49 C 966.56 490.99 967.92 489.61 969.55 488.60 M 970.67 493.25 C 957.14 511.16 943.50 528.97 929.87 546.80 C 928.57 548.58 927.14 550.62 927.61 552.96 C 928.32 554.29 929.31 555.45 930.25 556.65 C 936.18 556.79 942.11 556.70 948.04 556.70 C 951.84 556.76 956.14 557.22 959.00 560.03 C 961.60 562.19 961.75 565.86 962.27 568.95 C 962.42 578.98 962.17 589.01 962.39 599.05 C 963.09 599.24 964.49 599.63 965.19 599.83 C 979.34 581.74 993.13 563.36 1007.06 545.11 C 1009.57 542.62 1008.70 537.83 1005.53 536.51 C 998.10 535.70 990.54 536.98 983.15 535.86 C 978.67 535.26 974.54 531.63 974.46 526.93 C 974.27 516.63 974.53 506.31 974.35 496.00 C 974.44 493.95 972.28 493.40 970.67 493.25 Z" />
<path fill="#fdfdfd" opacity="1.00" d=" M 145.63 531.94 C 146.40 529.72 148.22 530.65 149.32 532.03 C 149.62 539.67 149.43 547.33 149.42 554.99 C 149.89 557.33 147.40 557.53 145.72 557.50 C 145.40 548.99 145.46 540.45 145.63 531.94 Z" />
</g>
<g id="#5d6377ff">
<path fill="#5d6377" opacity="1.00" d=" M 596.76 532.96 C 596.55 530.89 598.94 527.47 600.52 530.37 C 601.20 538.75 600.78 547.24 600.64 555.66 C 599.54 555.63 598.44 555.60 597.36 555.59 C 596.18 548.11 596.65 540.49 596.76 532.96 Z" />
</g>
<g id="#595f73ff">
<path fill="#595f73" opacity="1.00" d=" M 675.92 537.27 C 677.25 536.85 678.59 536.46 679.94 536.07 C 681.91 539.55 683.61 543.18 685.81 546.54 C 687.36 542.95 689.01 539.40 691.14 536.11 C 692.42 536.48 693.70 536.86 695.00 537.25 C 694.75 542.26 691.73 546.41 689.82 550.87 C 688.72 553.07 687.54 556.50 684.39 555.67 C 682.75 554.14 681.87 552.02 680.87 550.07 C 678.91 545.93 676.36 541.93 675.92 537.27 Z" />
</g>
<g id="#989898ff">
<path fill="#989898" opacity="1.00" d=" M 155.82 537.06 C 157.27 537.57 158.68 538.21 160.17 538.64 C 163.20 538.07 166.53 535.90 169.30 538.36 C 164.79 538.86 160.27 540.13 155.72 539.17 C 155.92 545.07 154.63 551.20 156.44 556.93 C 156.77 556.88 157.44 556.78 157.77 556.72 C 159.04 552.51 157.76 547.84 159.68 543.76 C 159.93 548.44 159.77 553.13 159.56 557.81 C 158.11 557.79 156.66 557.72 155.21 557.67 C 155.27 550.81 154.18 543.78 155.82 537.06 Z" />
</g>
<g id="#5c6377ff">
<path fill="#5c6377" opacity="1.00" d=" M 607.32 555.79 C 606.71 549.27 606.10 542.60 607.65 536.16 C 608.85 536.89 610.07 537.64 611.27 538.41 C 614.58 536.79 618.96 535.15 622.14 537.92 C 625.14 541.16 624.39 545.94 624.52 549.99 C 624.18 552.21 625.40 556.22 621.85 555.78 C 619.55 550.91 621.43 545.25 619.92 540.13 C 617.35 539.91 614.04 538.74 612.26 541.32 C 609.20 545.31 610.99 550.79 610.49 555.45 C 609.43 555.56 608.37 555.67 607.32 555.79 Z" />
</g>
<g id="#ffffffff">
<path fill="#ffffff" opacity="1.00" d=" M 202.59 543.97 C 204.83 539.63 210.05 536.05 215.01 537.94 C 219.70 539.40 222.91 544.70 221.04 549.48 C 216.83 549.57 212.62 549.47 208.42 549.68 C 210.02 554.36 215.11 551.92 218.71 552.34 C 220.39 552.98 219.42 555.65 217.94 556.04 C 214.03 558.60 208.61 557.67 205.06 554.89 C 201.94 552.20 201.79 547.70 202.59 543.97 M 208.74 543.58 C 208.66 544.06 208.48 545.04 208.40 545.53 C 210.53 545.53 212.66 545.56 214.80 545.62 C 214.75 544.93 214.67 543.54 214.62 542.85 C 212.62 542.65 210.66 543.01 208.74 543.58 Z" />
</g>
<g id="#16181dff">
<path fill="#16181d" opacity="1.00" d=" M 660.88 541.68 C 662.85 541.01 664.94 541.56 666.95 541.79 C 666.83 542.49 666.58 543.90 666.45 544.61 C 664.33 544.55 662.20 544.51 660.08 544.48 C 660.31 543.53 660.58 542.60 660.88 541.68 Z" />
</g>
<g id="#010101ff">
<path fill="#010101" opacity="1.00" d=" M 705.43 542.23 C 706.70 541.33 708.38 541.41 709.85 541.68 C 713.91 543.51 712.84 551.17 707.99 550.81 C 703.64 551.06 702.84 544.49 705.43 542.23 Z" />
<path fill="#010101" opacity="1.00" d=" M 252.31 546.98 C 252.26 544.32 255.04 543.11 257.12 542.28 C 260.66 543.92 262.28 549.49 258.51 551.73 C 255.71 554.27 251.51 550.10 252.31 546.98 Z" />
</g>
<g id="#0f0f0fff">
<path fill="#0f0f0f" opacity="1.00" d=" M 208.74 543.58 C 210.66 543.01 212.62 542.65 214.62 542.85 C 214.67 543.54 214.75 544.93 214.80 545.62 C 212.66 545.56 210.53 545.53 208.40 545.53 C 208.48 545.04 208.66 544.06 208.74 543.58 Z" />
</g>
<g id="#d8dae7ff">
<path fill="#d8dae7" opacity="1.00" d=" M 1269.12 727.51 C 1272.50 726.62 1275.16 729.33 1277.53 731.30 C 1277.92 742.86 1277.47 754.44 1277.76 766.01 C 1278.83 768.39 1281.11 770.86 1283.98 770.48 C 1290.33 770.50 1296.68 770.44 1303.04 770.47 C 1307.22 770.05 1310.57 773.66 1312.13 777.19 C 1313.49 781.12 1311.75 785.12 1309.20 788.13 C 1295.07 806.20 1281.39 824.62 1267.04 842.51 C 1263.14 843.06 1257.64 843.43 1256.45 838.63 C 1255.67 826.81 1257.14 814.89 1255.47 803.13 C 1253.67 802.16 1252.04 800.49 1249.89 800.54 C 1243.57 800.46 1237.26 800.57 1230.95 800.53 C 1225.77 800.90 1221.33 796.01 1221.17 791.04 C 1220.68 787.49 1223.39 784.79 1225.20 782.08 C 1238.01 765.58 1250.74 749.01 1263.48 732.45 C 1265.06 730.51 1266.77 728.55 1269.12 727.51 M 1269.48 732.43 C 1255.18 750.81 1240.97 769.25 1226.85 787.76 C 1224.47 790.22 1226.38 793.64 1228.56 795.49 C 1235.98 796.24 1243.52 795.19 1250.94 796.00 C 1255.37 796.41 1259.34 799.68 1260.43 803.96 C 1260.78 815.25 1260.45 826.56 1260.60 837.86 C 1262.12 838.34 1264.36 839.34 1265.32 837.41 C 1279.08 819.51 1292.88 801.64 1306.67 783.77 C 1308.66 781.29 1308.07 776.42 1304.74 775.45 C 1296.69 774.62 1288.44 776.30 1280.51 774.39 C 1276.90 773.66 1274.08 770.49 1273.36 766.97 C 1272.57 755.48 1273.99 743.88 1272.55 732.45 C 1271.51 732.43 1270.49 732.43 1269.48 732.43 Z" />
</g>
<g id="#000000fc">
<path fill="#000000" opacity="1.00" d=" M 69.35 734.14 C 73.39 732.65 79.01 736.37 78.56 740.95 C 78.66 750.98 78.44 761.02 78.60 771.05 C 78.54 773.39 80.33 775.56 82.43 776.44 C 90.23 777.32 98.17 775.98 105.95 777.07 C 112.90 778.87 115.17 788.38 110.58 793.62 C 96.77 811.49 83.20 829.54 69.44 847.44 C 65.92 852.63 57.41 849.91 56.87 843.91 C 56.32 833.30 56.92 822.65 56.64 812.03 C 56.80 809.48 54.14 807.58 51.82 807.41 C 44.90 806.97 37.94 807.69 31.02 807.15 C 25.33 806.55 21.42 800.47 22.59 795.04 C 23.83 791.45 26.30 788.52 28.56 785.56 C 39.44 771.73 49.81 757.51 60.63 743.64 C 63.37 740.36 65.40 736.13 69.35 734.14 M 71.06 738.18 C 57.10 755.27 44.26 773.24 30.60 790.56 C 29.25 792.55 27.18 794.41 27.19 796.99 C 26.83 799.73 29.27 802.56 32.06 802.44 C 38.70 802.69 45.35 802.16 51.99 802.60 C 56.74 803.10 61.45 806.87 61.44 811.94 C 61.51 822.51 61.49 833.08 61.42 843.66 C 62.34 844.37 63.27 845.10 64.20 845.83 C 68.87 841.19 72.37 835.58 76.45 830.45 C 86.84 817.13 96.94 803.57 107.14 790.12 C 109.77 787.30 107.73 781.64 103.80 781.59 C 97.52 781.33 91.23 781.72 84.95 781.51 C 80.02 781.35 74.47 778.41 74.03 772.96 C 73.33 761.75 74.12 750.48 73.64 739.25 C 72.78 738.88 71.92 738.53 71.06 738.18 Z" />
<path fill="#000000" opacity="1.00" d=" M 964.42 747.42 C 966.82 744.36 968.97 740.43 973.04 739.44 C 975.96 739.56 979.10 741.00 980.39 743.78 C 980.32 752.86 980.40 761.94 980.24 771.02 C 980.18 774.16 980.30 777.40 981.58 780.34 C 982.83 781.43 984.28 782.59 986.05 782.59 C 992.71 782.90 999.38 782.41 1006.05 782.72 C 1008.80 782.76 1011.03 784.57 1013.33 785.86 C 1014.19 789.78 1014.75 793.82 1014.20 797.84 C 1001.21 814.67 988.47 831.70 975.66 848.67 C 973.25 851.73 970.93 855.41 966.98 856.58 C 964.01 856.44 961.12 854.87 959.53 852.34 C 960.43 840.59 959.98 828.79 959.90 817.02 L 958.42 816.96 C 959.09 828.20 959.23 839.48 958.71 850.72 C 958.40 844.49 959.11 838.22 958.52 831.99 C 957.88 827.00 958.33 821.97 958.11 816.96 C 958.15 814.87 956.11 812.90 954.03 813.08 C 947.01 813.29 939.96 813.65 932.96 813.16 C 925.42 812.11 922.92 801.87 927.44 796.44 C 939.74 780.09 952.09 763.76 964.42 747.42 M 972.38 744.59 C 959.09 762.85 945.08 780.57 931.67 798.73 C 930.54 800.51 928.95 802.62 929.81 804.84 C 930.55 806.62 932.07 808.54 934.22 808.44 C 940.80 808.74 947.40 808.21 953.99 808.60 C 959.30 809.03 964.32 813.46 964.39 818.99 C 964.71 828.67 964.24 838.38 964.43 848.08 C 964.33 849.67 965.29 851.02 965.97 852.41 C 971.10 847.63 974.83 841.61 979.22 836.19 C 989.13 822.84 999.29 809.66 1009.29 796.37 C 1011.84 793.56 1010.34 788.37 1006.57 787.65 C 1000.05 787.18 993.49 787.75 986.96 787.48 C 982.52 787.34 978.14 784.63 976.58 780.38 C 976.81 769.02 976.60 757.65 976.70 746.28 C 976.31 745.98 975.55 745.36 975.16 745.06 L 975.13 744.23 C 974.44 744.32 973.07 744.50 972.38 744.59 M 963.37 816.28 C 962.48 827.47 963.07 838.74 963.06 849.97 L 964.26 850.01 C 964.49 841.00 964.34 832.00 964.40 823.00 C 964.61 820.70 964.12 818.42 963.37 816.28 Z" />
</g>
<g id="#d8dae6fe">
<path fill="#d8dae6" opacity="1.00" d=" M 520.26 734.27 C 524.40 733.39 528.16 736.96 528.31 740.99 C 528.40 751.34 528.17 761.70 528.40 772.05 C 528.25 774.26 530.41 776.01 532.35 776.55 C 539.59 776.98 546.86 776.45 554.11 776.78 C 561.11 777.79 565.33 787.06 560.61 792.69 C 546.82 810.84 533.08 829.05 519.13 847.07 C 516.08 851.71 507.66 850.27 506.62 844.75 C 506.42 834.14 506.65 823.52 506.53 812.91 C 506.27 810.41 504.58 807.63 501.82 807.43 C 494.54 806.98 487.22 807.64 479.95 807.15 C 475.57 806.03 471.49 801.77 472.22 797.00 C 471.52 792.87 474.89 790.06 477.04 787.04 C 489.01 771.37 500.93 755.65 512.90 739.97 C 514.82 737.49 516.56 733.91 520.26 734.27 M 520.42 738.24 C 506.50 755.48 493.51 773.46 479.89 790.93 C 478.47 792.97 476.24 795.00 476.61 797.73 C 476.84 800.02 478.61 802.71 481.19 802.46 C 487.48 802.52 493.77 802.43 500.05 802.46 C 505.78 802.23 511.09 807.24 511.31 812.95 C 511.48 823.75 511.05 834.57 511.52 845.37 C 512.52 845.42 513.53 845.47 514.54 845.54 C 528.51 827.19 542.55 808.88 556.44 790.47 C 558.82 787.74 557.81 783.16 554.53 781.66 C 547.36 781.28 540.17 781.71 532.99 781.49 C 528.37 780.80 523.38 777.18 523.54 772.05 C 523.36 761.21 523.55 750.38 523.45 739.54 C 522.43 739.10 521.43 738.65 520.42 738.24 Z" />
</g>
<g id="#00000078">
<path fill="#000000" opacity="0.47" d=" M 980.39 743.78 C 981.50 746.00 981.84 748.48 981.72 750.96 C 981.51 760.75 981.80 770.54 981.58 780.34 C 980.30 777.40 980.18 774.16 980.24 771.02 C 980.40 761.94 980.32 752.86 980.39 743.78 Z" />
</g>
<g id="#00000069">
<path fill="#000000" opacity="0.41" d=" M 975.16 745.06 C 975.55 745.36 976.31 745.98 976.70 746.28 C 976.60 757.65 976.81 769.02 976.58 780.38 C 975.28 777.08 975.22 773.49 975.27 770.00 C 975.38 761.68 975.54 753.36 975.16 745.06 Z" />
</g>
<g id="#000000f6">
<path fill="#000000" opacity="0.96" d=" M 145.55 778.88 C 146.80 779.08 148.06 779.24 149.27 779.61 C 149.68 787.58 149.56 795.60 149.35 803.58 C 149.50 805.86 146.96 805.06 145.53 805.26 C 145.50 796.47 145.46 787.67 145.55 778.88 Z" />
</g>
<g id="#86888fa3">
<path fill="#86888f" opacity="0.64" d=" M 594.43 781.21 C 594.51 779.00 597.00 778.44 598.80 778.53 C 599.34 787.55 599.36 796.64 598.81 805.66 C 597.40 805.52 595.97 805.68 594.60 805.34 C 594.19 797.31 594.32 789.24 594.43 781.21 M 595.96 779.26 C 595.60 787.84 595.20 796.55 596.17 805.08 C 598.13 805.53 598.42 803.40 598.41 801.99 C 598.58 796.33 598.40 790.66 598.49 785.00 C 598.33 782.81 599.00 779.53 595.96 779.26 Z" />
</g>
<g id="#dbddeafe">
<path fill="#dbddea" opacity="1.00" d=" M 595.96 779.26 C 599.00 779.53 598.33 782.81 598.49 785.00 C 598.40 790.66 598.58 796.33 598.41 801.99 C 598.42 803.40 598.13 805.53 596.17 805.08 C 595.20 796.55 595.60 787.84 595.96 779.26 Z" />
</g>
<g id="#000000fd">
<path fill="#000000" opacity="1.00" d=" M 184.36 786.27 C 190.49 783.22 198.88 789.14 197.68 796.00 C 198.24 801.29 192.99 805.57 188.00 805.49 C 183.03 805.59 177.74 801.29 178.34 796.00 C 177.63 791.70 180.49 787.83 184.36 786.27 M 185.50 789.58 C 180.09 792.24 181.51 802.14 187.95 802.26 C 193.31 802.08 195.44 795.33 192.68 791.33 C 191.34 788.70 187.91 789.23 185.50 789.58 Z" />
<path fill="#000000" opacity="1.00" d=" M 223.99 787.01 C 225.68 786.26 227.59 785.18 229.23 786.70 C 231.17 789.80 232.34 793.32 234.01 796.58 C 236.19 792.63 237.03 787.68 240.99 785.00 C 242.15 786.25 244.39 787.42 243.26 789.44 C 241.33 794.00 239.28 798.55 237.03 802.97 C 236.24 804.97 233.18 806.70 231.86 804.23 C 228.55 798.85 226.10 792.95 223.99 787.01 Z" />
</g>
<g id="#000000fe">
<path fill="#000000" opacity="1.00" d=" M 202.50 792.24 C 203.58 789.29 206.30 787.10 209.19 786.01 C 215.51 783.45 224.01 790.53 220.95 797.22 C 216.62 797.81 212.23 797.34 207.89 797.86 C 208.77 798.69 209.62 799.58 210.59 800.33 C 213.51 801.14 216.75 799.49 219.55 800.90 C 219.97 803.28 217.60 804.39 215.75 805.09 C 211.67 806.22 206.99 804.97 204.06 801.90 C 201.74 799.29 202.04 795.45 202.50 792.24 M 209.34 790.90 C 209.31 791.60 209.25 792.98 209.22 793.68 C 211.51 793.60 213.81 793.55 216.10 793.49 C 214.69 790.89 212.07 790.44 209.34 790.90 Z" />
<path fill="#000000" opacity="1.00" d=" M 254.25 785.86 C 260.27 783.97 267.43 789.65 266.53 796.02 C 266.89 802.86 258.38 807.57 252.47 804.68 C 247.94 802.68 245.16 797.15 246.94 792.39 C 247.88 789.02 250.96 786.68 254.25 785.86 M 254.42 791.34 C 251.93 793.04 251.29 797.30 253.84 799.22 C 256.17 802.26 261.03 799.27 260.63 795.91 C 261.31 792.55 257.47 789.34 254.42 791.34 Z" />
</g>
<g id="#e0e2efff">
<path fill="#e0e2ef" opacity="1.00" d=" M 604.86 786.43 C 605.68 786.37 607.33 786.26 608.15 786.21 C 608.32 786.91 608.67 788.32 608.84 789.02 C 609.50 788.37 610.16 787.72 610.83 787.07 C 612.46 787.54 614.10 788.00 615.75 788.45 C 614.43 788.74 613.11 789.04 611.81 789.40 C 610.57 790.27 609.55 791.41 608.67 792.64 C 608.17 796.83 608.88 801.08 608.26 805.27 C 606.16 806.19 605.11 804.89 604.81 802.94 C 604.64 797.44 604.67 791.92 604.86 786.43 Z" />
</g>
<g id="#dee0ecff">
<path fill="#dee0ec" opacity="1.00" d=" M 610.83 787.07 C 614.88 783.76 621.39 786.12 622.36 791.22 C 622.65 795.93 622.42 800.66 622.44 805.38 C 620.98 805.43 619.38 805.59 618.76 803.96 C 618.08 799.15 619.75 793.95 617.34 789.49 C 615.49 789.41 613.65 789.37 611.81 789.40 C 613.11 789.04 614.43 788.74 615.75 788.45 C 614.10 788.00 612.46 787.54 610.83 787.07 Z" />
</g>
<g id="#dbdde9ff">
<path fill="#dbdde9" opacity="1.00" d=" M 632.67 786.83 C 637.48 783.79 644.51 786.30 646.53 791.54 C 649.03 796.26 646.41 802.69 641.56 804.73 C 635.69 807.64 627.28 802.93 628.19 796.01 C 627.64 792.24 629.18 788.55 632.67 786.83 M 634.30 789.48 C 632.89 791.39 631.14 793.42 631.58 796.00 C 631.49 799.88 635.92 803.72 639.65 801.75 C 644.50 799.79 644.79 792.25 640.39 789.62 C 638.38 789.19 636.32 789.41 634.30 789.48 Z" />
</g>
<g id="#d7d9e5ff">
<path fill="#d7d9e5" opacity="1.00" d=" M 656.85 786.94 C 660.66 784.07 666.02 785.63 669.03 788.91 C 671.28 790.95 671.43 794.96 670.05 797.42 C 665.95 797.68 661.83 797.39 657.73 797.67 C 659.59 801.51 664.24 801.16 667.48 799.26 C 668.29 800.46 669.10 801.85 668.47 803.34 C 664.38 806.80 657.42 806.17 653.98 802.05 C 649.83 797.66 651.37 789.55 656.85 786.94 M 658.07 791.41 C 658.07 792.49 658.04 793.57 658.05 794.68 C 660.41 794.69 662.77 794.69 665.14 794.68 C 665.06 793.43 664.99 792.20 664.93 790.97 C 662.62 790.61 660.30 790.77 658.07 791.41 Z" />
</g>
<g id="#d6d8e5ff">
<path fill="#d6d8e5" opacity="1.00" d=" M 674.08 786.78 C 674.91 786.39 676.55 785.62 677.37 785.23 C 680.00 788.16 681.40 791.91 682.65 795.59 C 683.08 795.59 683.95 795.61 684.38 795.61 C 685.37 792.35 686.85 789.28 688.44 786.28 C 689.86 786.28 691.29 786.30 692.73 786.35 C 692.67 788.08 693.01 789.97 692.06 791.55 C 690.16 795.24 688.34 798.98 686.66 802.78 C 685.99 804.47 684.12 806.21 682.23 805.12 C 680.11 803.29 679.52 800.43 678.21 798.09 C 676.61 794.41 673.81 791.00 674.08 786.78 Z" />
</g>
<g id="#00000080">
<path fill="#000000" opacity="0.50" d=" M 1013.33 785.86 C 1015.76 789.43 1016.74 794.02 1014.20 797.84 C 1014.75 793.82 1014.19 789.78 1013.33 785.86 Z" />
</g>
<g id="#d6d8e4fe">
<path fill="#d6d8e4" opacity="1.00" d=" M 701.17 786.82 C 704.69 785.93 709.15 785.42 712.27 787.72 C 717.78 791.32 717.48 800.48 711.86 803.82 C 706.65 807.47 697.87 804.97 696.31 798.53 C 694.82 794.10 697.02 788.93 701.17 786.82 M 702.93 791.81 C 701.50 794.21 701.09 797.73 703.63 799.57 C 705.09 801.28 707.71 800.66 709.06 799.12 C 711.50 797.23 709.86 793.89 709.30 791.49 C 707.19 791.33 704.89 790.74 702.93 791.81 Z" />
</g>
<g id="#0000008b">
<path fill="#000000" opacity="0.55" d=" M 172.41 788.64 C 174.06 794.05 174.74 800.20 172.45 805.52 C 172.31 799.89 172.31 794.26 172.41 788.64 Z" />
</g>
<g id="#00000016">
<path fill="#000000" opacity="0.09" d=" M 209.34 790.90 C 212.07 790.44 214.69 790.89 216.10 793.49 C 213.81 793.55 211.51 793.60 209.22 793.68 C 209.25 792.98 209.31 791.60 209.34 790.90 Z" />
</g>
<g id="#00000089">
<path fill="#000000" opacity="0.54" d=" M 958.42 816.96 L 959.90 817.02 C 959.98 828.79 960.43 840.59 959.53 852.34 C 959.33 851.94 958.92 851.13 958.71 850.72 C 959.23 839.48 959.09 828.20 958.42 816.96 Z" />
</g>
<g id="#000000b3">
<path fill="#000000" opacity="0.70" d=" M 963.37 816.28 C 964.12 818.42 964.61 820.70 964.40 823.00 C 964.34 832.00 964.49 841.00 964.26 850.01 L 963.06 849.97 C 963.07 838.74 962.48 827.47 963.37 816.28 Z" />
</g>
</svg>
