<?xml version="1.0" encoding="UTF-8" ?>
<!DOCTYPE svg PUBLIC "-//W3C//DTD SVG 1.1//EN" "http://www.w3.org/Graphics/SVG/1.1/DTD/svg11.dtd">
<svg width="800pt" height="200pt" viewBox="0 0 800 200" version="1.1" xmlns="http://www.w3.org/2000/svg">
<g id="#af876aff">
<path fill="#af876a" opacity="1.00" d=" M 301.20 26.52 C 324.58 25.30 347.94 23.80 371.33 22.79 C 371.36 23.90 371.39 25.01 371.43 26.13 C 372.33 42.07 373.46 58.00 373.85 73.96 C 369.72 74.17 365.58 74.27 361.45 74.33 C 360.77 63.58 360.41 52.82 359.60 42.08 C 359.51 38.77 356.24 36.29 353.03 36.71 C 342.08 37.29 331.12 37.80 320.19 38.55 C 317.33 38.65 314.63 41.06 314.71 44.01 C 314.64 50.69 315.55 57.33 315.66 64.00 C 311.39 64.01 307.13 63.99 302.87 63.98 C 302.73 51.48 301.47 39.02 301.20 26.52 Z" />
<path fill="#af876a" opacity="1.00" d=" M 346.16 42.38 C 348.44 42.27 350.73 42.04 353.03 42.14 C 355.38 43.40 354.46 46.77 354.63 48.98 C 354.82 50.36 353.01 50.45 352.09 50.57 C 350.03 50.81 347.94 50.77 345.93 50.23 C 345.82 47.61 345.28 44.92 346.16 42.38 Z" />
<path fill="#af876a" opacity="1.00" d=" M 334.24 52.30 C 339.60 49.42 347.27 53.74 346.87 60.01 C 347.31 67.08 337.48 71.43 332.41 66.56 C 327.50 63.00 328.62 54.55 334.24 52.30 Z" />
<path fill="#af876a" opacity="1.00" d=" M 351.65 55.89 C 352.53 55.88 354.29 55.88 355.17 55.88 C 355.50 62.08 355.69 68.30 356.25 74.50 C 346.36 74.61 336.48 75.06 326.59 75.11 C 326.58 72.98 326.57 70.85 326.57 68.72 C 330.38 72.79 336.18 75.41 341.76 73.69 C 349.40 71.97 354.07 63.29 351.65 55.89 Z" />
<path fill="#af876a" opacity="1.00" d=" M 320.63 57.79 C 321.81 57.73 322.99 57.67 324.18 57.61 C 324.22 59.74 324.27 61.87 324.44 64.00 C 323.25 63.98 322.07 63.97 320.89 63.98 C 320.80 61.92 320.71 59.85 320.63 57.79 Z" />
</g>
<g id="#0000007a">
<path fill="#000000" opacity="0.48" d=" M 371.43 26.13 C 372.17 26.29 373.66 26.60 374.40 26.76 C 375.24 28.73 375.58 30.86 375.54 33.00 C 375.53 37.36 376.55 41.64 376.48 46.00 C 376.45 49.67 376.40 53.36 376.95 57.00 C 377.79 62.60 377.37 68.28 377.59 73.92 C 376.34 73.92 375.09 73.93 373.85 73.96 C 373.46 58.00 372.33 42.07 371.43 26.13 Z" />
</g>
<g id="#1c6f00ff">
<path fill="#1c6f00" opacity="1.00" d=" M 395.42 30.22 C 402.60 30.59 409.79 31.06 416.99 31.00 C 426.70 30.92 436.38 31.87 446.08 32.04 C 446.08 33.40 446.09 34.76 446.06 36.12 C 445.61 44.93 445.48 53.75 445.04 62.56 C 436.55 61.28 428.04 60.20 419.56 58.93 C 418.20 58.18 416.91 57.36 415.60 56.54 C 419.31 54.65 422.95 52.63 426.75 50.94 C 429.83 52.87 434.12 52.34 436.12 49.19 C 438.73 44.66 432.87 38.93 428.36 41.23 C 426.25 42.31 425.65 44.76 425.00 46.83 C 421.58 48.71 418.03 50.35 414.31 51.52 C 412.50 50.61 410.49 49.83 408.45 50.40 C 405.20 52.16 403.61 56.85 406.07 59.90 C 407.16 62.01 409.64 62.06 411.70 62.33 C 411.20 65.99 410.69 69.66 410.20 73.33 C 404.85 73.47 399.49 73.57 394.14 73.64 C 394.41 59.16 395.06 44.70 395.42 30.22 Z" />
</g>
<g id="#ffffffff">
<path fill="#ffffff" opacity="1.00" d=" M 320.19 38.55 C 331.12 37.80 342.08 37.29 353.03 36.71 C 356.24 36.29 359.51 38.77 359.60 42.08 C 360.41 52.82 360.77 63.58 361.45 74.33 C 359.71 74.37 357.98 74.43 356.25 74.50 C 355.69 68.30 355.50 62.08 355.17 55.88 C 354.29 55.88 352.53 55.88 351.65 55.89 C 354.07 63.29 349.40 71.97 341.76 73.69 C 336.18 75.41 330.38 72.79 326.57 68.72 C 326.56 67.17 326.56 65.62 326.57 64.08 C 326.03 64.06 324.97 64.02 324.44 64.00 C 324.27 61.87 324.22 59.74 324.18 57.61 C 322.99 57.67 321.81 57.73 320.63 57.79 C 320.71 59.85 320.80 61.92 320.89 63.98 C 319.14 63.99 317.40 64.00 315.66 64.00 C 315.55 57.33 314.64 50.69 314.71 44.01 C 314.63 41.06 317.33 38.65 320.19 38.55 M 346.16 42.38 C 345.28 44.92 345.82 47.61 345.93 50.23 C 347.94 50.77 350.03 50.81 352.09 50.57 C 353.01 50.45 354.82 50.36 354.63 48.98 C 354.46 46.77 355.38 43.40 353.03 42.14 C 350.73 42.04 348.44 42.27 346.16 42.38 M 334.24 52.30 C 328.62 54.55 327.50 63.00 332.41 66.56 C 337.48 71.43 347.31 67.08 346.87 60.01 C 347.27 53.74 339.60 49.42 334.24 52.30 Z" />
<path fill="#ffffff" opacity="1.00" d=" M 428.36 41.23 C 432.87 38.93 438.73 44.66 436.12 49.19 C 434.12 52.34 429.83 52.87 426.75 50.94 C 422.95 52.63 419.31 54.65 415.60 56.54 C 416.91 57.36 418.20 58.18 419.56 58.93 C 417.19 58.59 414.83 58.26 412.47 57.94 C 412.20 59.40 411.93 60.86 411.70 62.33 C 409.64 62.06 407.16 62.01 406.07 59.90 C 403.61 56.85 405.20 52.16 408.45 50.40 C 410.49 49.83 412.50 50.61 414.31 51.52 C 418.03 50.35 421.58 48.71 425.00 46.83 C 425.65 44.76 426.25 42.31 428.36 41.23 Z" />
<path fill="#ffffff" opacity="1.00" d=" M 511.83 77.09 C 511.49 69.44 518.65 63.29 525.95 63.05 C 532.49 62.84 540.20 66.15 541.95 73.01 C 543.35 80.03 540.21 88.71 533.11 91.36 C 529.46 92.77 525.64 91.19 522.82 88.82 C 521.12 93.27 519.41 98.24 515.02 100.75 C 514.86 94.70 517.28 89.09 519.54 83.62 C 521.43 79.96 518.99 74.67 523.10 72.06 C 525.15 69.90 529.22 72.04 528.55 74.96 C 527.73 78.74 525.13 81.93 524.90 85.88 C 527.11 88.11 530.68 88.13 532.83 85.77 C 536.93 81.58 538.84 73.37 533.89 69.10 C 527.61 63.72 516.68 68.91 516.31 77.03 C 516.78 79.50 517.69 81.96 516.87 84.50 C 513.69 83.55 511.30 80.50 511.83 77.09 Z" />
<path fill="#ffffff" opacity="1.00" d=" M 438.17 77.28 C 444.61 76.93 451.00 78.35 457.33 79.38 C 455.08 80.67 452.60 81.84 450.04 80.70 C 452.24 84.77 453.70 89.90 451.07 94.14 C 449.58 97.88 443.78 98.65 443.71 102.98 C 446.00 107.01 450.77 109.89 450.93 114.93 C 451.66 121.23 445.90 126.50 440.06 127.47 C 433.22 128.42 425.34 127.40 420.51 121.96 L 420.41 121.70 C 419.76 119.42 419.58 117.03 419.70 114.67 C 421.89 107.25 431.27 106.31 437.78 107.11 C 437.48 104.78 437.42 102.44 437.57 100.11 C 433.05 99.81 428.51 97.39 427.07 92.87 C 424.32 85.58 430.79 77.67 438.17 77.28 M 436.42 79.74 C 432.07 82.55 432.15 88.65 433.94 92.96 C 435.09 96.13 438.31 99.55 442.00 98.08 C 445.12 97.35 446.20 93.89 446.28 91.06 C 446.13 87.30 445.44 83.16 442.55 80.48 C 440.93 78.87 438.41 79.13 436.42 79.74 M 436.07 109.19 C 433.28 109.18 430.28 109.29 427.97 111.05 C 424.71 113.12 424.48 118.29 427.15 120.94 C 430.76 124.74 436.67 125.90 441.60 124.43 C 445.75 123.40 447.22 117.60 444.68 114.41 C 442.52 111.71 440.03 108.36 436.07 109.19 Z" />
<path fill="#ffffff" opacity="1.00" d=" M 464.87 80.57 C 466.13 80.73 467.40 80.89 468.68 81.05 C 468.43 83.16 468.04 85.25 467.70 87.34 C 468.98 89.48 472.28 88.27 474.36 88.95 C 474.35 89.89 474.34 91.76 474.33 92.69 C 472.12 92.43 469.94 92.06 467.74 91.81 C 465.86 93.43 466.77 96.33 466.30 98.52 C 465.03 98.45 463.77 98.39 462.52 98.32 C 462.75 96.01 463.11 93.72 463.57 91.44 C 461.21 90.85 458.81 90.50 456.41 90.29 C 456.74 89.04 457.07 87.80 457.42 86.56 C 459.62 87.05 461.86 87.38 464.11 87.56 C 464.35 85.23 464.61 82.90 464.87 80.57 Z" />
<path fill="#ffffff" opacity="1.00" d=" M 564.56 81.68 C 566.07 81.80 567.60 81.94 569.13 82.10 C 569.75 84.88 570.49 87.63 571.29 90.37 C 572.40 87.70 573.40 84.99 574.31 82.24 C 575.82 82.34 577.34 82.45 578.87 82.55 C 577.11 86.42 575.14 90.20 573.52 94.12 C 572.89 97.12 573.07 100.22 572.87 103.27 C 571.40 103.12 569.94 102.96 568.48 102.81 C 568.54 99.22 569.41 95.44 567.99 92.00 C 566.74 88.60 565.69 85.12 564.56 81.68 Z" />
<path fill="#ffffff" opacity="1.00" d=" M 288.76 86.73 C 292.89 82.36 300.22 82.90 304.39 86.94 C 306.65 86.16 308.87 85.29 311.09 84.40 C 310.00 86.51 308.62 88.47 307.00 90.22 C 308.34 89.81 311.01 88.99 312.34 88.58 C 310.84 90.71 309.03 92.59 307.07 94.30 C 307.17 102.91 303.82 111.58 297.51 117.51 C 287.92 126.77 271.78 127.97 260.78 120.56 C 266.18 120.90 271.52 119.55 276.02 116.54 C 271.58 116.01 267.90 113.02 266.29 108.88 C 267.32 108.92 269.37 109.00 270.40 109.04 C 266.17 107.08 262.50 103.15 262.99 98.17 C 263.99 98.56 265.98 99.34 266.98 99.73 C 262.95 96.07 261.97 90.26 264.14 85.35 C 269.66 91.63 277.36 95.78 285.70 96.64 C 285.57 93.12 285.96 89.22 288.76 86.73 Z" />
<path fill="#ffffff" opacity="1.00" d=" M 580.38 88.45 C 583.26 86.78 588.22 87.49 589.36 90.99 C 589.27 94.84 589.76 98.92 588.40 102.58 C 586.01 105.52 581.03 105.05 578.60 102.39 C 577.90 100.02 578.34 97.50 578.32 95.06 C 578.51 92.78 577.89 89.73 580.38 88.45 M 582.71 91.54 C 582.30 94.68 582.13 97.84 582.13 101.01 C 582.60 101.14 583.54 101.42 584.01 101.55 L 584.85 101.02 C 585.45 97.67 585.51 94.22 585.25 90.84 C 584.62 91.01 583.35 91.36 582.71 91.54 Z" />
<path fill="#ffffff" opacity="1.00" d=" M 154.62 99.36 C 157.86 95.69 160.56 91.22 164.99 88.88 C 167.72 87.42 170.42 90.21 171.31 92.61 C 173.86 97.94 173.46 105.24 179.14 108.57 C 180.48 106.84 181.74 104.99 182.22 102.80 C 182.59 107.21 183.07 111.61 183.52 116.01 C 181.08 118.97 176.83 122.90 172.94 119.94 C 167.52 114.26 166.68 105.84 161.94 99.68 C 159.44 99.60 156.83 101.23 154.62 99.36 Z" />
<path fill="#ffffff" opacity="1.00" d=" M 592.52 104.64 C 590.50 99.40 592.60 93.79 592.44 88.38 C 593.43 88.43 595.41 88.52 596.39 88.57 C 596.11 93.07 595.94 97.58 595.83 102.09 C 596.77 101.71 597.72 101.32 598.67 100.93 C 598.81 96.78 599.19 92.63 599.46 88.48 C 600.81 88.76 602.15 89.10 603.49 89.48 C 602.71 94.62 602.57 99.81 602.46 104.99 C 600.91 104.73 598.96 105.16 598.00 103.60 C 596.36 104.73 594.40 104.65 592.52 104.64 Z" />
<path fill="#ffffff" opacity="1.00" d=" M 199.69 92.86 C 202.91 92.02 206.60 94.47 206.60 97.94 C 207.31 104.11 196.82 105.84 195.26 100.00 C 193.98 96.81 196.48 93.40 199.69 92.86 Z" />
<path fill="#ffffff" opacity="1.00" d=" M 364.57 95.59 C 370.25 90.49 378.81 90.95 385.75 92.46 C 385.22 95.52 384.77 98.60 384.40 101.69 C 381.73 101.52 379.06 101.45 376.40 101.50 C 373.29 103.99 374.35 108.25 374.20 111.71 C 377.62 112.47 381.19 111.40 384.54 112.25 C 384.24 115.19 383.94 118.13 383.64 121.07 C 380.58 121.32 377.52 121.37 374.45 121.39 C 374.76 132.08 374.76 142.78 375.24 153.47 C 371.25 153.92 367.25 154.34 363.23 154.34 C 362.62 143.48 362.63 132.58 362.43 121.71 C 360.20 121.72 357.98 121.72 355.76 121.70 C 355.78 118.61 355.75 115.53 355.68 112.44 C 357.78 112.45 359.89 112.46 362.00 112.48 C 362.71 106.86 360.14 100.18 364.57 95.59 Z" />
<path fill="#ffffff" opacity="1.00" d=" M 222.77 108.96 C 226.64 102.65 236.80 101.78 241.30 107.78 C 245.33 113.19 244.13 120.35 245.43 126.60 C 245.54 129.10 245.70 131.59 245.92 134.08 C 242.55 134.26 239.19 134.49 235.83 134.77 C 234.94 128.85 234.85 122.83 233.80 116.93 C 233.44 114.89 232.14 112.47 229.81 112.41 C 226.67 111.84 223.44 114.70 223.74 117.90 C 224.31 123.81 224.79 129.74 225.55 135.63 C 222.08 136.30 218.54 136.56 215.01 136.71 C 214.24 126.58 213.08 116.48 212.13 106.37 C 215.58 105.93 219.04 105.56 222.51 105.28 C 222.57 106.20 222.71 108.04 222.77 108.96 Z" />
<path fill="#ffffff" opacity="1.00" d=" M 564.37 106.46 C 565.71 105.54 567.40 105.55 568.97 105.47 C 577.01 105.54 585.02 106.03 593.03 106.62 C 596.98 106.85 602.35 106.40 604.47 110.54 C 605.21 115.35 604.63 120.29 604.26 125.12 C 603.94 128.17 601.08 130.19 598.12 130.07 C 587.40 129.87 576.66 129.39 566.00 128.38 C 562.51 127.78 560.60 124.33 561.23 120.97 C 561.90 116.22 560.02 109.81 564.37 106.46 M 564.82 109.18 L 565.03 110.97 C 566.00 111.18 566.98 111.38 567.97 111.59 C 567.86 115.84 567.05 120.11 567.66 124.36 C 568.35 124.34 569.74 124.31 570.43 124.30 C 570.56 120.05 570.74 115.81 570.82 111.56 C 571.90 111.54 572.99 111.52 574.09 111.50 L 574.37 109.50 C 571.31 108.88 567.76 107.75 564.82 109.18 M 584.46 109.59 C 583.93 114.74 583.99 119.92 583.61 125.08 C 585.85 124.86 588.55 126.12 590.55 124.87 C 591.45 121.69 590.99 118.27 591.26 115.00 C 590.40 114.61 588.68 113.82 587.82 113.43 C 587.84 114.55 587.86 115.68 587.90 116.80 L 588.93 115.65 C 588.64 118.29 588.49 120.95 588.42 123.61 C 587.88 123.61 586.80 123.62 586.27 123.63 C 586.69 121.11 585.55 117.73 587.46 115.84 C 587.06 115.48 586.66 115.13 586.26 114.78 C 586.58 113.02 588.08 108.70 584.46 109.59 M 574.23 113.14 C 573.92 116.92 573.84 120.71 573.62 124.49 C 576.04 124.51 578.48 124.29 580.86 124.90 C 580.99 121.22 581.15 117.55 581.38 113.88 C 580.74 113.84 579.44 113.77 578.80 113.73 C 578.60 116.76 578.84 119.85 578.14 122.83 L 576.39 122.27 C 576.39 119.30 576.68 116.33 576.72 113.36 C 575.88 113.29 575.05 113.22 574.23 113.14 M 593.40 123.11 C 593.10 125.29 595.54 125.69 596.96 126.54 C 599.33 126.12 600.76 124.53 601.08 122.18 C 600.41 122.12 599.08 122.02 598.42 121.97 C 598.31 122.54 598.10 123.69 598.00 124.26 C 595.15 125.04 595.63 122.43 595.62 120.51 C 597.37 120.57 599.12 120.63 600.88 120.71 C 601.13 118.80 601.42 116.55 599.93 115.05 C 598.43 114.31 596.56 114.24 595.01 114.80 C 592.61 116.85 593.59 120.36 593.40 123.11 Z" />
<path fill="#ffffff" opacity="1.00" d=" M 196.56 107.73 C 200.04 107.44 203.52 107.15 207.02 107.10 C 207.78 117.21 209.10 127.27 209.78 137.39 C 206.35 137.60 202.94 137.97 199.55 138.44 C 198.46 128.21 197.53 117.97 196.56 107.73 Z" />
<path fill="#ffffff" opacity="1.00" d=" M 595.63 118.17 C 595.71 116.33 597.06 116.17 598.54 116.37 C 598.56 116.99 598.61 118.22 598.63 118.84 C 597.57 118.79 596.57 118.57 595.63 118.17 Z" />
<path fill="#ffffff" opacity="1.00" d=" M 493.91 122.08 C 510.88 121.75 527.72 130.70 536.91 144.97 C 542.06 152.71 544.85 162.02 544.61 171.32 C 541.32 171.34 538.04 171.34 534.75 171.33 C 534.78 161.08 530.55 150.91 523.15 143.81 C 515.63 136.00 504.76 131.85 494.01 131.68 C 493.89 128.48 493.88 125.28 493.91 122.08 Z" />
<path fill="#ffffff" opacity="1.00" d=" M 493.91 138.58 C 502.22 138.72 510.61 141.57 516.72 147.32 C 523.57 153.28 527.61 162.26 527.53 171.34 C 524.24 171.33 520.95 171.33 517.66 171.35 C 517.48 163.42 513.20 155.66 506.24 151.74 C 502.56 149.37 498.22 148.47 493.92 148.21 C 493.90 145.00 493.90 141.79 493.91 138.58 Z" />
<path fill="#ffffff" opacity="1.00" d=" M 494.94 160.99 C 496.20 158.87 498.70 158.29 500.88 157.57 C 503.96 158.47 507.48 160.30 507.62 163.96 C 508.22 168.57 503.22 172.22 498.94 170.94 C 494.56 170.26 492.34 164.51 494.94 160.99 Z" />
</g>
<g id="#0000009f">
<path fill="#000000" opacity="0.62" d=" M 446.06 36.12 C 446.72 36.46 448.05 37.13 448.72 37.46 C 448.66 45.99 448.62 54.51 448.49 63.04 C 447.33 62.88 446.18 62.72 445.04 62.56 C 445.48 53.75 445.61 44.93 446.06 36.12 Z" />
</g>
<g id="#ea7b97ff">
<path fill="#ea7b97" opacity="1.00" d=" M 499.99 47.92 C 519.94 50.64 539.89 53.42 559.84 56.12 L 559.88 56.68 C 559.62 60.44 559.03 64.17 558.54 67.91 C 555.26 67.79 551.99 67.62 548.71 67.44 C 548.10 80.97 547.41 94.48 546.58 107.99 C 528.32 107.99 510.07 108.03 491.82 107.97 C 493.57 97.41 494.63 86.75 496.28 76.17 C 497.47 66.75 498.94 57.36 499.99 47.92 M 511.83 77.09 C 511.30 80.50 513.69 83.55 516.87 84.50 C 517.69 81.96 516.78 79.50 516.31 77.03 C 516.68 68.91 527.61 63.72 533.89 69.10 C 538.84 73.37 536.93 81.58 532.83 85.77 C 530.68 88.13 527.11 88.11 524.90 85.88 C 525.13 81.93 527.73 78.74 528.55 74.96 C 529.22 72.04 525.15 69.90 523.10 72.06 C 518.99 74.67 521.43 79.96 519.54 83.62 C 517.28 89.09 514.86 94.70 515.02 100.75 C 519.41 98.24 521.12 93.27 522.82 88.82 C 525.64 91.19 529.46 92.77 533.11 91.36 C 540.21 88.71 543.35 80.03 541.95 73.01 C 540.20 66.15 532.49 62.84 525.95 63.05 C 518.65 63.29 511.49 69.44 511.83 77.09 Z" />
</g>
<g id="#0000007e">
<path fill="#000000" opacity="0.49" d=" M 558.54 67.91 C 559.03 64.17 559.62 60.44 559.88 56.68 C 560.03 57.14 560.31 58.06 560.45 58.52 C 561.40 59.22 562.40 59.88 563.39 60.54 C 563.42 63.05 563.44 65.56 563.45 68.06 C 567.91 68.41 572.49 67.45 576.86 68.69 C 570.73 69.56 564.67 67.83 558.54 67.91 Z" />
</g>
<g id="#db4a39ff">
<path fill="#db4a39" opacity="1.00" d=" M 412.47 57.94 C 414.83 58.26 417.19 58.59 419.56 58.93 C 428.04 60.20 436.55 61.28 445.04 62.56 C 446.18 62.72 447.33 62.88 448.49 63.04 C 462.81 65.11 477.16 66.97 491.44 69.22 C 491.39 70.13 491.29 71.95 491.24 72.86 L 490.18 71.07 C 490.28 73.30 490.32 75.53 490.37 77.76 C 488.98 87.84 487.47 97.90 486.20 108.00 C 483.99 108.00 481.78 108.00 479.58 108.00 C 479.45 121.41 479.56 134.82 479.53 148.22 C 470.44 147.05 461.40 145.54 452.30 144.46 C 448.33 147.80 443.98 150.64 439.98 153.94 C 436.95 151.02 434.71 147.43 432.22 144.07 C 430.06 139.69 424.56 140.71 420.53 140.01 C 420.47 134.00 419.86 127.97 420.51 121.96 C 425.34 127.40 433.22 128.42 440.06 127.47 C 445.90 126.50 451.66 121.23 450.93 114.93 C 450.77 109.89 446.00 107.01 443.71 102.98 C 443.78 98.65 449.58 97.88 451.07 94.14 C 453.70 89.90 452.24 84.77 450.04 80.70 C 452.60 81.84 455.08 80.67 457.33 79.38 C 451.00 78.35 444.61 76.93 438.17 77.28 C 430.79 77.67 424.32 85.58 427.07 92.87 C 428.51 97.39 433.05 99.81 437.57 100.11 C 437.42 102.44 437.48 104.78 437.78 107.11 C 431.27 106.31 421.89 107.25 419.70 114.67 L 419.60 115.27 C 419.48 101.24 418.99 87.22 418.67 73.19 C 415.84 73.23 413.02 73.27 410.20 73.33 C 410.69 69.66 411.20 65.99 411.70 62.33 C 411.93 60.86 412.20 59.40 412.47 57.94 M 464.87 80.57 C 464.61 82.90 464.35 85.23 464.11 87.56 C 461.86 87.38 459.62 87.05 457.42 86.56 C 457.07 87.80 456.74 89.04 456.41 90.29 C 458.81 90.50 461.21 90.85 463.57 91.44 C 463.11 93.72 462.75 96.01 462.52 98.32 C 463.77 98.39 465.03 98.45 466.30 98.52 C 466.77 96.33 465.86 93.43 467.74 91.81 C 469.94 92.06 472.12 92.43 474.33 92.69 C 474.34 91.76 474.35 89.89 474.36 88.95 C 472.28 88.27 468.98 89.48 467.70 87.34 C 468.04 85.25 468.43 83.16 468.68 81.05 C 467.40 80.89 466.13 80.73 464.87 80.57 Z" />
<path fill="#db4a39" opacity="1.00" d=" M 436.42 79.74 C 438.41 79.13 440.93 78.87 442.55 80.48 C 445.44 83.16 446.13 87.30 446.28 91.06 C 446.20 93.89 445.12 97.35 442.00 98.08 C 438.31 99.55 435.09 96.13 433.94 92.96 C 432.15 88.65 432.07 82.55 436.42 79.74 Z" />
<path fill="#db4a39" opacity="1.00" d=" M 436.07 109.19 C 440.03 108.36 442.52 111.71 444.68 114.41 C 447.22 117.60 445.75 123.40 441.60 124.43 C 436.67 125.90 430.76 124.74 427.15 120.94 C 424.48 118.29 424.71 113.12 427.97 111.05 C 430.28 109.29 433.28 109.18 436.07 109.19 Z" />
</g>
<g id="#008ec2ff">
<path fill="#008ec2" opacity="1.00" d=" M 246.52 64.00 C 265.31 63.99 284.09 64.02 302.87 63.98 C 307.13 63.99 311.39 64.01 315.66 64.00 C 317.40 64.00 319.14 63.99 320.89 63.98 C 322.07 63.97 323.25 63.98 324.44 64.00 C 324.97 64.02 326.03 64.06 326.57 64.08 C 326.56 65.62 326.56 67.17 326.57 68.72 C 326.57 70.85 326.58 72.98 326.59 75.11 C 324.99 75.15 323.39 75.19 321.80 75.23 C 321.45 81.14 321.72 87.07 321.86 92.99 C 322.69 109.98 322.26 127.00 323.11 143.99 C 314.82 144.08 306.53 143.93 298.25 144.09 C 294.56 147.92 290.76 151.63 287.00 155.38 C 284.41 152.82 281.88 150.21 279.32 147.62 C 278.14 146.43 276.97 145.23 275.80 144.03 C 270.66 144.01 265.53 144.03 260.40 144.02 C 255.75 144.04 251.11 144.04 246.47 143.81 C 246.43 140.56 246.25 137.31 245.92 134.08 C 245.70 131.59 245.54 129.10 245.43 126.60 C 245.92 124.09 246.48 121.57 246.46 118.99 C 246.35 103.99 246.35 88.99 246.48 74.00 C 246.52 70.66 246.51 67.33 246.52 64.00 M 288.76 86.73 C 285.96 89.22 285.57 93.12 285.70 96.64 C 277.36 95.78 269.66 91.63 264.14 85.35 C 261.97 90.26 262.95 96.07 266.98 99.73 C 265.98 99.34 263.99 98.56 262.99 98.17 C 262.50 103.15 266.17 107.08 270.40 109.04 C 269.37 109.00 267.32 108.92 266.29 108.88 C 267.90 113.02 271.58 116.01 276.02 116.54 C 271.52 119.55 266.18 120.90 260.78 120.56 C 271.78 127.97 287.92 126.77 297.51 117.51 C 303.82 111.58 307.17 102.91 307.07 94.30 C 309.03 92.59 310.84 90.71 312.34 88.58 C 311.01 88.99 308.34 89.81 307.00 90.22 C 308.62 88.47 310.00 86.51 311.09 84.40 C 308.87 85.29 306.65 86.16 304.39 86.94 C 300.22 82.90 292.89 82.36 288.76 86.73 Z" />
</g>
<g id="#b7d331ff">
<path fill="#b7d331" opacity="1.00" d=" M 140.23 77.53 C 160.81 74.39 181.33 70.76 201.94 67.78 C 202.59 71.26 203.15 74.75 203.72 78.24 C 195.88 79.01 188.04 79.82 180.19 80.50 C 180.33 83.01 180.45 85.51 180.68 88.01 C 179.33 90.16 178.22 92.45 177.32 94.82 C 178.69 94.81 180.07 94.81 181.45 94.80 C 181.65 97.47 181.96 100.13 182.22 102.80 C 181.74 104.99 180.48 106.84 179.14 108.57 C 173.46 105.24 173.86 97.94 171.31 92.61 C 170.42 90.21 167.72 87.42 164.99 88.88 C 160.56 91.22 157.86 95.69 154.62 99.36 C 156.83 101.23 159.44 99.60 161.94 99.68 C 166.68 105.84 167.52 114.26 172.94 119.94 C 176.83 122.90 181.08 118.97 183.52 116.01 C 184.29 123.69 185.09 131.37 185.75 139.06 C 184.77 140.37 183.79 141.69 182.82 143.01 C 181.70 142.29 180.56 141.57 179.45 140.83 C 179.11 140.55 178.44 139.98 178.10 139.70 C 176.37 138.32 174.57 137.06 172.79 135.77 C 166.21 136.63 159.69 137.84 153.14 138.86 C 152.08 138.99 151.02 139.10 149.96 139.21 C 147.00 118.61 143.41 98.10 140.23 77.53 Z" />
</g>
<g id="#0000008f">
<path fill="#000000" opacity="0.56" d=" M 201.94 67.78 C 202.02 68.00 202.18 68.44 202.26 68.66 C 203.21 71.92 205.39 74.66 206.13 78.01 C 205.52 78.07 204.32 78.18 203.72 78.24 C 203.15 74.75 202.59 71.26 201.94 67.78 Z" />
<path fill="#000000" opacity="0.56" d=" M 492.18 72.89 C 494.56 75.44 493.57 79.17 493.36 82.30 C 491.96 90.84 490.77 99.42 489.59 108.00 C 488.74 108.00 487.04 108.00 486.20 108.00 C 487.47 97.90 488.98 87.84 490.37 77.76 C 490.87 76.10 491.39 74.44 492.18 72.89 Z" />
</g>
<g id="#cc0033ff">
<path fill="#cc0033" opacity="1.00" d=" M 546.58 107.99 C 547.41 94.48 548.10 80.97 548.71 67.44 C 551.99 67.62 555.26 67.79 558.54 67.91 C 564.67 67.83 570.73 69.56 576.86 68.69 C 591.69 69.86 606.57 70.41 621.43 71.18 C 620.36 95.46 619.11 119.75 617.62 144.02 C 609.12 143.79 600.61 142.63 592.12 142.97 C 588.29 145.80 584.90 149.19 581.44 152.46 C 578.58 149.71 576.06 146.65 573.44 143.69 C 572.62 143.01 572.04 141.86 570.93 141.65 C 567.16 141.10 563.33 141.16 559.53 140.95 C 559.54 130.02 559.47 119.08 559.58 108.15 C 555.24 107.98 550.91 107.96 546.58 107.99 M 564.56 81.68 C 565.69 85.12 566.74 88.60 567.99 92.00 C 569.41 95.44 568.54 99.22 568.48 102.81 C 569.94 102.96 571.40 103.12 572.87 103.27 C 573.07 100.22 572.89 97.12 573.52 94.12 C 575.14 90.20 577.11 86.42 578.87 82.55 C 577.34 82.45 575.82 82.34 574.31 82.24 C 573.40 84.99 572.40 87.70 571.29 90.37 C 570.49 87.63 569.75 84.88 569.13 82.10 C 567.60 81.94 566.07 81.80 564.56 81.68 M 580.38 88.45 C 577.89 89.73 578.51 92.78 578.32 95.06 C 578.34 97.50 577.90 100.02 578.60 102.39 C 581.03 105.05 586.01 105.52 588.40 102.58 C 589.76 98.92 589.27 94.84 589.36 90.99 C 588.22 87.49 583.26 86.78 580.38 88.45 M 592.52 104.64 C 594.40 104.65 596.36 104.73 598.00 103.60 C 598.96 105.16 600.91 104.73 602.46 104.99 C 602.57 99.81 602.71 94.62 603.49 89.48 C 602.15 89.10 600.81 88.76 599.46 88.48 C 599.19 92.63 598.81 96.78 598.67 100.93 C 597.72 101.32 596.77 101.71 595.83 102.09 C 595.94 97.58 596.11 93.07 596.39 88.57 C 595.41 88.52 593.43 88.43 592.44 88.38 C 592.60 93.79 590.50 99.40 592.52 104.64 M 564.37 106.46 C 560.02 109.81 561.90 116.22 561.23 120.97 C 560.60 124.33 562.51 127.78 566.00 128.38 C 576.66 129.39 587.40 129.87 598.12 130.07 C 601.08 130.19 603.94 128.17 604.26 125.12 C 604.63 120.29 605.21 115.35 604.47 110.54 C 602.35 106.40 596.98 106.85 593.03 106.62 C 585.02 106.03 577.01 105.54 568.97 105.47 C 567.40 105.55 565.71 105.54 564.37 106.46 Z" />
</g>
<g id="#0000002a">
<path fill="#000000" opacity="0.16" d=" M 202.26 68.66 C 203.64 69.27 205.10 69.74 206.40 70.51 C 207.80 72.38 208.39 74.70 209.23 76.85 C 210.86 76.99 212.50 77.14 214.15 77.23 C 211.47 77.51 208.80 77.79 206.13 78.01 C 205.39 74.66 203.21 71.92 202.26 68.66 Z" />
</g>
<g id="#000000aa">
<path fill="#000000" opacity="0.67" d=" M 621.43 71.18 C 621.65 72.30 621.90 73.43 622.14 74.56 C 623.91 81.06 622.32 87.76 622.47 94.37 C 621.42 109.88 620.93 125.43 619.75 140.94 C 619.43 142.73 620.05 145.18 618.22 146.30 C 611.80 147.23 605.35 145.72 598.92 145.63 C 592.25 145.61 588.37 154.03 581.44 152.46 C 584.90 149.19 588.29 145.80 592.12 142.97 C 600.61 142.63 609.12 143.79 617.62 144.02 C 619.11 119.75 620.36 95.46 621.43 71.18 Z" />
<path fill="#000000" opacity="0.67" d=" M 190.41 153.59 C 198.24 152.73 206.10 152.16 213.92 151.26 C 215.29 152.41 216.65 153.57 218.02 154.71 C 212.02 155.38 205.97 155.43 199.99 156.35 C 196.64 156.57 191.71 157.92 190.41 153.59 Z" />
</g>
<g id="#02030437">
<path fill="#020304" opacity="0.22" d=" M 492.18 72.89 C 492.16 72.53 492.11 71.83 492.09 71.47 C 494.36 72.10 495.52 74.11 496.28 76.17 C 494.63 86.75 493.57 97.41 491.82 107.97 C 491.26 107.98 490.15 107.99 489.59 108.00 C 490.77 99.42 491.96 90.84 493.36 82.30 C 493.57 79.17 494.56 75.44 492.18 72.89 Z" />
</g>
<g id="#3b5998ff">
<path fill="#3b5998" opacity="1.00" d=" M 410.20 73.33 C 413.02 73.27 415.84 73.23 418.67 73.19 C 418.99 87.22 419.48 101.24 419.60 115.27 C 419.49 123.59 419.38 131.93 420.14 140.22 C 420.54 150.30 420.53 160.40 420.71 170.49 C 408.96 170.83 397.10 170.01 385.43 171.64 C 380.42 175.73 376.70 181.23 371.52 185.15 C 368.37 181.66 364.82 178.57 361.48 175.27 C 359.69 173.53 357.92 171.10 355.07 171.62 C 345.55 171.82 336.04 172.60 326.51 172.41 C 325.81 172.42 324.41 172.45 323.71 172.47 C 323.33 165.24 323.42 158.00 323.28 150.77 C 323.26 149.98 323.24 148.41 323.23 147.62 C 323.19 146.41 323.16 145.20 323.11 143.99 C 322.26 127.00 322.69 109.98 321.86 92.99 C 321.72 87.07 321.45 81.14 321.80 75.23 C 323.39 75.19 324.99 75.15 326.59 75.11 C 336.48 75.06 346.36 74.61 356.25 74.50 C 357.98 74.43 359.71 74.37 361.45 74.33 C 365.58 74.27 369.72 74.17 373.85 73.96 C 375.09 73.93 376.34 73.92 377.59 73.92 C 383.11 73.94 388.62 73.80 394.14 73.64 C 399.49 73.57 404.85 73.47 410.20 73.33 M 364.57 95.59 C 360.14 100.18 362.71 106.86 362.00 112.48 C 359.89 112.46 357.78 112.45 355.68 112.44 C 355.75 115.53 355.78 118.61 355.76 121.70 C 357.98 121.72 360.20 121.72 362.43 121.71 C 362.63 132.58 362.62 143.48 363.23 154.34 C 367.25 154.34 371.25 153.92 375.24 153.47 C 374.76 142.78 374.76 132.08 374.45 121.39 C 377.52 121.37 380.58 121.32 383.64 121.07 C 383.94 118.13 384.24 115.19 384.54 112.25 C 381.19 111.40 377.62 112.47 374.20 111.71 C 374.35 108.25 373.29 103.99 376.40 101.50 C 379.06 101.45 381.73 101.52 384.40 101.69 C 384.77 98.60 385.22 95.52 385.75 92.46 C 378.81 90.95 370.25 90.49 364.57 95.59 Z" />
</g>
<g id="#1f83b1ff">
<path fill="#1f83b1" opacity="1.00" d=" M 214.15 77.23 C 224.92 76.15 235.72 75.23 246.48 74.00 C 246.35 88.99 246.35 103.99 246.46 118.99 C 246.48 121.57 245.92 124.09 245.43 126.60 C 244.13 120.35 245.33 113.19 241.30 107.78 C 236.80 101.78 226.64 102.65 222.77 108.96 C 222.71 108.04 222.57 106.20 222.51 105.28 C 219.04 105.56 215.58 105.93 212.13 106.37 C 213.08 116.48 214.24 126.58 215.01 136.71 C 218.54 136.56 222.08 136.30 225.55 135.63 C 224.79 129.74 224.31 123.81 223.74 117.90 C 223.44 114.70 226.67 111.84 229.81 112.41 C 232.14 112.47 233.44 114.89 233.80 116.93 C 234.85 122.83 234.94 128.85 235.83 134.77 C 239.19 134.49 242.55 134.26 245.92 134.08 C 246.25 137.31 246.43 140.56 246.47 143.81 C 251.11 144.04 255.75 144.04 260.40 144.02 C 260.41 144.72 260.44 146.13 260.45 146.83 C 252.96 147.41 245.49 148.27 238.00 148.91 C 236.73 149.19 235.11 148.94 234.19 150.05 C 230.87 153.47 228.49 157.76 224.64 160.67 C 222.56 158.54 220.32 156.59 218.02 154.71 C 216.65 153.57 215.29 152.41 213.92 151.26 C 206.10 152.16 198.24 152.73 190.41 153.59 C 189.62 153.67 188.04 153.83 187.25 153.91 C 186.89 152.35 186.72 150.76 186.62 149.17 C 186.58 148.41 186.51 146.90 186.47 146.15 C 186.35 143.77 186.04 141.42 185.75 139.06 C 185.09 131.37 184.29 123.69 183.52 116.01 C 183.07 111.61 182.59 107.21 182.22 102.80 C 181.96 100.13 181.65 97.47 181.45 94.80 C 181.27 92.53 180.98 90.27 180.68 88.01 C 180.45 85.51 180.33 83.01 180.19 80.50 C 188.04 79.82 195.88 79.01 203.72 78.24 C 204.32 78.18 205.52 78.07 206.13 78.01 C 208.80 77.79 211.47 77.51 214.15 77.23 M 199.69 92.86 C 196.48 93.40 193.98 96.81 195.26 100.00 C 196.82 105.84 207.31 104.11 206.60 97.94 C 206.60 94.47 202.91 92.02 199.69 92.86 M 196.56 107.73 C 197.53 117.97 198.46 128.21 199.55 138.44 C 202.94 137.97 206.35 137.60 209.78 137.39 C 209.10 127.27 207.78 117.21 207.02 107.10 C 203.52 107.15 200.04 107.44 196.56 107.73 Z" />
</g>
<g id="#00000060">
<path fill="#000000" opacity="0.38" d=" M 622.47 94.37 C 622.32 87.76 623.91 81.06 622.14 74.56 C 622.97 74.88 624.63 75.52 625.46 75.84 C 625.83 84.45 625.31 93.04 624.52 101.60 C 624.84 109.09 623.28 116.48 623.49 123.96 C 623.57 130.68 622.41 137.33 622.38 144.04 C 622.53 147.44 619.21 149.86 616.01 149.45 C 609.46 148.92 602.88 147.91 596.29 148.61 C 591.60 150.08 589.21 155.86 584.23 156.60 C 579.15 154.90 577.27 148.45 571.94 147.02 C 569.62 146.48 566.65 145.81 564.69 147.57 C 561.99 152.03 565.22 157.18 564.39 161.98 C 563.06 170.39 563.86 178.90 563.52 187.36 C 562.81 188.07 562.11 188.78 561.42 189.50 C 554.61 189.70 547.83 190.39 541.03 189.62 C 533.98 188.95 529.12 194.70 525.66 200.00 L 520.45 200.00 C 516.67 196.31 513.68 190.81 507.99 189.98 C 500.13 189.05 492.19 190.14 484.32 189.48 C 481.84 189.26 481.61 186.18 480.53 184.50 C 489.85 184.61 499.18 184.58 508.50 184.53 C 512.28 188.19 515.91 192.05 520.05 195.32 C 520.81 195.64 522.34 196.28 523.10 196.60 C 527.03 193.75 530.15 189.63 534.67 187.71 C 542.08 186.81 549.59 187.88 557.02 187.28 C 558.86 187.21 561.01 185.99 560.68 183.86 C 560.78 172.92 560.72 161.97 560.71 151.03 C 560.87 148.88 560.85 146.20 562.76 144.78 C 566.27 144.04 569.88 144.09 573.44 143.69 C 576.06 146.65 578.58 149.71 581.44 152.46 C 588.37 154.03 592.25 145.61 598.92 145.63 C 605.35 145.72 611.80 147.23 618.22 146.30 C 620.05 145.18 619.43 142.73 619.75 140.94 C 620.93 125.43 621.42 109.88 622.47 94.37 Z" />
</g>
<g id="#f6fafbff">
<path fill="#f6fafb" opacity="1.00" d=" M 180.68 88.01 C 180.98 90.27 181.27 92.53 181.45 94.80 C 180.07 94.81 178.69 94.81 177.32 94.82 C 178.22 92.45 179.33 90.16 180.68 88.01 Z" />
</g>
<g id="#cb002eff">
<path fill="#cb002e" opacity="1.00" d=" M 582.71 91.54 C 583.35 91.36 584.62 91.01 585.25 90.84 C 585.51 94.22 585.45 97.67 584.85 101.02 L 584.01 101.55 C 583.54 101.42 582.60 101.14 582.13 101.01 C 582.13 97.84 582.30 94.68 582.71 91.54 Z" />
</g>
<g id="#ff9600ff">
<path fill="#ff9600" opacity="1.00" d=" M 479.58 108.00 C 481.78 108.00 483.99 108.00 486.20 108.00 C 487.04 108.00 488.74 108.00 489.59 108.00 C 490.15 107.99 491.26 107.98 491.82 107.97 C 510.07 108.03 528.32 107.99 546.58 107.99 C 550.91 107.96 555.24 107.98 559.58 108.15 C 559.47 119.08 559.54 130.02 559.53 140.95 C 559.51 155.45 559.57 169.96 559.50 184.47 C 549.97 184.57 540.45 184.43 530.93 184.55 C 527.39 188.23 523.63 191.68 520.05 195.32 C 515.91 192.05 512.28 188.19 508.50 184.53 C 499.18 184.58 489.85 184.61 480.53 184.50 C 480.27 184.49 479.75 184.45 479.49 184.43 C 479.56 174.12 479.51 163.80 479.52 153.48 C 479.52 152.82 479.53 151.50 479.53 150.83 C 479.53 150.18 479.53 148.88 479.53 148.22 C 479.56 134.82 479.45 121.41 479.58 108.00 M 493.91 122.08 C 493.88 125.28 493.89 128.48 494.01 131.68 C 504.76 131.85 515.63 136.00 523.15 143.81 C 530.55 150.91 534.78 161.08 534.75 171.33 C 538.04 171.34 541.32 171.34 544.61 171.32 C 544.85 162.02 542.06 152.71 536.91 144.97 C 527.72 130.70 510.88 121.75 493.91 122.08 M 493.91 138.58 C 493.90 141.79 493.90 145.00 493.92 148.21 C 498.22 148.47 502.56 149.37 506.24 151.74 C 513.20 155.66 517.48 163.42 517.66 171.35 C 520.95 171.33 524.24 171.33 527.53 171.34 C 527.61 162.26 523.57 153.28 516.72 147.32 C 510.61 141.57 502.22 138.72 493.91 138.58 M 494.94 160.99 C 492.34 164.51 494.56 170.26 498.94 170.94 C 503.22 172.22 508.22 168.57 507.62 163.96 C 507.48 160.30 503.96 158.47 500.88 157.57 C 498.70 158.29 496.20 158.87 494.94 160.99 Z" />
</g>
<g id="#e7829aff">
<path fill="#e7829a" opacity="1.00" d=" M 564.82 109.18 C 567.76 107.75 571.31 108.88 574.37 109.50 C 571.18 109.55 567.99 109.49 564.82 109.18 Z" />
</g>
<g id="#c90126ff">
<path fill="#c90126" opacity="1.00" d=" M 564.82 109.18 C 567.99 109.49 571.18 109.55 574.37 109.50 L 574.09 111.50 C 572.99 111.52 571.90 111.54 570.82 111.56 C 570.74 115.81 570.56 120.05 570.43 124.30 C 569.74 124.31 568.35 124.34 567.66 124.36 C 568.49 120.00 568.48 115.55 568.70 111.13 C 567.47 111.08 566.25 111.03 565.03 110.97 L 564.82 109.18 Z" />
</g>
<g id="#ca0028ff">
<path fill="#ca0028" opacity="1.00" d=" M 584.46 109.59 C 588.08 108.70 586.58 113.02 586.26 114.78 C 586.66 115.13 587.06 115.48 587.46 115.84 C 585.55 117.73 586.69 121.11 586.27 123.63 C 586.80 123.62 587.88 123.61 588.42 123.61 C 588.49 120.95 588.64 118.29 588.93 115.65 L 587.90 116.80 C 587.86 115.68 587.84 114.55 587.82 113.43 C 588.68 113.82 590.40 114.61 591.26 115.00 C 590.99 118.27 591.45 121.69 590.55 124.87 C 588.55 126.12 585.85 124.86 583.61 125.08 C 583.99 119.92 583.93 114.74 584.46 109.59 Z" />
<path fill="#ca0028" opacity="1.00" d=" M 574.23 113.14 C 578.50 115.21 572.76 122.15 577.66 123.67 L 578.14 122.83 C 578.84 119.85 578.60 116.76 578.80 113.73 C 579.44 113.77 580.74 113.84 581.38 113.88 C 581.15 117.55 580.99 121.22 580.86 124.90 C 578.48 124.29 576.04 124.51 573.62 124.49 C 573.84 120.71 573.92 116.92 574.23 113.14 Z" />
<path fill="#ca0028" opacity="1.00" d=" M 593.40 123.11 C 593.59 120.36 592.61 116.85 595.01 114.80 C 596.56 114.24 598.43 114.31 599.93 115.05 C 601.42 116.55 601.13 118.80 600.88 120.71 C 599.12 120.63 597.37 120.57 595.62 120.51 C 595.63 122.43 595.15 125.04 598.00 124.26 C 598.10 123.69 598.31 122.54 598.42 121.97 C 599.08 122.02 600.41 122.12 601.08 122.18 C 600.76 124.53 599.33 126.12 596.96 126.54 C 595.54 125.69 593.10 125.29 593.40 123.11 M 595.63 118.17 C 596.57 118.57 597.57 118.79 598.63 118.84 C 598.61 118.22 598.56 116.99 598.54 116.37 C 597.06 116.17 595.71 116.33 595.63 118.17 Z" />
</g>
<g id="#e8869dff">
<path fill="#e8869d" opacity="1.00" d=" M 565.03 110.97 C 566.25 111.03 567.47 111.08 568.70 111.13 C 568.48 115.55 568.49 120.00 567.66 124.36 C 567.05 120.11 567.86 115.84 567.97 111.59 C 566.98 111.38 566.00 111.18 565.03 110.97 Z" />
</g>
<g id="#e77e98ff">
<path fill="#e77e98" opacity="1.00" d=" M 574.23 113.14 C 575.05 113.22 575.88 113.29 576.72 113.36 C 576.68 116.33 576.39 119.30 576.39 122.27 L 578.14 122.83 L 577.66 123.67 C 572.76 122.15 578.50 115.21 574.23 113.14 Z" />
</g>
<g id="#925a6fff">
<path fill="#925a6f" opacity="1.00" d=" M 419.60 115.27 L 419.70 114.67 C 419.58 117.03 419.76 119.42 420.41 121.70 L 420.51 121.96 C 419.86 127.97 420.47 134.00 420.53 140.01 L 420.14 140.22 C 419.38 131.93 419.49 123.59 419.60 115.27 Z" />
</g>
<g id="#000000a7">
<path fill="#000000" opacity="0.65" d=" M 153.14 138.86 C 159.69 137.84 166.21 136.63 172.79 135.77 C 174.57 137.06 176.37 138.32 178.10 139.70 C 170.23 139.44 162.61 142.10 154.72 141.76 C 154.33 141.03 153.54 139.58 153.14 138.86 Z" />
<path fill="#000000" opacity="0.65" d=" M 326.51 172.41 C 336.04 172.60 345.55 171.82 355.07 171.62 C 357.92 171.10 359.69 173.53 361.48 175.27 C 350.91 175.47 340.34 175.42 329.77 175.57 C 328.68 174.52 327.59 173.46 326.51 172.41 Z" />
</g>
<g id="#00000038">
<path fill="#000000" opacity="0.22" d=" M 149.96 139.21 C 151.02 139.10 152.08 138.99 153.14 138.86 C 153.54 139.58 154.33 141.03 154.72 141.76 C 162.61 142.10 170.23 139.44 178.10 139.70 C 178.44 139.98 179.11 140.55 179.45 140.83 C 180.98 143.54 183.73 144.96 186.47 146.15 C 186.51 146.90 186.58 148.41 186.62 149.17 C 181.74 148.43 178.51 144.31 173.99 142.83 C 167.37 142.94 161.01 145.76 154.37 145.38 C 151.36 144.91 150.11 141.93 149.96 139.21 Z" />
</g>
<g id="#030a0fa7">
<path fill="#030a0f" opacity="0.65" d=" M 182.82 143.01 C 183.79 141.69 184.77 140.37 185.75 139.06 C 186.04 141.42 186.35 143.77 186.47 146.15 C 183.73 144.96 180.98 143.54 179.45 140.83 C 180.56 141.57 181.70 142.29 182.82 143.01 Z" />
</g>
<g id="#000000a4">
<path fill="#000000" opacity="0.64" d=" M 420.14 140.22 L 420.53 140.01 C 424.56 140.71 430.06 139.69 432.22 144.07 C 429.28 143.61 426.29 143.61 423.39 144.34 C 422.18 149.47 422.59 154.75 422.64 159.97 C 422.61 164.43 424.30 169.04 422.45 173.35 C 412.03 174.97 401.48 174.10 391.00 174.49 C 388.15 174.29 386.31 176.75 384.47 178.52 C 381.72 181.25 379.37 184.47 376.07 186.58 C 374.39 186.92 372.73 186.31 371.52 185.15 C 376.70 181.23 380.42 175.73 385.43 171.64 C 397.10 170.01 408.96 170.83 420.71 170.49 C 420.53 160.40 420.54 150.30 420.14 140.22 Z" />
</g>
<g id="#000000b0">
<path fill="#000000" opacity="0.69" d=" M 559.53 140.95 C 563.33 141.16 567.16 141.10 570.93 141.65 C 572.04 141.86 572.62 143.01 573.44 143.69 C 569.88 144.09 566.27 144.04 562.76 144.78 C 560.85 146.20 560.87 148.88 560.71 151.03 C 560.72 161.97 560.78 172.92 560.68 183.86 C 561.01 185.99 558.86 187.21 557.02 187.28 C 549.59 187.88 542.08 186.81 534.67 187.71 C 530.15 189.63 527.03 193.75 523.10 196.60 C 522.34 196.28 520.81 195.64 520.05 195.32 C 523.63 191.68 527.39 188.23 530.93 184.55 C 540.45 184.43 549.97 184.57 559.50 184.47 C 559.57 169.96 559.51 155.45 559.53 140.95 Z" />
</g>
<g id="#000000a8">
<path fill="#000000" opacity="0.66" d=" M 260.40 144.02 C 265.53 144.03 270.66 144.01 275.80 144.03 C 276.97 145.23 278.14 146.43 279.32 147.62 C 275.55 147.54 271.77 147.29 268.00 147.47 C 265.20 147.52 262.88 149.27 260.29 150.09 C 253.11 152.08 245.39 150.82 238.29 153.18 C 234.35 155.18 232.53 159.63 229.08 162.26 C 227.36 163.14 225.79 161.83 224.64 160.67 C 228.49 157.76 230.87 153.47 234.19 150.05 C 235.11 148.94 236.73 149.19 238.00 148.91 C 245.49 148.27 252.96 147.41 260.45 146.83 C 260.44 146.13 260.41 144.72 260.40 144.02 Z" />
<path fill="#000000" opacity="0.66" d=" M 298.25 144.09 C 306.53 143.93 314.82 144.08 323.11 143.99 C 323.16 145.20 323.19 146.41 323.23 147.62 C 316.14 147.54 309.01 147.08 301.95 147.77 C 297.87 149.58 295.54 153.73 291.90 156.18 C 290.34 157.36 288.35 156.40 287.00 155.38 C 290.76 151.63 294.56 147.92 298.25 144.09 Z" />
</g>
<g id="#00000048">
<path fill="#000000" opacity="0.28" d=" M 423.39 144.34 C 426.29 143.61 429.28 143.61 432.22 144.07 C 434.71 147.43 436.95 151.02 439.98 153.94 C 441.31 154.60 442.67 155.20 444.03 155.82 C 447.56 153.58 450.55 150.49 454.32 148.64 C 462.78 147.43 471.10 150.42 479.53 150.83 C 479.53 151.50 479.52 152.82 479.52 153.48 C 471.76 153.82 464.24 150.88 456.49 151.37 C 452.21 152.54 449.56 156.66 445.51 158.35 C 443.37 158.84 440.60 158.94 439.16 156.96 C 435.78 153.04 433.46 147.68 428.03 146.19 C 427.42 146.64 426.19 147.56 425.58 148.01 C 425.46 155.10 425.11 162.24 426.38 169.25 C 427.26 172.64 424.49 176.47 420.95 176.49 C 411.94 176.88 402.91 176.30 393.91 176.84 C 385.99 177.38 382.34 185.68 375.96 189.19 C 372.81 190.73 370.38 187.51 368.31 185.65 C 364.94 182.60 361.98 178.06 357.03 177.72 C 347.57 177.11 338.10 179.26 328.65 178.24 C 325.61 177.99 324.73 174.78 323.71 172.47 C 324.41 172.45 325.81 172.42 326.51 172.41 C 327.59 173.46 328.68 174.52 329.77 175.57 C 340.34 175.42 350.91 175.47 361.48 175.27 C 364.82 178.57 368.37 181.66 371.52 185.15 C 372.73 186.31 374.39 186.92 376.07 186.58 C 379.37 184.47 381.72 181.25 384.47 178.52 C 386.31 176.75 388.15 174.29 391.00 174.49 C 401.48 174.10 412.03 174.97 422.45 173.35 C 424.30 169.04 422.61 164.43 422.64 159.97 C 422.59 154.75 422.18 149.47 423.39 144.34 Z" />
</g>
<g id="#000000ae">
<path fill="#000000" opacity="0.68" d=" M 439.98 153.94 C 443.98 150.64 448.33 147.80 452.30 144.46 C 461.40 145.54 470.44 147.05 479.53 148.22 C 479.53 148.88 479.53 150.18 479.53 150.83 C 471.10 150.42 462.78 147.43 454.32 148.64 C 450.55 150.49 447.56 153.58 444.03 155.82 C 442.67 155.20 441.31 154.60 439.98 153.94 Z" />
</g>
<g id="#00000045">
<path fill="#000000" opacity="0.27" d=" M 260.29 150.09 C 262.88 149.27 265.20 147.52 268.00 147.47 C 271.77 147.29 275.55 147.54 279.32 147.62 C 281.88 150.21 284.41 152.82 287.00 155.38 C 288.35 156.40 290.34 157.36 291.90 156.18 C 295.54 153.73 297.87 149.58 301.95 147.77 C 309.01 147.08 316.14 147.54 323.23 147.62 C 323.24 148.41 323.26 149.98 323.28 150.77 C 317.32 149.27 311.09 149.61 305.01 149.96 C 297.93 150.46 295.90 161.21 288.35 159.56 C 284.10 157.74 281.98 153.03 277.96 150.82 C 275.02 150.14 271.96 150.24 268.97 150.37 C 265.49 150.50 262.52 152.60 259.14 153.18 C 253.17 154.07 247.10 154.08 241.16 155.11 C 235.15 156.27 233.96 164.53 227.95 165.56 C 223.15 164.55 220.48 159.52 215.88 157.99 C 206.86 158.26 197.79 161.09 188.75 159.45 C 188.25 157.61 187.72 155.76 187.25 153.91 C 188.04 153.83 189.62 153.67 190.41 153.59 C 191.71 157.92 196.64 156.57 199.99 156.35 C 205.97 155.43 212.02 155.38 218.02 154.71 C 220.32 156.59 222.56 158.54 224.64 160.67 C 225.79 161.83 227.36 163.14 229.08 162.26 C 232.53 159.63 234.35 155.18 238.29 153.18 C 245.39 150.82 253.11 152.08 260.29 150.09 Z" />
</g>
<g id="#00000013">
</g>
</svg>
