<?xml version="1.0" encoding="UTF-8" ?>
<!DOCTYPE svg PUBLIC "-//W3C//DTD SVG 1.1//EN" "http://www.w3.org/Graphics/SVG/1.1/DTD/svg11.dtd">
<svg width="820pt" height="393pt" viewBox="0 0 820 393" version="1.1" xmlns="http://www.w3.org/2000/svg">
<g id="#f6f6f6ff">
<path fill="#f6f6f6" opacity="1.00" d=" M 464.18 68.24 C 470.18 68.06 476.18 68.00 482.18 68.05 L 482.17 69.03 C 477.28 68.93 472.38 68.95 467.49 69.16 C 468.08 71.25 468.68 73.35 469.64 75.30 C 480.65 97.37 491.38 119.58 502.24 141.73 C 504.81 146.18 505.90 151.72 509.64 155.35 C 513.99 156.14 518.47 155.37 522.85 156.01 L 523.69 157.27 C 519.29 157.67 514.87 157.76 510.46 157.81 C 518.66 175.28 527.60 192.39 536.13 209.69 C 538.59 214.78 541.47 219.70 543.32 225.06 C 542.99 225.50 542.33 226.38 542.00 226.82 C 537.43 216.64 532.28 206.70 526.99 196.88 C 522.60 196.82 518.21 196.83 513.82 196.93 C 513.85 196.25 513.91 194.89 513.94 194.21 C 517.83 194.53 521.75 194.43 525.66 194.28 C 524.61 191.46 523.45 188.67 522.07 185.99 C 502.43 146.91 483.16 107.65 464.18 68.24 Z" />
<path fill="#f6f6f6" opacity="1.00" d=" M 271.21 246.29 C 274.50 246.19 277.79 246.18 281.07 246.19 L 280.99 246.54 C 278.98 252.14 278.33 258.06 276.84 263.79 C 271.95 260.89 267.08 257.90 262.85 254.08 C 262.15 253.38 261.16 252.70 261.31 251.58 C 264.45 249.54 267.87 247.97 271.21 246.29 Z" />
<path fill="#f6f6f6" opacity="1.00" d=" M 340.25 246.26 C 343.22 246.22 346.20 246.20 349.17 246.18 C 344.30 251.63 341.47 258.78 342.17 266.15 C 338.60 267.61 334.98 269.02 331.18 269.78 C 330.28 269.88 328.47 270.07 327.57 270.16 C 327.25 267.69 327.24 265.11 328.77 263.01 C 333.16 257.84 337.21 252.34 340.25 246.26 Z" />
</g>
<g id="#1e4468ff">
<path fill="#1e4468" opacity="1.00" d=" M 482.26 66.08 C 483.22 52.34 496.22 40.59 510.03 41.37 C 517.78 41.00 525.02 44.96 530.33 50.35 L 530.38 50.90 C 530.41 51.24 530.47 51.94 530.50 52.29 C 529.34 51.03 528.18 49.77 526.89 48.65 C 522.36 44.42 516.24 42.00 510.03 42.28 C 500.57 41.70 491.50 47.32 486.85 55.40 C 482.50 63.00 482.58 72.40 486.07 80.31 C 485.61 80.03 484.70 79.48 484.25 79.20 C 482.79 77.06 482.51 74.22 482.26 71.68 C 482.24 71.02 482.20 69.69 482.17 69.03 L 482.18 68.05 C 482.20 67.56 482.24 66.57 482.26 66.08 Z" />
<path fill="#1e4468" opacity="1.00" d=" M 524.25 68.98 C 524.88 67.15 525.53 65.31 526.19 63.48 C 527.27 69.73 525.32 76.08 522.18 81.44 C 520.37 76.78 518.63 72.09 516.78 67.45 C 519.27 67.95 521.75 68.47 524.25 68.98 Z" />
<path fill="#1e4468" opacity="1.00" d=" M 468.88 316.57 C 469.82 316.34 470.75 316.10 471.69 315.87 C 471.93 316.52 472.40 317.84 472.63 318.49 C 474.65 318.86 476.66 319.24 478.68 319.71 C 476.92 321.04 474.67 321.02 472.61 321.43 C 472.43 321.70 472.08 322.24 471.90 322.51 C 471.68 322.85 471.26 323.54 471.04 323.88 C 471.22 321.51 471.19 319.13 471.20 316.76 C 470.62 316.72 469.46 316.62 468.88 316.57 Z" />
</g>
<g id="#eef9fbff">
<path fill="#eef9fb" opacity="1.00" d=" M 486.85 55.40 C 491.50 47.32 500.57 41.70 510.03 42.28 C 516.24 42.00 522.36 44.42 526.89 48.65 C 526.27 48.94 525.04 49.53 524.42 49.83 C 522.01 48.31 519.48 46.98 516.77 46.10 C 516.65 46.06 516.42 45.99 516.30 45.95 C 507.77 43.13 497.86 46.08 491.96 52.78 C 490.54 54.55 489.26 56.43 488.09 58.38 C 487.78 57.64 487.16 56.15 486.85 55.40 Z" />
<path fill="#eef9fb" opacity="1.00" d=" M 227.52 76.55 C 232.07 74.83 237.09 79.38 236.14 84.07 C 235.72 88.40 230.62 91.16 226.74 89.25 C 221.48 87.03 221.83 77.97 227.52 76.55 M 229.16 77.91 C 228.02 78.48 227.04 79.35 226.28 80.36 C 226.04 82.15 227.76 83.25 228.66 84.59 C 227.98 84.93 226.62 85.62 225.94 85.97 C 227.23 86.79 228.33 88.20 229.97 88.32 C 231.28 87.60 232.71 86.59 232.95 84.99 C 232.71 83.55 231.37 82.65 230.56 81.53 C 231.30 80.98 232.05 80.42 232.81 79.87 C 231.59 79.27 230.62 77.84 229.16 77.91 Z" />
<path fill="#eef9fb" opacity="1.00" d=" M 495.65 253.69 C 496.91 254.19 498.56 254.31 499.20 255.74 C 501.74 259.53 503.90 263.59 506.69 267.22 C 506.86 262.95 506.47 258.66 506.90 254.41 C 507.35 254.27 508.24 254.00 508.69 253.86 C 508.67 259.54 508.95 265.24 508.57 270.91 C 507.62 270.43 506.36 270.38 505.74 269.43 C 502.83 265.45 500.52 261.06 497.55 257.11 C 497.51 261.56 497.60 266.02 497.54 270.47 L 495.55 270.47 C 495.55 264.88 495.41 259.28 495.65 253.69 Z" />
<path fill="#eef9fb" opacity="1.00" d=" M 512.26 254.16 C 515.04 254.65 519.44 252.62 521.10 255.61 C 518.83 255.82 516.55 255.93 514.29 256.08 C 514.28 257.76 514.28 259.44 514.29 261.12 C 516.28 261.18 518.28 261.23 520.29 261.31 C 519.87 264.25 516.32 262.84 514.28 263.27 C 514.29 265.03 514.30 266.79 514.32 268.56 C 516.42 269.13 521.15 267.11 520.91 270.49 C 518.04 270.46 515.17 270.45 512.30 270.46 C 512.21 265.02 512.26 259.59 512.26 254.16 Z" />
<path fill="#eef9fb" opacity="1.00" d=" M 522.46 254.42 C 526.43 254.27 531.14 253.16 534.72 255.00 C 533.23 256.20 531.14 255.86 529.38 256.24 C 529.40 260.92 529.37 265.61 529.42 270.30 C 528.94 270.39 527.96 270.57 527.47 270.66 C 527.32 265.79 527.44 260.92 527.35 256.05 C 525.93 255.41 522.16 256.77 522.46 254.42 Z" />
</g>
<g id="#2f6fa7ff">
<path fill="#2f6fa7" opacity="1.00" d=" M 491.96 52.78 C 497.86 46.08 507.77 43.13 516.30 45.95 C 508.74 46.08 499.99 46.42 494.81 52.80 C 500.51 54.00 506.28 52.70 512.02 52.94 C 516.39 53.09 520.77 53.46 525.13 52.95 C 522.23 50.81 519.39 48.57 516.77 46.10 C 519.48 46.98 522.01 48.31 524.42 49.83 C 525.46 50.77 526.49 51.73 527.52 52.70 C 525.37 54.16 523.68 56.30 524.82 59.01 C 524.39 57.64 523.96 56.27 523.55 54.90 C 523.11 56.28 522.68 57.66 522.26 59.04 C 516.88 56.40 510.78 57.26 505.02 57.42 C 500.46 57.70 495.89 57.41 491.33 57.09 C 491.54 55.65 491.74 54.21 491.96 52.78 Z" />
</g>
<g id="#3479b5ff">
<path fill="#3479b5" opacity="1.00" d=" M 494.81 52.80 C 499.99 46.42 508.74 46.08 516.30 45.95 C 516.42 45.99 516.65 46.06 516.77 46.10 C 519.39 48.57 522.23 50.81 525.13 52.95 C 520.77 53.46 516.39 53.09 512.02 52.94 C 506.28 52.70 500.51 54.00 494.81 52.80 Z" />
</g>
<g id="#fdfefeff">
<path fill="#fdfefe" opacity="1.00" d=" M 524.42 49.83 C 525.04 49.53 526.27 48.94 526.89 48.65 C 528.18 49.77 529.34 51.03 530.50 52.29 C 535.55 58.91 537.03 67.83 534.84 75.81 C 532.69 83.12 527.24 89.43 520.24 92.47 C 512.17 96.15 502.21 95.22 494.93 90.16 C 491.12 87.75 488.50 84.01 486.07 80.31 C 482.58 72.40 482.50 63.00 486.85 55.40 C 487.16 56.15 487.78 57.64 488.09 58.38 C 488.19 58.66 488.39 59.21 488.49 59.49 C 492.21 59.35 495.94 59.30 499.65 59.72 C 498.75 60.00 496.95 60.56 496.04 60.83 C 496.46 64.44 497.83 67.80 499.27 71.10 C 500.77 74.89 502.18 78.73 504.02 82.38 C 505.64 77.44 509.47 72.74 508.59 67.31 C 507.51 63.90 505.57 60.78 502.18 59.29 C 507.65 59.51 513.13 59.29 518.60 59.48 C 517.38 60.08 516.13 60.66 514.92 61.24 C 515.45 63.33 516.03 65.42 516.78 67.45 C 518.63 72.09 520.37 76.78 522.18 81.44 C 525.32 76.08 527.27 69.73 526.19 63.48 C 525.76 61.98 525.27 60.50 524.82 59.01 C 523.68 56.30 525.37 54.16 527.52 52.70 C 526.49 51.73 525.46 50.77 524.42 49.83 M 486.70 61.90 C 485.83 67.50 485.76 73.37 487.96 78.68 L 488.16 78.67 C 490.37 83.05 493.69 86.96 498.07 89.28 C 496.79 84.92 494.72 80.84 493.15 76.58 C 490.97 71.70 489.51 66.48 486.70 61.90 M 525.87 77.49 C 524.46 81.41 522.83 85.23 521.35 89.12 C 525.92 86.99 529.14 82.83 531.27 78.37 C 533.64 73.33 534.36 66.98 532.06 61.80 C 529.63 66.88 527.94 72.27 525.87 77.49 M 510.04 72.71 C 508.97 75.09 507.99 77.52 507.09 79.97 C 505.30 83.68 503.67 87.46 502.24 91.32 C 507.16 92.57 512.42 92.92 517.26 91.13 C 516.52 87.01 514.31 83.21 512.91 79.24 C 512.25 76.94 511.42 74.67 510.04 72.71 Z" />
</g>
<g id="#2f3236ff">
<path fill="#2f3236" opacity="1.00" d=" M 530.50 52.29 C 530.47 51.94 530.41 51.24 530.38 50.90 C 534.77 55.46 536.84 61.78 537.49 67.96 C 537.55 78.03 532.02 88.06 523.13 92.96 C 517.37 96.09 510.43 97.63 503.99 95.90 C 495.20 94.06 487.40 87.63 484.25 79.20 C 484.70 79.48 485.61 80.03 486.07 80.31 C 488.50 84.01 491.12 87.75 494.93 90.16 C 502.21 95.22 512.17 96.15 520.24 92.47 C 527.24 89.43 532.69 83.12 534.84 75.81 C 537.03 67.83 535.55 58.91 530.50 52.29 Z" />
</g>
<g id="#265986ff">
<path fill="#265986" opacity="1.00" d=" M 488.09 58.38 C 489.26 56.43 490.54 54.55 491.96 52.78 C 491.74 54.21 491.54 55.65 491.33 57.09 C 495.89 57.41 500.46 57.70 505.02 57.42 C 510.78 57.26 516.88 56.40 522.26 59.04 C 522.68 57.66 523.11 56.28 523.55 54.90 C 523.96 56.27 524.39 57.64 524.82 59.01 C 525.27 60.50 525.76 61.98 526.19 63.48 C 525.53 65.31 524.88 67.15 524.25 68.98 C 521.75 68.47 519.27 67.95 516.78 67.45 C 516.03 65.42 515.45 63.33 514.92 61.24 C 516.13 60.66 517.38 60.08 518.60 59.48 C 513.13 59.29 507.65 59.51 502.18 59.29 C 505.57 60.78 507.51 63.90 508.59 67.31 C 507.79 68.37 506.99 69.44 506.21 70.50 C 504.04 70.38 501.87 70.24 499.70 70.24 L 499.27 71.10 C 497.83 67.80 496.46 64.44 496.04 60.83 C 496.95 60.56 498.75 60.00 499.65 59.72 C 495.94 59.30 492.21 59.35 488.49 59.49 C 488.39 59.21 488.19 58.66 488.09 58.38 Z" />
</g>
<g id="#1c405eff">
<path fill="#1c405e" opacity="1.00" d=" M 486.70 61.90 C 489.51 66.48 490.97 71.70 493.15 76.58 C 492.73 77.06 491.89 78.02 491.48 78.49 C 490.37 78.55 489.26 78.61 488.16 78.67 L 487.96 78.68 C 485.76 73.37 485.83 67.50 486.70 61.90 Z" />
</g>
<g id="#1b4261ff">
<path fill="#1b4261" opacity="1.00" d=" M 525.87 77.49 C 527.94 72.27 529.63 66.88 532.06 61.80 C 534.36 66.98 533.64 73.33 531.27 78.37 C 529.99 79.10 528.71 79.80 527.42 80.49 C 526.90 79.49 526.38 78.49 525.87 77.49 Z" />
</g>
<g id="#d2d2d2ff">
<path fill="#d2d2d2" opacity="1.00" d=" M 462.31 67.99 C 462.02 65.81 464.61 66.27 466.02 66.07 C 471.43 65.99 476.85 66.18 482.26 66.08 C 482.24 66.57 482.20 67.56 482.18 68.05 C 476.18 68.00 470.18 68.06 464.18 68.24 C 483.16 107.65 502.43 146.91 522.07 185.99 C 523.45 188.67 524.61 191.46 525.66 194.28 C 521.75 194.43 517.83 194.53 513.94 194.21 L 513.73 192.93 C 516.84 192.76 519.97 192.70 523.09 192.71 C 514.79 174.62 505.18 157.15 496.81 139.08 C 486.41 117.83 475.86 96.63 465.58 75.32 C 464.47 72.89 463.03 70.58 462.31 67.99 Z" />
</g>
<g id="#1698baff">
<path fill="#1698ba" opacity="1.00" d=" M 307.39 68.52 C 310.44 67.99 313.62 68.00 316.66 68.54 C 322.05 70.36 325.69 75.75 325.93 81.37 C 326.99 81.53 328.06 81.69 329.13 81.85 C 329.24 82.27 329.45 83.09 329.56 83.50 C 328.34 83.53 327.13 83.55 325.92 83.58 C 324.61 89.67 319.51 95.13 313.08 95.49 C 305.92 96.26 299.39 90.43 298.15 83.57 C 296.36 83.63 294.58 83.70 292.81 83.71 C 293.58 81.44 296.26 81.79 298.16 81.29 C 298.35 75.68 302.05 70.36 307.39 68.52 Z" />
</g>
<g id="#1c4061ff">
<path fill="#1c4061" opacity="1.00" d=" M 506.21 70.50 C 506.99 69.44 507.79 68.37 508.59 67.31 C 509.47 72.74 505.64 77.44 504.02 82.38 C 502.18 78.73 500.77 74.89 499.27 71.10 L 499.70 70.24 C 501.87 70.24 504.04 70.38 506.21 70.50 Z" />
</g>
<g id="#d0d1d1ff">
<path fill="#d0d1d1" opacity="1.00" d=" M 467.49 69.16 C 472.38 68.95 477.28 68.93 482.17 69.03 C 482.20 69.69 482.24 71.02 482.26 71.68 C 478.19 71.04 474.07 71.12 469.98 71.22 C 472.26 76.99 475.34 82.39 477.96 88.00 C 488.41 110.08 499.35 131.91 510.16 153.81 C 513.97 153.89 517.83 154.13 521.60 153.31 C 521.98 154.22 522.40 155.12 522.85 156.01 C 518.47 155.37 513.99 156.14 509.64 155.35 C 505.90 151.72 504.81 146.18 502.24 141.73 C 491.38 119.58 480.65 97.37 469.64 75.30 C 468.68 73.35 468.08 71.25 467.49 69.16 Z" />
</g>
<g id="#88beceff">
<path fill="#88bece" opacity="1.00" d=" M 225.38 72.59 C 231.95 69.70 240.24 74.92 240.57 82.04 C 241.29 88.13 236.06 94.15 229.94 94.26 C 223.87 94.57 218.20 89.07 218.38 82.99 C 218.18 78.45 221.40 74.43 225.38 72.59 M 228.31 73.39 C 224.00 73.98 220.49 77.64 220.00 81.94 C 219.39 87.18 223.60 92.50 228.94 92.77 C 234.69 93.24 239.89 87.58 239.00 81.89 C 238.55 76.76 233.40 72.66 228.31 73.39 Z" />
</g>
<g id="#ace8f7ff">
<path fill="#ace8f7" opacity="1.00" d=" M 228.31 73.39 C 233.40 72.66 238.55 76.76 239.00 81.89 C 239.89 87.58 234.69 93.24 228.94 92.77 C 223.60 92.50 219.39 87.18 220.00 81.94 C 220.49 77.64 224.00 73.98 228.31 73.39 M 226.32 75.35 C 223.57 76.48 221.87 79.28 221.33 82.10 C 220.78 86.86 224.93 91.82 229.92 91.22 C 235.77 91.48 239.56 84.13 236.74 79.25 C 235.08 75.28 230.14 73.94 226.32 75.35 Z" />
</g>
<g id="#132e47ff">
<path fill="#132e47" opacity="1.00" d=" M 510.04 72.71 C 511.42 74.67 512.25 76.94 512.91 79.24 C 512.54 81.38 512.46 83.56 512.51 85.74 C 510.87 85.71 509.24 85.69 507.61 85.67 C 507.49 83.77 507.33 81.86 507.09 79.97 C 507.99 77.52 508.97 75.09 510.04 72.71 Z" />
</g>
<g id="#87bdcdff">
<path fill="#87bdcd" opacity="1.00" d=" M 226.32 75.35 C 230.14 73.94 235.08 75.28 236.74 79.25 C 239.56 84.13 235.77 91.48 229.92 91.22 C 224.93 91.82 220.78 86.86 221.33 82.10 C 221.87 79.28 223.57 76.48 226.32 75.35 M 227.52 76.55 C 221.83 77.97 221.48 87.03 226.74 89.25 C 230.62 91.16 235.72 88.40 236.14 84.07 C 237.09 79.38 232.07 74.83 227.52 76.55 Z" />
</g>
<g id="#4492a4ff">
<path fill="#4492a4" opacity="1.00" d=" M 371.50 91.47 C 371.99 81.90 382.98 74.94 392.04 77.09 C 398.85 78.34 404.55 83.93 406.13 90.63 C 406.92 94.19 406.32 97.86 405.45 101.35 C 405.14 101.34 404.53 101.31 404.22 101.30 C 404.90 95.85 405.62 89.67 401.89 85.09 C 397.17 78.14 386.87 76.17 379.90 80.83 C 374.22 84.37 370.43 92.19 373.48 98.60 C 373.53 99.29 373.63 100.68 373.68 101.37 C 373.35 101.36 372.70 101.34 372.37 101.33 C 370.80 96.68 364.05 97.32 362.78 92.66 C 365.37 93.09 367.62 94.43 369.62 96.09 C 372.02 97.32 371.62 92.87 371.50 91.47 Z" />
<path fill="#4492a4" opacity="1.00" d=" M 377.30 87.26 C 381.64 80.02 393.05 79.09 398.56 85.44 C 402.72 89.62 403.05 96.15 400.66 101.32 C 400.29 101.33 399.55 101.35 399.18 101.36 C 400.37 97.35 401.50 92.75 399.20 88.90 C 396.08 82.78 387.40 80.59 381.85 84.77 C 376.35 88.32 375.26 96.02 378.63 101.43 C 378.11 101.43 377.07 101.43 376.55 101.43 C 375.17 96.84 374.30 91.43 377.30 87.26 Z" />
<path fill="#4492a4" opacity="1.00" d=" M 168.16 111.01 C 167.30 102.65 173.87 94.74 181.94 93.16 C 189.31 91.19 197.03 95.21 201.10 101.35 C 198.81 101.51 196.54 101.88 194.30 102.37 C 191.57 99.77 187.80 97.95 183.96 98.69 C 178.50 99.56 174.04 104.42 173.65 109.93 C 173.37 115.24 176.91 120.56 182.06 122.08 C 185.53 123.30 189.15 122.09 192.52 121.17 C 192.52 121.52 192.51 122.21 192.51 122.56 C 187.91 124.61 182.28 124.90 178.08 121.81 C 171.88 117.85 170.38 108.57 174.74 102.73 C 177.40 98.76 182.33 96.72 187.05 97.29 C 191.54 97.12 194.45 101.60 198.96 101.50 C 193.58 92.18 178.73 92.13 172.69 100.77 C 167.01 107.90 168.95 119.44 176.71 124.26 C 181.29 127.66 187.22 126.82 192.49 126.19 C 192.49 126.49 192.49 127.09 192.49 127.39 C 187.33 128.99 181.43 129.06 176.73 126.08 C 171.59 122.97 167.67 117.21 168.16 111.01 Z" />
<path fill="#4492a4" opacity="1.00" d=" M 422.59 118.96 C 420.71 111.13 429.24 103.08 436.88 106.13 C 443.03 108.33 445.65 116.15 442.62 121.79 C 441.34 124.06 439.18 125.69 436.98 127.00 C 436.82 126.86 436.49 126.60 436.33 126.46 C 436.17 125.99 435.85 125.06 435.69 124.59 C 434.46 124.13 433.24 123.68 432.05 123.15 C 437.51 125.04 442.28 118.25 439.72 113.46 C 437.95 108.72 430.75 107.73 427.87 111.93 C 425.63 114.10 426.60 117.41 426.52 120.16 C 426.29 120.05 425.83 119.82 425.61 119.71 C 425.26 116.39 425.36 112.56 428.37 110.42 C 432.39 106.22 440.48 109.26 440.82 115.05 C 441.62 118.74 439.53 122.09 436.43 123.94 C 437.07 124.51 437.72 125.07 438.38 125.64 C 443.40 122.03 445.00 114.25 440.59 109.56 C 437.04 104.91 429.32 105.29 425.86 109.87 C 423.04 112.16 423.15 115.90 423.48 119.17 C 423.26 119.12 422.81 119.01 422.59 118.96 Z" />
<path fill="#4492a4" opacity="1.00" d=" M 381.74 289.05 C 382.46 288.42 383.22 287.82 383.98 287.23 C 384.69 287.38 386.11 287.68 386.81 287.82 C 384.94 289.20 383.04 290.59 380.78 291.25 C 381.02 290.70 381.50 289.60 381.74 289.05 Z" />
<path fill="#4492a4" opacity="1.00" d=" M 246.48 294.54 C 246.48 293.93 246.47 292.71 246.47 292.10 C 249.79 294.27 253.30 296.14 256.61 298.32 C 256.58 298.91 256.51 300.08 256.48 300.67 C 253.14 298.64 249.64 296.84 246.48 294.54 Z" />
<path fill="#4492a4" opacity="1.00" d=" M 360.51 301.77 C 364.24 299.98 367.79 297.83 371.61 296.21 C 372.37 298.37 370.14 298.97 368.90 299.91 C 366.24 301.46 363.46 302.81 360.55 303.82 C 360.54 303.31 360.52 302.28 360.51 301.77 Z" />
<path fill="#4492a4" opacity="1.00" d=" M 266.83 304.03 C 270.93 304.54 274.79 306.14 278.61 307.65 C 278.47 308.11 278.21 309.04 278.08 309.51 C 274.98 308.77 271.98 307.63 269.02 306.47 C 267.79 306.21 267.39 304.96 266.83 304.03 Z" />
<path fill="#4492a4" opacity="1.00" d=" M 338.41 309.49 C 342.11 308.20 345.98 307.43 349.70 306.19 C 349.62 306.73 349.48 307.82 349.40 308.36 C 345.97 309.79 342.33 310.66 338.73 311.51 L 337.99 310.94 C 338.10 310.58 338.31 309.85 338.41 309.49 Z" />
<path fill="#4492a4" opacity="1.00" d=" M 290.25 310.39 C 294.20 311.11 298.17 311.69 302.19 311.89 C 302.34 312.36 302.64 313.31 302.79 313.78 C 298.77 313.92 294.78 313.36 290.79 313.08 C 290.60 312.18 290.42 311.28 290.25 310.39 Z" />
</g>
<g id="#12283dff">
<path fill="#12283d" opacity="1.00" d=" M 491.48 78.49 C 491.89 78.02 492.73 77.06 493.15 76.58 C 494.72 80.84 496.79 84.92 498.07 89.28 C 493.69 86.96 490.37 83.05 488.16 78.67 C 489.26 78.61 490.37 78.55 491.48 78.49 Z" />
</g>
<g id="#7dcde4ff">
<path fill="#7dcde4" opacity="1.00" d=" M 229.16 77.91 C 230.62 77.84 231.59 79.27 232.81 79.87 C 232.05 80.42 231.30 80.98 230.56 81.53 C 231.37 82.65 232.71 83.55 232.95 84.99 C 232.71 86.59 231.28 87.60 229.97 88.32 C 228.33 88.20 227.23 86.79 225.94 85.97 C 226.62 85.62 227.98 84.93 228.66 84.59 C 227.76 83.25 226.04 82.15 226.28 80.36 C 227.04 79.35 228.02 78.48 229.16 77.91 Z" />
</g>
<g id="#0f2437ff">
<path fill="#0f2437" opacity="1.00" d=" M 525.87 77.49 C 526.38 78.49 526.90 79.49 527.42 80.49 C 528.71 79.80 529.99 79.10 531.27 78.37 C 529.14 82.83 525.92 86.99 521.35 89.12 C 522.83 85.23 524.46 81.41 525.87 77.49 Z" />
</g>
<g id="#d8ffffff">
<path fill="#d8ffff" opacity="1.00" d=" M 379.90 80.83 C 386.87 76.17 397.17 78.14 401.89 85.09 C 405.62 89.67 404.90 95.85 404.22 101.30 C 403.33 101.31 401.55 101.32 400.66 101.32 C 403.05 96.15 402.72 89.62 398.56 85.44 C 393.05 79.09 381.64 80.02 377.30 87.26 C 374.30 91.43 375.17 96.84 376.55 101.43 C 375.83 101.41 374.40 101.39 373.68 101.37 C 373.63 100.68 373.53 99.29 373.48 98.60 C 370.43 92.19 374.22 84.37 379.90 80.83 Z" />
</g>
<g id="#0c1e2dff">
<path fill="#0c1e2d" opacity="1.00" d=" M 512.51 85.74 C 512.46 83.56 512.54 81.38 512.91 79.24 C 514.31 83.21 516.52 87.01 517.26 91.13 C 512.42 92.92 507.16 92.57 502.24 91.32 C 503.67 87.46 505.30 83.68 507.09 79.97 C 507.33 81.86 507.49 83.77 507.61 85.67 C 509.24 85.69 510.87 85.71 512.51 85.74 Z" />
</g>
<g id="#f5f7f8ff">
<path fill="#f5f7f8" opacity="1.00" d=" M 381.85 84.77 C 387.40 80.59 396.08 82.78 399.20 88.90 C 401.50 92.75 400.37 97.35 399.18 101.36 C 397.16 101.38 395.15 101.39 393.15 101.39 C 393.34 99.72 393.88 98.04 393.60 96.36 C 392.10 94.52 390.35 92.87 389.39 90.65 C 390.69 90.62 391.99 90.57 393.30 90.48 C 392.78 88.23 390.36 87.23 388.82 85.74 C 386.98 87.36 384.47 88.57 383.56 90.96 C 383.44 93.44 386.02 94.58 387.50 96.11 C 387.49 96.85 387.48 98.32 387.48 99.05 C 386.27 98.69 385.06 98.32 383.86 97.96 C 383.83 98.82 383.76 100.54 383.73 101.40 C 382.02 101.41 380.32 101.42 378.63 101.43 C 375.26 96.02 376.35 88.32 381.85 84.77 Z" />
</g>
<g id="#468ca0ff">
<path fill="#468ca0" opacity="1.00" d=" M 340.45 84.30 C 344.60 84.91 348.56 86.36 352.52 87.74 C 352.51 88.25 352.48 89.26 352.47 89.77 C 348.53 88.66 344.65 87.35 340.72 86.22 C 340.65 85.74 340.52 84.78 340.45 84.30 Z" />
</g>
<g id="#3e8ca1ff">
<path fill="#3e8ca1" opacity="1.00" d=" M 269.63 90.02 C 271.81 85.86 277.59 86.42 281.42 84.63 C 281.42 85.41 281.43 86.19 281.44 86.96 C 277.44 87.77 273.69 89.53 269.63 90.02 Z" />
</g>
<g id="#69bec7ff">
<path fill="#69bec7" opacity="1.00" d=" M 383.56 90.96 C 384.47 88.57 386.98 87.36 388.82 85.74 C 390.36 87.23 392.78 88.23 393.30 90.48 C 391.99 90.57 390.69 90.62 389.39 90.65 C 390.35 92.87 392.10 94.52 393.60 96.36 C 393.88 98.04 393.34 99.72 393.15 101.39 C 390.01 101.36 386.86 101.37 383.73 101.40 C 383.76 100.54 383.83 98.82 383.86 97.96 C 385.06 98.32 386.27 98.69 387.48 99.05 C 387.48 98.32 387.49 96.85 387.50 96.11 C 386.02 94.58 383.44 93.44 383.56 90.96 M 386.26 90.17 C 384.95 91.11 386.21 93.92 387.75 92.72 C 389.06 91.77 387.81 88.93 386.26 90.17 M 389.26 100.13 C 391.20 99.65 393.09 97.47 390.83 95.95 C 388.41 95.81 389.62 98.69 389.26 100.13 Z" />
</g>
<g id="#9de9f1ff">
<path fill="#9de9f1" opacity="1.00" d=" M 386.26 90.17 C 387.81 88.93 389.06 91.77 387.75 92.72 C 386.21 93.92 384.95 91.11 386.26 90.17 Z" />
</g>
<g id="#00a3e4ff">
<path fill="#00a3e4" opacity="1.00" d=" M 369.62 96.09 C 369.94 94.59 370.22 92.31 371.50 91.47 C 371.62 92.87 372.02 97.32 369.62 96.09 Z" />
<path fill="#00a3e4" opacity="1.00" d=" M 635.58 288.79 C 635.58 288.69 635.58 288.49 635.57 288.39 C 640.52 288.74 645.48 288.63 650.44 288.60 C 652.57 295.15 652.25 302.61 648.76 308.65 C 644.85 315.64 637.19 320.92 629.02 320.75 C 625.87 320.82 622.72 320.74 619.57 320.79 C 619.45 315.67 619.51 310.55 619.47 305.43 C 623.53 304.56 627.95 305.32 631.84 303.81 C 637.02 300.60 635.36 293.87 635.58 288.79 Z" />
</g>
<g id="#374d65ff">
<path fill="#374d65" opacity="1.00" d=" M 249.62 98.77 C 252.79 97.04 255.77 94.79 259.33 93.88 C 257.45 97.81 252.00 97.66 249.74 101.34 C 290.61 101.40 331.49 101.40 372.37 101.33 C 372.70 101.34 373.35 101.36 373.68 101.37 C 374.40 101.39 375.83 101.41 376.55 101.43 C 377.07 101.43 378.11 101.43 378.63 101.43 C 380.32 101.42 382.02 101.41 383.73 101.40 C 386.86 101.37 390.01 101.36 393.15 101.39 C 395.15 101.39 397.16 101.38 399.18 101.36 C 399.55 101.35 400.29 101.33 400.66 101.32 C 401.55 101.32 403.33 101.31 404.22 101.30 C 404.53 101.31 405.14 101.34 405.45 101.35 C 408.04 101.11 410.63 103.40 410.67 106.01 C 410.91 110.10 410.64 114.21 410.84 118.30 C 407.06 119.06 403.33 120.06 399.68 121.28 C 399.70 118.30 399.72 115.32 399.74 112.34 C 334.29 112.46 268.85 112.25 203.40 112.45 C 203.67 153.33 203.40 194.21 203.55 235.10 C 218.69 234.73 233.84 234.88 248.98 235.02 C 269.65 234.55 290.32 235.17 310.98 234.85 C 320.00 234.94 329.03 234.66 338.04 235.09 C 344.83 235.21 351.61 234.64 358.40 234.88 C 358.45 236.42 358.52 237.98 358.66 239.53 C 358.93 239.53 359.49 239.54 359.76 239.54 L 359.38 240.21 C 355.86 241.99 352.14 243.52 349.17 246.18 C 346.20 246.20 343.22 246.22 340.25 246.26 C 339.57 246.26 338.20 246.25 337.52 246.25 C 332.65 246.18 327.78 246.19 322.91 246.17 C 308.96 246.18 295.02 246.17 281.07 246.19 C 277.79 246.18 274.50 246.19 271.21 246.29 C 269.44 246.20 267.68 246.04 265.92 245.92 C 262.20 245.69 258.48 245.75 254.77 246.00 C 254.02 246.05 252.53 246.14 251.79 246.18 C 237.27 246.23 222.76 246.18 208.24 246.19 C 207.99 246.80 207.50 248.02 207.26 248.63 C 206.07 244.92 201.80 246.57 198.93 246.18 C 195.92 246.37 192.50 244.23 192.51 240.99 C 192.41 232.96 192.58 224.94 192.44 216.91 C 192.41 203.97 192.40 191.02 192.46 178.08 C 192.54 161.18 192.46 144.29 192.49 127.39 C 192.49 127.09 192.49 126.49 192.49 126.19 C 192.50 125.28 192.50 123.47 192.51 122.56 C 192.51 122.21 192.52 121.52 192.52 121.17 C 192.57 116.15 192.29 111.14 192.55 106.13 C 192.57 104.67 193.59 103.54 194.30 102.37 C 196.54 101.88 198.81 101.51 201.10 101.35 C 216.87 101.44 232.64 101.27 248.41 101.45 C 248.81 100.56 249.21 99.67 249.62 98.77 Z" />
<path fill="#374d65" opacity="1.00" d=" M 490.04 315.00 L 490.45 314.99 C 491.17 316.87 491.31 319.13 490.24 320.93 L 489.78 320.86 C 489.72 318.90 489.56 316.91 490.04 315.00 Z" />
</g>
<g id="#d9ffffff">
<path fill="#d9ffff" opacity="1.00" d=" M 172.69 100.77 C 178.73 92.13 193.58 92.18 198.96 101.50 C 194.45 101.60 191.54 97.12 187.05 97.29 C 182.33 96.72 177.40 98.76 174.74 102.73 C 170.38 108.57 171.88 117.85 178.08 121.81 C 182.28 124.90 187.91 124.61 192.51 122.56 C 192.50 123.47 192.50 125.28 192.49 126.19 C 187.22 126.82 181.29 127.66 176.71 124.26 C 168.95 119.44 167.01 107.90 172.69 100.77 Z" />
</g>
<g id="#8ae0e7ff">
<path fill="#8ae0e7" opacity="1.00" d=" M 389.26 100.13 C 389.62 98.69 388.41 95.81 390.83 95.95 C 393.09 97.47 391.20 99.65 389.26 100.13 Z" />
</g>
<g id="#f2f8f8ff">
<path fill="#f2f8f8" opacity="1.00" d=" M 173.65 109.93 C 174.04 104.42 178.50 99.56 183.96 98.69 C 187.80 97.95 191.57 99.77 194.30 102.37 C 193.59 103.54 192.57 104.67 192.55 106.13 C 192.29 111.14 192.57 116.15 192.52 121.17 C 189.15 122.09 185.53 123.30 182.06 122.08 C 176.91 120.56 173.37 115.24 173.65 109.93 M 181.65 105.52 C 181.39 106.74 181.43 107.99 181.36 109.23 C 182.70 110.06 184.03 110.91 185.37 111.76 C 185.38 112.76 185.41 114.77 185.42 115.78 C 183.98 115.40 182.60 114.85 181.25 114.22 C 181.32 114.72 181.45 115.71 181.52 116.21 C 183.02 117.05 184.51 117.93 185.99 118.82 C 187.49 117.29 190.55 116.55 190.49 114.05 C 191.00 111.42 188.04 110.47 186.42 109.16 C 186.46 108.35 186.54 106.74 186.57 105.94 C 187.66 106.20 188.75 106.46 189.84 106.72 C 189.74 106.28 189.53 105.39 189.43 104.95 C 188.21 104.11 187.03 103.23 185.86 102.32 C 184.44 103.37 182.95 104.32 181.65 105.52 Z" />
</g>
<g id="#1192b2ff">
<path fill="#1192b2" opacity="1.00" d=" M 181.65 105.52 C 182.95 104.32 184.44 103.37 185.86 102.32 C 187.03 103.23 188.21 104.11 189.43 104.95 C 189.53 105.39 189.74 106.28 189.84 106.72 C 188.75 106.46 187.66 106.20 186.57 105.94 C 186.54 106.74 186.46 108.35 186.42 109.16 C 188.04 110.47 191.00 111.42 190.49 114.05 C 190.55 116.55 187.49 117.29 185.99 118.82 C 184.51 117.93 183.02 117.05 181.52 116.21 C 181.45 115.71 181.32 114.72 181.25 114.22 C 182.60 114.85 183.98 115.40 185.42 115.78 C 185.41 114.77 185.38 112.76 185.37 111.76 C 184.03 110.91 182.70 110.06 181.36 109.23 C 181.43 107.99 181.39 106.74 181.65 105.52 M 183.35 106.30 C 182.03 107.22 183.56 109.53 184.88 108.47 C 186.17 107.54 184.67 105.22 183.35 106.30 M 187.09 112.24 C 185.95 112.90 185.80 115.17 187.15 115.68 C 189.32 115.92 189.34 111.68 187.09 112.24 Z" />
<path fill="#1192b2" opacity="1.00" d=" M 337.52 246.25 C 338.20 246.25 339.57 246.26 340.25 246.26 C 337.21 252.34 333.16 257.84 328.77 263.01 C 327.86 263.41 326.95 263.80 326.03 264.17 C 326.32 263.18 326.62 262.21 326.96 261.25 C 330.72 256.42 334.45 251.56 337.52 246.25 Z" />
<path fill="#1192b2" opacity="1.00" d=" M 307.41 310.75 C 308.70 308.07 312.00 307.79 314.54 308.59 C 315.90 309.65 316.85 311.14 317.91 312.49 C 320.67 312.25 323.42 311.91 326.18 311.61 C 326.28 312.06 326.48 312.96 326.58 313.41 C 323.70 314.01 320.78 314.33 317.86 314.45 C 316.45 316.50 314.93 319.30 311.95 318.63 C 307.95 319.27 304.87 313.92 307.41 310.75 Z" />
</g>
<g id="#9bf3f9ff">
<path fill="#9bf3f9" opacity="1.00" d=" M 183.35 106.30 C 184.67 105.22 186.17 107.54 184.88 108.47 C 183.56 109.53 182.03 107.22 183.35 106.30 Z" />
</g>
<g id="#afeef3ff">
<path fill="#afeef3" opacity="1.00" d=" M 425.86 109.87 C 429.32 105.29 437.04 104.91 440.59 109.56 C 445.00 114.25 443.40 122.03 438.38 125.64 C 437.72 125.07 437.07 124.51 436.43 123.94 C 439.53 122.09 441.62 118.74 440.82 115.05 C 440.48 109.26 432.39 106.22 428.37 110.42 C 425.36 112.56 425.26 116.39 425.61 119.71 C 425.07 119.58 424.01 119.30 423.48 119.17 C 423.15 115.90 423.04 112.16 425.86 109.87 Z" />
</g>
<g id="#eff9faff">
<path fill="#eff9fa" opacity="1.00" d=" M 427.87 111.93 C 430.75 107.73 437.95 108.72 439.72 113.46 C 442.28 118.25 437.51 125.04 432.05 123.15 C 430.17 122.23 428.40 121.10 426.52 120.16 C 426.60 117.41 425.63 114.10 427.87 111.93 M 433.15 111.25 C 431.98 111.91 430.46 112.63 430.16 114.07 C 430.36 115.56 431.40 116.75 432.06 118.07 C 431.49 118.32 430.36 118.83 429.79 119.09 C 431.15 119.97 432.45 122.59 434.32 121.36 C 435.22 120.75 435.96 119.98 436.55 119.05 C 436.85 117.19 435.05 116.11 434.05 114.85 C 434.60 114.54 435.70 113.92 436.25 113.62 C 435.32 112.71 434.54 111.43 433.15 111.25 Z" />
</g>
<g id="#74c9d5ff">
<path fill="#74c9d5" opacity="1.00" d=" M 433.15 111.25 C 434.54 111.43 435.32 112.71 436.25 113.62 C 435.70 113.92 434.60 114.54 434.05 114.85 C 435.05 116.11 436.85 117.19 436.55 119.05 C 435.96 119.98 435.22 120.75 434.32 121.36 C 432.45 122.59 431.15 119.97 429.79 119.09 C 430.36 118.83 431.49 118.32 432.06 118.07 C 431.40 116.75 430.36 115.56 430.16 114.07 C 430.46 112.63 431.98 111.91 433.15 111.25 Z" />
</g>
<g id="#97e8efff">
<path fill="#97e8ef" opacity="1.00" d=" M 187.09 112.24 C 189.34 111.68 189.32 115.92 187.15 115.68 C 185.80 115.17 185.95 112.90 187.09 112.24 Z" />
</g>
<g id="#badaf3ff">
<path fill="#badaf3" opacity="1.00" d=" M 203.40 112.45 C 268.85 112.25 334.29 112.46 399.74 112.34 C 399.72 115.32 399.70 118.30 399.68 121.28 C 397.68 122.06 395.77 123.02 393.84 123.95 C 393.71 124.38 393.46 125.23 393.34 125.66 L 392.71 125.56 C 390.83 125.22 388.95 124.83 387.04 124.73 C 333.35 124.74 279.66 124.73 225.96 124.73 C 219.33 124.77 212.70 124.55 206.08 124.96 C 206.02 160.72 205.86 196.47 206.04 232.23 C 234.70 232.63 263.37 232.29 292.04 232.39 C 314.14 232.37 336.24 232.46 358.34 232.32 C 358.35 232.96 358.38 234.24 358.40 234.88 C 351.61 234.64 344.83 235.21 338.04 235.09 C 329.03 234.66 320.00 234.94 310.98 234.85 C 290.32 235.17 269.65 234.55 248.98 235.02 C 233.84 234.88 218.69 234.73 203.55 235.10 C 203.40 194.21 203.67 153.33 203.40 112.45 M 212.34 116.51 C 212.09 118.78 213.03 120.70 214.99 121.85 C 216.00 120.70 218.17 119.79 217.58 117.88 C 217.03 115.38 214.08 116.41 212.34 116.51 M 224.73 116.56 C 224.62 117.67 224.50 118.78 224.39 119.90 C 226.04 120.56 227.80 120.70 229.57 120.62 C 229.59 119.19 229.61 117.76 229.63 116.33 C 227.99 116.39 226.36 116.46 224.73 116.56 M 237.63 116.60 C 237.39 117.94 237.35 119.30 237.28 120.65 C 238.63 120.57 240.10 120.98 241.38 120.41 C 242.64 119.22 241.80 117.60 241.59 116.19 C 240.26 116.28 238.93 116.32 237.63 116.60 M 251.43 116.54 C 249.85 116.84 250.25 119.16 250.75 120.26 C 254.32 121.64 258.27 121.01 262.01 121.13 C 303.38 120.96 344.75 121.09 386.11 121.02 C 387.76 121.11 389.16 119.81 388.78 118.11 C 388.82 116.09 386.42 116.17 385.02 116.16 C 343.70 116.16 302.38 116.18 261.06 116.16 C 257.85 116.21 254.59 115.84 251.43 116.54 Z" />
<path fill="#badaf3" opacity="1.00" d=" M 528.95 246.23 C 531.80 247.14 530.06 250.62 530.52 252.74 C 528.71 251.05 529.14 248.45 528.95 246.23 Z" />
<path fill="#badaf3" opacity="1.00" d=" M 488.90 258.02 C 489.57 261.27 489.73 264.60 489.88 267.92 C 490.60 268.02 492.05 268.20 492.77 268.30 C 492.78 268.91 492.78 270.14 492.79 270.76 C 491.64 270.56 490.49 270.37 489.35 270.17 C 489.81 266.13 489.48 262.03 488.90 258.02 Z" />
</g>
<g id="#0072b9ff">
<path fill="#0072b9" opacity="1.00" d=" M 541.99 112.87 C 544.80 115.53 547.20 118.81 550.88 120.35 C 555.48 122.38 560.11 124.91 563.08 129.11 C 563.21 133.06 563.01 137.31 560.56 140.62 C 557.98 144.48 554.12 147.17 550.44 149.88 C 546.35 147.09 541.43 142.94 536.19 145.27 C 530.98 147.00 528.61 153.80 532.28 158.12 C 529.61 158.45 526.90 158.53 524.25 158.04 C 524.11 157.85 523.83 157.47 523.69 157.27 L 522.85 156.01 C 522.40 155.12 521.98 154.22 521.60 153.31 C 517.92 145.58 520.02 136.56 524.65 129.73 C 524.53 130.53 524.29 132.13 524.18 132.93 C 529.99 133.35 534.66 129.45 538.73 125.83 C 541.36 123.59 541.92 120.01 543.39 117.05 C 542.89 115.67 542.41 114.27 541.99 112.87 Z" />
</g>
<g id="#c63d2aff">
<path fill="#c63d2a" opacity="1.00" d=" M 212.34 116.51 C 214.08 116.41 217.03 115.38 217.58 117.88 C 218.17 119.79 216.00 120.70 214.99 121.85 C 213.03 120.70 212.09 118.78 212.34 116.51 Z" />
</g>
<g id="#eeaf2dff">
<path fill="#eeaf2d" opacity="1.00" d=" M 224.73 116.56 C 226.36 116.46 227.99 116.39 229.63 116.33 C 229.61 117.76 229.59 119.19 229.57 120.62 C 227.80 120.70 226.04 120.56 224.39 119.90 C 224.50 118.78 224.62 117.67 224.73 116.56 Z" />
</g>
<g id="#0fa3b0ff">
<path fill="#0fa3b0" opacity="1.00" d=" M 237.63 116.60 C 238.93 116.32 240.26 116.28 241.59 116.19 C 241.80 117.60 242.64 119.22 241.38 120.41 C 240.10 120.98 238.63 120.57 237.28 120.65 C 237.35 119.30 237.39 117.94 237.63 116.60 Z" />
</g>
<g id="#fbffffff">
<path fill="#fbffff" opacity="1.00" d=" M 251.43 116.54 C 254.59 115.84 257.85 116.21 261.06 116.16 C 302.38 116.18 343.70 116.16 385.02 116.16 C 386.42 116.17 388.82 116.09 388.78 118.11 C 389.16 119.81 387.76 121.11 386.11 121.02 C 344.75 121.09 303.38 120.96 262.01 121.13 C 258.27 121.01 254.32 121.64 250.75 120.26 C 250.25 119.16 249.85 116.84 251.43 116.54 Z" />
</g>
<g id="#f0ec2bff">
<path fill="#f0ec2b" opacity="1.00" d=" M 452.45 119.40 C 457.97 113.40 469.39 116.04 471.55 123.97 C 472.00 127.75 472.27 132.18 469.42 135.15 C 469.07 135.50 468.37 136.21 468.02 136.57 C 463.42 137.93 458.28 138.48 453.94 136.03 C 447.73 133.21 447.97 123.66 452.45 119.40 Z" />
</g>
<g id="#cbeb5cff">
<path fill="#cbeb5c" opacity="1.00" d=" M 410.84 118.30 C 414.75 117.82 418.71 118.40 422.59 118.96 C 422.81 119.01 423.26 119.12 423.48 119.17 C 424.01 119.30 425.07 119.58 425.61 119.71 C 425.83 119.82 426.29 120.05 426.52 120.16 C 428.40 121.10 430.17 122.23 432.05 123.15 C 433.24 123.68 434.46 124.13 435.69 124.59 C 435.85 125.06 436.17 125.99 436.33 126.46 C 436.49 126.60 436.82 126.86 436.98 127.00 C 439.71 129.54 442.36 132.36 443.92 135.79 C 444.51 137.30 445.03 138.84 445.57 140.38 L 444.27 140.27 C 439.02 124.68 420.46 116.49 405.01 120.80 C 400.76 121.51 397.43 124.54 393.34 125.66 C 393.46 125.23 393.71 124.38 393.84 123.95 C 395.77 123.02 397.68 122.06 399.68 121.28 C 403.33 120.06 407.06 119.06 410.84 118.30 Z" />
</g>
<g id="#d6f804ff">
<path fill="#d6f804" opacity="1.00" d=" M 405.01 120.80 C 420.46 116.49 439.02 124.68 444.27 140.27 C 429.22 138.84 413.60 144.11 403.13 155.16 C 396.86 161.02 393.17 168.89 390.18 176.80 L 389.58 176.24 C 382.34 170.15 379.39 160.22 380.16 150.99 C 379.63 140.99 385.48 131.96 392.71 125.56 L 393.34 125.66 C 397.43 124.54 400.76 121.51 405.01 120.80 Z" />
</g>
<g id="#fefefeff">
<path fill="#fefefe" opacity="1.00" d=" M 206.08 124.96 C 212.70 124.55 219.33 124.77 225.96 124.73 C 279.66 124.73 333.35 124.74 387.04 124.73 C 388.95 124.83 390.83 125.22 392.71 125.56 C 385.48 131.96 379.63 140.99 380.16 150.99 C 379.39 160.22 382.34 170.15 389.58 176.24 C 389.58 182.66 388.87 189.08 389.30 195.50 C 389.11 195.53 388.72 195.59 388.53 195.62 C 381.73 196.96 375.24 199.88 369.99 204.44 C 321.41 204.58 272.83 204.51 224.24 204.48 C 224.24 205.56 224.24 206.65 224.25 207.74 C 271.71 207.67 319.18 207.71 366.64 207.72 C 365.56 209.19 364.56 210.71 363.61 212.26 C 317.17 212.66 270.72 212.36 224.28 212.41 C 224.27 213.47 224.26 214.54 224.25 215.61 C 269.91 215.65 315.57 215.42 361.23 215.72 L 361.02 217.01 C 359.11 221.88 358.03 227.06 358.34 232.32 C 336.24 232.46 314.14 232.37 292.04 232.39 C 263.37 232.29 234.70 232.63 206.04 232.23 C 205.86 196.47 206.02 160.72 206.08 124.96 M 224.38 175.39 C 248.76 175.33 273.14 175.36 297.52 175.38 L 297.50 175.10 C 297.76 172.36 297.82 169.60 297.90 166.84 C 299.09 170.83 300.17 174.86 301.03 178.93 C 303.14 177.21 305.04 175.26 306.95 173.33 C 309.61 176.60 312.73 179.45 315.76 182.37 C 312.36 182.56 308.96 182.54 305.57 182.51 C 305.47 187.18 305.69 191.85 305.31 196.52 C 306.47 197.10 307.71 197.38 309.03 197.33 C 331.02 197.31 353.01 197.28 375.01 197.35 C 376.40 197.36 377.78 197.24 379.16 196.98 C 379.76 192.09 378.81 187.11 379.82 182.26 C 381.02 180.37 380.40 177.81 379.42 175.94 C 377.20 171.42 369.75 170.67 366.88 174.88 C 364.98 176.85 364.98 179.90 365.69 182.38 C 365.50 182.45 365.12 182.61 364.94 182.69 C 351.86 182.78 338.78 182.63 325.71 182.77 C 326.39 181.85 327.07 180.92 327.77 180.01 C 323.83 176.32 320.16 172.37 316.26 168.66 C 315.61 167.82 314.41 167.20 314.29 166.07 C 315.85 164.16 317.72 162.53 319.46 160.79 C 312.21 158.64 304.85 156.91 297.58 154.83 C 297.67 147.75 297.75 140.67 297.54 133.60 C 273.16 133.66 248.79 133.68 224.41 133.58 C 224.19 147.51 224.27 161.46 224.38 175.39 M 307.90 133.89 C 306.60 136.33 309.04 137.17 310.99 136.77 C 333.31 136.61 355.65 136.83 377.97 136.67 C 380.39 136.74 379.20 133.11 377.09 133.71 C 354.03 133.79 330.95 133.43 307.90 133.89 M 309.08 144.68 C 332.66 144.51 356.27 145.07 379.84 144.40 C 379.29 142.57 377.99 141.10 375.94 141.57 C 353.61 141.71 331.26 141.44 308.94 141.71 C 306.79 141.38 307.36 145.06 309.08 144.68 M 307.98 149.36 C 308.01 150.50 307.11 152.84 309.13 152.60 C 316.47 152.75 323.82 152.48 331.16 152.70 C 331.13 151.59 331.11 150.47 331.08 149.36 C 323.38 149.55 315.68 149.53 307.98 149.36 M 224.51 197.37 C 248.85 197.19 273.19 197.33 297.54 197.30 C 297.77 192.38 297.69 187.44 297.63 182.52 C 273.23 182.46 248.82 182.63 224.41 182.43 C 224.19 187.41 224.07 192.40 224.51 197.37 M 224.29 220.33 C 224.24 221.05 224.15 222.49 224.10 223.21 C 249.85 223.75 275.62 223.18 301.37 223.49 C 301.51 222.44 301.64 221.39 301.78 220.34 C 275.95 220.39 250.12 220.40 224.29 220.33 Z" />
<path fill="#fefefe" opacity="1.00" d=" M 536.19 145.27 C 541.43 142.94 546.35 147.09 550.44 149.88 C 555.96 153.14 559.54 144.65 564.96 145.69 C 567.56 147.96 566.99 151.86 566.06 154.80 C 565.21 156.81 563.69 159.49 561.08 158.82 C 558.29 156.83 555.99 154.22 553.15 152.30 C 548.93 154.31 545.13 157.17 540.72 158.78 C 537.94 159.92 534.98 159.02 532.28 158.12 C 528.61 153.80 530.98 147.00 536.19 145.27 Z" />
<path fill="#fefefe" opacity="1.00" d=" M 489.16 187.89 C 491.16 186.52 493.09 185.05 494.83 183.35 C 498.29 186.46 503.51 187.83 505.48 192.39 C 507.19 195.73 506.17 199.54 505.69 203.05 C 505.63 201.16 505.56 199.28 505.48 197.40 C 503.32 198.17 501.30 199.48 498.99 199.73 C 496.39 198.89 493.69 196.30 490.85 197.86 C 488.55 198.85 489.46 201.74 489.25 203.69 C 492.82 204.27 495.93 202.53 499.10 201.24 C 501.07 201.61 502.48 203.30 504.13 204.34 C 503.50 204.94 502.87 205.53 502.24 206.11 C 499.80 205.91 497.37 205.75 494.94 205.59 C 494.49 206.17 493.59 207.33 493.14 207.90 C 492.36 207.68 490.80 207.22 490.02 207.00 C 489.10 206.48 488.23 205.89 487.39 205.27 C 485.31 202.94 484.35 199.96 483.60 197.00 C 484.43 193.46 485.77 189.76 489.16 187.89 M 497.45 203.12 C 497.67 204.44 498.39 204.66 499.61 203.75 C 499.38 202.41 498.66 202.20 497.45 203.12 Z" />
</g>
<g id="#04578aff">
<path fill="#04578a" opacity="1.00" d=" M 563.08 129.11 C 567.03 133.75 568.92 139.98 568.51 146.04 C 568.49 156.12 560.86 165.40 551.11 167.72 C 541.66 170.44 530.78 166.82 524.92 158.91 L 524.25 158.04 C 526.90 158.53 529.61 158.45 532.28 158.12 C 534.98 159.02 537.94 159.92 540.72 158.78 C 545.13 157.17 548.93 154.31 553.15 152.30 C 555.99 154.22 558.29 156.83 561.08 158.82 C 563.69 159.49 565.21 156.81 566.06 154.80 C 566.99 151.86 567.56 147.96 564.96 145.69 C 559.54 144.65 555.96 153.14 550.44 149.88 C 554.12 147.17 557.98 144.48 560.56 140.62 C 563.01 137.31 563.21 133.06 563.08 129.11 M 546.03 159.95 C 548.10 159.59 549.97 158.52 552.03 158.11 C 553.43 158.67 554.77 159.40 556.16 160.04 C 555.48 158.57 554.96 156.34 552.93 156.36 C 549.99 155.65 547.72 157.89 546.03 159.95 M 541.16 162.49 C 542.21 165.83 546.14 166.06 549.06 166.07 C 552.05 165.81 556.06 165.41 557.24 162.12 C 552.16 164.59 546.41 164.18 541.16 162.49 Z" />
</g>
<g id="#f54400ff">
<path fill="#f54400" opacity="1.00" d=" M 224.38 175.39 C 224.27 161.46 224.19 147.51 224.41 133.58 C 248.79 133.68 273.16 133.66 297.54 133.60 C 297.75 140.67 297.67 147.75 297.58 154.83 C 296.75 154.60 295.93 154.38 295.11 154.16 C 295.43 157.82 296.57 161.33 297.15 164.95 C 297.25 168.34 297.11 171.73 297.50 175.10 L 297.52 175.38 C 273.14 175.36 248.76 175.33 224.38 175.39 M 243.31 141.43 C 243.43 142.12 243.66 143.51 243.78 144.20 C 246.22 144.41 248.67 144.40 251.12 144.55 C 252.77 150.29 253.96 156.25 256.65 161.63 C 262.51 161.52 268.37 161.71 274.22 161.48 C 275.73 157.71 276.88 153.81 278.04 149.92 C 278.69 148.57 278.17 147.24 277.25 146.21 C 274.15 144.40 270.36 145.58 266.98 145.29 C 263.16 145.62 258.93 144.34 255.44 146.35 C 254.92 145.54 254.40 144.72 253.89 143.92 C 253.71 143.33 253.36 142.15 253.18 141.57 C 249.89 141.35 246.60 141.33 243.31 141.43 M 258.21 163.13 C 255.66 165.48 259.48 169.35 262.04 166.96 C 264.19 164.41 260.53 160.57 258.21 163.13 M 268.49 167.51 C 270.59 167.88 272.78 167.32 273.49 165.07 C 272.95 162.96 270.74 161.68 268.67 162.62 C 268.11 164.20 268.40 165.88 268.49 167.51 Z" />
</g>
<g id="#96b9d7ff">
<path fill="#96b9d7" opacity="1.00" d=" M 307.90 133.89 C 330.95 133.43 354.03 133.79 377.09 133.71 C 379.20 133.11 380.39 136.74 377.97 136.67 C 355.65 136.83 333.31 136.61 310.99 136.77 C 309.04 137.17 306.60 136.33 307.90 133.89 Z" />
</g>
<g id="#cfb901ff">
<path fill="#cfb901" opacity="1.00" d=" M 443.92 135.79 L 444.03 135.99 C 444.14 136.18 444.36 136.57 444.46 136.76 C 445.33 139.25 447.21 141.05 449.85 141.42 C 448.63 141.31 447.41 141.23 446.20 141.16 C 449.33 150.91 448.31 162.04 442.86 170.79 C 438.38 177.37 432.02 183.09 424.19 185.22 C 412.53 188.97 398.39 186.26 390.18 176.80 C 393.17 168.89 396.86 161.02 403.13 155.16 C 413.60 144.11 429.22 138.84 444.27 140.27 L 445.57 140.38 C 445.03 138.84 444.51 137.30 443.92 135.79 Z" />
</g>
<g id="#95d77aff">
<path fill="#95d77a" opacity="1.00" d=" M 444.03 135.99 C 447.29 135.89 450.77 134.84 453.94 136.03 C 458.28 138.48 463.42 137.93 468.02 136.57 C 467.45 137.12 466.87 137.67 466.30 138.20 C 462.63 139.74 458.46 140.02 454.89 138.06 C 451.68 136.28 448.02 136.17 444.46 136.76 C 444.36 136.57 444.14 136.18 444.03 135.99 Z" />
</g>
<g id="#53b9b4ff">
<path fill="#53b9b4" opacity="1.00" d=" M 468.02 136.57 C 468.37 136.21 469.07 135.50 469.42 135.15 C 470.02 140.28 469.78 145.46 469.66 150.62 C 468.10 149.53 466.53 148.43 464.93 147.40 C 465.76 147.39 467.40 147.38 468.23 147.37 C 467.99 144.31 469.62 140.05 466.30 138.20 C 466.87 137.67 467.45 137.12 468.02 136.57 Z" />
</g>
<g id="#039ca1ff">
<path fill="#039ca1" opacity="1.00" d=" M 444.46 136.76 C 448.02 136.17 451.68 136.28 454.89 138.06 C 458.46 140.02 462.63 139.74 466.30 138.20 C 469.62 140.05 467.99 144.31 468.23 147.37 C 467.40 147.38 465.76 147.39 464.93 147.40 C 460.26 144.64 455.25 142.30 449.85 141.42 C 447.21 141.05 445.33 139.25 444.46 136.76 Z" />
</g>
<g id="#d6f708ff">
<path fill="#d6f708" opacity="1.00" d=" M 474.77 146.75 C 471.45 145.02 471.04 139.14 475.02 138.00 C 477.53 136.77 479.35 139.12 480.82 140.77 C 480.40 142.30 480.72 144.23 479.48 145.42 C 478.22 146.62 476.33 146.38 474.77 146.75 Z" />
</g>
<g id="#f4be1eff">
<path fill="#f4be1e" opacity="1.00" d=" M 446.20 141.16 C 447.41 141.23 448.63 141.31 449.85 141.42 C 455.25 142.30 460.26 144.64 464.93 147.40 C 466.53 148.43 468.10 149.53 469.66 150.62 C 478.78 157.23 484.73 167.43 487.86 178.10 C 487.73 178.15 487.47 178.26 487.34 178.31 C 482.30 180.85 478.27 185.47 477.02 191.04 C 475.07 198.41 478.53 206.39 484.53 210.84 L 484.90 211.09 C 481.77 217.77 477.21 223.65 471.81 228.66 L 471.65 228.53 C 460.52 219.50 444.87 216.79 431.21 220.85 C 430.43 221.01 428.88 221.33 428.10 221.49 C 426.14 215.00 422.67 208.92 417.52 204.44 C 409.97 197.55 399.41 194.39 389.30 195.50 C 388.87 189.08 389.58 182.66 389.58 176.24 L 390.18 176.80 C 398.39 186.26 412.53 188.97 424.19 185.22 C 432.02 183.09 438.38 177.37 442.86 170.79 C 448.31 162.04 449.33 150.91 446.20 141.16 M 439.33 186.62 C 438.64 188.72 438.12 190.88 437.63 193.04 C 436.76 192.23 435.89 191.42 435.04 190.61 C 432.47 190.46 429.89 190.21 427.33 190.55 C 425.47 194.55 425.72 199.31 424.34 203.54 C 425.37 203.59 426.41 203.64 427.45 203.70 C 427.76 202.63 428.08 201.57 428.41 200.51 C 431.48 200.50 434.90 200.12 436.64 197.22 C 435.95 198.73 437.15 201.28 439.08 200.25 C 440.29 198.29 440.31 195.89 440.68 193.68 C 441.36 193.28 442.73 192.49 443.41 192.10 C 445.36 194.58 443.73 197.77 443.63 200.55 C 447.92 200.96 447.27 195.49 448.64 192.75 C 447.80 191.98 446.97 191.21 446.15 190.45 C 444.84 190.46 443.54 190.47 442.24 190.49 C 441.93 189.18 441.64 187.88 441.37 186.57 C 440.86 186.58 439.84 186.60 439.33 186.62 M 449.64 190.55 C 448.41 194.96 447.12 199.42 447.29 204.06 C 449.60 204.12 450.54 202.66 450.80 200.64 C 453.41 200.28 456.66 200.59 458.35 198.11 C 459.90 196.65 459.53 194.41 459.69 192.50 C 458.92 191.83 458.17 191.16 457.43 190.49 C 454.83 190.37 452.23 190.38 449.64 190.55 Z" />
</g>
<g id="#fff0e2ff">
<path fill="#fff0e2" opacity="1.00" d=" M 243.31 141.43 C 246.60 141.33 249.89 141.35 253.18 141.57 C 253.36 142.15 253.71 143.33 253.89 143.92 C 255.34 148.81 256.71 153.73 258.36 158.56 C 263.01 158.58 267.66 158.59 272.31 158.51 C 273.26 155.44 274.17 152.35 274.97 149.24 C 269.97 149.08 264.97 149.37 259.97 149.13 C 258.10 149.33 256.94 147.74 255.70 146.66 C 262.85 145.87 270.06 146.41 277.25 146.21 C 278.17 147.24 278.69 148.57 278.04 149.92 C 276.88 153.81 275.73 157.71 274.22 161.48 C 268.37 161.71 262.51 161.52 256.65 161.63 C 253.96 156.25 252.77 150.29 251.12 144.55 C 248.67 144.40 246.22 144.41 243.78 144.20 C 243.66 143.51 243.43 142.12 243.31 141.43 Z" />
</g>
<g id="#95b8d4ff">
<path fill="#95b8d4" opacity="1.00" d=" M 309.08 144.68 C 307.36 145.06 306.79 141.38 308.94 141.71 C 331.26 141.44 353.61 141.71 375.94 141.57 C 377.99 141.10 379.29 142.57 379.84 144.40 C 356.27 145.07 332.66 144.51 309.08 144.68 Z" />
<path fill="#95b8d4" opacity="1.00" d=" M 523.11 247.53 C 525.61 248.43 526.75 245.88 528.33 244.60 C 528.23 247.04 527.83 249.45 527.31 251.84 C 525.52 251.35 523.79 252.09 522.03 252.24 C 519.22 251.42 520.63 247.66 522.76 246.89 C 522.58 247.91 522.20 249.97 522.01 250.99 C 522.55 251.02 523.63 251.07 524.17 251.10 C 523.90 250.21 523.38 248.42 523.11 247.53 Z" />
</g>
<g id="#c94723ff">
<path fill="#c94723" opacity="1.00" d=" M 253.89 143.92 C 254.40 144.72 254.92 145.54 255.44 146.35 C 258.93 144.34 263.16 145.62 266.98 145.29 C 270.36 145.58 274.15 144.40 277.25 146.21 C 270.06 146.41 262.85 145.87 255.70 146.66 C 256.94 147.74 258.10 149.33 259.97 149.13 C 264.97 149.37 269.97 149.08 274.97 149.24 C 274.17 152.35 273.26 155.44 272.31 158.51 C 267.66 158.59 263.01 158.58 258.36 158.56 C 256.71 153.73 255.34 148.81 253.89 143.92 M 257.66 150.87 C 257.97 151.42 258.60 152.52 258.91 153.06 C 263.25 153.30 267.65 153.40 271.98 152.98 C 272.17 152.42 272.53 151.31 272.71 150.76 C 267.69 150.72 262.67 150.62 257.66 150.87 M 258.97 154.59 C 259.21 155.14 259.71 156.24 259.96 156.79 C 263.54 157.07 267.17 157.05 270.75 156.66 C 271.00 156.15 271.51 155.14 271.77 154.63 C 267.50 154.51 263.23 154.51 258.97 154.59 Z" />
</g>
<g id="#9abbd9ff">
<path fill="#9abbd9" opacity="1.00" d=" M 307.98 149.36 C 315.68 149.53 323.38 149.55 331.08 149.36 C 331.11 150.47 331.13 151.59 331.16 152.70 C 323.82 152.48 316.47 152.75 309.13 152.60 C 307.11 152.84 308.01 150.50 307.98 149.36 Z" />
<path fill="#9abbd9" opacity="1.00" d=" M 495.26 252.36 C 495.34 250.35 494.97 248.21 495.73 246.30 C 495.89 247.73 496.39 247.92 497.24 246.87 C 497.74 247.82 498.26 248.77 498.78 249.73 C 499.62 248.05 500.43 246.27 502.05 245.20 C 502.13 247.61 502.65 250.21 501.50 252.48 C 501.34 251.82 501.01 250.50 500.84 249.84 C 500.20 250.58 499.55 251.31 498.88 252.02 C 498.41 251.60 497.47 250.76 497.00 250.33 C 496.57 250.84 495.69 251.85 495.26 252.36 Z" />
</g>
<g id="#ffc9acff">
<path fill="#ffc9ac" opacity="1.00" d=" M 257.66 150.87 C 262.67 150.62 267.69 150.72 272.71 150.76 C 272.53 151.31 272.17 152.42 271.98 152.98 C 267.65 153.40 263.25 153.30 258.91 153.06 C 258.60 152.52 257.97 151.42 257.66 150.87 Z" />
</g>
<g id="#183147ff">
<path fill="#183147" opacity="1.00" d=" M 295.11 154.16 C 295.93 154.38 296.75 154.60 297.58 154.83 C 304.85 156.91 312.21 158.64 319.46 160.79 C 317.72 162.53 315.85 164.16 314.29 166.07 C 314.41 167.20 315.61 167.82 316.26 168.66 C 320.16 172.37 323.83 176.32 327.77 180.01 C 327.07 180.92 326.39 181.85 325.71 182.77 C 338.78 182.63 351.86 182.78 364.94 182.69 L 363.97 183.08 C 351.98 183.16 339.98 183.07 327.99 183.06 C 324.81 182.66 322.75 185.39 320.53 187.15 C 318.95 185.55 317.37 183.95 315.76 182.37 C 312.73 179.45 309.61 176.60 306.95 173.33 C 305.04 175.26 303.14 177.21 301.03 178.93 C 300.17 174.86 299.09 170.83 297.90 166.84 C 297.82 169.60 297.76 172.36 297.50 175.10 C 297.11 171.73 297.25 168.34 297.15 164.95 C 296.57 161.33 295.43 157.82 295.11 154.16 Z" />
</g>
<g id="#ffc6aaff">
<path fill="#ffc6aa" opacity="1.00" d=" M 258.97 154.59 C 263.23 154.51 267.50 154.51 271.77 154.63 C 271.51 155.14 271.00 156.15 270.75 156.66 C 267.17 157.05 263.54 157.07 259.96 156.79 C 259.71 156.24 259.21 155.14 258.97 154.59 Z" />
</g>
<g id="#d4e9faff">
<path fill="#d4e9fa" opacity="1.00" d=" M 546.03 159.95 C 547.72 157.89 549.99 155.65 552.93 156.36 C 554.96 156.34 555.48 158.57 556.16 160.04 C 554.77 159.40 553.43 158.67 552.03 158.11 C 549.97 158.52 548.10 159.59 546.03 159.95 Z" />
<path fill="#d4e9fa" opacity="1.00" d=" M 541.16 162.49 C 546.41 164.18 552.16 164.59 557.24 162.12 C 556.06 165.41 552.05 165.81 549.06 166.07 C 546.14 166.06 542.21 165.83 541.16 162.49 Z" />
<path fill="#d4e9fa" opacity="1.00" d=" M 280.99 246.54 C 292.44 257.97 303.75 269.55 315.29 280.90 C 306.23 281.68 297.12 281.02 288.04 281.24 C 283.42 281.06 278.72 281.74 274.17 280.82 C 272.49 276.08 277.62 270.76 274.65 266.43 C 274.82 266.28 275.17 265.98 275.35 265.84 C 276.07 265.32 276.57 264.64 276.84 263.79 C 278.33 258.06 278.98 252.14 280.99 246.54 Z" />
<path fill="#d4e9fa" opacity="1.00" d=" M 471.69 315.87 C 473.81 313.55 477.10 314.30 479.89 314.15 C 479.86 314.49 479.80 315.18 479.78 315.53 C 477.70 315.59 475.63 315.68 473.58 315.91 C 474.79 318.20 477.68 317.29 479.63 318.36 C 481.12 319.73 479.89 322.41 477.98 322.43 C 475.95 322.68 473.92 322.54 471.90 322.51 C 472.08 322.24 472.43 321.70 472.61 321.43 C 474.67 321.02 476.92 321.04 478.68 319.71 C 476.66 319.24 474.65 318.86 472.63 318.49 C 472.40 317.84 471.93 316.52 471.69 315.87 Z" />
<path fill="#d4e9fa" opacity="1.00" d=" M 490.45 314.99 C 491.01 314.73 492.13 314.22 492.70 313.96 C 492.81 316.28 492.89 318.60 493.00 320.93 C 495.10 321.06 497.20 321.18 499.31 321.39 C 497.07 323.92 492.71 322.53 490.24 320.93 C 491.31 319.13 491.17 316.87 490.45 314.99 Z" />
<path fill="#d4e9fa" opacity="1.00" d=" M 462.69 322.10 C 462.87 320.17 461.13 316.63 464.21 316.27 C 464.28 317.82 464.33 319.38 464.39 320.94 C 465.87 321.04 467.36 321.14 468.86 321.23 C 468.87 319.68 468.87 318.12 468.88 316.57 C 469.46 316.62 470.62 316.72 471.20 316.76 C 471.19 319.13 471.22 321.51 471.04 323.88 C 468.40 325.31 464.28 326.15 461.97 323.78 C 464.46 323.56 467.00 323.57 469.44 322.93 C 467.21 322.49 464.94 322.31 462.69 322.10 Z" />
</g>
<g id="#ccccceff">
<path fill="#ccccce" opacity="1.00" d=" M 523.69 157.27 C 523.83 157.47 524.11 157.85 524.25 158.04 L 524.92 158.91 C 520.92 159.16 516.93 159.23 512.93 159.28 C 523.39 180.81 533.91 202.34 544.99 223.57 C 544.41 224.04 543.85 224.54 543.32 225.06 C 541.47 219.70 538.59 214.78 536.13 209.69 C 527.60 192.39 518.66 175.28 510.46 157.81 C 514.87 157.76 519.29 157.67 523.69 157.27 Z" />
</g>
<g id="#fff9f2ff">
<path fill="#fff9f2" opacity="1.00" d=" M 258.21 163.13 C 260.53 160.57 264.19 164.41 262.04 166.96 C 259.48 169.35 255.66 165.48 258.21 163.13 Z" />
</g>
<g id="#fff4eaff">
<path fill="#fff4ea" opacity="1.00" d=" M 268.49 167.51 C 268.40 165.88 268.11 164.20 268.67 162.62 C 270.74 161.68 272.95 162.96 273.49 165.07 C 272.78 167.32 270.59 167.88 268.49 167.51 Z" />
</g>
<g id="#e1a314ff">
<path fill="#e1a314" opacity="1.00" d=" M 366.88 174.88 C 369.75 170.67 377.20 171.42 379.42 175.94 C 380.40 177.81 381.02 180.37 379.82 182.26 C 378.33 184.64 376.03 186.98 372.98 186.70 C 369.77 187.13 367.37 184.78 365.69 182.38 C 364.98 179.90 364.98 176.85 366.88 174.88 Z" />
</g>
<g id="#cc4321ff">
<path fill="#cc4321" opacity="1.00" d=" M 487.86 178.10 C 498.70 173.20 512.52 181.10 513.73 192.93 L 513.94 194.21 C 513.91 194.89 513.85 196.25 513.82 196.93 L 513.69 198.31 C 512.72 203.23 510.04 207.94 505.79 210.72 C 499.71 215.01 491.20 214.77 484.90 211.09 L 484.53 210.84 C 485.61 209.05 486.56 207.19 487.39 205.27 C 488.23 205.89 489.10 206.48 490.02 207.00 C 493.73 209.49 498.91 209.03 502.24 206.11 C 502.87 205.53 503.50 204.94 504.13 204.34 C 502.48 203.30 501.07 201.61 499.10 201.24 C 495.93 202.53 492.82 204.27 489.25 203.69 C 489.46 201.74 488.55 198.85 490.85 197.86 C 493.69 196.30 496.39 198.89 498.99 199.73 C 501.30 199.48 503.32 198.17 505.48 197.40 C 505.56 199.28 505.63 201.16 505.69 203.05 C 506.17 199.54 507.19 195.73 505.48 192.39 C 503.51 187.83 498.29 186.46 494.83 183.35 C 493.09 185.05 491.16 186.52 489.16 187.89 C 489.03 184.62 488.61 181.35 487.34 178.31 C 487.47 178.26 487.73 178.15 487.86 178.10 Z" />
</g>
<g id="#0e93b4ff">
<path fill="#0e93b4" opacity="1.00" d=" M 176.29 196.97 C 176.22 187.91 183.53 179.46 192.46 178.08 C 192.40 191.02 192.41 203.97 192.44 216.91 C 183.05 215.75 175.67 206.32 176.29 196.97 Z" />
<path fill="#0e93b4" opacity="1.00" d=" M 213.34 257.84 C 216.46 260.85 218.45 264.77 221.11 268.16 C 225.03 265.94 229.68 264.55 234.14 265.97 C 240.99 268.11 245.78 275.90 243.72 282.95 C 242.22 288.97 236.37 293.92 230.03 293.61 C 221.59 294.05 214.31 285.19 216.15 277.00 C 216.53 274.08 218.61 271.86 219.79 269.27 C 217.52 265.57 213.17 262.57 213.34 257.84 Z" />
</g>
<g id="#c63204ff">
<path fill="#c63204" opacity="1.00" d=" M 477.02 191.04 C 478.27 185.47 482.30 180.85 487.34 178.31 C 488.61 181.35 489.03 184.62 489.16 187.89 C 485.77 189.76 484.43 193.46 483.60 197.00 C 484.35 199.96 485.31 202.94 487.39 205.27 C 486.56 207.19 485.61 209.05 484.53 210.84 C 478.53 206.39 475.07 198.41 477.02 191.04 Z" />
</g>
<g id="#19b2c2ff">
<path fill="#19b2c2" opacity="1.00" d=" M 315.76 182.37 C 317.37 183.95 318.95 185.55 320.53 187.15 C 322.75 185.39 324.81 182.66 327.99 183.06 C 339.98 183.07 351.98 183.16 363.97 183.08 C 366.04 185.08 367.95 187.74 370.96 188.35 C 373.39 188.70 375.77 187.82 378.13 187.34 C 378.13 190.11 379.07 193.22 377.71 195.78 C 374.33 197.02 370.55 196.22 367.01 196.39 C 346.44 196.45 325.87 196.20 305.31 196.52 C 305.69 191.85 305.47 187.18 305.57 182.51 C 308.96 182.54 312.36 182.56 315.76 182.37 Z" />
<path fill="#19b2c2" opacity="1.00" d=" M 224.51 197.37 C 224.07 192.40 224.19 187.41 224.41 182.43 C 248.82 182.63 273.23 182.46 297.63 182.52 C 297.69 187.44 297.77 192.38 297.54 197.30 C 273.19 197.33 248.85 197.19 224.51 197.37 Z" />
</g>
<g id="#59aea2ff">
<path fill="#59aea2" opacity="1.00" d=" M 365.69 182.38 C 367.37 184.78 369.77 187.13 372.98 186.70 C 376.03 186.98 378.33 184.64 379.82 182.26 C 378.81 187.11 379.76 192.09 379.16 196.98 C 377.78 197.24 376.40 197.36 375.01 197.35 C 353.01 197.28 331.02 197.31 309.03 197.33 C 307.71 197.38 306.47 197.10 305.31 196.52 C 325.87 196.20 346.44 196.45 367.01 196.39 C 370.55 196.22 374.33 197.02 377.71 195.78 C 379.07 193.22 378.13 190.11 378.13 187.34 C 375.77 187.82 373.39 188.70 370.96 188.35 C 367.95 187.74 366.04 185.08 363.97 183.08 L 364.94 182.69 C 365.12 182.61 365.50 182.45 365.69 182.38 Z" />
</g>
<g id="#fffee0ff">
<path fill="#fffee0" opacity="1.00" d=" M 439.33 186.62 C 439.84 186.60 440.86 186.58 441.37 186.57 C 441.64 187.88 441.93 189.18 442.24 190.49 C 443.54 190.47 444.84 190.46 446.15 190.45 C 446.97 191.21 447.80 191.98 448.64 192.75 C 447.27 195.49 447.92 200.96 443.63 200.55 C 443.73 197.77 445.36 194.58 443.41 192.10 C 442.73 192.49 441.36 193.28 440.68 193.68 C 440.31 195.89 440.29 198.29 439.08 200.25 C 437.15 201.28 435.95 198.73 436.64 197.22 C 434.90 200.12 431.48 200.50 428.41 200.51 C 428.08 201.57 427.76 202.63 427.45 203.70 C 426.41 203.64 425.37 203.59 424.34 203.54 C 425.72 199.31 425.47 194.55 427.33 190.55 C 429.89 190.21 432.47 190.46 435.04 190.61 C 435.89 191.42 436.76 192.23 437.63 193.04 C 438.12 190.88 438.64 188.72 439.33 186.62 M 429.84 192.61 C 429.38 194.26 428.90 195.90 428.44 197.55 C 430.15 197.60 431.86 197.59 433.58 197.53 C 433.58 195.87 433.57 194.21 433.56 192.56 C 432.31 192.57 431.08 192.59 429.84 192.61 Z" />
</g>
<g id="#ee5917ff">
<path fill="#ee5917" opacity="1.00" d=" M 557.74 203.27 C 565.43 198.29 573.24 193.49 581.08 188.74 C 582.46 187.60 583.94 189.25 585.20 189.81 C 592.53 194.65 600.34 198.76 607.44 203.93 C 605.73 204.52 604.02 205.09 602.31 205.66 C 602.27 213.09 602.42 220.53 602.29 227.96 C 602.18 230.04 602.65 232.08 603.50 233.98 C 602.48 234.35 601.45 234.71 600.44 235.08 C 600.40 225.71 600.57 216.34 600.35 206.97 C 594.63 203.73 589.15 200.10 583.52 196.73 C 582.44 195.90 581.14 196.42 580.16 197.06 C 574.65 200.40 569.39 204.20 563.59 207.04 L 563.23 206.89 C 563.06 206.69 562.70 206.27 562.53 206.07 C 561.35 205.31 560.15 204.62 558.95 203.94 C 558.65 203.77 558.05 203.44 557.74 203.27 Z" />
</g>
<g id="#fffdd8ff">
<path fill="#fffdd8" opacity="1.00" d=" M 449.64 190.55 C 452.23 190.38 454.83 190.37 457.43 190.49 C 458.17 191.16 458.92 191.83 459.69 192.50 C 459.53 194.41 459.90 196.65 458.35 198.11 C 456.66 200.59 453.41 200.28 450.80 200.64 C 450.54 202.66 449.60 204.12 447.29 204.06 C 447.12 199.42 448.41 194.96 449.64 190.55 M 452.46 192.48 C 452.02 194.19 451.58 195.90 451.16 197.61 C 452.56 197.63 453.98 197.64 455.39 197.65 C 455.68 196.99 456.26 195.66 456.56 195.00 C 456.29 194.39 455.76 193.19 455.50 192.59 C 454.48 192.55 453.47 192.52 452.46 192.48 Z" />
</g>
<g id="#ecbd32ff">
<path fill="#ecbd32" opacity="1.00" d=" M 429.84 192.61 C 431.08 192.59 432.31 192.57 433.56 192.56 C 433.57 194.21 433.58 195.87 433.58 197.53 C 431.86 197.59 430.15 197.60 428.44 197.55 C 428.90 195.90 429.38 194.26 429.84 192.61 Z" />
</g>
<g id="#efbd2aff">
<path fill="#efbd2a" opacity="1.00" d=" M 452.46 192.48 C 453.47 192.52 454.48 192.55 455.50 192.59 C 455.76 193.19 456.29 194.39 456.56 195.00 C 456.26 195.66 455.68 196.99 455.39 197.65 C 453.98 197.64 452.56 197.63 451.16 197.61 C 451.58 195.90 452.02 194.19 452.46 192.48 Z" />
</g>
<g id="#b62d01ff">
<path fill="#b62d01" opacity="1.00" d=" M 388.53 195.62 C 388.72 195.59 389.11 195.53 389.30 195.50 C 399.41 194.39 409.97 197.55 417.52 204.44 C 422.67 208.92 426.14 215.00 428.10 221.49 C 428.88 221.33 430.43 221.01 431.21 220.85 C 430.59 221.07 429.36 221.49 428.74 221.71 C 421.96 223.66 416.03 227.81 411.30 232.97 C 409.39 231.31 407.49 229.64 405.61 227.96 C 405.60 225.58 405.58 223.20 405.54 220.82 C 401.54 218.35 397.43 216.03 393.56 213.35 L 393.16 212.34 C 391.28 206.87 389.40 201.36 388.53 195.62 Z" />
</g>
<g id="#bd3d1aff">
<path fill="#bd3d1a" opacity="1.00" d=" M 369.99 204.44 C 375.24 199.88 381.73 196.96 388.53 195.62 C 389.40 201.36 391.28 206.87 393.16 212.34 C 388.12 214.84 383.48 218.06 378.66 220.95 C 378.64 225.81 378.67 230.67 378.55 235.53 C 379.80 236.18 381.05 236.83 382.31 237.47 C 382.38 232.60 382.31 227.74 382.47 222.87 C 385.68 221.07 388.62 218.76 392.00 217.29 C 395.64 218.49 398.62 221.09 401.92 222.98 C 401.85 227.90 401.85 232.82 401.88 237.74 C 403.12 237.08 404.36 236.42 405.61 235.76 C 405.60 233.16 405.60 230.56 405.61 227.96 C 407.49 229.64 409.39 231.31 411.30 232.97 C 403.24 241.62 398.32 253.45 399.10 265.36 C 397.05 265.35 395.01 265.33 392.98 265.31 C 392.62 263.52 392.28 261.74 391.91 259.96 C 390.31 251.22 384.04 243.52 375.66 240.47 C 370.58 238.48 365.05 239.47 359.76 239.54 C 359.49 239.54 358.93 239.53 358.66 239.53 C 358.52 237.98 358.45 236.42 358.40 234.88 C 358.38 234.24 358.35 232.96 358.34 232.32 C 358.03 227.06 359.11 221.88 361.02 217.01 C 361.82 215.39 362.68 213.81 363.61 212.26 C 364.56 210.71 365.56 209.19 366.64 207.72 C 367.68 206.55 368.81 205.46 369.99 204.44 M 394.41 222.21 C 394.27 227.93 394.26 233.65 394.40 239.36 C 393.09 240.00 391.67 241.06 390.41 239.72 C 389.84 234.09 390.38 228.40 390.12 222.75 C 388.56 223.47 386.03 223.67 385.87 225.85 C 385.81 230.54 385.43 235.32 386.10 239.97 C 387.79 241.63 389.91 242.89 392.12 243.76 C 394.46 243.04 396.35 241.35 398.42 240.10 C 398.44 235.02 398.43 229.94 398.43 224.86 C 397.09 223.98 395.75 223.09 394.41 222.21 Z" />
</g>
<g id="#cfceceff">
<path fill="#cfcece" opacity="1.00" d=" M 513.82 196.93 C 518.21 196.83 522.60 196.82 526.99 196.88 C 532.28 206.70 537.43 216.64 542.00 226.82 C 541.91 227.12 541.71 227.72 541.62 228.02 C 535.46 218.83 531.97 208.13 526.13 198.77 C 522.03 198.01 517.82 198.46 513.69 198.31 L 513.82 196.93 Z" />
</g>
<g id="#d1afa6ff">
<path fill="#d1afa6" opacity="1.00" d=" M 497.45 203.12 C 498.66 202.20 499.38 202.41 499.61 203.75 C 498.39 204.66 497.67 204.44 497.45 203.12 Z" />
</g>
<g id="#db4e20ff">
<path fill="#db4e20" opacity="1.00" d=" M 557.31 203.03 L 557.74 203.27 C 558.05 203.44 558.65 203.77 558.95 203.94 C 558.80 209.29 558.50 214.65 558.73 220.00 C 558.79 223.45 560.81 226.37 562.46 229.26 C 563.34 221.83 562.57 214.33 563.23 206.89 L 563.59 207.04 C 565.03 210.43 563.88 214.40 564.15 218.02 C 564.16 223.75 564.47 229.49 563.90 235.21 C 562.69 234.66 561.48 234.12 560.28 233.56 C 560.73 230.06 559.75 226.49 557.31 223.90 C 557.24 216.94 557.25 209.99 557.31 203.03 Z" />
</g>
<g id="#2f3f55ff">
<path fill="#2f3f55" opacity="1.00" d=" M 224.24 204.48 C 272.83 204.51 321.41 204.58 369.99 204.44 C 368.81 205.46 367.68 206.55 366.64 207.72 C 319.18 207.71 271.71 207.67 224.25 207.74 C 224.24 206.65 224.24 205.56 224.24 204.48 Z" />
</g>
<g id="#eb4801ff">
<path fill="#eb4801" opacity="1.00" d=" M 558.95 203.94 C 560.15 204.62 561.35 205.31 562.53 206.07 C 562.70 206.27 563.06 206.69 563.23 206.89 C 562.57 214.33 563.34 221.83 562.46 229.26 C 560.81 226.37 558.79 223.45 558.73 220.00 C 558.50 214.65 558.80 209.29 558.95 203.94 Z" />
</g>
<g id="#ee4700ff">
<path fill="#ee4700" opacity="1.00" d=" M 602.31 205.66 C 604.02 205.09 605.73 204.52 607.44 203.93 C 607.24 212.99 607.40 222.05 607.35 231.11 C 606.07 232.07 604.78 233.03 603.50 233.98 C 602.65 232.08 602.18 230.04 602.29 227.96 C 602.42 220.53 602.27 213.09 602.31 205.66 Z" />
</g>
<g id="#e7a796ff">
<path fill="#e7a796" opacity="1.00" d=" M 493.14 207.90 C 493.59 207.33 494.49 206.17 494.94 205.59 C 497.37 205.75 499.80 205.91 502.24 206.11 C 498.91 209.03 493.73 209.49 490.02 207.00 C 490.80 207.22 492.36 207.68 493.14 207.90 Z" />
</g>
<g id="#ec4801ff">
<path fill="#ec4801" opacity="1.00" d=" M 586.48 206.05 C 589.51 208.66 595.31 209.79 594.29 214.97 C 593.24 222.97 595.04 231.06 593.93 239.04 C 590.63 242.23 586.29 244.54 582.20 246.60 C 578.09 244.64 574.00 242.19 570.52 239.27 C 570.33 229.81 570.49 220.34 570.46 210.88 C 572.95 209.17 575.57 207.64 578.42 206.60 C 578.67 217.45 578.42 228.30 578.62 239.15 C 580.95 240.70 583.63 240.82 585.71 238.82 C 585.74 229.21 585.63 219.59 585.79 209.98 C 586.02 208.67 586.25 207.36 586.48 206.05 Z" />
</g>
<g id="#9ab9d5ff">
<path fill="#9ab9d5" opacity="1.00" d=" M 224.28 212.41 C 270.72 212.36 317.17 212.66 363.61 212.26 C 362.68 213.81 361.82 215.39 361.02 217.01 L 361.23 215.72 C 315.57 215.42 269.91 215.65 224.25 215.61 C 224.26 214.54 224.27 213.47 224.28 212.41 Z" />
</g>
<g id="#fffaf7ff">
<path fill="#fffaf7" opacity="1.00" d=" M 378.66 220.95 C 383.48 218.06 388.12 214.84 393.16 212.34 L 393.56 213.35 C 397.43 216.03 401.54 218.35 405.54 220.82 C 405.58 223.20 405.60 225.58 405.61 227.96 C 405.60 230.56 405.60 233.16 405.61 235.76 C 404.36 236.42 403.12 237.08 401.88 237.74 C 401.85 232.82 401.85 227.90 401.92 222.98 C 398.62 221.09 395.64 218.49 392.00 217.29 C 388.62 218.76 385.68 221.07 382.47 222.87 C 382.31 227.74 382.38 232.60 382.31 237.47 C 381.05 236.83 379.80 236.18 378.55 235.53 C 378.67 230.67 378.64 225.81 378.66 220.95 Z" />
<path fill="#fffaf7" opacity="1.00" d=" M 448.52 247.51 C 449.13 247.09 449.76 246.67 450.38 246.26 C 450.48 247.47 450.58 248.69 450.68 249.91 C 451.80 250.30 452.83 250.84 453.78 251.55 C 452.09 251.73 450.39 251.87 448.69 251.97 C 448.63 250.48 448.57 249.00 448.52 247.51 Z" />
</g>
<g id="#ad0502ff">
<path fill="#ad0502" opacity="1.00" d=" M 431.21 220.85 C 444.87 216.79 460.52 219.50 471.65 228.53 C 463.98 235.10 454.24 239.72 444.05 240.30 C 438.78 240.80 433.49 240.21 428.23 239.92 C 430.10 234.00 429.60 227.75 428.74 221.71 C 429.36 221.49 430.59 221.07 431.21 220.85 Z" />
</g>
<g id="#98bad6ff">
<path fill="#98bad6" opacity="1.00" d=" M 224.29 220.33 C 250.12 220.40 275.95 220.39 301.78 220.34 C 301.64 221.39 301.51 222.44 301.37 223.49 C 275.62 223.18 249.85 223.75 224.10 223.21 C 224.15 222.49 224.24 221.05 224.29 220.33 Z" />
</g>
<g id="#fffcfaff">
<path fill="#fffcfa" opacity="1.00" d=" M 394.41 222.21 C 395.75 223.09 397.09 223.98 398.43 224.86 C 398.43 229.94 398.44 235.02 398.42 240.10 C 396.35 241.35 394.46 243.04 392.12 243.76 C 389.91 242.89 387.79 241.63 386.10 239.97 C 385.43 235.32 385.81 230.54 385.87 225.85 C 386.03 223.67 388.56 223.47 390.12 222.75 C 390.38 228.40 389.84 234.09 390.41 239.72 C 391.67 241.06 393.09 240.00 394.40 239.36 C 394.26 233.65 394.27 227.93 394.41 222.21 Z" />
</g>
<g id="#860102ff">
<path fill="#860102" opacity="1.00" d=" M 411.30 232.97 C 416.03 227.81 421.96 223.66 428.74 221.71 C 429.60 227.75 430.10 234.00 428.23 239.92 C 425.40 249.31 419.03 257.62 410.34 262.28 C 406.78 263.94 402.98 265.04 399.42 266.73 C 399.34 266.39 399.18 265.70 399.10 265.36 C 398.32 253.45 403.24 241.62 411.30 232.97 Z" />
</g>
<g id="#202870ff">
<path fill="#202870" opacity="1.00" d=" M 544.99 223.57 C 548.46 220.64 553.96 220.89 557.31 223.90 C 559.75 226.49 560.73 230.06 560.28 233.56 C 559.31 236.83 556.71 239.41 553.53 240.56 C 551.56 240.72 549.58 240.68 547.62 240.56 C 542.96 238.32 540.10 233.15 541.62 228.02 C 541.71 227.72 541.91 227.12 542.00 226.82 C 542.33 226.38 542.99 225.50 543.32 225.06 C 543.85 224.54 544.41 224.04 544.99 223.57 Z" />
</g>
<g id="#185b86ff">
<path fill="#185b86" opacity="1.00" d=" M 480.19 237.25 C 491.62 224.75 510.91 220.58 526.47 227.28 C 540.00 232.87 549.90 246.06 551.54 260.62 C 541.61 263.04 534.86 272.69 534.69 282.71 C 527.86 282.14 520.60 281.47 514.22 284.53 C 509.34 286.89 505.65 291.12 502.76 295.60 C 500.43 293.14 498.21 290.57 495.64 288.36 C 492.67 285.79 489.05 284.18 485.78 282.06 C 485.86 281.62 486.04 280.74 486.13 280.30 C 486.93 276.84 488.14 273.50 489.35 270.17 C 490.49 270.37 491.64 270.56 492.79 270.76 C 492.78 270.14 492.78 268.91 492.77 268.30 C 492.05 268.20 490.60 268.02 489.88 267.92 C 489.73 264.60 489.57 261.27 488.90 258.02 C 487.22 250.68 484.87 243.30 480.09 237.35 L 480.19 237.25 M 533.17 244.10 C 532.32 245.08 531.62 246.37 532.37 247.64 C 533.24 250.19 537.67 249.69 537.75 246.93 C 538.36 244.33 535.22 242.93 533.17 244.10 M 523.11 247.53 C 523.38 248.42 523.90 250.21 524.17 251.10 C 523.63 251.07 522.55 251.02 522.01 250.99 C 522.20 249.97 522.58 247.91 522.76 246.89 C 520.63 247.66 519.22 251.42 522.03 252.24 C 523.79 252.09 525.52 251.35 527.31 251.84 C 527.83 249.45 528.23 247.04 528.33 244.60 C 526.75 245.88 525.61 248.43 523.11 247.53 M 495.26 252.36 C 495.69 251.85 496.57 250.84 497.00 250.33 C 497.47 250.76 498.41 251.60 498.88 252.02 C 499.55 251.31 500.20 250.58 500.84 249.84 C 501.01 250.50 501.34 251.82 501.50 252.48 C 502.65 250.21 502.13 247.61 502.05 245.20 C 500.43 246.27 499.62 248.05 498.78 249.73 C 498.26 248.77 497.74 247.82 497.24 246.87 L 496.58 246.05 L 495.73 246.30 C 494.97 248.21 495.34 250.35 495.26 252.36 M 503.02 248.40 C 503.02 249.48 503.03 250.57 503.04 251.65 C 505.52 251.91 508.02 252.02 510.51 251.74 C 510.81 250.55 511.12 249.35 511.44 248.16 C 512.13 249.58 511.91 251.96 513.89 252.41 C 515.93 252.84 516.74 250.63 517.83 249.44 C 518.16 250.67 518.51 251.90 518.88 253.12 C 520.60 251.54 519.69 249.40 519.46 247.46 C 515.38 247.62 511.29 247.54 507.21 247.47 C 505.84 247.89 504.44 248.22 503.02 248.40 M 528.95 246.23 C 529.14 248.45 528.71 251.05 530.52 252.74 C 530.06 250.62 531.80 247.14 528.95 246.23 M 495.65 253.69 C 495.41 259.28 495.55 264.88 495.55 270.47 L 497.54 270.47 C 497.60 266.02 497.51 261.56 497.55 257.11 C 500.52 261.06 502.83 265.45 505.74 269.43 C 506.36 270.38 507.62 270.43 508.57 270.91 C 508.95 265.24 508.67 259.54 508.69 253.86 C 508.24 254.00 507.35 254.27 506.90 254.41 C 506.47 258.66 506.86 262.95 506.69 267.22 C 503.90 263.59 501.74 259.53 499.20 255.74 C 498.56 254.31 496.91 254.19 495.65 253.69 M 512.26 254.16 C 512.26 259.59 512.21 265.02 512.30 270.46 C 515.17 270.45 518.04 270.46 520.91 270.49 C 521.15 267.11 516.42 269.13 514.32 268.56 C 514.30 266.79 514.29 265.03 514.28 263.27 C 516.32 262.84 519.87 264.25 520.29 261.31 C 518.28 261.23 516.28 261.18 514.29 261.12 C 514.28 259.44 514.28 257.76 514.29 256.08 C 516.55 255.93 518.83 255.82 521.10 255.61 C 519.44 252.62 515.04 254.65 512.26 254.16 M 522.46 254.42 C 522.16 256.77 525.93 255.41 527.35 256.05 C 527.44 260.92 527.32 265.79 527.47 270.66 C 527.96 270.57 528.94 270.39 529.42 270.30 C 529.37 265.61 529.40 260.92 529.38 256.24 C 531.14 255.86 533.23 256.20 534.72 255.00 C 531.14 253.16 526.43 254.27 522.46 254.42 Z" />
</g>
<g id="#b30713ff">
<path fill="#b30713" opacity="1.00" d=" M 471.65 228.53 L 471.81 228.66 C 474.91 231.20 477.61 234.19 480.19 237.25 L 480.09 237.35 C 473.54 244.59 469.35 254.18 469.36 264.01 C 469.19 269.30 470.23 274.51 470.87 279.74 C 454.89 280.49 439.62 292.35 436.72 308.40 C 435.45 308.19 434.19 307.99 432.93 307.80 C 422.38 305.27 412.88 298.59 406.78 289.62 L 406.67 289.26 C 405.90 286.25 404.56 283.45 403.26 280.66 C 401.13 276.28 400.81 271.35 399.42 266.73 C 402.98 265.04 406.78 263.94 410.34 262.28 C 419.03 257.62 425.40 249.31 428.23 239.92 C 433.49 240.21 438.78 240.80 444.05 240.30 C 454.24 239.72 463.98 235.10 471.65 228.53 M 430.64 246.18 C 430.53 248.17 430.48 250.17 430.48 252.17 C 431.33 251.60 432.17 251.00 433.06 250.46 C 433.93 251.04 434.77 251.67 435.63 252.29 C 435.65 251.18 435.69 248.98 435.70 247.88 C 438.30 248.24 437.26 251.53 439.48 252.30 C 439.46 250.99 439.88 246.61 441.97 248.74 C 442.07 249.64 442.26 251.43 442.36 252.33 C 443.24 251.67 444.12 251.01 445.00 250.35 C 445.94 251.03 446.89 251.70 447.86 252.36 C 447.88 250.27 447.80 248.18 447.45 246.12 C 446.84 246.58 445.60 247.51 444.98 247.98 C 444.47 247.55 443.44 246.69 442.93 246.27 L 442.01 247.57 C 439.50 245.92 436.77 247.67 434.13 246.84 C 433.64 250.27 431.92 247.24 430.64 246.18 M 448.52 247.51 C 448.57 249.00 448.63 250.48 448.69 251.97 C 450.39 251.87 452.09 251.73 453.78 251.55 C 452.83 250.84 451.80 250.30 450.68 249.91 C 450.58 248.69 450.48 247.47 450.38 246.26 C 449.76 246.67 449.13 247.09 448.52 247.51 M 428.18 254.34 C 428.63 263.72 429.76 273.04 430.50 282.40 C 432.96 283.13 435.44 283.85 437.92 284.56 C 443.08 286.73 448.26 283.42 453.27 282.28 C 453.70 272.96 454.88 263.71 455.64 254.42 C 446.49 254.26 437.33 254.40 428.18 254.34 Z" />
</g>
<g id="#11010bff">
<path fill="#11010b" opacity="1.00" d=" M 469.36 264.01 C 469.35 254.18 473.54 244.59 480.09 237.35 C 484.87 243.30 487.22 250.68 488.90 258.02 C 489.48 262.03 489.81 266.13 489.35 270.17 C 488.14 273.50 486.93 276.84 486.13 280.30 C 485.62 280.56 484.59 281.07 484.08 281.33 C 480.26 280.98 475.49 278.67 472.15 281.24 C 473.87 285.32 476.68 288.81 478.88 292.63 C 468.97 304.77 452.22 311.60 436.72 308.40 C 439.62 292.35 454.89 280.49 470.87 279.74 C 470.23 274.51 469.19 269.30 469.36 264.01 Z" />
</g>
<g id="#5c2b00ff">
<path fill="#5c2b00" opacity="1.00" d=" M 359.76 239.54 C 365.05 239.47 370.58 238.48 375.66 240.47 C 384.04 243.52 390.31 251.22 391.91 259.96 C 391.95 262.03 391.90 264.11 391.88 266.19 C 390.55 266.12 389.23 266.04 387.92 265.95 C 384.73 265.39 381.68 264.31 378.61 263.33 C 378.28 261.87 377.88 260.43 377.52 258.99 C 377.33 259.77 376.95 261.35 376.76 262.13 C 375.47 261.44 374.18 260.75 372.94 260.00 C 371.53 258.14 372.47 256.14 373.82 254.58 C 370.36 252.57 366.41 251.13 362.35 251.82 C 362.69 251.57 363.38 251.08 363.73 250.83 C 362.57 247.18 360.53 243.88 359.38 240.21 L 359.76 239.54 Z" />
</g>
<g id="#7ab407ff">
<path fill="#7ab407" opacity="1.00" d=" M 349.17 246.18 C 352.14 243.52 355.86 241.99 359.38 240.21 C 360.53 243.88 362.57 247.18 363.73 250.83 C 363.38 251.08 362.69 251.57 362.35 251.82 C 359.29 253.01 356.47 254.76 354.46 257.41 C 355.95 257.78 357.43 258.15 358.92 258.52 C 358.50 258.80 357.65 259.35 357.22 259.62 C 358.74 264.07 360.10 268.58 361.97 272.90 C 363.18 270.06 364.87 267.17 364.52 263.97 C 364.37 261.46 362.63 259.54 361.14 257.69 C 363.75 257.74 366.36 257.75 368.97 257.76 C 368.41 258.42 367.86 259.08 367.31 259.75 C 368.78 264.08 370.14 268.47 371.97 272.67 C 373.78 268.72 375.55 264.05 372.94 260.00 C 374.18 260.75 375.47 261.44 376.76 262.13 C 375.46 267.01 373.24 271.60 372.20 276.56 C 376.87 273.92 379.31 268.61 378.61 263.33 C 381.68 264.31 384.73 265.39 387.92 265.95 C 389.16 266.18 390.40 266.41 391.65 266.64 C 391.64 267.27 391.63 268.55 391.62 269.18 C 389.42 274.97 388.76 281.07 389.13 287.23 C 388.58 283.85 388.66 280.41 388.65 276.99 C 387.37 278.77 386.14 280.60 384.59 282.16 C 382.37 284.22 379.81 285.90 377.08 287.19 C 369.74 290.47 360.94 289.84 354.09 285.68 C 348.45 282.20 344.40 276.51 342.62 270.16 C 342.05 270.04 340.90 269.79 340.33 269.66 C 340.89 269.03 341.47 268.41 342.05 267.79 C 342.08 267.38 342.14 266.56 342.17 266.15 C 341.47 258.78 344.30 251.63 349.17 246.18 M 352.81 259.85 C 350.18 266.14 352.81 274.60 359.48 277.04 C 357.14 271.36 355.52 265.38 352.81 259.85 M 364.90 268.17 C 363.25 271.37 362.52 274.94 361.54 278.38 C 364.29 278.58 367.09 278.62 369.77 277.84 C 368.46 274.67 367.59 271.31 366.05 268.24 L 364.90 268.17 Z" />
</g>
<g id="#f0f0f0ff">
<path fill="#f0f0f0" opacity="1.00" d=" M 547.62 240.56 C 549.58 240.68 551.56 240.72 553.53 240.56 C 554.88 243.82 558.00 247.01 556.75 250.78 C 557.89 253.30 559.20 255.75 560.48 258.20 C 559.26 258.71 558.06 259.28 556.80 259.66 L 556.14 259.77 C 553.86 253.11 549.61 247.33 547.62 240.56 Z" />
</g>
<g id="#7ea2b8ff">
<path fill="#7ea2b8" opacity="1.00" d=" M 533.17 244.10 C 535.22 242.93 538.36 244.33 537.75 246.93 C 537.67 249.69 533.24 250.19 532.37 247.64 C 531.62 246.37 532.32 245.08 533.17 244.10 Z" />
</g>
<g id="#cddbe2ff">
<path fill="#cddbe2" opacity="1.00" d=" M 254.77 246.00 C 258.48 245.75 262.20 245.69 265.92 245.92 C 263.61 247.33 261.37 248.92 258.84 249.92 C 257.05 249.19 256.05 247.35 254.77 246.00 Z" />
</g>
<g id="#1b91afff">
<path fill="#1b91af" opacity="1.00" d=" M 251.79 246.18 C 252.53 246.14 254.02 246.05 254.77 246.00 C 256.05 247.35 257.05 249.19 258.84 249.92 C 261.37 248.92 263.61 247.33 265.92 245.92 C 267.68 246.04 269.44 246.20 271.21 246.29 C 267.87 247.97 264.45 249.54 261.31 251.58 C 261.16 252.70 262.15 253.38 262.85 254.08 C 267.08 257.90 271.95 260.89 276.84 263.79 C 276.57 264.64 276.07 265.32 275.35 265.84 C 266.22 261.11 258.05 254.34 251.79 246.18 Z" />
</g>
<g id="#99cbeeff">
<path fill="#99cbee" opacity="1.00" d=" M 281.07 246.19 C 295.02 246.17 308.96 246.18 322.91 246.17 C 323.80 251.31 324.62 256.53 326.96 261.25 C 326.62 262.21 326.32 263.18 326.03 264.17 C 326.95 263.80 327.86 263.41 328.77 263.01 C 327.24 265.11 327.25 267.69 327.57 270.16 C 328.47 270.07 330.28 269.88 331.18 269.78 C 329.86 270.65 328.62 271.62 327.41 272.63 C 328.05 272.65 329.34 272.68 329.99 272.69 C 329.71 273.27 329.15 274.43 328.87 275.01 C 329.20 277.02 329.54 279.04 329.86 281.06 C 325.02 281.22 320.10 281.70 315.29 280.90 C 303.75 269.55 292.44 257.97 280.99 246.54 L 281.07 246.19 Z" />
</g>
<g id="#f5f6f7ff">
<path fill="#f5f6f7" opacity="1.00" d=" M 322.91 246.17 C 327.78 246.19 332.65 246.18 337.52 246.25 C 334.45 251.56 330.72 256.42 326.96 261.25 C 324.62 256.53 323.80 251.31 322.91 246.17 Z" />
</g>
<g id="#ffeff0ff">
<path fill="#ffeff0" opacity="1.00" d=" M 430.64 246.18 C 431.92 247.24 433.64 250.27 434.13 246.84 C 436.77 247.67 439.50 245.92 442.01 247.57 L 442.93 246.27 C 443.44 246.69 444.47 247.55 444.98 247.98 C 445.60 247.51 446.84 246.58 447.45 246.12 C 447.80 248.18 447.88 250.27 447.86 252.36 C 446.89 251.70 445.94 251.03 445.00 250.35 C 444.12 251.01 443.24 251.67 442.36 252.33 C 442.26 251.43 442.07 249.64 441.97 248.74 C 439.88 246.61 439.46 250.99 439.48 252.30 C 437.26 251.53 438.30 248.24 435.70 247.88 C 435.69 248.98 435.65 251.18 435.63 252.29 C 434.77 251.67 433.93 251.04 433.06 250.46 C 432.17 251.00 431.33 251.60 430.48 252.17 C 430.48 250.17 430.53 248.17 430.64 246.18 Z" />
</g>
<g id="#c5edffff">
<path fill="#c5edff" opacity="1.00" d=" M 495.73 246.30 L 496.58 246.05 L 497.24 246.87 C 496.39 247.92 495.89 247.73 495.73 246.30 Z" />
</g>
<g id="#90bcd8ff">
<path fill="#90bcd8" opacity="1.00" d=" M 503.02 248.40 C 504.44 248.22 505.84 247.89 507.21 247.47 C 511.29 247.54 515.38 247.62 519.46 247.46 C 519.69 249.40 520.60 251.54 518.88 253.12 C 518.51 251.90 518.16 250.67 517.83 249.44 C 516.74 250.63 515.93 252.84 513.89 252.41 C 511.91 251.96 512.13 249.58 511.44 248.16 C 511.12 249.35 510.81 250.55 510.51 251.74 C 508.02 252.02 505.52 251.91 503.04 251.65 C 503.03 250.57 503.02 249.48 503.02 248.40 M 507.02 249.00 C 506.52 250.63 507.09 251.17 508.73 250.62 C 509.21 248.98 508.64 248.44 507.02 249.00 M 514.04 249.24 C 512.41 252.18 517.40 249.45 514.04 249.24 Z" />
</g>
<g id="#205271ff">
<path fill="#205271" opacity="1.00" d=" M 507.02 249.00 C 508.64 248.44 509.21 248.98 508.73 250.62 C 507.09 251.17 506.52 250.63 507.02 249.00 Z" />
</g>
<g id="#224e6bff">
<path fill="#224e6b" opacity="1.00" d=" M 514.04 249.24 C 517.40 249.45 512.41 252.18 514.04 249.24 Z" />
</g>
<g id="#fefffaff">
<path fill="#fefffa" opacity="1.00" d=" M 362.35 251.82 C 366.41 251.13 370.36 252.57 373.82 254.58 C 372.47 256.14 371.53 258.14 372.94 260.00 C 375.55 264.05 373.78 268.72 371.97 272.67 C 370.14 268.47 368.78 264.08 367.31 259.75 C 367.86 259.08 368.41 258.42 368.97 257.76 C 366.36 257.75 363.75 257.74 361.14 257.69 C 362.63 259.54 364.37 261.46 364.52 263.97 C 364.87 267.17 363.18 270.06 361.97 272.90 C 360.10 268.58 358.74 264.07 357.22 259.62 C 357.65 259.35 358.50 258.80 358.92 258.52 C 357.43 258.15 355.95 257.78 354.46 257.41 C 356.47 254.76 359.29 253.01 362.35 251.82 Z" />
</g>
<g id="#fffbfcff">
<path fill="#fffbfc" opacity="1.00" d=" M 428.18 254.34 C 437.33 254.40 446.49 254.26 455.64 254.42 C 454.88 263.71 453.70 272.96 453.27 282.28 C 448.26 283.42 443.08 286.73 437.92 284.56 C 435.44 283.85 432.96 283.13 430.50 282.40 C 429.76 273.04 428.63 263.72 428.18 254.34 M 433.40 260.11 C 433.45 263.59 433.64 267.07 434.29 270.51 C 438.18 270.45 442.09 270.45 445.99 270.50 C 445.80 272.12 445.63 273.74 445.44 275.36 C 442.37 275.83 437.57 276.68 437.33 272.25 C 436.32 272.25 435.31 272.27 434.31 272.28 C 434.42 274.00 434.55 275.73 434.65 277.45 C 437.01 278.21 439.35 279.15 441.83 279.42 C 444.19 279.12 446.44 278.27 448.74 277.67 C 449.37 274.19 449.55 270.66 449.64 267.14 C 445.52 267.22 441.40 267.23 437.29 267.12 C 437.23 265.89 437.19 264.66 437.14 263.43 C 441.55 263.49 445.96 263.48 450.38 263.43 C 450.33 262.64 450.22 261.05 450.17 260.26 C 444.58 260.04 438.98 260.34 433.40 260.11 Z" />
</g>
<g id="#f8ffdeff">
<path fill="#f8ffde" opacity="1.00" d=" M 377.52 258.99 C 377.88 260.43 378.28 261.87 378.61 263.33 C 379.31 268.61 376.87 273.92 372.20 276.56 C 373.24 271.60 375.46 267.01 376.76 262.13 C 376.95 261.35 377.33 259.77 377.52 258.99 Z" />
</g>
<g id="#fbffeeff">
<path fill="#fbffee" opacity="1.00" d=" M 352.81 259.85 C 355.52 265.38 357.14 271.36 359.48 277.04 C 352.81 274.60 350.18 266.14 352.81 259.85 Z" />
</g>
<g id="#7f2d22ff">
<path fill="#7f2d22" opacity="1.00" d=" M 391.91 259.96 C 392.28 261.74 392.62 263.52 392.98 265.31 C 395.01 265.33 397.05 265.35 399.10 265.36 C 399.18 265.70 399.34 266.39 399.42 266.73 C 400.81 271.35 401.13 276.28 403.26 280.66 C 404.56 283.45 405.90 286.25 406.67 289.26 C 406.27 288.80 405.46 287.89 405.06 287.44 C 401.00 281.42 399.54 274.10 398.40 267.05 C 396.38 266.88 394.35 266.77 392.33 266.89 C 392.15 267.47 391.80 268.61 391.62 269.18 C 391.63 268.55 391.64 267.27 391.65 266.64 C 390.40 266.41 389.16 266.18 387.92 265.95 C 389.23 266.04 390.55 266.12 391.88 266.19 C 391.90 264.11 391.95 262.03 391.91 259.96 Z" />
</g>
<g id="#a10b15ff">
<path fill="#a10b15" opacity="1.00" d=" M 433.40 260.11 C 438.98 260.34 444.58 260.04 450.17 260.26 C 450.22 261.05 450.33 262.64 450.38 263.43 C 445.96 263.48 441.55 263.49 437.14 263.43 C 437.19 264.66 437.23 265.89 437.29 267.12 C 441.40 267.23 445.52 267.22 449.64 267.14 C 449.55 270.66 449.37 274.19 448.74 277.67 C 446.44 278.27 444.19 279.12 441.83 279.42 C 439.35 279.15 437.01 278.21 434.65 277.45 C 434.55 275.73 434.42 274.00 434.31 272.28 C 435.31 272.27 436.32 272.25 437.33 272.25 C 437.57 276.68 442.37 275.83 445.44 275.36 C 445.63 273.74 445.80 272.12 445.99 270.50 C 442.09 270.45 438.18 270.45 434.29 270.51 C 433.64 267.07 433.45 263.59 433.40 260.11 Z" />
</g>
<g id="#06560fff">
<path fill="#06560f" opacity="1.00" d=" M 551.87 260.54 C 553.29 260.25 554.71 260.01 556.14 259.77 L 556.80 259.66 C 564.60 259.63 572.47 263.63 576.56 270.37 C 580.43 276.37 580.87 284.27 578.40 290.88 C 577.78 292.23 577.05 293.52 576.28 294.79 C 575.87 295.39 575.45 295.99 575.01 296.57 C 569.94 303.10 561.30 305.73 553.28 304.67 C 551.74 298.60 548.38 293.34 544.71 288.36 C 547.07 284.74 548.81 280.78 550.51 276.82 C 556.74 279.78 563.82 277.72 570.27 279.72 C 568.73 281.99 566.96 284.09 565.21 286.20 C 568.37 283.79 571.84 281.39 573.45 277.59 C 565.84 275.62 557.62 278.04 550.27 274.99 C 551.97 270.36 551.78 265.39 551.87 260.54 M 552.62 287.85 C 552.56 289.04 552.52 290.22 552.52 291.41 C 554.50 291.86 555.90 290.86 556.54 289.03 C 556.04 288.66 555.04 287.94 554.54 287.58 C 554.06 287.65 553.10 287.79 552.62 287.85 M 560.70 289.87 C 560.98 291.57 563.04 291.37 564.36 291.42 C 564.33 290.14 564.29 288.86 564.23 287.59 C 562.80 287.65 560.26 287.78 560.70 289.87 Z" />
</g>
<g id="#001d07ff">
<path fill="#001d07" opacity="1.00" d=" M 534.69 282.71 C 534.86 272.69 541.61 263.04 551.54 260.62 L 551.87 260.54 C 551.78 265.39 551.97 270.36 550.27 274.99 C 549.62 274.57 548.33 273.73 547.68 273.31 C 548.57 274.52 549.50 275.69 550.51 276.82 C 548.81 280.78 547.07 284.74 544.71 288.36 C 543.09 290.89 541.21 293.24 539.26 295.53 C 536.20 291.96 535.16 287.26 534.69 282.71 Z" />
</g>
<g id="#2d8da5ff">
<path fill="#2d8da5" opacity="1.00" d=" M 331.18 269.78 C 334.98 269.02 338.60 267.61 342.17 266.15 C 342.14 266.56 342.08 267.38 342.05 267.79 C 341.47 268.41 340.89 269.03 340.33 269.66 L 340.12 269.89 C 336.81 271.01 333.54 272.61 329.99 272.69 C 329.34 272.68 328.05 272.65 327.41 272.63 C 328.62 271.62 329.86 270.65 331.18 269.78 Z" />
</g>
<g id="#06222eff">
<path fill="#06222e" opacity="1.00" d=" M 392.33 266.89 C 394.35 266.77 396.38 266.88 398.40 267.05 C 399.54 274.10 401.00 281.42 405.06 287.44 C 399.75 287.49 394.44 287.41 389.13 287.54 L 389.13 287.23 C 388.76 281.07 389.42 274.97 391.62 269.18 C 391.80 268.61 392.15 267.47 392.33 266.89 Z" />
</g>
<g id="#fdfffaff">
<path fill="#fdfffa" opacity="1.00" d=" M 364.90 268.17 L 366.05 268.24 C 367.59 271.31 368.46 274.67 369.77 277.84 C 367.09 278.62 364.29 278.58 361.54 278.38 C 362.52 274.94 363.25 271.37 364.90 268.17 Z" />
</g>
<g id="#ed3942ff">
<path fill="#ed3942" opacity="1.00" d=" M 603.31 272.64 C 612.83 272.63 622.37 272.75 631.90 272.56 C 633.43 272.87 634.76 273.82 636.31 274.19 C 635.12 278.83 635.57 283.65 635.57 288.39 C 635.58 288.49 635.58 288.69 635.58 288.79 C 630.25 288.54 624.91 288.68 619.58 288.58 C 619.38 293.91 619.42 299.24 619.46 304.57 C 614.08 304.74 608.70 304.73 603.33 304.64 L 603.33 304.30 L 603.33 303.04 C 603.32 301.64 603.32 300.25 603.32 298.86 C 603.36 290.12 603.27 281.38 603.31 272.64 M 604.14 273.79 C 609.32 274.79 614.70 273.99 619.97 274.25 C 623.92 273.99 628.11 274.82 631.90 273.80 L 631.78 273.33 C 622.76 272.98 613.64 273.23 604.60 273.19 C 604.48 273.34 604.25 273.64 604.14 273.79 Z" />
</g>
<g id="#effff1ff">
<path fill="#effff1" opacity="1.00" d=" M 550.51 276.82 C 549.50 275.69 548.57 274.52 547.68 273.31 C 548.33 273.73 549.62 274.57 550.27 274.99 C 557.62 278.04 565.84 275.62 573.45 277.59 C 571.84 281.39 568.37 283.79 565.21 286.20 C 566.96 284.09 568.73 281.99 570.27 279.72 C 563.82 277.72 556.74 279.78 550.51 276.82 Z" />
</g>
<g id="#d65b61ff">
<path fill="#d65b61" opacity="1.00" d=" M 604.14 273.79 C 604.25 273.64 604.48 273.34 604.60 273.19 C 613.64 273.23 622.76 272.98 631.78 273.33 L 631.90 273.80 C 628.11 274.82 623.92 273.99 619.97 274.25 C 614.70 273.99 609.32 274.79 604.14 273.79 Z" />
</g>
<g id="#46282aff">
<path fill="#46282a" opacity="1.00" d=" M 635.57 288.39 C 635.57 283.65 635.12 278.83 636.31 274.19 C 642.76 276.83 647.91 282.10 650.44 288.60 C 645.48 288.63 640.52 288.74 635.57 288.39 Z" />
<path fill="#46282a" opacity="1.00" d=" M 603.33 304.64 C 608.70 304.73 614.08 304.74 619.46 304.57 L 619.47 305.43 C 619.51 310.55 619.45 315.67 619.57 320.79 C 614.13 320.93 608.70 320.83 603.26 320.87 C 603.30 315.46 603.21 310.04 603.33 304.64 Z" />
</g>
<g id="#031a4cff">
<path fill="#031a4c" opacity="1.00" d=" M 472.15 281.24 C 475.49 278.67 480.26 280.98 484.08 281.33 C 484.59 281.07 485.62 280.56 486.13 280.30 C 486.04 280.74 485.86 281.62 485.78 282.06 C 489.05 284.18 492.67 285.79 495.64 288.36 C 498.21 290.57 500.43 293.14 502.76 295.60 L 502.59 295.89 C 500.95 298.76 500.02 301.98 499.56 305.24 C 491.66 302.92 484.88 298.15 478.88 292.63 C 476.68 288.81 473.87 285.32 472.15 281.24 Z" />
</g>
<g id="#d2eefcff">
<path fill="#d2eefc" opacity="1.00" d=" M 377.08 287.19 C 379.81 285.90 382.37 284.22 384.59 282.16 C 386.11 283.74 387.66 285.48 386.81 287.82 C 386.11 287.68 384.69 287.38 383.98 287.23 C 383.22 287.82 382.46 288.42 381.74 289.05 C 380.18 288.41 378.63 287.79 377.08 287.19 Z" />
</g>
<g id="#083b10ff">
<path fill="#083b10" opacity="1.00" d=" M 514.22 284.53 C 520.60 281.47 527.86 282.14 534.69 282.71 C 535.16 287.26 536.20 291.96 539.26 295.53 L 539.32 295.61 C 534.41 298.47 530.09 303.17 524.06 303.36 C 523.40 303.12 522.08 302.63 521.42 302.39 C 519.90 300.63 517.79 300.08 515.54 300.37 C 514.94 302.43 514.66 304.56 516.08 306.37 C 513.33 306.47 510.58 306.58 507.84 306.69 C 509.01 313.13 509.31 319.83 507.70 326.23 C 507.29 326.45 506.45 326.88 506.04 327.10 C 501.21 321.25 498.94 313.57 499.49 306.03 C 502.05 306.19 504.61 306.37 507.17 306.53 C 506.42 302.69 504.73 299.13 502.59 295.89 L 502.76 295.60 C 505.65 291.12 509.34 286.89 514.22 284.53 Z" />
</g>
<g id="#ecffefff">
<path fill="#ecffef" opacity="1.00" d=" M 552.62 287.85 C 553.10 287.79 554.06 287.65 554.54 287.58 C 555.04 287.94 556.04 288.66 556.54 289.03 C 555.90 290.86 554.50 291.86 552.52 291.41 C 552.52 290.22 552.56 289.04 552.62 287.85 Z" />
</g>
<g id="#e9ffedff">
<path fill="#e9ffed" opacity="1.00" d=" M 560.70 289.87 C 560.26 287.78 562.80 287.65 564.23 287.59 C 564.29 288.86 564.33 290.14 564.36 291.42 C 563.04 291.37 560.98 291.57 560.70 289.87 Z" />
</g>
<g id="#013801ff">
<path fill="#013801" opacity="1.00" d=" M 539.26 295.53 C 541.21 293.24 543.09 290.89 544.71 288.36 C 548.38 293.34 551.74 298.60 553.28 304.67 C 547.79 303.22 542.63 300.33 539.32 295.61 L 539.26 295.53 Z" />
</g>
<g id="#f2f0f1ff">
<path fill="#f2f0f1" opacity="1.00" d=" M 576.28 294.79 C 577.05 293.52 577.78 292.23 578.40 290.88 C 579.62 293.44 580.55 296.22 582.42 298.40 C 589.36 299.10 596.36 298.19 603.32 298.86 C 603.32 300.25 603.32 301.64 603.33 303.04 C 596.87 302.70 590.40 302.92 583.95 302.90 C 582.42 302.66 580.27 303.27 579.43 301.59 C 578.02 299.51 577.23 297.09 576.28 294.79 Z" />
</g>
<g id="#1b4c91ff">
<path fill="#1b4c91" opacity="1.00" d=" M 478.88 292.63 C 484.88 298.15 491.66 302.92 499.56 305.24 L 499.49 306.03 C 498.94 313.57 501.21 321.25 506.04 327.10 C 506.45 326.88 507.29 326.45 507.70 326.23 C 507.54 326.69 507.22 327.62 507.06 328.09 C 503.52 337.94 495.90 346.33 486.15 350.29 C 479.81 353.02 472.70 353.39 465.93 352.47 C 454.72 350.61 444.78 343.12 439.61 333.03 C 435.91 336.77 430.55 339.67 425.20 337.88 C 417.35 336.00 412.93 326.20 416.90 319.12 C 420.05 312.24 429.23 310.18 435.57 313.80 C 435.91 312.29 436.27 310.80 436.63 309.30 C 435.35 308.91 434.05 308.54 432.93 307.80 C 434.19 307.99 435.45 308.19 436.72 308.40 C 452.22 311.60 468.97 304.77 478.88 292.63 M 448.73 322.22 C 449.17 322.34 450.07 322.57 450.51 322.69 C 450.68 320.85 450.85 319.01 451.09 317.17 C 451.99 318.88 452.75 320.69 453.84 322.30 C 457.02 323.72 457.57 318.72 458.98 316.95 C 459.10 318.87 459.16 320.82 459.44 322.74 C 461.55 322.83 461.20 320.49 461.28 319.04 C 461.17 317.15 461.90 313.92 459.09 313.85 C 456.73 315.19 456.27 318.24 454.76 320.34 C 453.47 318.27 453.31 315.02 450.89 313.92 C 447.09 314.37 449.33 319.63 448.73 322.22 M 471.69 315.87 C 470.75 316.10 469.82 316.34 468.88 316.57 C 468.87 318.12 468.87 319.68 468.86 321.23 C 467.36 321.14 465.87 321.04 464.39 320.94 C 464.33 319.38 464.28 317.82 464.21 316.27 C 461.13 316.63 462.87 320.17 462.69 322.10 C 464.94 322.31 467.21 322.49 469.44 322.93 C 467.00 323.57 464.46 323.56 461.97 323.78 C 464.28 326.15 468.40 325.31 471.04 323.88 C 471.26 323.54 471.68 322.85 471.90 322.51 C 473.92 322.54 475.95 322.68 477.98 322.43 C 479.89 322.41 481.12 319.73 479.63 318.36 C 477.68 317.29 474.79 318.20 473.58 315.91 C 475.63 315.68 477.70 315.59 479.78 315.53 C 479.80 315.18 479.86 314.49 479.89 314.15 C 477.10 314.30 473.81 313.55 471.69 315.87 M 481.41 314.57 C 481.21 316.65 480.82 318.78 481.24 320.87 C 481.82 323.41 485.19 322.17 487.08 322.60 C 487.93 323.13 488.79 323.66 489.65 324.20 C 489.68 323.36 489.75 321.69 489.78 320.86 L 490.24 320.93 C 492.71 322.53 497.07 323.92 499.31 321.39 C 497.20 321.18 495.10 321.06 493.00 320.93 C 492.89 318.60 492.81 316.28 492.70 313.96 C 492.13 314.22 491.01 314.73 490.45 314.99 L 490.04 315.00 C 487.25 314.02 484.28 314.19 481.41 314.57 M 435.84 314.61 C 435.15 320.46 436.98 326.14 438.70 331.65 C 439.15 331.64 440.05 331.61 440.50 331.60 C 442.92 325.78 442.16 317.57 435.84 314.61 Z" />
</g>
<g id="#cbcbcaff">
<path fill="#cbcbca" opacity="1.00" d=" M 575.01 296.57 C 575.45 295.99 575.87 295.39 576.28 294.79 C 577.23 297.09 578.02 299.51 579.43 301.59 C 580.27 303.27 582.42 302.66 583.95 302.90 C 590.40 302.92 596.87 302.70 603.33 303.04 L 603.33 304.30 C 595.24 304.58 587.14 304.46 579.05 304.31 C 577.75 301.70 576.41 299.12 575.01 296.57 Z" />
</g>
<g id="#001006ff">
<path fill="#001006" opacity="1.00" d=" M 499.56 305.24 C 500.02 301.98 500.95 298.76 502.59 295.89 C 504.73 299.13 506.42 302.69 507.17 306.53 C 504.61 306.37 502.05 306.19 499.49 306.03 L 499.56 305.24 Z" />
</g>
<g id="#56a61fff">
<path fill="#56a61f" opacity="1.00" d=" M 524.06 303.36 C 530.09 303.17 534.41 298.47 539.32 295.61 C 542.63 300.33 547.79 303.22 553.28 304.67 C 554.38 311.61 552.69 318.91 548.62 324.64 C 543.83 331.72 535.43 335.87 526.98 336.23 C 519.59 336.24 512.34 333.24 507.06 328.09 C 507.22 327.62 507.54 326.69 507.70 326.23 C 509.31 319.83 509.01 313.13 507.84 306.69 C 510.58 306.58 513.33 306.47 516.08 306.37 C 516.71 307.65 517.32 308.93 518.02 310.19 L 518.58 311.10 C 517.81 314.64 515.91 317.76 514.53 321.06 C 515.51 324.58 519.38 323.87 521.49 321.89 C 525.13 320.80 528.86 318.51 530.34 314.88 C 530.39 312.94 527.99 312.60 527.04 314.03 C 525.01 315.31 523.49 318.89 520.67 317.40 C 520.56 316.59 520.36 314.96 520.25 314.14 L 521.84 314.86 C 522.24 315.33 523.05 316.27 523.45 316.74 C 524.33 315.87 525.21 315.00 526.09 314.13 C 525.14 313.40 524.20 312.68 523.26 311.96 C 524.37 311.11 525.48 310.27 526.60 309.43 C 528.32 311.64 530.37 313.55 532.37 315.51 C 532.37 315.93 532.37 316.79 532.37 317.22 C 530.11 317.63 527.96 318.41 526.32 320.08 C 528.01 320.66 529.75 321.24 531.47 321.79 C 532.82 322.54 534.10 323.99 535.80 323.61 C 537.04 323.13 537.86 321.98 538.88 321.18 C 537.96 319.73 537.05 318.30 536.14 316.87 C 535.39 315.04 534.53 313.28 533.56 311.57 C 534.00 311.27 534.88 310.66 535.32 310.35 C 535.48 309.29 535.65 308.23 535.84 307.18 C 537.00 305.50 539.62 303.31 537.44 301.34 C 535.86 299.10 533.02 300.85 531.44 302.20 C 526.82 303.08 524.38 307.36 520.86 310.03 C 520.66 308.82 520.47 307.63 520.30 306.43 C 521.05 306.43 522.55 306.43 523.30 306.44 C 524.12 305.68 524.96 304.94 525.81 304.20 C 525.37 303.99 524.49 303.57 524.06 303.36 Z" />
<path fill="#56a61f" opacity="1.00" d=" M 528.73 306.25 C 529.96 306.35 531.19 306.47 532.43 306.61 C 532.28 307.76 532.13 308.90 531.97 310.05 C 530.70 308.95 529.52 307.75 528.73 306.25 Z" />
</g>
<g id="#fbfffaff">
<path fill="#fbfffa" opacity="1.00" d=" M 515.54 300.37 C 517.79 300.08 519.90 300.63 521.42 302.39 C 522.08 302.63 523.40 303.12 524.06 303.36 C 524.49 303.57 525.37 303.99 525.81 304.20 C 524.96 304.94 524.12 305.68 523.30 306.44 C 522.55 306.43 521.05 306.43 520.30 306.43 C 520.47 307.63 520.66 308.82 520.86 310.03 C 524.38 307.36 526.82 303.08 531.44 302.20 C 533.02 300.85 535.86 299.10 537.44 301.34 C 539.62 303.31 537.00 305.50 535.84 307.18 C 535.65 308.23 535.48 309.29 535.32 310.35 C 534.88 310.66 534.00 311.27 533.56 311.57 C 534.53 313.28 535.39 315.04 536.14 316.87 C 537.05 318.30 537.96 319.73 538.88 321.18 C 537.86 321.98 537.04 323.13 535.80 323.61 C 534.10 323.99 532.82 322.54 531.47 321.79 C 529.75 321.24 528.01 320.66 526.32 320.08 C 527.96 318.41 530.11 317.63 532.37 317.22 C 532.37 316.79 532.37 315.93 532.37 315.51 C 530.37 313.55 528.32 311.64 526.60 309.43 C 525.48 310.27 524.37 311.11 523.26 311.96 C 524.20 312.68 525.14 313.40 526.09 314.13 C 525.21 315.00 524.33 315.87 523.45 316.74 C 523.05 316.27 522.24 315.33 521.84 314.86 C 520.77 313.58 519.66 312.35 518.58 311.10 L 518.02 310.19 C 517.32 308.93 516.71 307.65 516.08 306.37 C 514.66 304.56 514.94 302.43 515.54 300.37 M 528.73 306.25 C 529.52 307.75 530.70 308.95 531.97 310.05 C 532.13 308.90 532.28 307.76 532.43 306.61 C 531.19 306.47 529.96 306.35 528.73 306.25 Z" />
</g>
<g id="#fbfff5ff">
<path fill="#fbfff5" opacity="1.00" d=" M 518.58 311.10 C 519.66 312.35 520.77 313.58 521.84 314.86 L 520.25 314.14 C 520.36 314.96 520.56 316.59 520.67 317.40 C 523.49 318.89 525.01 315.31 527.04 314.03 C 527.99 312.60 530.39 312.94 530.34 314.88 C 528.86 318.51 525.13 320.80 521.49 321.89 C 519.38 323.87 515.51 324.58 514.53 321.06 C 515.91 317.76 517.81 314.64 518.58 311.10 Z" />
</g>
<g id="#d3e3fcff">
<path fill="#d3e3fc" opacity="1.00" d=" M 448.73 322.22 C 449.33 319.63 447.09 314.37 450.89 313.92 C 453.31 315.02 453.47 318.27 454.76 320.34 C 456.27 318.24 456.73 315.19 459.09 313.85 C 461.90 313.92 461.17 317.15 461.28 319.04 C 461.20 320.49 461.55 322.83 459.44 322.74 C 459.16 320.82 459.10 318.87 458.98 316.95 C 457.57 318.72 457.02 323.72 453.84 322.30 C 452.75 320.69 451.99 318.88 451.09 317.17 C 450.85 319.01 450.68 320.85 450.51 322.69 C 450.07 322.57 449.17 322.34 448.73 322.22 Z" />
</g>
<g id="#e0f7ffff">
<path fill="#e0f7ff" opacity="1.00" d=" M 481.41 314.57 C 484.28 314.19 487.25 314.02 490.04 315.00 C 489.56 316.91 489.72 318.90 489.78 320.86 C 489.75 321.69 489.68 323.36 489.65 324.20 C 488.79 323.66 487.93 323.13 487.08 322.60 C 485.19 322.17 481.82 323.41 481.24 320.87 C 480.82 318.78 481.21 316.65 481.41 314.57 M 483.26 315.49 C 483.20 317.29 483.15 319.09 483.11 320.89 C 484.69 320.50 486.33 320.13 487.97 320.45 C 487.93 318.84 487.91 317.23 487.90 315.63 C 486.35 315.57 484.80 315.53 483.26 315.49 Z" />
</g>
<g id="#0e020fff">
<path fill="#0e020f" opacity="1.00" d=" M 435.84 314.61 C 442.16 317.57 442.92 325.78 440.50 331.60 C 440.05 331.61 439.15 331.64 438.70 331.65 C 436.98 326.14 435.15 320.46 435.84 314.61 Z" />
</g>
<g id="#1a4a8dff">
<path fill="#1a4a8d" opacity="1.00" d=" M 483.26 315.49 C 484.80 315.53 486.35 315.57 487.90 315.63 C 487.91 317.23 487.93 318.84 487.97 320.45 C 486.33 320.13 484.69 320.50 483.11 320.89 C 483.15 319.09 483.20 317.29 483.26 315.49 Z" />
</g>
</svg>
