<svg width="4761" height="2472" xmlns="http://www.w3.org/2000/svg" xmlns:xlink="http://www.w3.org/1999/xlink" overflow="hidden"><defs><clipPath id="clip0"><rect x="-214" y="243" width="4761" height="2472"/></clipPath></defs><g clip-path="url(#clip0)" transform="translate(214 -243)"><path d="M1642.46 275.691C1679.73 258.596 1721.91 256.279 1762.07 261.407 1828.08 272.158 1886.02 318.238 1914.14 378.488 1928.47 411.006 1934.21 447.286 1931.24 482.653 1927.1 546.55 1888.72 605.394 1835.33 639.584 1788.83 669.861 1729.78 676.129 1676.31 664.581 1641.66 656.527 1609.85 638.406 1584.17 613.942 1572.39 602.431 1561.82 589.667 1552.67 575.953 1522.8 531.469 1513.76 474.638 1524.13 422.479 1535.99 357.974 1583.1 302.321 1642.46 275.691M1725.63 267.561C1675.74 268.435 1625.21 286.328 1590.06 322.569 1550.5 359.76 1526.83 413.856 1529.98 468.407 1528.39 561.897 1605.9 647.98 1698.28 658.806 1749.23 666.404 1803.42 653.298 1844.23 621.464 1893.21 585.336 1923.76 525.352 1922.65 464.305 1923.76 411.31 1900.81 359.228 1862.58 322.759 1826.9 286.404 1776.06 268.055 1725.63 267.561Z" fill="#0E1010" fill-rule="evenodd"/><path d="M2542.56 386.281C2573.22 311.462 2650.75 256.289 2732.61 259.177 2796.05 256.327 2858.31 288.131 2896.87 337.909 2933.03 382.329 2946.56 442.898 2937.06 498.945 2930.15 548.229 2901.81 592.762 2864.05 624.415 2835.86 648.012 2801.06 662.793 2764.83 668.417 2717 673.508 2666.4 666.897 2625.53 640.146 2574.21 607.582 2536.37 552.37 2529.68 491.384 2525.16 456.007 2529.84 419.529 2542.56 386.281M2733.22 267.536C2683.42 268.524 2633.05 286.421 2597.95 322.596 2559.47 358.884 2535.65 411.245 2537.85 464.519 2536.18 517.716 2559.62 570.192 2598.18 606.442 2639.81 647.48 2700.85 667.353 2758.67 659.259 2811.21 654.015 2859.98 624.187 2891.4 582.123 2918.03 547.773 2931.47 503.999 2930.41 460.681 2930.56 408.889 2907.66 358.428 2870.39 322.786 2834.68 286.346 2783.7 267.992 2733.22 267.536Z" fill="#0E1010" fill-rule="evenodd"/><path d="M1231.92 1285.78C1269.01 1239.51 1327.51 1210.67 1387 1212.27 1423.44 1210.36 1459.92 1218.7 1492.23 1235.67 1537.67 1261.54 1574.61 1304.35 1589.45 1354.96 1603.35 1404.04 1600.69 1458.53 1578.63 1504.8 1562.16 1538.17 1536.57 1566.79 1506.01 1587.75 1461.06 1619.22 1403.48 1624.51 1350.52 1616.94 1266.51 1602.29 1196.2 1527.94 1187.7 1442.63 1180.75 1387.38 1195.06 1328.28 1231.92 1285.78M1386.92 1220.49C1374.43 1221.86 1361.87 1222.77 1349.45 1224.75 1298.62 1233.58 1254.74 1267.36 1226.08 1309.45 1196.05 1354.35 1189.48 1411.88 1200.91 1463.97 1211.39 1511.42 1243.05 1552.1 1282.49 1579.42 1358.26 1629.49 1469.91 1620.32 1532.78 1553.05 1569.86 1517.32 1589.91 1465.61 1588.43 1414.2 1589.45 1358.5 1563.68 1303.74 1521.23 1267.97 1485.36 1234.07 1435.4 1219.76 1386.92 1220.49Z" fill="#0E1010" fill-rule="evenodd"/><path d="M1725.94 267C1776.36 267.495 1827.2 285.874 1862.89 322.289 1901.11 358.819 1924.06 410.987 1922.96 464.069 1924.06 525.218 1893.51 585.301 1844.53 621.489 1803.72 653.376 1749.53 666.503 1698.58 658.893 1606.2 648.049 1528.68 561.824 1530.28 468.179 1527.13 413.537 1550.8 359.351 1590.36 322.099 1625.51 285.797 1676.04 267.875 1725.94 267M1618.67 414.45C1612.78 436.634 1618.63 460.606 1630.64 479.746 1623.26 481.839 1610.15 479.937 1609.7 490.743 1606.24 500.675 1615.21 513.042 1625.77 508.209 1636.22 505.659 1632.99 493.293 1634.06 485.378 1646.14 496.869 1659.7 507.448 1676.01 512.128 1698.5 515.857 1722.94 514.982 1742.31 501.588 1745.62 505.051 1748.93 508.513 1752.27 511.938 1750.9 513.346 1748.24 516.124 1746.87 517.532 1766.75 537.661 1787 557.448 1806.53 577.957 1817.78 566.846 1829.03 555.659 1840.05 544.282 1820.06 523.81 1799.92 503.529 1779.74 483.247 1778.79 484.617 1776.89 487.357 1775.94 488.727 1772.45 485.112 1768.99 481.497 1765.61 477.882 1779.06 457.03 1780.81 431.154 1775.41 407.41 1777.16 405.85 1780.58 402.692 1782.33 401.132 1784.91 401.018 1790.04 400.752 1792.63 400.599 1801.56 398.735 1799.81 388.651 1802.47 382.068 1806.08 377.464 1810.33 373.506 1814.4 369.283 1817.02 374.039 1821.88 375.409 1826.82 376.208 1827.2 367.494 1827.28 358.742 1827.32 350.029 1818.5 349.991 1809.73 350.029 1800.99 350.371 1802.54 353.187 1805.7 358.819 1807.29 361.634 1803.46 365.554 1799.58 369.435 1795.7 373.316 1790.12 374.267 1783.39 373.126 1779.25 377.844 1773.7 383.171 1775.6 391.733 1773.93 398.506 1764.13 383.818 1753.6 368.636 1737.64 360.15 1721.11 350.333 1701.31 348.506 1682.58 351.094 1651.27 356.916 1624.75 383.095 1618.67 414.45M1799.12 410.873C1799.2 413.537 1799.35 418.902 1799.43 421.604 1803.04 421.49 1806.69 421.337 1810.3 421.185 1810.68 413.384 1807.1 409.427 1799.12 410.873M1820.86 441.771C1820.82 444.396 1820.78 449.686 1820.78 452.349 1823.37 452.387 1828.5 452.502 1831.04 452.578 1831.04 449.8 1830.97 444.244 1830.93 441.467 1828.42 441.542 1823.37 441.695 1820.86 441.771M1791.94 468.902C1791.9 471.451 1791.79 476.474 1791.75 479.023 1795.25 478.947 1798.74 478.909 1802.28 478.871 1802.16 476.36 1801.94 471.375 1801.82 468.864 1798.52 468.864 1795.25 468.902 1791.94 468.902M1643.44 514.678C1643.18 517.151 1642.72 522.022 1642.49 524.495 1645.08 524.685 1650.32 525.142 1652.9 525.332 1652.79 522.516 1652.52 516.885 1652.37 514.031 1650.13 514.221 1645.68 514.526 1643.44 514.678M1698.46 528.833C1698.46 531.687 1698.43 537.432 1698.43 540.324 1700.9 540.134 1705.87 539.792 1708.34 539.64 1708.31 537.09 1708.27 531.991 1708.23 529.442 1705.8 529.29 1700.9 528.985 1698.46 528.833M1642.07 556.534C1641.88 563.688 1644.66 568.445 1652.56 567.684 1652.56 564.601 1652.49 558.361 1652.49 555.241 1649.86 555.583 1644.66 556.23 1642.07 556.534Z" fill="#FFFFFF" fill-rule="evenodd"/><path d="M2732.63 267C2783.14 267.457 2834.16 285.833 2869.89 322.32 2907.17 358.007 2930.09 408.532 2929.94 460.39 2931.01 503.763 2917.55 547.592 2890.9 581.986 2859.47 624.103 2810.66 653.97 2758.1 659.22 2700.24 667.324 2639.16 647.426 2597.5 606.336 2558.92 570.04 2535.47 517.497 2537.14 464.232 2534.94 410.891 2558.77 358.464 2597.27 322.129 2632.4 285.909 2682.8 267.989 2732.63 267M2719.55 353.175C2676.45 357.17 2640.99 392.82 2630.04 433.605 2627.38 450.536 2616.92 465.602 2620.35 483.332 2628.14 483.218 2635.97 483.065 2643.84 482.723 2644.03 475.228 2644.1 467.733 2644.1 460.238 2642.13 459.134 2638.1 456.889 2636.08 455.786 2637.49 449.661 2638.97 443.573 2640.53 437.524 2649.42 401.114 2680.29 370.334 2717.65 364.247 2722.82 368.774 2728.56 372.541 2734.53 375.965L2729.93 378.59C2713.32 412.984 2698.91 448.481 2682.87 483.218 2680.1 489.571 2675.61 497.599 2680.93 503.991 2688.54 515.443 2696.44 526.667 2704.2 538.004 2699.9 542.38 2699.1 548.315 2698.42 554.098 2684.85 554.745 2687.66 569.431 2687.62 578.752 2718.3 582.176 2749.7 580.958 2780.52 579.399 2780.52 571.828 2780.48 564.256 2780.37 556.685 2777.75 556.305 2772.54 555.468 2769.96 555.087 2769.31 549.494 2768.21 543.978 2768.02 538.347 2775.31 524.194 2784.4 511.068 2792.31 497.257 2779.04 467.809 2766.23 438.171 2752.77 408.837 2746.84 396.434 2742.74 382.889 2733.66 372.274 2740.57 372.921 2745.89 370.182 2749.7 364.132 2794.24 370.068 2827.39 411.424 2831.87 454.835 2830.01 456.509 2826.25 459.819 2824.35 461.455 2824.46 468.57 2824.58 475.646 2824.8 482.761 2832.98 483.103 2841.15 483.18 2849.36 483.065 2848.14 473.858 2854.41 459.438 2842.63 455.444 2839.25 405.298 2799.38 357.703 2748.1 352.871 2747.3 351.197 2745.67 347.849 2744.87 346.175 2736.35 347.734 2722.29 341.419 2719.55 353.175Z" fill="#FFFFFF" fill-rule="evenodd"/><path d="M2733 358C2735.67 360.666 2735.67 360.666 2733 358Z" fill="#FFFFFF" fill-rule="evenodd"/><path d="M1669.6 365.937C1686.11 360.425 1704.66 358.65 1721.16 365.22 1749.16 374.961 1769.23 403.731 1767.94 433.333 1769.08 462.028 1749.28 489.779 1722.15 499.218 1695.55 508.355 1663.88 500.69 1645.74 478.905 1633.3 466.407 1629.62 448.699 1627 431.973 1629.2 417.475 1631.48 402.297 1640.54 390.214 1647.49 379.303 1658.72 372.393 1669.6 365.937M1677.53 375.527C1649.57 385.382 1632.43 418.117 1640.43 446.585 1643.84 460.781 1652.49 473.845 1665.01 481.699 1686.75 497.368 1719.15 494.725 1738.24 475.998 1762.93 454.098 1763.77 411.585 1739.3 389.195 1724.01 372.053 1698.59 369.826 1677.53 375.527Z" fill="#FFFFFF" fill-rule="evenodd"/><path d="M1669.66 390.219C1686.33 376.941 1708.7 382.505 1727.24 387.84 1722.98 389.682 1719.26 395.783 1714.33 394.287 1713.3 392.253 1711.29 388.185 1710.26 386.151 1697.39 382.774 1683.33 384.654 1672.32 392.445 1665.94 394.018 1666.51 401.118 1671.52 404.149 1680.22 400.926 1688.08 393.251 1697.99 395.131 1703.96 395.822 1709.73 397.626 1715.65 398.739 1717.29 400.312 1720.52 403.459 1722.11 405.032 1725.57 401.463 1728.19 397.242 1730.73 392.982 1737.15 402.154 1743.91 411.518 1746 422.8 1741.02 427.827 1736.05 432.817 1731.04 437.806 1724.73 438.189 1718.43 439.034 1712.92 442.411 1700.46 439.916 1687.89 435.964 1682.84 422.839 1670.16 419.5 1660.58 429.938 1663.47 442.641 1659.86 446.478 1656.22 450.239 1652.57 454 1642.43 431.972 1649.61 403.881 1669.66 390.219Z" fill="#FFFFFF" fill-rule="evenodd"/><path d="M1785.87 384.567C1791.47 382.916 1793.24 384.871 1791.16 390.433 1785.51 392.085 1783.75 390.13 1785.87 384.567Z" fill="#FFFFFF" fill-rule="evenodd"/><path d="M2734.52 394C2749.48 428.366 2765.77 462.201 2780 496.87 2770.88 510.949 2762.14 525.256 2753.79 539.789 2748.98 539.827 2744.25 539.903 2739.48 539.94 2739.36 526.315 2738.98 512.69 2738.95 499.065 2746.58 495.053 2754.74 488.619 2754.7 479.157 2756.84 465.494 2739.71 451.869 2727.04 459.249 2719.03 461.179 2716.78 469.771 2712.85 475.864 2714.91 485.894 2720.78 494.561 2730.32 498.876 2729.41 512.879 2729.02 526.959 2728.83 541 2726.28 540.357 2721.17 538.994 2718.61 538.313 2708.12 524.423 2699.07 509.473 2689 495.28 2704.83 461.823 2719.75 427.949 2734.52 394Z" fill="#FFFFFF" fill-rule="evenodd"/><path d="M1674.51 433.7C1679.27 431.833 1680.93 433.7 1679.51 439.3 1674.71 441.167 1673.06 439.3 1674.51 433.7Z" fill="#FFFFFF" fill-rule="evenodd"/><path d="M1736.75 445.674C1740.5 442.45 1744.21 439.187 1748 436 1744.02 453.945 1733.99 472.194 1715.69 478.605 1706.07 481.451 1694.25 486.762 1685.54 478.833 1693.27 478.681 1701.03 478.529 1708.76 478.454 1708.49 475.95 1708 470.98 1707.73 468.514 1699.14 468.514 1690.58 467.869 1682.24 465.82 1677.85 472.042 1682.96 476.86 1686.6 481.83 1675.92 477.733 1666.37 471.435 1658 463.695 1662.55 458.915 1667.13 454.173 1671.83 449.506 1677.58 448.596 1683.3 447.344 1688.83 445.447 1695.61 447.913 1703.11 449.127 1709.02 453.452 1713.8 458.915 1719.25 468.779 1728 464.568 1736.18 462.861 1739.4 452.883 1736.75 445.674Z" fill="#FFFFFF" fill-rule="evenodd"/><path d="M1720.74 448.752C1727.13 446.801 1729.31 448.646 1727.25 454.288 1720.85 456.169 1718.71 454.324 1720.74 448.752Z" fill="#FFFFFF" fill-rule="evenodd"/><path d="M2630 469C2632.67 471.667 2632.67 471.667 2630 469Z" fill="#FFFFFF" fill-rule="evenodd"/><path d="M2724 475.855C2727.58 472.838 2730.67 468.881 2735.04 467 2740.63 469.429 2745.63 475.11 2743.5 481.967 2740.29 487.139 2734.51 487.256 2729.33 488 2727.54 483.965 2725.75 479.89 2724 475.855Z" fill="#FFFFFF" fill-rule="evenodd"/><path d="M2836 469C2838.67 471.667 2838.67 471.667 2836 469Z" fill="#FFFFFF" fill-rule="evenodd"/><path d="M1750 496.208C1753.42 492.779 1756.84 489.351 1760.29 486 1762.22 488.416 1766.07 493.325 1768 495.74 1765.38 498.584 1762.73 501.351 1759.96 504 1756.33 501.935 1753.31 498.701 1750 496.208Z" fill="#FFFFFF" fill-rule="evenodd"/><path d="M1617.65 491.798C1623.97 489.668 1626.22 491.798 1624.38 498.224 1618.01 500.315 1615.76 498.186 1617.65 491.798Z" fill="#FFFFFF" fill-rule="evenodd"/><path d="M1761 516.673C1767.4 510.487 1773.64 504.224 1779.92 498 1795.13 513.599 1810.76 528.742 1826 544.265 1819.76 550.982 1813.28 557.472 1806.85 564 1791.87 547.946 1774.83 533.79 1761 516.673M1779.58 502.706C1775.78 506.995 1771.99 511.284 1768.24 515.572 1770.35 517.546 1772.45 519.558 1774.56 521.569L1779.69 517.584C1786.7 523.58 1792.94 530.374 1799.8 536.56 1801.03 534.549 1803.48 530.488 1804.7 528.476 1797.08 519.216 1787.97 511.246 1779.58 502.706M1803.71 537.889C1802.56 543.392 1811.71 548.44 1813.93 541.95 1817.34 535.498 1805.35 530.336 1803.71 537.889Z" fill="#FFFFFF" fill-rule="evenodd"/><path d="M2290.52 908C2307.28 908 2324.03 908 2340.83 908.038 2341.36 917.59 2339.35 927.903 2342.05 937.037 2355.46 942.898 2369.14 948.035 2382.36 954.277 2390.69 948.987 2396.95 941.109 2403.87 934.183 2415.76 945.904 2427.54 957.816 2439.36 969.613 2432.86 978.481 2414.62 985.064 2422.41 998.346 2427.92 1009.65 2432.18 1021.45 2436.44 1033.24 2446.28 1033.59 2456.12 1033.59 2466 1033.62 2466 1050.33 2466 1067 2466 1083.67 2456.04 1083.67 2446.09 1083.71 2436.13 1083.97 2431.95 1098.21 2424.05 1111.15 2420.29 1125.42 2423.48 1134.44 2432.98 1139.8 2439.29 1146.73 2428.8 1157.61 2417.97 1168.19 2407.4 1179 2407.63 1168.88 2407.82 1158.68 2405.43 1148.78 2393.12 1148.36 2380.8 1148.4 2368.49 1148.21 2366.9 1140.91 2365.19 1133.64 2363.14 1126.48 2372.94 1120.62 2383.2 1115.45 2392.51 1108.82 2395.51 1102.32 2389.43 1096.76 2386.92 1091.28 2376.4 1075.3 2369.21 1057.07 2356.48 1042.57 2346.07 1048.54 2335.74 1054.59 2325.33 1060.49 2320.23 1055.01 2314.91 1049.8 2309.4 1044.78 2314.72 1033.66 2324.6 1024.07 2325.55 1011.32 2317.08 1004.02 2306.63 999.526 2297.13 993.741 2285.5 987.386 2274.6 979.165 2261.49 976.159 2255.44 986.168 2249.4 996.253 2243.97 1006.64 2236.63 1004.7 2229.26 1002.8 2221.97 1000.78 2221.93 989.441 2222.61 978.062 2221.74 966.759 2215.85 959.642 2204.14 961.469 2197 965.465 2205.36 953.744 2216.72 944.648 2226.56 934.259 2233.63 941.375 2240.78 948.454 2248.57 954.847 2261.9 947.122 2276.65 942.593 2290.59 936.124 2290.52 926.762 2290.52 917.362 2290.52 908Z" fill="#FFFFFF" fill-rule="evenodd"/><path d="M2160.81 977C2176.76 977.038 2192.71 977 2208.66 977 2208.78 988.05 2207.94 999.214 2209.34 1010.23 2221.31 1017.02 2236.31 1018.05 2249.56 1021.85 2256.89 1013.11 2261.49 1002.52 2267.53 992.911 2282.15 1000.2 2295.67 1009.35 2310.22 1016.76 2304.98 1027.5 2295.52 1037.15 2295.1 1049.6 2304.07 1058.26 2312.27 1068.13 2322.14 1075.69 2333.5 1074.21 2342.69 1065.06 2352.98 1060.2 2361.03 1074.36 2369.66 1088.22 2377.52 1102.5 2368.06 1108.99 2355.3 1112.41 2348.5 1121.79 2351.46 1134.66 2354.05 1148.1 2359.21 1160.14 2370.11 1163.94 2382.53 1160.98 2394 1161.81 2394 1177.76 2394 1193.71 2394 1209.66 2383.1 1209.73 2372.16 1209.16 2361.26 1209.92 2352.3 1221.28 2352.91 1237.68 2347.7 1251.01 2357.5 1256.97 2367.38 1262.82 2377.29 1268.63 2369.35 1282.75 2361.19 1296.8 2353.17 1310.93 2342.54 1305.35 2332.89 1297.15 2320.66 1295.44 2312.88 1305.23 2302.43 1312.75 2295.06 1322.78 2296.2 1334.4 2305.47 1343.43 2310.29 1353.8 2296.24 1361.89 2282.27 1369.98 2268.17 1377.95 2262.4 1368.42 2256.71 1358.85 2251.35 1349.13 2237.6 1351.45 2223.28 1354.18 2210.79 1360.22 2205.62 1370.36 2209.84 1383.68 2208.55 1395 2192.67 1395 2176.76 1395 2160.88 1395 2160.01 1383.53 2162.93 1371.15 2159.21 1360.26 2147.32 1354.83 2133.73 1351.83 2120.78 1349.66 2111.36 1355.77 2108.09 1368.88 2101.56 1377.99 2087.51 1369.94 2073.19 1362.31 2059.55 1353.5 2064.49 1343.32 2072.92 1334.24 2074.9 1322.97 2067.3 1312.68 2056.86 1304.78 2048.46 1295.13 2036.5 1297.94 2026.32 1305.08 2015.92 1311.23 2008.51 1296.77 1999.96 1282.91 1991.99 1268.7 2001.83 1262.97 2012.31 1258.07 2020.97 1250.55 2018.42 1237.03 2015.61 1222.3 2009.31 1210.15 1998.26 1209.01 1987.09 1209.69 1976 1209.58 1976 1193.71 1976 1177.8 1976 1161.93 1985.53 1161.89 1995.07 1161.89 2004.64 1161.96 2006.57 1160.86 2010.49 1158.66 2012.46 1157.56 2014.36 1144.61 2018.57 1132.19 2021.61 1119.51 2011.62 1113.66 2001.56 1108 1991.57 1102.2 1999.93 1088.3 2008.47 1074.51 2015.73 1060.01 2025.75 1065.67 2035.78 1071.36 2045.65 1077.29 2056.55 1067.94 2066.69 1057.62 2076.23 1046.87 2070.42 1036.88 2064.68 1026.9 2058.98 1016.83 2073.42 1009.24 2087.32 1000.69 2101.37 992.493 2108.02 1002.21 2111.59 1014.86 2121.12 1022.11 2133.77 1017.1 2149 1017.25 2160.01 1009.28 2161.6 998.606 2160.58 987.746 2160.81 977M2160.31 1085.56C2115.35 1095.93 2079.68 1139.6 2082.46 1186.3 2079.99 1238.63 2125.9 1285.56 2177.48 1288.3 2213.07 1291.03 2249.49 1273.45 2269.43 1243.83 2287.73 1217.52 2292.82 1182.32 2281.96 1152.09 2273.26 1125.32 2252.49 1102.88 2226.78 1091.64 2206.27 1081.5 2182.3 1082.07 2160.31 1085.56Z" fill="#FFFFFF" fill-rule="evenodd"/><path d="M2135.52 1110.58C2157.32 1096.11 2184.69 1092.8 2209.85 1098.93 2231.65 1107.35 2252.15 1121.44 2262.98 1142.73 2278.15 1169.93 2277.81 1205.69 2261.04 1232.12 2245.29 1258.14 2215.72 1276 2184.96 1274.9 2148.94 1276.8 2114.37 1252.31 2101.41 1219.21 2085.59 1180.93 2099.84 1132.48 2135.52 1110.58M2175.43 1115.95C2148.18 1119.46 2123.51 1139.72 2116.84 1166.65 2107.05 1197.08 2122.75 1232.62 2150.88 1247.32 2165.48 1256.08 2183.17 1255.78 2199.55 1253.95 2231.46 1247.28 2257.19 1215.59 2253.41 1182.49 2254.4 1142.69 2214 1110.43 2175.43 1115.95Z" fill="#FFFFFF" fill-rule="evenodd"/><path d="M2171.13 1130.9C2209.2 1119.75 2250.08 1159.61 2239.22 1197.53 2234.95 1224.53 2208.55 1241.94 2182.33 1243 2161.07 1240.23 2139.81 1228.59 2131.92 1207.77 2116.83 1177.32 2138.29 1137.65 2171.13 1130.9Z" fill="#FFFFFF" fill-rule="evenodd"/><path d="M1386.84 1221.03C1435.46 1220.3 1485.56 1234.58 1521.54 1268.42 1564.1 1304.11 1589.95 1358.76 1588.92 1414.35 1590.41 1465.65 1570.31 1517.26 1533.11 1552.92 1470.07 1620.06 1358.1 1629.21 1282.11 1579.23 1242.55 1551.97 1210.8 1511.38 1200.29 1464.02 1188.83 1412.04 1195.42 1354.62 1225.53 1309.81 1254.28 1267.81 1298.29 1234.09 1349.27 1225.28 1361.72 1223.3 1374.32 1222.39 1386.84 1221.03M1278.3 1319.23C1280.97 1330.69 1287.4 1341.18 1294.56 1350.44 1301.52 1353.63 1310.24 1353.59 1315.5 1359.94 1330.27 1374.44 1344.74 1389.33 1359.58 1403.76 1361.45 1402.09 1365.1 1398.67 1366.93 1396.96 1351.55 1381.62 1335.75 1366.69 1320.6 1351.12 1315.34 1345.16 1307.2 1343.68 1300.04 1341.33 1296.5 1334.45 1292.84 1327.66 1289 1320.97 1292.12 1317.67 1295.28 1314.4 1298.48 1311.14 1309.41 1316.95 1321.82 1322.68 1323.64 1336.54 1339.33 1355.07 1357.95 1371.1 1374.85 1388.57 1376.68 1386.9 1380.33 1383.52 1382.16 1381.85 1365.94 1365.52 1349.76 1349.15 1333.28 1333.13 1331.45 1327.43 1329.7 1321.73 1327.98 1316.07 1316.94 1311.1 1307.46 1301.15 1295.09 1300.16 1288.62 1305.48 1281.23 1311.06 1278.3 1319.23M1433.02 1308.75C1417.76 1319.15 1412.62 1338.52 1413.68 1356.1 1386.42 1382.87 1359.62 1410.1 1332.4 1436.91 1316.98 1435.43 1300.53 1438.47 1289.95 1450.73 1274.91 1463.87 1278.15 1485.93 1280.55 1503.51 1292.54 1526.68 1322.01 1535.6 1345.46 1525.12 1364.04 1516.12 1373.29 1494.36 1370.97 1474.46 1376.83 1468.35 1382.77 1462.31 1388.52 1456.12 1392.44 1459.58 1396.32 1463 1400.28 1466.45 1402.98 1464.9 1408.47 1461.82 1411.21 1460.3 1409.84 1463.3 1407.06 1469.3 1405.69 1472.3 1421.72 1488.97 1438.2 1505.19 1454.57 1521.51 1463.17 1531.08 1477.91 1530.1 1489.33 1527.36 1508.97 1519.5 1514.38 1491.33 1499.72 1476.36 1483.77 1460.49 1468.5 1443.78 1451.49 1429.05 1446.99 1430.41 1442.54 1431.93 1438.16 1433.64 1440.14 1429.5 1442.16 1425.36 1444.22 1421.22 1440.94 1417.73 1437.71 1414.28 1434.43 1410.86 1440.29 1405.01 1446.16 1399.2 1452.02 1393.43 1477.41 1397.04 1504.18 1379.95 1507.38 1353.78 1507.19 1346.3 1511.03 1332.59 1500.79 1330.54 1491.35 1338.1 1483.47 1347.29 1474.82 1355.72 1468.89 1353.44 1462.68 1351.66 1457.24 1348.31 1455.03 1343.15 1453.54 1337.76 1451.79 1332.48 1460.28 1324.39 1469 1316.53 1476.65 1307.61 1476.23 1305.97 1475.4 1302.67 1474.94 1301 1460.66 1299.37 1444.6 1298.64 1433.02 1308.75Z" fill="#FFFFFF" fill-rule="evenodd"/><path d="M3039.64 1221.01C3082.66 1220.63 3127.12 1230.81 3161.57 1257.89 3198.03 1285.28 3226.37 1324.41 3236.58 1369.31 3247.54 1415.91 3241.97 1466.81 3219.05 1509.09 3189.42 1562.27 3134.98 1602.46 3073.78 1608.84 3031.78 1615.03 2987.62 1607.85 2950.03 1587.99 2917.59 1570.06 2890.5 1542.67 2872.02 1510.65 2849.91 1471.87 2845.58 1425.52 2851.27 1381.95 2862.2 1312.48 2915.2 1252.65 2981.33 1230.32 3000.14 1224.16 3020.02 1223.06 3039.64 1221.01M2928.67 1300.25C2928.32 1313.88 2928.14 1327.56 2929.08 1341.2 2932.31 1341.2 2938.76 1341.23 2941.94 1341.27 2941.98 1390.88 2942.02 1440.53 2941.94 1490.17 2938.64 1490.17 2932.04 1490.17 2928.7 1490.21 2928.55 1502.79 2927.79 1515.47 2928.97 1528.05 2940.35 1533.52 2955.11 1529.49 2967.78 1529.34 2967.74 1526.03 2967.74 1519.35 2967.74 1516.01 3018.39 1515.93 3069.08 1515.93 3119.76 1516.01 3119.8 1519.27 3119.88 1525.84 3119.92 1529.15 3133.38 1530.97 3147.12 1531.05 3160.62 1529.15 3160.74 1516.2 3160.7 1503.28 3160.55 1490.36 3155.58 1490.25 3150.65 1490.14 3145.75 1490.1 3145.71 1440.76 3145.71 1391.37 3145.79 1342.03 3150.57 1340.85 3156.79 1342.18 3160.32 1337.78 3161.23 1325.36 3160.62 1312.9 3160.43 1300.48 3146.97 1300.1 3133.5 1300.17 3120.03 1300.4 3119.88 1305.41 3119.76 1310.43 3119.69 1315.44 3069.08 1315.44 3018.43 1315.44 2967.82 1315.44 2967.71 1310.39 2967.63 1305.38 2967.52 1300.36 2954.58 1300.17 2941.6 1300.21 2928.67 1300.25Z" fill="#FFFFFF" fill-rule="evenodd"/><path d="M1424.14 1360.05C1419.27 1336.55 1434.13 1310.72 1459.19 1309 1452.95 1316.25 1445.39 1322.35 1440.03 1330.29 1442.88 1339.68 1444.7 1350.05 1450.56 1358.03 1459.3 1361.88 1468.61 1364.06 1477.59 1367.26 1484.24 1360.62 1490.89 1353.95 1498 1347.8 1495.95 1370.51 1471.81 1389.77 1449.61 1381.11 1419.12 1410.3 1389.85 1440.79 1359.93 1470.55 1362.51 1487.26 1358.41 1506.64 1342.44 1515.3 1324 1528.54 1295.57 1517.29 1289.07 1496.11 1285.95 1488.86 1287.32 1480.7 1287.2 1473.07 1292.22 1465.09 1296.86 1456.09 1305.56 1451.59 1314.84 1445.75 1326.21 1447.5 1336.55 1447.92 1365.71 1418.54 1394.86 1389.24 1424.14 1360.05M1431.05 1368.33C1402.73 1397.37 1373.76 1425.68 1345.41 1454.68 1348.83 1457.27 1353.16 1463.34 1357.08 1457.54 1384.75 1430.45 1411.78 1402.63 1439.27 1375.28 1436.53 1372.95 1433.79 1370.62 1431.05 1368.33M1294.92 1483.33C1300.24 1491.61 1303.55 1501.99 1311.76 1507.86 1319.97 1508.55 1328.22 1508.17 1336.47 1508.4 1342.63 1500.73 1347.5 1492.14 1352.32 1483.6 1347.88 1475.93 1343.54 1468.18 1339.28 1460.44 1329.21 1460.09 1319.1 1460.06 1309.02 1460.02 1304.35 1467.8 1299.67 1475.58 1294.92 1483.33Z" fill="#FFFFFF" fill-rule="evenodd"/><path d="M2937.03 1311.08C2943.66 1311.04 2950.33 1311 2957 1311 2956.96 1317.65 2956.96 1324.31 2957 1331 2950.33 1331 2943.66 1331 2937.03 1331 2936.99 1324.35 2936.99 1317.69 2937.03 1311.08Z" fill="#FFFFFF" fill-rule="evenodd"/><path d="M3131.03 1311C3137.3 1311 3143.65 1311 3150 1311.04 3149.96 1317.67 3149.96 1324.33 3150 1331 3143.65 1331 3137.3 1331 3131.03 1331 3130.99 1324.33 3130.99 1317.67 3131.03 1311Z" fill="#FFFFFF" fill-rule="evenodd"/><path d="M2968.12 1326.06C3018.68 1325.98 3069.27 1325.98 3119.87 1326.06 3119.87 1329.35 3119.83 1335.95 3119.83 1339.21 3124.87 1340.2 3129.86 1341.07 3134.97 1342.02 3135.01 1391.26 3135.01 1440.5 3134.97 1489.74 3129.98 1489.82 3124.98 1489.9 3120.02 1489.97 3119.91 1494.98 3119.83 1499.98 3119.76 1504.98 3069.27 1504.98 3018.75 1505.02 2968.23 1504.98 2968.12 1499.98 2968 1495.01 2967.93 1490.05 2962.93 1489.9 2957.97 1489.82 2953.02 1489.74 2952.98 1440.43 2953.02 1391.11 2953.02 1341.83 2958.05 1341.11 2963.16 1340.42 2968.27 1339.7 2968.23 1336.29 2968.15 1329.47 2968.12 1326.06M2981.51 1345.73C2979.17 1365.9 2980.76 1386.25 2980.26 1406.54 2980.64 1412.41 2979.02 1419.61 2984.24 1423.94 3014.14 1425.45 3044.15 1423.97 3074.08 1424.54 3085.21 1424.09 3097.01 1426.44 3107.5 1421.62 3107.04 1396.41 3107.69 1371.21 3107.19 1346.03 3065.3 1345.43 3023.41 1346 2981.51 1345.73M2984.96 1439.33C2993.89 1440.5 3007.13 1442.4 3007.32 1429.55 2999.07 1429.24 2990.82 1428.67 2982.65 1429.66 2977.35 1432.31 2980.83 1437.51 2984.96 1439.33M3014.1 1429.58C3010.73 1435.23 3012.02 1438.42 3017.92 1439.17 3045.51 1440.24 3073.21 1439.63 3100.87 1439.55 3106.74 1440.54 3107.01 1433.68 3108.78 1429.96 3077.26 1428.56 3045.62 1428.98 3014.1 1429.58M2977.99 1447.63C2982.16 1452.63 2987.68 1456.04 2994.42 1454.91 3030.94 1454.91 3067.46 1454.64 3103.98 1455.02 3104.77 1452.29 3111.55 1444.1 3104.47 1444.86 3072.91 1443.5 3041.27 1444.82 3009.71 1444.29 2999.07 1444.56 2987.91 1442.78 2977.99 1447.63M2987.15 1469.88C3024.92 1470.11 3062.69 1470.26 3100.46 1469.8 3106.66 1470.87 3107.12 1464.54 3108.82 1460.29 3067.99 1458.74 3027.08 1459.53 2986.24 1459.76 2976.59 1457.33 2979.77 1470.49 2987.15 1469.88M2980.64 1475.57C2977.69 1481.78 2985.26 1486.26 2990.75 1485.23 3027.31 1485.04 3063.9 1485.5 3100.46 1485.01 3106.36 1485.95 3107.38 1479.58 3108.78 1475.45 3066.13 1474.28 3023.26 1473.94 2980.64 1475.57Z" fill="#FFFFFF" fill-rule="evenodd"/><path d="M3006 1356C3031.3 1356.86 3056.67 1356.52 3082 1356.19 3069.33 1363.35 3056.86 1370.92 3044.15 1378 3031.49 1370.54 3018.9 1362.97 3006 1356Z" fill="#FFFFFF" fill-rule="evenodd"/><path d="M2991.01 1359C3004.99 1367.56 3019.28 1375.54 3033 1384.56 3019.05 1393 3005.11 1401.48 2991.16 1410 2990.9 1393 2991.05 1376 2991.01 1359Z" fill="#FFFFFF" fill-rule="evenodd"/><path d="M3055 1384.74C3068.74 1376.07 3083.06 1368.33 3097 1360 3096.96 1376.33 3097.04 1392.67 3096.96 1409 3083.03 1400.81 3068.86 1393.04 3055 1384.74Z" fill="#FFFFFF" fill-rule="evenodd"/><path d="M3005 1413.77C3018.15 1405.96 3031.35 1398.22 3044.84 1391 3057.58 1399.19 3070.85 1406.44 3084 1413.92 3057.65 1413.96 3031.31 1414.14 3005 1413.77Z" fill="#FFFFFF" fill-rule="evenodd"/><path d="M1396 1451.92C1405.05 1438.54 1417.72 1428.28 1429.09 1417 1430.19 1425.51 1426.35 1437.18 1436.16 1441.81 1440.46 1445.61 1445.75 1442.11 1450.47 1441.28 1464.2 1455.37 1478.31 1469.05 1492 1483.15 1481.77 1493.44 1471.42 1503.67 1461.19 1514 1448.34 1500.02 1433.81 1487.63 1421.33 1473.31 1419.62 1466.73 1422.32 1458.26 1416.2 1453.55 1409.62 1451.84 1402.69 1452.49 1396 1451.92M1430.31 1459.14C1443.66 1471.98 1455.71 1486.34 1470.13 1498 1472.11 1496.75 1476.06 1494.28 1478 1493.03 1465.03 1479.04 1451.11 1466.01 1437.88 1452.3 1435.33 1454.54 1432.82 1456.82 1430.31 1459.14Z" fill="#FFFFFF" fill-rule="evenodd"/><path d="M1315.27 1470.19C1321.13 1470.11 1326.95 1470.07 1332.77 1470 1335.57 1474.6 1338.32 1479.27 1341 1483.94 1338.01 1488.5 1335.06 1493.14 1332.27 1497.85 1327.07 1497.85 1321.87 1497.93 1316.7 1498 1313.44 1493.22 1310.22 1488.43 1307 1483.65 1309.72 1479.12 1312.47 1474.64 1315.27 1470.19Z" fill="#FFFFFF" fill-rule="evenodd"/><path d="M1470 1520.99C1478.44 1510.58 1488.05 1501.19 1497.73 1492 1500.14 1509.13 1485.88 1521.3 1470 1520.99Z" fill="#FFFFFF" fill-rule="evenodd"/><path d="M2937 1501.04C2943.65 1501.04 2950.31 1501 2957 1501 2956.96 1507.64 2956.92 1514.32 2956.96 1521 2950.27 1521 2943.65 1521 2937.04 1521 2937 1514.32 2937 1507.68 2937 1501.04Z" fill="#FFFFFF" fill-rule="evenodd"/><path d="M3131.02 1501C3137.32 1501 3143.66 1501 3150 1501.04 3149.96 1507.65 3149.96 1514.31 3150 1521 3143.66 1520.96 3137.32 1521 3131.05 1521 3131.02 1514.31 3130.98 1507.65 3131.02 1501Z" fill="#FFFFFF" fill-rule="evenodd"/><path d="M1893 1681C1899.93 1681.42 1908.16 1683.47 1910 1690.63 1903.84 1692.46 1892.77 1687.28 1893 1681Z" fill="#FFFFFF" fill-rule="evenodd"/><path d="M2482 1713.23C2494.53 1706.48 2507.52 1700.59 2521 1696 2509.41 1704.36 2496.5 1710.49 2483.43 1716L2482 1713.23Z" fill="#FFFFFF" fill-rule="evenodd"/><path d="M1936 1707C1946.19 1709.62 1956.23 1712.88 1966 1716.93L1962.67 1719C1953.21 1716.5 1944.53 1711.77 1936 1707Z" fill="#FFFFFF" fill-rule="evenodd"/><path d="M1971 1723C1992.17 1727.01 2011.75 1736.31 2032.19 1742.78 2093.69 1762.94 2158.64 1770.31 2223.13 1771.1 2291.69 1768.99 2360.92 1760.1 2425.34 1735.67 2437.9 1730.79 2450.76 1726.55 2464 1723.87 2385.2 1760.14 2297.83 1774.28 2211.49 1775 2146.96 1772.13 2081.74 1764.79 2020.77 1742.36 2003.93 1736.54 1986.78 1731.36 1971 1723Z" fill="#FFFFFF" fill-rule="evenodd"/><path d="M2234.86 1814C2285.28 1814.53 2336.11 1832.83 2371.83 1869.15 2409.14 1904.82 2432.09 1955.33 2431.94 2007.2 2433.04 2050.6 2419.55 2094.49 2392.88 2128.91 2361.5 2171.01 2312.75 2200.52 2260.35 2206.38 2213.28 2212.5 2163.85 2201.21 2124.86 2173.82 2082.8 2144.73 2051.15 2099.47 2042.34 2048.66 2033.94 2000.4 2040.93 1948.14 2068.4 1906.8 2098.99 1858.65 2150.05 1822.79 2207.35 1816.47 2216.51 1815.64 2225.66 1814.38 2234.86 1814M2216.77 1894.78C2215.9 1903.45 2215.22 1912.12 2214.53 1920.83 2202.79 1921.25 2198.65 1908.93 2192.08 1901.63 2182.08 1907.75 2171.9 1913.64 2161.68 1919.39 2164.64 1926.27 2167.53 1933.23 2170.61 1940.15 2169.28 1941.98 2166.62 1945.67 2165.29 1947.49 2158.41 1944.49 2151.5 1941.56 2144.74 1938.37 2137.93 1948.06 2130.45 1957.88 2127.18 1969.44 2133.53 1976.59 2145.72 1980.12 2143.94 1991.8 2135.96 1992.45 2127.94 1993.09 2119.96 1993.78 2119.92 2005.64 2119.92 2017.51 2119.92 2029.38 2127.6 2030.94 2135.35 2032.34 2142.99 2034.24 2146.75 2045.43 2130.83 2048.09 2127.18 2056.76 2131.7 2067.14 2138.09 2076.57 2143.52 2086.54 2152.07 2083.72 2160.47 2076.88 2169.96 2079.2 2169.93 2088.4 2165.02 2096.58 2161.76 2104.91 2171.64 2111.07 2181.36 2117.76 2192.23 2122.1 2199.33 2115.6 2202.87 2103.31 2214.57 2104.79 2215.22 2112.78 2215.82 2120.84 2216.47 2128.87 2228.29 2128.98 2240.14 2128.98 2251.96 2128.98 2252.91 2119.59 2253.86 2109.59 2260.77 2102.4 2266.47 2108.86 2271.87 2115.56 2277.19 2122.37 2287.56 2117.46 2297.32 2111.49 2307.05 2105.44 2305.53 2096.35 2296.3 2086.92 2302 2077.98 2310.54 2079.31 2318.33 2083.31 2326.16 2086.77 2331.75 2076.35 2337.63 2066.08 2343.52 2055.81 2336.87 2050.79 2330.45 2045.58 2324.11 2040.25 2325.06 2038.66 2326.96 2035.42 2327.95 2033.83 2335.32 2032.42 2342.65 2030.67 2350.06 2029.07 2349.95 2017.43 2349.98 2005.83 2349.76 1994.27 2340.52 1992.26 2328.63 1994.96 2323.27 1985.34 2330.07 1979.78 2336.87 1974.27 2343.75 1968.83 2337.79 1958.56 2332.01 1948.22 2325.93 1938.02 2318.98 1941.1 2311.99 1944.15 2305.11 1947.42 2303.48 1945.97 2300.17 1943.12 2298.5 1941.71 2301.81 1934.49 2305.26 1927.22 2306.63 1919.35 2297.51 1912.31 2286.91 1907.6 2277 1901.82 2270.73 1908.02 2267.38 1922.89 2256.52 1919.69 2254.16 1911.51 2252.91 1903.07 2251.84 1894.63 2240.18 1894.74 2228.48 1894.7 2216.77 1894.78Z" fill="#FFFFFF" fill-rule="evenodd"/><path d="M2226.95 1907C2232.16 1907 2237.33 1907 2242.54 1907 2243.88 1913.79 2245.28 1920.59 2246.54 1927.38 2253.42 1929.81 2260.42 1931.86 2267.39 1934.13 2272.1 1928.33 2276.71 1922.48 2281.23 1916.53 2285.46 1919.22 2289.76 1921.95 2294.09 1924.61 2291.47 1931.59 2288.92 1938.57 2286.94 1945.78 2292.08 1950.68 2297.1 1955.73 2302.04 1960.81 2308.44 1958.16 2314.64 1954.82 2321.41 1953.26 2324.41 1957.21 2327.04 1961.46 2329.74 1965.67 2323.99 1970.41 2318.25 1975.16 2312.47 1979.83 2314.75 1987.38 2317.11 1994.93 2319.7 2002.41 2326.77 2002.82 2333.89 2003.2 2341 2003.58 2341 2008.89 2341 2014.25 2341 2019.6 2333.73 2021.19 2326.43 2022.44 2319.05 2023.28 2316.84 2030.49 2314.64 2037.7 2312.43 2044.95 2318.25 2049.43 2324.15 2053.83 2330.16 2058.15 2327.3 2062.78 2324.45 2067.45 2321.64 2072.12 2315.09 2069.16 2308.51 2066.43 2301.89 2063.77 2296.76 2069.23 2291.54 2074.66 2286.29 2080.05 2288.92 2086.73 2291.62 2093.45 2294.28 2100.2 2290.02 2102.63 2285.84 2105.14 2281.65 2107.64 2276.74 2102.06 2271.88 2096.41 2267.01 2090.87 2260.35 2092.92 2253.58 2094.62 2246.8 2096.14 2245.47 2103.47 2243.95 2110.71 2242.47 2118 2237.41 2118 2232.35 2117.96 2227.29 2118 2226.49 2110.87 2226.26 2103.66 2224.44 2096.71 2217.59 2094.43 2210.55 2092.69 2203.51 2091.09 2197.88 2095.57 2194.38 2102.06 2189.97 2107.6 2185.4 2105.21 2180.88 2102.82 2176.31 2100.54 2179.09 2093.64 2181.94 2086.77 2184.72 2079.9 2179.05 2074.47 2173.38 2069.04 2167.56 2063.81 2161.21 2066.81 2154.74 2069.58 2148.31 2072.35 2146.07 2067.75 2143.78 2063.24 2141.46 2058.72 2146.9 2053.98 2152.61 2049.5 2157.59 2044.23 2156.22 2037.43 2154.43 2030.68 2152.34 2024.11 2145.3 2022.25 2138.08 2021.19 2131 2019.71 2131 2014.36 2131 2009.08 2131.04 2003.81 2138.04 2003.13 2145.23 2003.05 2152.15 2001.38 2154.4 1993.98 2156.76 1986.47 2157.29 1978.72 2152.11 1974.17 2146.45 1970.22 2141.01 1966.05 2143.71 1961.46 2146.45 1956.94 2149.22 1952.43 2155.54 1955.31 2161.89 1958.08 2168.28 1960.89 2173.65 1955.35 2179.12 1949.85 2184.68 1944.46 2181.83 1937.82 2179.05 1931.17 2176.23 1924.53 2180.84 1921.88 2185.44 1919.26 2190.08 1916.68 2194.3 1922.45 2198.49 1928.21 2202.6 1934.1 2210.17 1931.71 2217.85 1929.73 2225.42 1927.38 2225.96 1920.59 2226.45 1913.79 2226.95 1907M2204.12 1950.15C2204.42 1961.31 2216.71 1967.42 2219.15 1978.35 2215.72 1986.12 2213.25 1994.28 2211.65 2002.63 2201.72 1999.37 2200.39 1978.31 2188.94 1984.27 2187.61 1997.74 2198.26 2008.33 2209.48 2013.87 2203.02 2015.88 2196.62 2018.08 2190.23 2020.24 2186.96 2027.76 2183.96 2035.35 2180.99 2042.97 2183.61 2043.54 2188.83 2044.72 2191.45 2045.33 2194.38 2040.62 2195.86 2035.23 2197.5 2030.07 2201.68 2028.25 2205.95 2026.54 2210.21 2024.87 2207.24 2034.13 2201.61 2042.06 2195.56 2049.58 2199.74 2058.15 2204.5 2066.54 2211.84 2072.88 2218.08 2065.4 2213.06 2057.93 2209.29 2050.98 2210.05 2049.2 2211.58 2045.63 2212.34 2043.85 2217.85 2048.44 2223.56 2053.52 2230.94 2054.81 2240.57 2057.66 2248.86 2050.49 2256.43 2045.71 2257.91 2046.46 2260.92 2048.02 2262.44 2048.82 2258.71 2056.83 2250.23 2065.82 2260.96 2072.61 2266.02 2065.52 2270.73 2058.15 2275.07 2050.6 2269.63 2041.99 2262.67 2034.17 2259.66 2024.3 2275.98 2024.07 2272.37 2047.68 2288.23 2045.78 2286.86 2037.51 2285.84 2028.59 2280.85 2021.61 2274.99 2017.21 2267.46 2015.88 2260.73 2013.33 2273.21 2009.73 2278.91 1998.53 2284.09 1987.76 2282.41 1986.12 2279.03 1982.82 2277.35 1981.15 2270.92 1988.55 2266.47 1998.15 2257.3 2002.71 2256.96 1999.1 2256.32 1991.89 2256.01 1988.29 2246.96 1975.12 2260.58 1963.96 2267.65 1954.02 2266.21 1952.08 2263.28 1948.18 2261.79 1946.2 2252.28 1953.87 2244.22 1963.28 2241.02 1975.31 2236.68 1974.97 2232.35 1974.63 2228.05 1974.36 2227.4 1962.6 2218.54 1954.55 2210.02 1947.72 2208.53 1948.33 2205.6 1949.54 2204.12 1950.15Z" fill="#FFFFFF" fill-rule="evenodd"/><path d="M2223.66 1990.89C2231.14 1984.79 2240.08 1986.64 2247.75 1991.12 2244.63 1994.91 2241.51 1998.7 2238.36 2002.49 2242.04 2004.69 2245.76 2006.86 2249.55 2009.02 2250.23 2020.2 2250.87 2031.84 2245.57 2042.2 2238.77 2041.78 2229.75 2045.65 2224.6 2039.39 2217.16 2031.77 2219.53 2020.51 2219 2010.91 2222.68 2008.83 2226.37 2006.7 2230.01 2004.5 2230.99 1999.01 2225.73 1995.29 2223.66 1990.89Z" fill="#FFFFFF" fill-rule="evenodd"/><path d="M2159 322.618C2229.81 315.898 2301.04 322.998 2371.1 333.894 2429.72 345.095 2487.29 361.99 2542 385.984 2529.28 419.205 2524.61 455.653 2529.13 491 2492.22 480.104 2457.67 462.335 2420.31 452.806 2366.73 440.011 2312.58 426.837 2257.22 425.698 2228.1 426.495 2199.02 425.432 2169.93 425.849 2124.97 428.659 2080.7 437.619 2037.04 448.212 2000.7 455.122 1966.79 470.232 1932.09 482.306 1935.05 446.959 1929.31 410.701 1915 378.202 1992.46 346.082 2075.46 328.655 2159 322.618Z" fill="#7030A0" fill-rule="evenodd"/><path d="M1536.04 674.696C1551.15 653.616 1566.38 632.497 1584.66 614 1610.4 638.461 1642.27 656.578 1677 664.631 1635.19 713.78 1596.96 766.347 1568.17 824.309 1529.72 902.059 1503.86 986.304 1494.19 1072.56 1492.4 1092.65 1491.79 1112.86 1489.58 1132.95 1485.58 1167.37 1494.11 1201.55 1492.32 1236 1459.92 1219.06 1423.33 1210.74 1386.77 1212.64 1385.06 1179.82 1384.41 1146.97 1385.63 1114.15 1391.99 957.247 1445.91 803.153 1536.04 674.696Z" fill="#7030A0" fill-rule="evenodd"/><path d="M2765 668.048C2801.18 662.419 2835.92 647.622 2864.07 624 2950.73 732.295 3012.51 861.131 3037.88 997.88 3051.73 1068.71 3054.15 1141.21 3050.44 1213.14 3014.29 1211.16 2978.11 1219.34 2946.02 1236 2945.68 1216.56 2945.23 1197.05 2947.28 1177.65 2950.96 1147.64 2944.81 1117.66 2944.93 1087.61 2932.18 956.037 2884.62 827.467 2806.26 720.96 2793.22 702.778 2778.35 686.002 2765 668.048Z" fill="#7030A0" fill-rule="evenodd"/><path d="M1506 1587.9C1536.58 1566.95 1562.18 1538.35 1578.67 1505 1666.8 1662.89 1813.25 1790.06 1986.32 1845.08 2017.81 1856.64 2050.94 1862.5 2083 1872.27 2058.61 1898.78 2040.99 1931.6 2033.81 1967 1926 1942.02 1822.55 1897.03 1732.45 1832.46 1642.19 1766.63 1563.44 1684.04 1506 1587.9Z" fill="#7030A0" fill-rule="evenodd"/><path d="M2735.05 1667.91C2784 1620.26 2823.11 1563.84 2859.02 1506 2875.48 1538.74 2900.9 1566.61 2931 1587.33 2894.48 1647.26 2850.81 1703.01 2799.89 1751.41 2699.25 1850.81 2571.78 1921.95 2435.23 1958 2426.38 1922.45 2406.77 1890.28 2381 1864.46 2514.43 1834 2639.28 1766.05 2735.05 1667.91Z" fill="#7030A0" fill-rule="evenodd"/><path d="M2719.76 353.325C2722.49 341.574 2736.54 347.887 2745.04 346.328 2745.84 348.001 2747.47 351.348 2748.27 353.021 2799.48 357.851 2839.3 405.426 2842.68 455.549 2854.45 459.542 2848.19 473.955 2849.4 483.158 2841.2 483.272 2833.04 483.197 2824.88 482.854 2824.65 475.743 2824.54 468.669 2824.42 461.558 2826.32 459.922 2830.08 456.614 2831.94 454.941 2827.46 411.549 2794.36 370.21 2749.86 364.278 2746.07 370.325 2740.75 373.063 2733.84 372.416 2742.92 383.027 2747.02 396.565 2752.94 408.962 2766.38 438.283 2779.17 467.908 2792.42 497.343 2784.52 511.148 2775.45 524.268 2768.16 538.416 2768.35 544.044 2769.45 549.558 2770.1 555.148 2772.68 555.529 2777.88 556.365 2780.5 556.746 2780.61 564.314 2780.65 571.881 2780.65 579.449 2749.86 581.009 2718.51 582.225 2687.87 578.803 2687.91 569.486 2685.1 554.806 2698.65 554.16 2699.34 548.379 2700.13 542.446 2704.42 538.073 2696.68 526.74 2688.78 515.521 2681.19 504.075 2675.88 497.686 2680.36 489.661 2683.13 483.311 2699.15 448.59 2713.53 413.108 2730.12 378.729L2734.72 376.105C2728.76 372.682 2723.03 368.917 2717.86 364.392 2680.55 370.477 2649.72 401.243 2640.84 437.637 2639.28 443.684 2637.8 449.769 2636.4 455.891 2638.41 456.994 2642.43 459.238 2644.41 460.341 2644.41 467.833 2644.33 475.324 2644.14 482.816 2636.28 483.158 2628.46 483.311 2620.68 483.424 2617.26 465.703 2627.7 450.643 2630.36 433.72 2641.29 392.952 2676.71 357.318 2719.76 353.325M2733.08 358.193C2735.51 360.893 2735.51 360.893 2733.08 358.193M2734.45 394.017C2719.76 428.13 2704.92 462.166 2689.16 495.784 2699.19 510.045 2708.18 525.067 2718.62 539.024 2721.16 539.708 2726.25 541.078 2728.8 541.724 2728.99 527.615 2729.36 513.468 2730.28 499.397 2720.79 495.062 2714.94 486.353 2712.89 476.275 2716.8 470.152 2719.04 461.519 2727.01 459.58 2739.61 452.164 2756.66 465.855 2754.53 479.583 2754.57 489.091 2746.45 495.556 2738.85 499.587 2738.89 513.278 2739.27 526.968 2739.39 540.659 2744.13 540.621 2748.84 540.545 2753.62 540.507 2761.94 525.904 2770.63 511.528 2779.7 497.381 2765.54 462.546 2749.33 428.548 2734.45 394.017M2630.25 469.126C2632.79 471.674 2632.79 471.674 2630.25 469.126M2723.67 476.313C2725.45 480.23 2727.28 484.185 2729.1 488.102 2734.38 487.38 2740.26 487.265 2743.52 482.246 2745.69 475.59 2740.6 470.076 2734.91 467.718 2730.47 469.544 2727.31 473.385 2723.67 476.313M2835.58 468.973C2837.94 471.711 2837.94 471.711 2835.58 468.973M2708.11 554.54C2724.89 556.631 2741.85 555.148 2758.71 555.529L2759.09 551.459C2742.16 552.676 2724.24 548.265 2708.11 554.54M2709.09 570.779C2729.36 570.893 2749.67 570.665 2769.98 570.74L2769.98 566.215C2745.76 566.481 2721.51 565.455 2697.32 566.861 2700.82 569.181 2704.58 571.577 2709.09 570.779Z" fill="#111313" fill-rule="evenodd"/><path d="M1642.01 556.343C1644.72 556.027 1650.17 555.356 1652.92 555 1652.92 558.239 1653 564.718 1653 567.917 1644.72 568.707 1641.81 563.769 1642.01 556.343Z" fill="#111313" fill-rule="evenodd"/><path d="M1618.72 414.45C1624.79 383.087 1651.31 356.901 1682.6 351.078 1701.33 348.489 1721.12 350.316 1737.64 360.136 1753.59 368.624 1764.11 383.81 1773.91 398.502 1775.58 391.727 1773.68 383.163 1779.23 377.835 1783.37 373.115 1790.09 374.257 1795.68 373.305 1799.55 369.423 1803.42 365.541 1807.26 361.62 1805.66 358.804 1802.51 353.171 1800.95 350.354 1809.69 350.012 1818.46 349.974 1827.28 350.012 1827.24 358.728 1827.16 367.482 1826.78 376.198 1821.85 375.399 1816.98 374.028 1814.36 369.271 1810.3 373.496 1806.04 377.454 1802.44 382.06 1799.78 388.644 1801.52 398.731 1792.6 400.595 1790.02 400.748 1784.89 401.014 1782.31 401.128 1780.56 402.689 1777.14 405.848 1775.39 407.409 1780.79 431.159 1779.04 457.041 1765.59 477.898 1768.97 481.514 1772.43 485.13 1775.92 488.746 1776.87 487.376 1778.77 484.635 1779.72 483.265 1799.89 503.551 1820.02 523.838 1840 544.315 1828.99 555.696 1817.74 566.886 1806.5 578 1786.98 557.485 1766.73 537.693 1746.87 517.558 1748.24 516.15 1750.89 513.371 1752.26 511.963 1748.92 508.538 1745.62 505.074 1742.31 501.61 1722.94 515.008 1698.52 515.884 1676.03 512.154 1659.74 507.472 1646.18 496.891 1634.1 485.396 1633.04 493.313 1636.27 505.683 1625.82 508.233 1615.26 513.067 1606.3 500.697 1609.75 490.763 1610.21 479.953 1623.31 481.857 1630.68 479.763 1618.68 460.618 1612.83 436.64 1618.72 414.45M1669.23 365.541C1658.33 372.049 1647.09 379.015 1640.14 390.014 1631.06 402.194 1628.78 417.495 1626.58 432.11 1629.2 448.972 1632.88 466.822 1645.34 479.421 1663.5 501.382 1695.21 509.109 1721.84 499.898 1749 490.382 1768.82 462.407 1767.68 433.48 1768.97 403.64 1748.88 374.637 1720.85 364.818 1704.33 358.195 1685.76 359.984 1669.23 365.541M1785.38 384.191C1783.1 390.471 1785 392.679 1791.08 390.814 1793.32 384.534 1791.42 382.326 1785.38 384.191M1749.57 496.358C1753.02 498.794 1756.17 501.953 1759.97 503.97 1762.86 501.382 1765.63 498.68 1768.37 495.901 1766.35 493.541 1762.33 488.746 1760.31 486.386 1756.71 489.659 1753.14 493.009 1749.57 496.358M1617.84 491.905C1616.1 498.299 1618.19 500.431 1624.07 498.337 1625.78 491.905 1623.69 489.773 1617.84 491.905M1761.3 516.531C1775.01 533.696 1791.92 547.893 1806.77 563.993 1813.15 557.447 1819.57 550.938 1825.76 544.201 1810.64 528.634 1795.14 513.448 1780.06 497.805 1773.84 504.047 1767.64 510.327 1761.3 516.531Z" fill="#131515" fill-rule="evenodd"/><path d="M1780.19 502C1788.47 510.576 1797.47 518.581 1805 527.881 1803.79 529.901 1801.37 533.98 1800.16 536 1793.39 529.787 1787.23 522.964 1780.31 516.942L1775.24 520.944C1773.16 518.924 1771.08 516.904 1769 514.921 1772.71 510.614 1776.45 506.307 1780.19 502Z" fill="#131515" fill-rule="evenodd"/><path d="M1643.91 514.629C1646.07 514.481 1650.34 514.185 1652.49 514 1652.64 516.778 1652.89 522.26 1653 525 1650.52 524.815 1645.48 524.371 1643 524.185 1643.22 521.778 1643.66 517.037 1643.91 514.629Z" fill="#131515" fill-rule="evenodd"/><path d="M2159.89 1085.3C2181.84 1081.79 2205.77 1081.22 2226.25 1091.4 2251.92 1102.67 2272.66 1125.19 2281.35 1152.05 2292.19 1182.38 2287.11 1217.7 2268.83 1244.1 2248.93 1273.82 2212.56 1291.46 2177.03 1288.72 2125.53 1285.98 2079.69 1238.88 2082.15 1186.38 2079.38 1139.52 2114.99 1095.7 2159.89 1085.3M2135.73 1110.56C2100.24 1132.47 2086.06 1180.93 2101.79 1219.22 2114.69 1252.33 2149.08 1276.83 2184.92 1274.93 2215.52 1276.03 2244.94 1258.16 2260.61 1232.14 2277.29 1205.7 2277.63 1169.92 2262.54 1142.72 2251.77 1121.42 2231.37 1107.32 2209.68 1098.9 2184.65 1092.77 2157.42 1096.08 2135.73 1110.56Z" fill="#131515" fill-rule="evenodd"/><path d="M2175.57 1115.62C2214.18 1110.08 2254.62 1142.42 2253.63 1182.33 2257.41 1215.51 2231.65 1247.27 2199.72 1253.96 2183.31 1255.79 2165.61 1256.09 2151 1247.31 2122.84 1232.57 2107.12 1196.95 2116.93 1166.44 2123.6 1139.45 2148.29 1119.13 2175.57 1115.62M2171.37 1130.05C2138.48 1136.85 2117 1176.79 2132.11 1207.45 2140.01 1228.41 2161.3 1240.13 2182.59 1242.92 2208.84 1241.85 2235.28 1224.33 2239.55 1197.14 2250.43 1158.96 2209.49 1118.83 2171.37 1130.05Z" fill="#131515" fill-rule="evenodd"/><path d="M1433.15 1308.73C1444.69 1298.61 1460.72 1299.33 1474.96 1300.97 1475.41 1302.64 1476.25 1305.95 1476.67 1307.59 1469.03 1316.53 1460.34 1324.41 1451.87 1332.52 1453.62 1337.81 1455.1 1343.22 1457.3 1348.4 1462.73 1351.75 1468.92 1353.54 1474.84 1355.82 1483.47 1347.37 1491.33 1338.16 1500.74 1330.58 1510.96 1332.64 1507.12 1346.38 1507.31 1353.88 1504.12 1380.11 1477.43 1397.24 1452.1 1393.62 1446.25 1399.41 1440.4 1405.23 1434.55 1411.09 1437.82 1414.52 1441.05 1417.98 1444.31 1421.49 1442.26 1425.63 1440.25 1429.78 1438.27 1433.93 1442.64 1432.22 1447.08 1430.7 1451.57 1429.33 1468.54 1444.1 1483.77 1460.85 1499.68 1476.76 1514.3 1491.76 1508.91 1520 1489.31 1527.88 1477.92 1530.62 1463.22 1531.61 1454.64 1522.02 1438.31 1505.65 1421.87 1489.4 1405.88 1472.69 1407.25 1469.68 1410.02 1463.66 1411.39 1460.66 1408.65 1462.18 1403.18 1465.26 1400.49 1466.82 1396.54 1463.36 1392.66 1459.93 1388.75 1456.47 1383.02 1462.67 1377.09 1468.73 1371.25 1474.85 1373.56 1494.8 1364.33 1516.61 1345.8 1525.64 1322.41 1536.14 1293.01 1527.2 1281.05 1503.98 1278.66 1486.35 1275.43 1464.23 1290.43 1451.06 1300.99 1438.77 1317.4 1435.72 1332.78 1437.21 1359.93 1410.33 1386.66 1383.04 1413.85 1356.2 1412.79 1338.58 1417.92 1319.16 1433.15 1308.73M1424.6 1360.31C1395.36 1389.43 1366.23 1418.67 1337.11 1447.98 1326.78 1447.56 1315.42 1445.81 1306.15 1451.63 1297.46 1456.13 1292.82 1465.11 1287.81 1473.07 1287.93 1480.68 1286.56 1488.83 1289.67 1496.06 1296.17 1517.19 1324.57 1528.42 1342.99 1515.21 1358.94 1506.56 1363.04 1487.23 1360.46 1470.55 1390.35 1440.86 1419.59 1410.45 1450.05 1381.32 1472.22 1389.97 1496.34 1370.74 1498.39 1348.09 1491.29 1354.22 1484.64 1360.88 1478 1367.51 1469.03 1364.31 1459.73 1362.14 1451 1358.29 1445.15 1350.34 1443.32 1339.98 1440.48 1330.62 1445.83 1322.7 1453.39 1316.61 1459.62 1309.38 1434.59 1311.09 1419.74 1336.86 1424.6 1360.31M1396.01 1452.05C1402.69 1452.62 1409.6 1451.98 1416.17 1453.69 1422.29 1458.41 1419.59 1466.9 1421.3 1473.48 1433.75 1487.84 1448.26 1500.25 1461.1 1514.25 1471.31 1503.9 1481.64 1493.66 1491.86 1483.34 1478.19 1469.22 1464.1 1455.52 1450.39 1441.39 1445.68 1442.23 1440.4 1445.73 1436.11 1441.93 1426.31 1437.28 1430.15 1425.6 1429.05 1417.07 1417.69 1428.38 1405.04 1438.65 1396.01 1452.05M1469.79 1521.75C1485.86 1522.06 1500.29 1509.91 1497.86 1492.82 1488.06 1502 1478.34 1511.36 1469.79 1521.75Z" fill="#131515" fill-rule="evenodd"/><path d="M1677.16 374.828C1698.26 369.089 1723.73 371.331 1739.05 388.585 1763.57 411.122 1762.73 453.915 1737.98 475.957 1718.86 494.807 1686.4 497.467 1664.61 481.696 1652.07 473.791 1643.4 460.641 1639.98 446.352 1631.96 417.696 1649.14 384.747 1677.16 374.828M1669.93 390.181C1649.86 403.711 1642.68 431.53 1652.83 453.344 1656.48 449.62 1660.13 445.896 1663.74 442.095 1660.85 429.516 1670.43 419.179 1683.13 422.485 1688.18 435.482 1700.77 439.397 1713.24 441.867 1718.75 438.523 1725.06 437.687 1731.37 437.307 1736.39 432.366 1741.37 427.425 1746.35 422.447 1744.26 411.274 1737.49 402.001 1731.07 392.917 1728.52 397.136 1725.9 401.316 1722.44 404.851 1720.84 403.293 1717.61 400.177 1715.97 398.618 1710.04 397.516 1704.26 395.73 1698.3 395.046 1688.37 393.183 1680.5 400.785 1671.8 403.977 1666.78 400.974 1666.21 393.944 1672.6 392.386 1683.62 384.671 1697.69 382.808 1710.57 386.153 1711.6 388.167 1713.62 392.195 1714.64 394.21 1719.58 395.692 1723.31 389.649 1727.57 387.825 1709.02 382.542 1686.62 377.032 1669.93 390.181M1674.15 433.202C1672.56 438.561 1674.38 440.347 1679.67 438.561 1681.23 433.202 1679.4 431.416 1674.15 433.202M1737 445.364C1739.66 452.584 1736.43 462.579 1728.21 464.29 1719.43 468.508 1713.96 458.627 1709.17 453.154 1703.24 448.822 1695.71 447.606 1688.9 445.136 1683.35 447.035 1677.61 448.29 1671.83 449.202 1667.12 453.876 1662.52 458.627 1657.96 463.416 1666.36 471.168 1675.94 477.477 1686.66 481.582 1683.01 476.603 1677.88 471.776 1682.29 465.544 1690.65 467.596 1699.25 468.242 1707.88 468.242 1708.14 470.712 1708.64 475.691 1708.9 478.199 1701.15 478.275 1693.35 478.427 1685.6 478.579 1694.34 486.522 1706.2 481.202 1715.86 478.351 1734.22 471.929 1744.3 453.648 1748.29 435.672 1744.49 438.865 1740.76 442.133 1737 445.364M1721.18 447.986C1719.17 453.952 1721.3 455.928 1727.64 453.915 1729.7 447.872 1727.53 445.896 1721.18 447.986Z" fill="#141616" fill-rule="evenodd"/><path d="M1799 410.32C1806.84 408.746 1810.35 413.054 1809.97 421.545 1806.43 421.71 1802.84 421.876 1799.3 422 1799.22 419.06 1799.07 413.219 1799 410.32Z" fill="#141616" fill-rule="evenodd"/><path d="M1792.18 469.037C1795.32 469.037 1798.43 469 1801.57 469 1801.68 471.472 1801.89 476.378 1802 478.85 1798.64 478.887 1795.32 478.925 1792 479 1792.04 476.491 1792.14 471.547 1792.18 469.037Z" fill="#141616" fill-rule="evenodd"/><path d="M1430 1458.88C1432.53 1456.55 1435.05 1454.26 1437.62 1452 1450.94 1465.8 1464.95 1478.92 1478 1492.99 1476.05 1494.25 1472.07 1496.74 1470.08 1498 1455.57 1486.26 1443.44 1471.81 1430 1458.88Z" fill="#141616" fill-rule="evenodd"/><path d="M2204.08 1949.96C2205.56 1949.35 2208.48 1948.13 2209.96 1947.52 2218.46 1954.37 2227.31 1962.44 2227.95 1974.23 2232.24 1974.5 2236.57 1974.84 2240.9 1975.18 2244.08 1963.12 2252.13 1953.69 2261.62 1946 2263.1 1947.98 2266.02 1951.9 2267.47 1953.84 2260.41 1963.81 2246.82 1974.99 2255.85 1988.19 2256.15 1991.81 2256.8 1999.04 2257.14 2002.65 2266.29 1998.09 2270.73 1988.46 2277.14 1981.04 2278.81 1982.72 2282.19 1986.03 2283.86 1987.66 2278.7 1998.47 2273.01 2009.69 2260.56 2013.3 2267.28 2015.85 2274.79 2017.19 2280.64 2021.6 2285.61 2028.6 2286.63 2037.54 2288 2045.83 2272.17 2047.74 2275.78 2024.07 2259.49 2024.3 2262.49 2034.19 2269.44 2042.03 2274.87 2050.67 2270.54 2058.24 2265.83 2065.62 2260.79 2072.73 2250.08 2065.92 2258.55 2056.91 2262.27 2048.88 2260.75 2048.08 2257.75 2046.52 2256.27 2045.76 2248.71 2050.55 2240.44 2057.74 2230.84 2054.89 2223.47 2053.6 2217.78 2048.5 2212.28 2043.89 2211.52 2045.68 2210 2049.26 2209.24 2051.05 2213 2058.01 2218.01 2065.51 2211.78 2073 2204.46 2066.65 2199.71 2058.24 2195.54 2049.64 2201.57 2042.11 2207.19 2034.15 2210.15 2024.87 2205.9 2026.55 2201.65 2028.26 2197.47 2030.08 2195.84 2035.26 2194.36 2040.66 2191.44 2045.38 2188.82 2044.77 2183.62 2043.59 2181 2043.02 2183.96 2035.37 2186.96 2027.76 2190.22 2020.23 2196.6 2018.06 2202.98 2015.85 2209.43 2013.84 2198.23 2008.28 2187.6 1997.67 2188.93 1984.16 2200.36 1978.19 2201.69 1999.3 2211.59 2002.58 2213.19 1994.21 2215.65 1986.03 2219.07 1978.23 2216.64 1967.27 2204.38 1961.14 2204.08 1949.96M2223.7 1990.71C2225.79 1995.12 2231.1 1998.85 2230.12 2004.36 2226.43 2006.57 2222.71 2008.7 2218.99 2010.79 2219.53 2020.42 2217.14 2031.72 2224.65 2039.37 2229.85 2045.64 2238.96 2041.76 2245.83 2042.18 2251.18 2031.8 2250.54 2020.12 2249.85 2008.89 2246.02 2006.72 2242.26 2004.55 2238.54 2002.35 2241.73 1998.54 2244.88 1994.74 2248.03 1990.93 2240.29 1986.44 2231.25 1984.58 2223.7 1990.71Z" fill="#141616" fill-rule="evenodd"/><path d="M1821.07 441.302C1823.52 441.226 1828.44 441.076 1830.89 441 1830.93 443.75 1831 449.25 1831 452 1828.52 451.925 1823.52 451.812 1821 451.774 1821 449.137 1821.04 443.901 1821.07 441.302Z" fill="#151717" fill-rule="evenodd"/><path d="M1698.04 529C1700.49 529.146 1705.43 529.437 1707.89 529.583 1707.92 532.023 1707.96 536.904 1708 539.345 1705.51 539.49 1700.49 539.818 1698 540 1698 537.232 1698.04 531.732 1698.04 529Z" fill="#151717" fill-rule="evenodd"/><path d="M2928.34 1300.04C2941.31 1300 2954.31 1299.96 2967.28 1300.15 2967.39 1305.17 2967.47 1310.19 2967.58 1315.25 3018.31 1315.25 3069.07 1315.25 3119.79 1315.25 3119.86 1310.23 3119.98 1305.21 3120.13 1300.19 3133.63 1299.96 3147.13 1299.89 3160.62 1300.27 3160.82 1312.7 3161.42 1325.18 3160.51 1337.62 3156.98 1342.03 3150.74 1340.7 3145.95 1341.88 3145.87 1391.28 3145.87 1440.73 3145.91 1490.14 3150.82 1490.18 3155.76 1490.29 3160.74 1490.4 3160.89 1503.34 3160.93 1516.27 3160.82 1529.24 3147.28 1531.14 3133.51 1531.06 3120.02 1529.24 3119.98 1525.93 3119.9 1519.35 3119.86 1516.08 3069.07 1516 3018.27 1516 2967.51 1516.08 2967.51 1519.43 2967.51 1526.12 2967.55 1529.43 2954.85 1529.58 2940.05 1533.61 2928.65 1528.14 2927.47 1515.55 2928.23 1502.84 2928.38 1490.25 2931.73 1490.21 2938.34 1490.21 2941.65 1490.21 2941.73 1440.5 2941.69 1390.79 2941.65 1341.12 2938.46 1341.08 2931.99 1341.04 2928.76 1341.04 2927.81 1327.39 2928 1313.69 2928.34 1300.04M2936.82 1310.76C2936.78 1317.31 2936.78 1323.89 2936.82 1330.47 2943.48 1330.47 2950.17 1330.47 2956.86 1330.47 2956.82 1323.85 2956.82 1317.27 2956.86 1310.69 2950.17 1310.69 2943.48 1310.73 2936.82 1310.76M3130.74 1310.73C3130.7 1317.31 3130.7 1323.89 3130.74 1330.47 3137.2 1330.47 3143.74 1330.47 3150.28 1330.47 3150.24 1323.89 3150.24 1317.31 3150.28 1310.76 3143.74 1310.73 3137.2 1310.73 3130.74 1310.73M2967.47 1325.9C2967.51 1329.33 2967.58 1336.17 2967.62 1339.59 2962.49 1340.32 2957.35 1341 2952.3 1341.72 2952.3 1391.17 2952.26 1440.65 2952.3 1490.14 2957.28 1490.21 2962.26 1490.29 2967.28 1490.44 2967.35 1495.43 2967.47 1500.41 2967.58 1505.43 3018.34 1505.47 3069.1 1505.43 3119.83 1505.43 3119.9 1500.41 3119.98 1495.39 3120.09 1490.37 3125.07 1490.29 3130.09 1490.21 3135.11 1490.14 3135.15 1440.73 3135.15 1391.32 3135.11 1341.92 3129.98 1340.96 3124.96 1340.09 3119.9 1339.1 3119.9 1335.83 3119.94 1329.21 3119.94 1325.9 3069.1 1325.83 3018.27 1325.83 2967.47 1325.9M2936.78 1500.86C2936.78 1507.44 2936.78 1514.02 2936.82 1520.64 2943.48 1520.64 2950.13 1520.64 2956.86 1520.64 2956.82 1514.02 2956.86 1507.41 2956.9 1500.83 2950.17 1500.83 2943.48 1500.86 2936.78 1500.86M3130.7 1500.86C3130.66 1507.44 3130.7 1514.02 3130.74 1520.64 3137.2 1520.64 3143.74 1520.6 3150.28 1520.64 3150.24 1514.02 3150.24 1507.44 3150.28 1500.9 3143.74 1500.86 3137.2 1500.86 3130.7 1500.86Z" fill="#151717" fill-rule="evenodd"/><path d="M1431.78 1368C1434.52 1370.3 1437.26 1372.64 1440 1374.97 1412.47 1402.44 1385.4 1430.36 1357.69 1457.56 1353.77 1463.38 1349.43 1457.29 1346 1454.69 1374.4 1425.57 1403.41 1397.15 1431.78 1368Z" fill="#151717" fill-rule="evenodd"/><path d="M1804.09 537.795C1805.6 530.147 1816.56 535.374 1813.45 541.907 1811.41 548.479 1803.04 543.368 1804.09 537.795Z" fill="#121414" fill-rule="evenodd"/><path d="M1295 1483.13C1299.8 1475.44 1304.53 1467.72 1309.25 1460 1319.43 1460.04 1329.65 1460.08 1339.83 1460.42 1344.13 1468.1 1348.51 1475.79 1353 1483.39 1348.12 1491.87 1343.21 1500.39 1336.98 1508 1328.65 1507.77 1320.31 1508.15 1312.02 1507.47 1303.72 1501.64 1300.38 1491.34 1295 1483.13M1315.47 1469.92C1312.71 1474.42 1309.98 1478.97 1307.29 1483.55 1310.48 1488.39 1313.67 1493.24 1316.89 1498.08 1322 1498.01 1327.15 1497.93 1332.3 1497.93 1335.06 1493.16 1337.98 1488.47 1340.94 1483.85 1338.29 1479.12 1335.56 1474.38 1332.8 1469.73 1327.03 1469.8 1321.27 1469.84 1315.47 1469.92Z" fill="#121414" fill-rule="evenodd"/><path d="M2216.79 1895.15C2228.49 1895.08 2240.18 1895.11 2251.84 1895 2252.9 1903.43 2254.16 1911.86 2256.51 1920.03 2267.37 1923.22 2270.71 1908.37 2276.98 1902.18 2286.89 1907.95 2297.48 1912.66 2306.6 1919.68 2305.23 1927.54 2301.77 1934.8 2298.47 1942.01 2300.14 1943.42 2303.45 1946.27 2305.08 1947.71 2311.95 1944.44 2318.94 1941.41 2325.89 1938.33 2331.96 1948.51 2337.73 1958.84 2343.7 1969.09 2336.82 1974.52 2330.03 1980.03 2323.23 1985.57 2328.58 1995.18 2340.47 1992.48 2349.7 1994.49 2349.92 2006.04 2349.89 2017.62 2350 2029.24 2342.6 2030.84 2335.27 2032.58 2327.9 2033.99 2326.91 2035.58 2325.01 2038.81 2324.06 2040.41 2330.41 2045.72 2336.82 2050.92 2343.47 2055.94 2337.58 2066.19 2331.7 2076.44 2326.12 2086.85 2318.29 2083.39 2310.51 2079.41 2301.96 2078.08 2296.27 2087 2305.5 2096.42 2307.02 2105.49 2297.29 2111.53 2287.54 2117.49 2277.17 2122.39 2271.85 2115.59 2266.46 2108.91 2260.76 2102.46 2253.85 2109.63 2252.9 2119.62 2251.96 2129 2240.15 2129 2228.3 2129 2216.49 2128.89 2215.84 2120.87 2215.24 2112.82 2214.59 2104.85 2202.89 2103.37 2199.36 2115.63 2192.26 2122.13 2181.4 2117.8 2171.68 2111.11 2161.81 2104.96 2165.07 2096.65 2169.97 2088.48 2170.01 2079.29 2160.52 2076.97 2152.12 2083.81 2143.58 2086.62 2138.15 2076.67 2131.77 2067.25 2127.25 2056.89 2130.9 2048.23 2146.81 2045.57 2143.05 2034.41 2135.42 2032.51 2127.67 2031.1 2120 2029.54 2120 2017.7 2120 2005.85 2120.04 1994 2128.01 1993.32 2136.02 1992.67 2144 1992.03 2145.78 1980.37 2133.59 1976.84 2127.25 1969.7 2130.52 1958.15 2138 1948.35 2144.8 1938.67 2151.56 1941.86 2158.47 1944.78 2165.34 1947.78 2166.67 1945.96 2169.33 1942.28 2170.66 1940.46 2167.58 1933.54 2164.69 1926.59 2161.73 1919.72 2171.95 1913.99 2182.12 1908.1 2192.11 1901.99 2198.68 1909.28 2202.82 1921.58 2214.55 1921.16 2215.24 1912.47 2215.92 1903.81 2216.79 1895.15M2226.4 1907.19C2225.91 1913.99 2225.41 1920.79 2224.88 1927.58 2217.32 1929.94 2209.65 1931.91 2202.1 1934.3 2198 1928.42 2193.82 1922.65 2189.6 1916.87 2184.97 1919.46 2180.38 1922.08 2175.78 1924.73 2178.59 1931.38 2181.36 1938.03 2184.21 1944.67 2178.67 1950.06 2173.2 1955.57 2167.85 1961.11 2161.47 1958.3 2155.12 1955.53 2148.82 1952.65 2146.05 1957.16 2143.32 1961.68 2140.62 1966.28 2146.05 1970.46 2151.71 1974.41 2156.87 1978.96 2156.34 1986.71 2153.99 1994.23 2151.75 2001.63 2144.83 2003.3 2137.66 2003.38 2130.67 2004.06 2130.63 2009.34 2130.63 2014.62 2130.63 2019.97 2137.7 2021.46 2144.91 2022.52 2151.94 2024.38 2154.02 2030.95 2155.81 2037.71 2157.18 2044.51 2152.2 2049.78 2146.5 2054.27 2141.07 2059.01 2143.39 2063.53 2145.67 2068.05 2147.91 2072.65 2154.33 2069.87 2160.78 2067.1 2167.12 2064.1 2172.93 2069.34 2178.59 2074.77 2184.25 2080.2 2181.48 2087.08 2178.63 2093.95 2175.86 2100.86 2180.41 2103.14 2184.93 2105.53 2189.49 2107.92 2193.89 2102.38 2197.39 2095.89 2203.01 2091.41 2210.03 2093 2217.06 2094.75 2223.89 2097.03 2225.72 2103.97 2225.94 2111.19 2226.74 2118.33 2231.79 2118.29 2236.84 2118.33 2241.89 2118.33 2243.37 2111.04 2244.89 2103.78 2246.22 2096.46 2252.98 2094.94 2259.74 2093.23 2266.38 2091.18 2271.25 2096.72 2276.11 2102.38 2281 2107.96 2285.18 2105.46 2289.36 2102.95 2293.61 2100.52 2290.95 2093.76 2288.26 2087.04 2285.64 2080.35 2290.88 2074.96 2296.08 2069.53 2301.21 2064.06 2307.81 2066.72 2314.38 2069.46 2320.91 2072.42 2323.72 2067.75 2326.57 2063.08 2329.42 2058.44 2323.42 2054.11 2317.53 2049.71 2311.72 2045.23 2313.93 2037.97 2316.13 2030.76 2318.33 2023.54 2325.7 2022.71 2332.99 2021.46 2340.24 2019.86 2340.24 2014.51 2340.24 2009.15 2340.24 2003.84 2333.14 2003.46 2326.04 2003.08 2318.98 2002.66 2316.39 1995.18 2314.04 1987.62 2311.76 1980.06 2317.53 1975.39 2323.27 1970.65 2329 1965.9 2326.31 1961.68 2323.69 1957.43 2320.69 1953.48 2313.93 1955.04 2307.74 1958.38 2301.36 1961.04 2296.42 1955.95 2291.41 1950.9 2286.28 1946 2288.26 1938.79 2290.8 1931.8 2293.42 1924.81 2289.09 1922.15 2284.8 1919.42 2280.59 1916.72 2276.07 1922.68 2271.47 1928.53 2266.76 1934.34 2259.82 1932.06 2252.83 1930.01 2245.96 1927.58 2244.7 1920.79 2243.3 1913.99 2241.97 1907.19 2236.77 1907.19 2231.6 1907.19 2226.4 1907.19Z" fill="#121414" fill-rule="evenodd"/><path d="M2276.88 898.827C2280.49 892.057 2288.51 894.567 2294.75 894.035 2313.8 894.263 2332.84 893.769 2351.89 894.491 2354.9 905.102 2354.36 916.207 2354.29 927.16 2363.15 930.621 2371.93 934.386 2380.6 938.417 2387.86 930.43 2395.62 922.901 2404.25 916.435 2421.66 932.066 2438.24 948.761 2454.17 965.875 2456.37 978.311 2441.47 984.206 2435.04 992.915 2439.15 1001.66 2442.72 1010.64 2446.11 1019.69 2456.52 1019.61 2466.94 1019.57 2477.36 1019.8 2479.76 1044.79 2479.22 1070.04 2477.7 1095.07 2467.32 1095.07 2456.98 1095.07 2446.64 1095.07 2442.91 1104.65 2439.07 1114.2 2434.97 1123.63 2442.23 1131.69 2453.48 1137.85 2455.46 1149.41 2439.53 1165.19 2422.76 1180.29 2408.2 1197.29 2407.06 1205.96 2407.36 1214.86 2405.01 1223.38 2392.69 1223.76 2380.37 1223.65 2368.05 1223.76 2366.76 1230.84 2365.16 1237.91 2362.88 1244.79 2373.07 1251.26 2384.29 1256.2 2393.45 1264.15 2393.52 1269.67 2389.95 1274.34 2387.52 1279.06 2377.67 1295.22 2368.32 1311.65 2358.93 1328.08 2346.53 1324.85 2335.92 1317.43 2325.16 1310.85 2319.8 1316.21 2314.44 1321.58 2309.08 1326.94 2315.66 1337.74 2323.49 1348.16 2326.23 1360.79 2305.2 1372.58 2284.41 1384.75 2263.42 1396.65 2255.47 1386.95 2249.65 1375.77 2244.07 1364.55 2236.77 1366.61 2229.43 1368.39 2221.98 1369.8 2221.98 1382.01 2222.05 1394.25 2221.79 1406.5 2196.81 1407.3 2171.83 1406.96 2146.89 1406.73 2146.51 1394.52 2146.58 1382.35 2146.39 1370.18 2139.05 1368.62 2131.75 1366.91 2124.53 1364.82 2118.6 1375.2 2112.67 1385.58 2106.62 1395.93 2083.85 1387.75 2064.61 1372.16 2043.01 1361.43 2043.96 1348.27 2052.94 1338.01 2058.79 1326.79 2053.54 1321.54 2048.26 1316.25 2043.05 1311 2031.87 1316.9 2021.76 1325.91 2008.79 1327.4 1998.03 1305.57 1982.07 1286.21 1974.42 1263.05 1984.39 1256.77 1994.61 1250.88 2005.03 1245.4 2003.24 1238.06 2001.42 1230.72 1999.25 1223.5 1987.47 1223.76 1975.64 1223.76 1963.85 1223.72 1959.41 1199.12 1961 1173.41 1962.98 1148.54 1974.96 1148.19 1986.89 1148.31 1998.87 1148.31 2001.04 1141.01 2002.98 1133.63 2005.11 1126.29 1994.84 1120.43 1984.69 1114.39 1974.5 1108.45 1978.83 1090.84 1991.19 1076.81 1999.14 1060.8 2003.24 1054.87 2005.37 1046.12 2012.79 1043.46 2023.28 1048.36 2033.01 1054.75 2043.05 1060.57 2048.15 1055.44 2053.51 1050.57 2058.18 1045.06 2053.2 1033.65 2045.83 1023.38 2041.26 1011.74 2062.78 999.456 2083.12 984.054 2106.74 976.068 2113.2 986.032 2119.02 996.376 2124.68 1006.83 2132.06 1004.67 2139.51 1002.69 2146.89 1000.52 2146.85 988.466 2146.81 976.41 2146.92 964.392 2157.57 962.148 2168.48 962.528 2179.28 962.605 2194.94 947.088 2210 930.925 2226.39 916.207 2234.86 923.053 2242.58 930.735 2250.23 938.455 2258.78 934.196 2267.68 930.583 2276.57 927.122 2276.57 917.69 2276 908.221 2276.88 898.827M2290.37 908.068C2290.37 917.424 2290.37 926.817 2290.45 936.173 2276.5 942.638 2261.75 947.164 2248.4 954.884 2240.61 948.495 2233.46 941.422 2226.39 934.309 2216.54 944.692 2205.17 953.781 2196.81 965.495 2203.95 961.502 2215.66 959.676 2221.56 966.788 2222.43 978.083 2221.75 989.454 2221.79 1000.79 2229.09 1002.8 2236.46 1004.7 2243.8 1006.64 2249.24 996.262 2255.28 986.184 2261.33 976.182 2274.44 979.186 2285.36 987.401 2296.99 993.752 2306.5 999.532 2316.95 1004.02 2325.43 1011.32 2324.48 1024.06 2314.59 1033.65 2309.27 1044.75 2314.78 1049.77 2320.11 1054.98 2325.2 1060.46 2335.62 1054.56 2345.96 1048.52 2356.38 1042.55 2369.12 1057.03 2376.3 1075.25 2386.83 1091.22 2389.34 1096.7 2395.43 1102.25 2392.42 1108.76 2383.11 1115.37 2372.84 1120.55 2363.03 1126.4 2365.09 1133.55 2366.8 1140.82 2368.39 1148.12 2380.71 1148.31 2393.03 1148.27 2405.35 1148.69 2407.74 1158.58 2407.55 1168.77 2407.33 1178.89 2417.9 1168.08 2428.73 1157.51 2439.23 1146.64 2432.91 1139.71 2423.41 1134.35 2420.22 1125.34 2423.98 1111.08 2431.89 1098.15 2436.07 1083.92 2446.03 1083.66 2455.99 1083.62 2465.95 1083.62 2465.95 1066.96 2465.95 1050.3 2465.95 1033.61 2456.07 1033.57 2446.22 1033.57 2436.37 1033.23 2432.12 1021.44 2427.86 1009.65 2422.34 998.353 2414.55 985.081 2432.8 978.501 2439.3 969.64 2427.48 957.851 2415.69 945.947 2403.79 934.234 2396.87 941.155 2390.6 949.028 2382.27 954.314 2369.04 948.077 2355.35 942.943 2341.93 937.086 2339.23 927.959 2341.25 917.652 2340.71 908.107 2323.91 908.068 2307.14 908.068 2290.37 908.068M2160.27 976.866C2160.04 987.629 2161.07 998.505 2159.47 1009.19 2148.44 1017.18 2133.2 1017.03 2120.54 1022.05 2110.99 1014.78 2107.42 1002.12 2100.77 992.382 2086.7 1000.6 2072.78 1009.15 2058.34 1016.76 2064.04 1026.84 2069.78 1036.84 2075.6 1046.84 2066.05 1057.61 2055.9 1067.95 2044.99 1077.31 2035.1 1071.37 2025.07 1065.67 2015.03 1060 2007.77 1074.53 1999.21 1088.33 1990.85 1102.25 2000.85 1108.07 2010.92 1113.74 2020.92 1119.6 2017.88 1132.3 2013.66 1144.73 2011.76 1157.7 2009.78 1158.81 2005.87 1161.01 2003.93 1162.11 1994.35 1162.04 1984.8 1162.04 1975.26 1162.08 1975.26 1177.97 1975.26 1193.91 1975.26 1209.8 1986.36 1209.92 1997.54 1209.23 2008.6 1210.38 2014.92 1222.54 2017.73 1237.3 2020.28 1250.84 2011.61 1258.37 2001.11 1263.28 1991.27 1269.02 1999.25 1283.24 2007.81 1297.12 2015.22 1311.61 2025.64 1305.45 2035.83 1298.3 2047.8 1295.49 2056.21 1305.15 2066.66 1313.06 2074.27 1323.36 2072.29 1334.66 2063.85 1343.75 2058.91 1353.94 2072.55 1362.76 2086.89 1370.41 2100.96 1378.47 2107.5 1369.34 2110.77 1356.22 2120.2 1350.1 2133.16 1352.27 2146.77 1355.27 2158.67 1360.71 2162.4 1371.63 2159.47 1384.02 2160.34 1395.51 2176.24 1395.51 2192.17 1395.51 2208.06 1395.51 2209.35 1384.18 2205.13 1370.83 2210.3 1360.67 2222.81 1354.63 2237.15 1351.89 2250.91 1349.57 2256.27 1359.3 2261.97 1368.89 2267.75 1378.43 2281.86 1370.45 2295.85 1362.35 2309.92 1354.25 2305.09 1343.86 2295.81 1334.81 2294.67 1323.17 2302.05 1313.13 2312.5 1305.6 2320.3 1295.79 2332.54 1297.5 2342.2 1305.72 2352.84 1311.31 2360.86 1297.16 2369.04 1283.09 2376.99 1268.94 2367.06 1263.12 2357.18 1257.27 2347.37 1251.3 2352.58 1237.95 2351.97 1221.52 2360.94 1210.15 2371.85 1209.39 2382.8 1209.96 2393.71 1209.88 2393.71 1193.91 2393.71 1177.93 2393.71 1161.96 2382.23 1161.12 2369.8 1164.09 2358.89 1160.29 2353.72 1148.23 2351.13 1134.77 2348.17 1121.88 2354.97 1112.48 2367.75 1109.06 2377.21 1102.56 2369.34 1088.26 2360.71 1074.38 2352.65 1060.19 2342.35 1065.06 2333.15 1074.22 2321.78 1075.71 2311.89 1068.14 2303.68 1058.25 2294.71 1049.58 2295.13 1037.11 2304.59 1027.45 2309.84 1016.68 2295.28 1009.27 2281.74 1000.1 2267.11 992.801 2261.06 1002.42 2256.46 1013.03 2249.12 1021.78 2235.85 1017.98 2220.84 1016.95 2208.86 1010.14 2207.45 999.114 2208.29 987.933 2208.17 976.866 2192.21 976.866 2176.24 976.904 2160.27 976.866Z" fill="#101212" fill-rule="evenodd"/><path d="M2945.85 1235.17C2978.01 1218.5 3014.28 1210.31 3050.51 1212.29 3136.99 1209.63 3218.72 1272.71 3242.78 1355.14 3253.85 1394.88 3253.66 1437.52 3242.71 1477.27 3224.96 1535.67 3179.07 1584.9 3122.43 1607.17 3087.72 1621.18 3049.63 1621.41 3012.91 1618.55 2983.91 1614.36 2955.4 1604.54 2931.11 1587.94 2901 1567.19 2875.57 1539.29 2859.11 1506.51 2838.5 1464.51 2834.28 1415.33 2843.94 1369.83 2855.34 1312.53 2895.45 1263.31 2945.85 1235.17M3039.71 1220.51C3020.06 1222.57 3000.14 1223.67 2981.28 1229.84 2915.02 1252.23 2861.92 1312.19 2850.97 1381.82 2845.27 1425.49 2849.6 1471.94 2871.76 1510.81 2890.28 1542.9 2917.42 1570.35 2949.92 1588.32 2987.59 1608.23 3031.84 1615.43 3073.92 1609.22 3135.24 1602.83 3189.79 1562.55 3219.48 1509.25 3242.44 1466.88 3248.03 1415.86 3237.04 1369.15 3226.82 1324.14 3198.42 1284.93 3161.89 1257.48 3127.37 1230.34 3082.82 1220.13 3039.71 1220.51Z" fill="#101212" fill-rule="evenodd"/><path d="M1279 1319.14C1281.91 1310.94 1289.23 1305.34 1295.65 1300 1307.92 1300.99 1317.32 1310.98 1328.27 1315.97 1329.97 1321.65 1331.71 1327.37 1333.52 1333.09 1349.87 1349.18 1365.92 1365.61 1382 1382 1380.19 1383.68 1376.56 1387.07 1374.75 1388.75 1357.99 1371.21 1339.52 1355.13 1323.97 1336.52 1322.16 1322.61 1309.85 1316.85 1299.01 1311.02 1295.84 1314.3 1292.71 1317.57 1289.61 1320.89 1293.42 1327.6 1297.05 1334.43 1300.56 1341.33 1307.66 1343.69 1315.74 1345.18 1320.95 1351.16 1335.97 1366.79 1351.64 1381.77 1366.9 1397.18 1365.09 1398.89 1361.46 1402.32 1359.61 1404 1344.89 1389.51 1330.54 1374.57 1315.89 1360.01 1310.68 1353.64 1302.03 1353.68 1295.12 1350.48 1288.02 1341.17 1281.64 1330.65 1279 1319.14Z" fill="#101212" fill-rule="evenodd"/><path d="M2981.33 1346C3023.45 1346.27 3065.57 1345.7 3107.7 1346.3 3108.19 1371.48 3107.54 1396.69 3108 1421.9 3097.46 1426.71 3085.59 1424.36 3074.4 1424.82 3044.3 1424.25 3014.13 1425.73 2984.07 1424.21 2978.82 1419.89 2980.46 1412.69 2980.08 1406.81 2980.57 1386.53 2978.97 1366.17 2981.33 1346M3006.1 1356.12C3018.96 1363.17 3031.52 1370.83 3044.15 1378.38 3056.82 1371.21 3069.27 1363.55 3081.9 1356.31 3056.63 1356.65 3031.33 1356.99 3006.1 1356.12M2990.73 1359.57C2990.77 1376.37 2990.62 1393.16 2990.88 1409.96 3005 1401.54 3019.12 1393.16 3033.23 1384.82 3019.34 1375.91 3004.89 1368.03 2990.73 1359.57M3055.53 1384.9C3069.3 1393.31 3083.38 1401.2 3097.23 1409.5 3097.31 1392.93 3097.23 1376.37 3097.27 1359.8 3083.42 1368.25 3069.19 1376.1 3055.53 1384.9M3005.23 1414.09C3031.48 1414.47 3057.77 1414.28 3084.07 1414.24 3070.94 1406.62 3057.7 1399.23 3044.99 1390.89 3031.52 1398.24 3018.35 1406.13 3005.23 1414.09Z" fill="#181A1A" fill-rule="evenodd"/><path d="M2984.93 1439.16C2980.86 1437.35 2977.42 1432.19 2982.65 1429.55 2990.72 1428.57 2998.86 1429.14 3007 1429.44 3006.81 1442.21 2993.74 1440.33 2984.93 1439.16Z" fill="#181A1A" fill-rule="evenodd"/><path d="M3013.84 1429.58C3045.52 1428.96 3077.32 1428.53 3109 1429.96 3107.21 1433.76 3106.95 1440.76 3101.05 1439.75 3073.25 1439.83 3045.41 1440.45 3017.68 1439.37 3011.75 1438.59 3010.45 1435.34 3013.84 1429.58Z" fill="#181A1A" fill-rule="evenodd"/><path d="M2978 1447.46C2987.94 1442.58 2999.13 1444.38 3009.79 1444.11 3041.44 1444.64 3073.16 1443.31 3104.8 1444.68 3111.89 1443.92 3105.1 1452.15 3104.3 1454.89 3067.69 1454.51 3031.08 1454.78 2994.47 1454.78 2987.71 1455.92 2982.17 1452.49 2978 1447.46Z" fill="#181A1A" fill-rule="evenodd"/><path d="M2986.95 1469.8C2979.55 1470.36 2976.36 1458.12 2986.04 1460.38 3027 1460.17 3068.04 1459.43 3109 1460.87 3107.29 1464.82 3106.84 1470.71 3100.61 1469.73 3062.72 1470.15 3024.84 1470.01 2986.95 1469.8Z" fill="#181A1A" fill-rule="evenodd"/><path d="M2036.24 448.533C2079.95 437.931 2124.27 428.964 2169.28 426.152 2198.39 425.734 2227.51 426.798 2256.66 426 2312.08 427.14 2366.29 440.325 2419.92 453.131 2457.32 462.669 2491.91 480.452 2528.86 491.358 2535.55 552.345 2573.41 607.557 2624.76 640.122 2665.66 666.873 2716.29 673.485 2764.14 668.393 2777.52 686.328 2792.42 703.086 2805.5 721.249 2884.03 827.646 2931.69 956.081 2944.47 1087.52 2944.35 1117.54 2950.51 1147.48 2946.82 1177.46 2944.77 1196.84 2945.23 1216.33 2945.57 1235.75 2895.17 1263.83 2855.06 1312.96 2843.66 1370.15 2834.01 1415.56 2838.23 1464.66 2858.83 1506.57 2822.91 1564.36 2783.8 1620.75 2734.84 1668.37 2639.05 1766.44 2514.19 1834.34 2380.73 1864.78 2342.42 1826.29 2288.29 1803.34 2233.74 1805.65 2176.8 1803.98 2120.93 1830.05 2082.96 1872 2050.87 1862.23 2017.73 1856.38 1986.22 1844.83 1813.04 1789.85 1666.51 1662.78 1578.33 1505.01 1600.41 1458.8 1603.07 1404.39 1589.16 1355.37 1574.3 1304.83 1537.31 1262.08 1491.81 1236.25 1493.6 1201.78 1485.09 1167.58 1489.08 1133.15 1491.28 1113.05 1491.89 1092.84 1493.68 1072.74 1503.33 986.442 1529.14 902.161 1567.53 824.378 1596.27 766.392 1634.43 713.802 1676.17 664.631 1729.65 676.183 1788.72 669.913 1835.24 639.628 1888.65 605.429 1927.04 546.57 1931.18 482.656 1965.92 470.572 1999.86 455.449 2036.24 448.533M2104.66 541.934C1999.33 562.529 1898.76 609.115 1816.61 678.311 1799.78 695.676 1779.44 709.432 1764.5 728.621 1686.66 809.672 1633.97 913.637 1609.88 1023.11 1600.14 1065.4 1597.6 1108.91 1595.05 1152.12 1597.45 1196.57 1599.76 1241.37 1609.76 1284.96 1641.96 1436.27 1733.26 1573.94 1859.83 1662.82 1870.02 1670 1879.6 1680.07 1892.86 1680.64 1892.64 1687.4 1903.62 1692.99 1909.74 1691.01L1911.45 1695.08C1918.9 1700.25 1926.69 1705.34 1935.74 1707.24 1944.1 1711.8 1952.62 1716.32 1961.89 1718.71L1959.31 1720.31C1962.01 1720.92 1967.4 1722.13 1970.1 1722.74 1985.91 1731.14 2003.09 1736.35 2019.97 1742.2 2081.05 1764.73 2146.4 1772.1 2211.05 1774.99 2297.56 1774.27 2385.1 1760.06 2464.05 1723.62 2470.74 1722.02 2477.32 1719.85 2483.85 1717.73L2482.83 1715.79C2495.98 1710.35 2508.98 1704.31 2520.65 1696.07 2541.14 1688.24 2559.15 1675.28 2576.83 1662.55 2725.41 1558.47 2824.92 1386.38 2838.11 1205.2 2846.66 1100.51 2829.1 993.396 2784.9 897.791 2745.97 808.114 2683.07 729.837 2607.54 668.279 2494.91 579.134 2351.16 527.912 2207.06 532.776 2172.62 530.838 2138.64 537.488 2104.66 541.934Z" fill="#BA75CD" fill-rule="evenodd"/><path d="M2105.54 541.506C2139.52 537.059 2173.5 530.407 2207.93 532.346 2352.01 527.48 2495.75 578.717 2608.36 667.888 2683.88 729.463 2746.78 807.763 2785.69 897.465 2829.9 993.097 2847.45 1100.25 2838.9 1204.96 2825.71 1386.19 2726.22 1558.34 2577.65 1662.45 2559.98 1675.18 2541.96 1688.14 2521.48 1695.97 2507.91 1700.49 2494.84 1706.31 2482.22 1712.96L2483.66 1715.7 2484.69 1717.63C2478.15 1719.76 2471.58 1721.93 2464.89 1723.53 2451.62 1726.23 2438.74 1730.48 2426.16 1735.39 2361.63 1759.94 2292.27 1768.87 2223.59 1771 2158.98 1770.2 2093.91 1762.79 2032.31 1742.53 2011.82 1736.03 1992.21 1726.68 1971 1722.65 1968.3 1722.04 1962.91 1720.83 1960.21 1720.22L1962.79 1718.62 1966.06 1716.65C1956.48 1712.77 1946.64 1709.65 1936.65 1707.14 1927.6 1705.24 1919.81 1700.15 1912.36 1694.98L1910.65 1690.91C1908.83 1683.2 1900.65 1680.99 1893.78 1680.54 1880.51 1679.97 1870.93 1669.9 1860.75 1662.71 1734.19 1573.81 1642.9 1436.1 1610.71 1284.74 1600.71 1241.15 1598.39 1196.33 1596 1151.86 1598.55 1108.65 1601.09 1065.13 1610.82 1022.82 1634.92 913.315 1687.59 809.321 1765.43 728.247 1780.37 709.052 1800.7 695.293 1817.54 677.922 1899.67 608.707 2000.23 562.107 2105.54 541.506M2164.22 641.395C2024.55 656.067 1892.48 730.679 1808.11 842.998 1758.74 907.652 1726.06 984.659 1711.77 1064.67 1684.82 1217.54 1731.87 1381.52 1837.15 1495.77 1930.26 1600.11 2067.96 1663.02 2207.78 1664.84 2355.09 1669.32 2503.2 1605.96 2600.95 1495.55 2689.24 1399.15 2738.19 1267.53 2733.36 1136.81 2730.93 1029.47 2692.31 923.654 2626.98 838.665 2563.44 757.324 2475.57 694.418 2376.75 663.783 2308.8 639.875 2235.56 635.085 2164.22 641.395Z" fill="#E2C4EA" fill-rule="evenodd"/><path d="M2708 554.005C2724.14 548.565 2742.06 552.389 2759 551.334L2758.62 554.862C2741.76 554.532 2724.78 555.818 2708 554.005Z" fill="#F4F4F4" fill-rule="evenodd"/><path d="M2708.82 570.838C2704.28 571.664 2700.51 569.186 2697 566.788 2721.3 565.333 2745.67 566.394 2770 566.119L2770 570.799C2749.6 570.72 2729.19 570.956 2708.82 570.838Z" fill="#F8F8F8" fill-rule="evenodd"/><path d="M2980.66 1476.12C3023.34 1474.48 3066.28 1474.82 3109 1476 3107.6 1480.17 3106.57 1486.58 3100.66 1485.62 3064.05 1486.12 3027.4 1485.66 2990.78 1485.85 2985.29 1486.88 2977.71 1482.38 2980.66 1476.12Z" fill="#171919" fill-rule="evenodd"/><path d="M2083.76 1871.57C2121.71 1829.58 2177.55 1803.49 2234.46 1805.16 2288.97 1802.84 2343.06 1825.81 2381.35 1864.34 2407.11 1890.17 2426.71 1922.34 2435.56 1957.91 2448.44 2010.16 2442.32 2068.05 2414.25 2114.49 2386.79 2160.36 2342.26 2197.1 2289.8 2209.81 2254.97 2218.02 2217.78 2218.06 2182.94 2209.96 2132 2197.98 2088.54 2163.18 2060.77 2119.44 2031.87 2074.67 2023.81 2018.11 2034.56 1966.31 2041.74 1930.9 2059.37 1898.08 2083.76 1871.57M2235.44 1813.57C2226.25 1813.95 2217.09 1815.2 2207.94 1816.04 2150.65 1822.35 2099.6 1858.22 2069.02 1906.37 2041.55 1947.71 2034.56 1999.97 2042.96 2048.24 2051.77 2099.05 2083.42 2144.31 2125.47 2173.41 2164.44 2200.79 2213.87 2212.09 2260.93 2205.96 2313.32 2200.11 2362.06 2170.59 2393.43 2128.49 2420.1 2094.07 2433.59 2050.18 2432.49 2006.78 2432.64 1954.9 2409.69 1904.39 2372.39 1868.72 2336.68 1832.39 2285.85 1814.1 2235.44 1813.57Z" fill="#0F1111" fill-rule="evenodd"/><text font-family="Montserrat,Montserrat_MSFontService,sans-serif" font-weight="700" font-size="64" transform="matrix(1 0 0 1 458.742 341)">1.<tspan font-size="64" x="123.75" y="0">Requirements Analysis</tspan><tspan fill="#7F7F7F" font-family="Calibri,Calibri_MSFontService,sans-serif" font-weight="400" font-size="64" x="-132.917" y="76">In</tspan><tspan fill="#7F7F7F" font-family="Calibri,Calibri_MSFontService,sans-serif" font-weight="400" font-size="64" x="-83.0729" y="76">-</tspan><tspan fill="#7F7F7F" font-family="Calibri,Calibri_MSFontService,sans-serif" font-weight="400" font-size="64" x="-63.5938" y="76">depth </tspan><tspan fill="#7F7F7F" font-family="Calibri,Calibri_MSFontService,sans-serif" font-weight="400" font-size="64" x="105.99" y="76">project requirements analysis, </tspan><tspan fill="#7F7F7F" font-family="Calibri,Calibri_MSFontService,sans-serif" font-weight="400" font-size="64" x="-296.771" y="153">suggesting the best architectural solution and </tspan><tspan fill="#7F7F7F" font-family="Calibri,Calibri_MSFontService,sans-serif" font-weight="400" font-size="64" x="-311.094" y="230">the roadmap for the entire project realization.</tspan><tspan font-size="64" x="-328.263" y="994">5</tspan>. <tspan font-size="64" x="-254.93" y="994">Deployment and </tspan><tspan font-size="64" x="327.727" y="994">Support</tspan><tspan fill="#7F7F7F" font-family="Calibri,Calibri_MSFontService,sans-serif" font-weight="400" font-size="64" x="-614.148" y="1070">The </tspan><tspan fill="#7F7F7F" font-family="Calibri,Calibri_MSFontService,sans-serif" font-weight="400" font-size="64" x="-502.43" y="1070">actual product release phase, deployment </tspan><tspan fill="#7F7F7F" font-family="Calibri,Calibri_MSFontService,sans-serif" font-weight="400" font-size="64" x="-562.586" y="1147">on the market and after release support and </tspan><tspan fill="#7F7F7F" font-family="Calibri,Calibri_MSFontService,sans-serif" font-weight="400" font-size="64" x="240.07" y="1224">maintenance.</tspan><tspan font-family="Arial,Arial_MSFontService,sans-serif" font-size="64" x="2614.14" y="-16">2. UX/UI Design</tspan><tspan fill="#7F7F7F" font-family="Arial,Arial_MSFontService,sans-serif" font-weight="400" font-size="64" x="2614.14" y="61">Turning the software specifications into a </tspan><tspan fill="#7F7F7F" font-family="Arial,Arial_MSFontService,sans-serif" font-weight="400" font-size="64" x="2614.14" y="138">design plan, preparing design mockups </tspan><tspan fill="#7F7F7F" font-family="Arial,Arial_MSFontService,sans-serif" font-weight="400" font-size="64" x="2614.14" y="215">and creating project prototype.</tspan><tspan font-family="Arial,Arial_MSFontService,sans-serif" font-size="64" x="2909.12" y="984">3. Software Development</tspan><tspan fill="#7F7F7F" font-family="Arial,Arial_MSFontService,sans-serif" font-weight="400" font-size="64" x="2909.12" y="1061">Both front</tspan><tspan fill="#7F7F7F" font-family="Arial,Arial_MSFontService,sans-serif" font-weight="400" font-size="64" x="3186.42" y="1061">-</tspan><tspan fill="#7F7F7F" font-family="Arial,Arial_MSFontService,sans-serif" font-weight="400" font-size="64" x="3207.61" y="1061">end and back</tspan><tspan fill="#7F7F7F" font-family="Arial,Arial_MSFontService,sans-serif" font-weight="400" font-size="64" x="3591.47" y="1061">-</tspan><tspan fill="#7F7F7F" font-family="Arial,Arial_MSFontService,sans-serif" font-weight="400" font-size="64" x="3612.67" y="1061">end </tspan><tspan fill="#7F7F7F" font-family="Arial,Arial_MSFontService,sans-serif" font-weight="400" font-size="64" x="2909.12" y="1138">development, generating the </tspan><tspan fill="#7F7F7F" font-family="Arial,Arial_MSFontService,sans-serif" font-weight="400" font-size="64" x="2909.12" y="1215">programming code on the previously </tspan><tspan fill="#7F7F7F" font-family="Arial,Arial_MSFontService,sans-serif" font-weight="400" font-size="64" x="2909.12" y="1292">chosen language.</tspan><tspan font-family="Arial,Arial_MSFontService,sans-serif" font-size="64" x="1597.42" y="2012">4. Testing</tspan><tspan fill="#7F7F7F" font-family="Arial,Arial_MSFontService,sans-serif" font-weight="400" font-size="64" x="1337.32" y="2089">Running QA testing on every </tspan><tspan fill="#7F7F7F" font-family="Arial,Arial_MSFontService,sans-serif" font-weight="400" font-size="64" x="1207.84" y="2166">development stage, detecting defects, </tspan><tspan fill="#7F7F7F" font-family="Arial,Arial_MSFontService,sans-serif" font-weight="400" font-size="64" x="1273.73" y="2243">reporting, bug tracking, fixing and </tspan><tspan fill="#7F7F7F" font-family="Arial,Arial_MSFontService,sans-serif" font-weight="400" font-size="64" x="1614.89" y="2320">retesting.</tspan></text></g></svg>